G04 DipTrace 3.3.1.3*
G04 BottomSilk.gbr*
%MOIN*%
G04 #@! TF.FileFunction,Legend,Bot*
G04 #@! TF.Part,Single*
%ADD10C,0.009843*%
%ADD35C,0.023631*%
%ADD61C,0.005906*%
%ADD159C,0.006176*%
%FSLAX26Y26*%
G04*
G70*
G90*
G75*
G01*
G04 BotSilk*
%LPD*%
X1717681Y1502262D2*
D10*
X1768823D1*
X1551978Y1411946D2*
Y1360804D1*
X1621748Y673475D2*
Y724617D1*
X1551773Y1521211D2*
Y1470070D1*
Y1629786D2*
Y1578644D1*
X1621748Y593150D2*
Y644291D1*
X1621543Y512824D2*
Y563966D1*
X2020832Y722776D2*
Y773917D1*
X1934177Y1466871D2*
X1883035D1*
X2021343Y634795D2*
Y685937D1*
X1721577Y647933D2*
Y596791D1*
X1787025Y1311449D2*
X1838167D1*
X2020832Y1502303D2*
Y1553445D1*
X1863615Y856814D2*
Y805672D1*
X1439058Y1302722D2*
X1387916D1*
X1674374Y659743D2*
X1725516D1*
X1638941Y494388D2*
X1690083D1*
X1392503Y1411946D2*
Y1360804D1*
X1394167Y838917D2*
X1445308D1*
X1370504Y799382D2*
Y748240D1*
X1001146Y864467D2*
X1052287D1*
X1001146Y584940D2*
X1052287D1*
Y1588919D2*
X1001146D1*
X1052287Y1313328D2*
X1001146D1*
X670438Y659783D2*
Y710925D1*
X1288526Y1852679D2*
X1115311D1*
X1288526Y1738505D2*
X1115311D1*
D35*
X1327896Y1795586D3*
X1734696Y552242D2*
D10*
X2260942D1*
X1735405Y398192D2*
Y552488D1*
X1734696Y395984D2*
X2260942D1*
Y398192D2*
Y552488D1*
X1247179Y997594D2*
X1156648D1*
X1247179Y800742D2*
X1156648D1*
X1247179Y677481D2*
X1156648D1*
X1247179Y480629D2*
X1156648D1*
X1247179Y1637821D2*
X1156648D1*
X1247179Y1440969D2*
X1156648D1*
X1247179Y1317708D2*
X1156648D1*
X1247179Y1120856D2*
X1156648D1*
X2172386Y624528D2*
Y837028D1*
X2109888Y624528D2*
X2172386D1*
X2109888D2*
Y837028D1*
X2172386D1*
X1493540Y1201228D2*
D61*
X1500399D1*
X1493540Y951213D2*
X1503648D1*
X1995466D2*
X1985357D1*
X1995466Y1201228D2*
X1985357D1*
X1493540D2*
Y951213D1*
X1995466Y1201228D2*
Y951213D1*
X1500399Y1201228D2*
Y1243535D1*
X2218488Y1858932D2*
D159*
X2220389Y1862735D1*
X2224236Y1866582D1*
X2228038Y1868483D1*
X2235687D1*
X2239534Y1866582D1*
X2243337Y1862735D1*
X2245282Y1858932D1*
X2247184Y1853184D1*
Y1843590D1*
X2245282Y1837886D1*
X2243337Y1834039D1*
X2239534Y1830236D1*
X2235687Y1828291D1*
X2228038D1*
X2224236Y1830236D1*
X2220389Y1834039D1*
X2218488Y1837886D1*
Y1843590D1*
X2228038D1*
X2179342Y1868483D2*
Y1828291D1*
X2206136Y1868483D1*
Y1828291D1*
X2166990Y1868483D2*
Y1828291D1*
X2153593D1*
X2147845Y1830236D1*
X2143998Y1834039D1*
X2142097Y1837886D1*
X2140195Y1843590D1*
Y1853184D1*
X2142097Y1858932D1*
X2143998Y1862735D1*
X2147845Y1866582D1*
X2153593Y1868483D1*
X2166990D1*
X2235372Y1479414D2*
X2218172D1*
X2212424Y1481359D1*
X2210478Y1483260D1*
X2208577Y1487063D1*
Y1490910D1*
X2210478Y1494712D1*
X2212424Y1496658D1*
X2218172Y1498559D1*
X2235372D1*
Y1458367D1*
X2221974Y1479414D2*
X2208577Y1458367D1*
X2169431Y1492811D2*
X2173233Y1496658D1*
X2178981Y1498559D1*
X2186631D1*
X2192379Y1496658D1*
X2196225Y1492811D1*
Y1489008D1*
X2194280Y1485162D1*
X2192379Y1483260D1*
X2188576Y1481359D1*
X2177080Y1477512D1*
X2173233Y1475611D1*
X2171332Y1473666D1*
X2169431Y1469863D1*
Y1464115D1*
X2173233Y1460313D1*
X2178981Y1458367D1*
X2186631D1*
X2192379Y1460313D1*
X2196225Y1464115D1*
X2143682Y1498559D2*
Y1458367D1*
X2157079Y1498559D2*
X2130285D1*
X2231526Y1785762D2*
X2210523D1*
X2221975Y1770463D1*
X2216227D1*
X2212425Y1768562D1*
X2210523Y1766660D1*
X2208578Y1760912D1*
Y1757110D1*
X2210523Y1751362D1*
X2214326Y1747515D1*
X2220074Y1745614D1*
X2225822D1*
X2231526Y1747515D1*
X2233427Y1749461D1*
X2235372Y1753263D1*
X2194325Y1749461D2*
X2196226Y1747515D1*
X2194325Y1745614D1*
X2192380Y1747515D1*
X2194325Y1749461D1*
X2176181Y1785762D2*
X2155179D1*
X2166631Y1770463D1*
X2160883D1*
X2157080Y1768562D1*
X2155179Y1766660D1*
X2153234Y1760912D1*
Y1757110D1*
X2155179Y1751362D1*
X2158982Y1747515D1*
X2164730Y1745614D1*
X2170478D1*
X2176181Y1747515D1*
X2178083Y1749461D1*
X2180028Y1753263D1*
X2235373Y1396042D2*
Y1355850D1*
X2221975D1*
X2216227Y1357795D1*
X2212380Y1361598D1*
X2210479Y1365445D1*
X2208578Y1371149D1*
Y1380743D1*
X2210479Y1386491D1*
X2212380Y1390294D1*
X2216227Y1394141D1*
X2221975Y1396042D1*
X2235373D1*
X2196226D2*
X2186632Y1355850D1*
X2177081Y1396042D1*
X2167531Y1355850D1*
X2157936Y1396042D1*
X2145584D2*
Y1355850D1*
X2122636D1*
X2225912Y1691318D2*
Y1651126D1*
X2239309Y1691318D2*
X2212515D1*
X2200163Y1677920D2*
X2179117Y1651126D1*
Y1677920D2*
X2200163Y1651126D1*
X2231435Y1573747D2*
X2214236D1*
X2208488Y1575692D1*
X2206542Y1577594D1*
X2204641Y1581396D1*
Y1585243D1*
X2206542Y1589046D1*
X2208488Y1590991D1*
X2214236Y1592892D1*
X2231435D1*
Y1552700D1*
X2218038Y1573747D2*
X2204641Y1552700D1*
X2192289Y1579495D2*
X2171243Y1552700D1*
Y1579495D2*
X2192289Y1552700D1*
X478792Y1474782D2*
Y1434590D1*
X455844D1*
X426293Y1471886D2*
Y1437442D1*
X443492Y1454642D2*
X409048D1*
X478792Y1337142D2*
Y1296950D1*
X455844D1*
X443492Y1317024D2*
X421384D1*
X466456Y1180046D2*
X449256D1*
X443508Y1181992D1*
X441563Y1183893D1*
X439661Y1187696D1*
Y1191542D1*
X441563Y1195345D1*
X443508Y1197290D1*
X449256Y1199192D1*
X466456D1*
Y1159000D1*
X453059Y1180046D2*
X439661Y1159000D1*
X427310Y1179073D2*
X405202D1*
X491128Y1042251D2*
X473928D1*
X468180Y1044196D1*
X466235Y1046098D1*
X464333Y1049900D1*
Y1053747D1*
X466235Y1057550D1*
X468180Y1059495D1*
X473928Y1061396D1*
X491128D1*
Y1021204D1*
X477731Y1042251D2*
X464333Y1021204D1*
X434782Y1058500D2*
Y1024056D1*
X451982Y1041256D2*
X417538D1*
X1694009Y1822280D2*
Y1787836D1*
X1711209Y1805036D2*
X1676765D1*
X1608322Y1805058D2*
X1586214D1*
M02*
