G04 DipTrace 3.3.1.3*
G04 BottomMask.gbr*
%MOIN*%
G04 #@! TF.FileFunction,Soldermask,Bot*
G04 #@! TF.Part,Single*
%ADD51C,0.08905*%
%ADD87C,0.047402*%
%ADD93C,0.078898*%
%ADD95C,0.06315*%
%ADD103R,0.342677X0.145827*%
%ADD105R,0.019252X0.047402*%
%ADD109R,0.057244X0.043465*%
%ADD119R,0.071024X0.232441*%
%ADD121O,0.047402X0.059213*%
%ADD123R,0.047402X0.059213*%
%ADD125R,0.059213X0.092677*%
%ADD127R,0.039528X0.055276*%
%ADD129O,0.114331X0.098583*%
%ADD131R,0.114331X0.098583*%
%ADD133C,0.067402*%
%ADD135R,0.067402X0.067402*%
%ADD137R,0.074961X0.074961*%
%ADD139C,0.074961*%
%ADD141O,0.149764X0.086772*%
%ADD143O,0.086772X0.145827*%
%ADD145O,0.145827X0.086772*%
%ADD149R,0.06315X0.090709*%
%ADD153R,0.059213X0.067087*%
%ADD155R,0.067087X0.059213*%
%FSLAX26Y26*%
G04*
G70*
G90*
G75*
G01*
G04 BotMask*
%LPD*%
D87*
X1463724Y1457008D3*
X1633016Y878268D3*
D155*
X1743252Y1543622D3*
Y1618425D3*
D153*
X1566087Y1390079D3*
X1640890D3*
X1580388Y699046D3*
X1505585D3*
X1566087Y1496378D3*
X1640890D3*
X1566087Y1606614D3*
X1640890D3*
X1580388Y618720D3*
X1505585D3*
X1580184Y538395D3*
X1505381D3*
X1979472Y748346D3*
X1904669D3*
D155*
X1908606Y1425512D3*
Y1350709D3*
D153*
X1979983Y660366D3*
X1905180D3*
X1762937Y622362D3*
X1837740D3*
D155*
X1812596Y1352808D3*
Y1427612D3*
D153*
X1979472Y1527874D3*
X1904669D3*
X1904975Y831243D3*
X1979778D3*
D155*
X1413487Y1261362D3*
Y1186559D3*
X1699945Y701102D3*
Y775906D3*
X1664512Y535748D3*
Y610551D3*
D153*
X1408606Y1386142D3*
X1483409D3*
D155*
X1419738Y880277D3*
Y955080D3*
D153*
X1411864Y773811D3*
X1486667D3*
D155*
X1026717Y905827D3*
Y980630D3*
Y626299D3*
Y701102D3*
Y1547559D3*
Y1472756D3*
Y1271969D3*
Y1197165D3*
D153*
X629079Y685354D3*
X554276D3*
D149*
X1278685Y1795591D3*
X1125147D3*
D145*
X806244Y1626299D3*
D143*
X719630Y1756220D3*
D145*
X806244Y1886142D3*
D141*
X514906Y1901890D3*
Y1610551D3*
D139*
X2207819Y1909764D3*
X2081835Y1590866D3*
X1877110Y1712913D3*
X1841677Y1909764D3*
D137*
X2302307Y1862520D3*
D139*
Y1762520D3*
Y1662520D3*
Y1562520D3*
Y1462520D3*
Y1362520D3*
D135*
X1597585Y1721969D3*
D133*
X1696005D3*
D131*
X554276Y1453071D3*
D129*
Y1315276D3*
Y1177480D3*
Y1039685D3*
D127*
X1825929Y547559D3*
X1875142D3*
D125*
X2245220Y457205D3*
X1751126D3*
D127*
X1924354Y547559D3*
X2022780D3*
X1973567D3*
X2121205D3*
X2071992D3*
X2170417D3*
D123*
X911165Y935945D3*
D121*
X961165D3*
X2098764Y1283780D3*
X2148764D3*
D135*
X1597585Y1872362D3*
D51*
X1696005D3*
D121*
X987937Y552874D3*
D123*
X1037937D3*
D119*
X1294433Y899168D3*
X1109394D3*
X1294433Y579055D3*
X1109394D3*
X1294433Y1539395D3*
X1109394D3*
X1294433Y1219282D3*
X1109394D3*
D155*
X1825929Y1543622D3*
Y1618425D3*
D153*
X1979472Y1614488D3*
X1904669D3*
D109*
X2172386Y799528D3*
Y661732D3*
X2109394Y730631D3*
D105*
X1518125Y1223858D3*
X1537810D3*
X1557495D3*
X1577180D3*
X1596865D3*
X1616550D3*
X1636235D3*
X1655920D3*
X1675605D3*
X1695290D3*
X1714975D3*
X1734660D3*
X1754345D3*
X1774030D3*
X1793715D3*
X1813400D3*
X1833085D3*
X1852770D3*
X1872455D3*
X1892140D3*
X1911825D3*
X1931510D3*
X1951196D3*
X1970881D3*
Y928583D3*
X1951196D3*
X1931510D3*
X1911825D3*
X1892140D3*
X1872455D3*
X1852770D3*
X1833085D3*
X1813400D3*
X1793715D3*
X1774030D3*
X1754345D3*
X1734660D3*
X1714975D3*
X1695290D3*
X1675605D3*
X1655920D3*
X1636235D3*
X1616550D3*
X1596865D3*
X1577180D3*
X1557495D3*
X1537810D3*
X1518125D3*
D103*
X1744503Y1076220D3*
D95*
X741283Y586929D3*
Y686929D3*
Y786929D3*
D93*
X638134Y586929D3*
Y786929D3*
G36*
X2003094Y1238504D2*
X2271795D1*
Y1112520D1*
X2215693D1*
Y1077087D1*
X2271795D1*
Y905827D1*
X2003094D1*
D1*
Y1238504D1*
G37*
M02*
