G04 DipTrace 3.3.1.3*
G04 TopMask.gbr*
%MOIN*%
G04 #@! TF.FileFunction,Soldermask,Top*
G04 #@! TF.Part,Single*
%ADD51C,0.08905*%
%ADD87C,0.047402*%
%ADD89R,0.126142X0.204882*%
%ADD91R,0.043465X0.086772*%
%ADD93C,0.078898*%
%ADD95C,0.06315*%
%ADD97R,0.031654X0.051339*%
%ADD99R,0.071024X0.118268*%
%ADD101R,0.06315X0.019843*%
%ADD107R,0.051339X0.031654*%
%ADD111R,0.027717X0.027717*%
%ADD113R,0.04937X0.033622*%
%ADD115R,0.114331X0.053307*%
%ADD117R,0.14189X0.051339*%
%ADD121O,0.047402X0.059213*%
%ADD123R,0.047402X0.059213*%
%ADD129O,0.114331X0.098583*%
%ADD131R,0.114331X0.098583*%
%ADD133C,0.067402*%
%ADD135R,0.067402X0.067402*%
%ADD137R,0.074961X0.074961*%
%ADD139C,0.074961*%
%ADD141O,0.149764X0.086772*%
%ADD143O,0.086772X0.145827*%
%ADD145O,0.145827X0.086772*%
%ADD147R,0.039528X0.071024*%
%ADD151R,0.055276X0.055276*%
%ADD153R,0.059213X0.067087*%
%ADD155R,0.067087X0.059213*%
%FSLAX26Y26*%
G04*
G70*
G90*
G75*
G01*
G04 TopMask*
%LPD*%
D87*
X1463724Y1457008D3*
X1633016Y878268D3*
D155*
X1314118Y917638D3*
Y842835D3*
D153*
X920417Y1894016D3*
X995220D3*
D155*
X1026717Y1610551D3*
Y1535748D3*
D153*
X1373173Y1901890D3*
X1447976D3*
X1369236Y1500315D3*
X1294433D3*
X2243252Y1236535D3*
X2318055D3*
D155*
X2070024Y1429449D3*
Y1504252D3*
X1010969Y1138110D3*
Y1063307D3*
X1314118Y618425D3*
Y543622D3*
X1227504Y917638D3*
Y842835D3*
D153*
X908606Y693228D3*
X983409D3*
D155*
X1314118D3*
Y768031D3*
X1227504Y618425D3*
Y543622D3*
D153*
X845614Y1531811D3*
X770811D3*
D151*
X912543Y1803465D3*
Y1693228D3*
X1270811Y1905827D3*
X1160575D3*
X1447976Y1831024D3*
Y1720787D3*
Y1543622D3*
Y1653858D3*
D147*
X1593646Y1256220D3*
Y1382205D3*
X1648764Y1256220D3*
Y1382205D3*
D145*
X806244Y1626299D3*
D143*
X719630Y1756220D3*
D145*
X806244Y1886142D3*
D141*
X514906Y1901890D3*
Y1610551D3*
D139*
X2207819Y1909764D3*
X2081835Y1590866D3*
X1877110Y1712913D3*
X1841677Y1909764D3*
D137*
X2302307Y1862520D3*
D139*
Y1762520D3*
Y1662520D3*
Y1562520D3*
Y1462520D3*
Y1362520D3*
D135*
X1597585Y1721969D3*
D133*
X1696005D3*
D131*
X554276Y1453071D3*
D129*
Y1315276D3*
Y1177480D3*
Y1039685D3*
D123*
X911165Y935945D3*
D121*
X961165D3*
X2098764Y1283780D3*
X2148764D3*
D135*
X1597585Y1872362D3*
D51*
X1696005D3*
D121*
X987937Y552874D3*
D123*
X1037937D3*
D117*
X1310181Y1819213D3*
Y1701102D3*
D115*
X1113331Y838898D3*
Y720787D3*
D113*
X1231441Y1311339D3*
Y1236535D3*
X1321992Y1273937D3*
D155*
X1141711Y543622D3*
Y618425D3*
X884984Y543622D3*
Y618425D3*
X944039Y1610551D3*
Y1535748D3*
X1518843Y1334961D3*
Y1260157D3*
X1727504Y1334961D3*
Y1260157D3*
D153*
X1369236Y1586929D3*
X1294433D3*
D155*
X1197976Y1535748D3*
Y1610551D3*
X1109394Y1535748D3*
Y1610551D3*
D153*
X904669Y1268031D3*
X979472D3*
X904669Y1378268D3*
X979472D3*
D155*
X2156638Y1504252D3*
Y1429449D3*
X1983409D3*
Y1504252D3*
X1814118D3*
Y1429449D3*
X1896795D3*
Y1504252D3*
D111*
X2022780Y1354646D3*
Y1323150D3*
X1924354D3*
Y1354646D3*
D107*
X1006213Y782004D3*
Y819406D3*
Y856807D3*
X899913D3*
Y819406D3*
Y782004D3*
D101*
X995220Y1819213D3*
Y1793622D3*
Y1768031D3*
Y1742441D3*
Y1716850D3*
Y1691260D3*
X1168449D3*
Y1716850D3*
Y1742441D3*
Y1768031D3*
Y1793622D3*
Y1819213D3*
D99*
X1081835Y1755236D3*
D97*
Y1059370D3*
X1119236D3*
X1156638D3*
Y1165669D3*
X1119236D3*
X1081835D3*
D95*
X741283Y586929D3*
Y686929D3*
Y786929D3*
D93*
X638134Y586929D3*
Y786929D3*
D91*
X2318055Y1153858D3*
X2268055Y1154252D3*
X2218055D3*
X2168055D3*
X2118055D3*
X2068055D3*
X2018055D3*
X1968055D3*
X1918055D3*
X1868055D3*
X1818055D3*
X1768055D3*
X1718055D3*
X1668055D3*
X1668436Y476218D3*
X1718436D3*
X1768436D3*
X1818434D3*
X1868436D3*
X1418436D3*
X1468436D3*
X1518436D3*
X1568436D3*
X1618436D3*
X1918094Y476220D3*
X1968094D3*
X2018094D3*
X2068094D3*
X2118094D3*
X2168094D3*
X2218094D3*
X2268094D3*
X2318094D3*
D89*
X2069945Y853858D3*
D91*
X1618395Y1154248D3*
X1568395D3*
X1518395D3*
X1468395D3*
X1418395D3*
D97*
X1148764Y1382205D3*
X1111362D3*
X1073961D3*
Y1275906D3*
X1111362D3*
X1148764D3*
M02*
