G04 DipTrace 3.3.1.3*
G04 TopSilk.gbr*
%MOIN*%
G04 #@! TF.FileFunction,Legend,Top*
G04 #@! TF.Part,Single*
%ADD10C,0.009843*%
%ADD32C,0.015746*%
%ADD34C,0.015762*%
%ADD55C,0.015422*%
%ADD59C,0.015395*%
%ADD67C,0.015401*%
%ADD159C,0.006176*%
%FSLAX26Y26*%
G04*
G70*
G90*
G75*
G01*
G04 TopSilk*
%LPD*%
X1288547Y958997D2*
D10*
X1339689D1*
X879058Y1868445D2*
Y1919587D1*
X1001146Y1651911D2*
X1052287D1*
X1331814Y1876319D2*
Y1927461D1*
X1410596Y1525886D2*
Y1474744D1*
X2201892Y1210965D2*
Y1262106D1*
X2095594Y1388089D2*
X2044453D1*
X985398Y1179470D2*
X1036539D1*
X1138941Y659785D2*
X1190083D1*
X1201933Y958997D2*
X1253075D1*
X868089Y675417D2*
Y726559D1*
X1237366Y659785D2*
X1288508D1*
X1048390D2*
X1099531D1*
X882995Y1557382D2*
Y1506240D1*
X947973Y1771961D2*
Y1724729D1*
X877111Y1771961D2*
Y1724729D1*
D32*
X912542Y1844796D3*
X1239308Y1870397D2*
D10*
X1192075D1*
X1239308Y1941259D2*
X1192075D1*
D34*
X1312142Y1905828D3*
X1483406Y1799520D2*
D10*
Y1752288D1*
X1412544Y1799520D2*
Y1752288D1*
D32*
X1447975Y1872355D3*
X1412547Y1575125D2*
D10*
Y1622358D1*
X1483409Y1575125D2*
Y1622358D1*
D32*
X1447978Y1502291D3*
X1581839Y1207008D2*
D10*
X1660571D1*
X400722Y1602675D2*
Y1909766D1*
X426340D1*
X603489D2*
X725557D1*
X853508Y1831013D2*
Y1681428D1*
X725557Y1602675D2*
X603489D1*
X426340D2*
X400722D1*
X2142846Y2122362D2*
X1906650D1*
Y2004229D1*
X2142846D1*
Y2122362D1*
X2203866Y2023946D2*
X2140854D1*
X2203866Y1571187D2*
X2129075D1*
X1849571Y2004229D2*
Y2023946D1*
X1908598D1*
X2203866Y1960953D2*
Y2023946D1*
X1849571Y2004229D2*
X1810161Y1984568D1*
Y1949089D1*
X1837748Y1748358D2*
X1810161Y1764121D1*
Y1803498D1*
X1841689D1*
Y1862537D1*
X1849571Y1571187D2*
Y1669603D1*
X2203866Y1571187D2*
Y1858582D1*
X2034579Y1571187D2*
X1849571D1*
X2352309Y1912492D2*
X2252307D1*
Y1312547D1*
X2352309D1*
Y1912492D1*
X1501121Y2021182D2*
X1792465D1*
Y1631422D1*
X1501121D1*
Y2021182D1*
X404680Y1521953D2*
Y970803D1*
X660575Y970748D1*
Y1521953D1*
X404680Y1522008D1*
G36*
X433162Y1468811D2*
X401651D1*
Y1437279D1*
X433162D1*
Y1468811D1*
G37*
G36*
Y1331051D2*
X401651D1*
Y1299519D1*
X433162D1*
Y1331051D1*
G37*
G36*
Y1193292D2*
X401651D1*
Y1161704D1*
X433162D1*
Y1193292D1*
G37*
G36*
Y1055477D2*
X401651D1*
Y1023945D1*
X433162D1*
Y1055477D1*
G37*
X950732Y893819D2*
D10*
X850732D1*
X950732Y978071D2*
X850732D1*
X2073764Y1321969D2*
X2173764D1*
X2073764Y1237717D2*
X2173764D1*
X1501126Y1990472D2*
X1792465D1*
Y1754252D1*
X1501126D1*
Y1990472D1*
X1388921Y1838897D2*
Y1681418D1*
X1231441Y1838897D2*
Y1681418D1*
X1064114Y811374D2*
Y779889D1*
X1162547Y811374D2*
Y779889D1*
D55*
X1216732Y1342188D3*
X1266874Y1332987D2*
D10*
Y1214882D1*
X1286559D1*
Y1332987D1*
X1266874D1*
X1940098Y1356969D2*
X2016870Y1357163D1*
X1940098Y1312717D2*
Y1357204D1*
Y1312912D2*
X2016870D1*
Y1312717D2*
Y1357204D1*
D59*
X1022838Y755090D3*
X968772Y760353D2*
D10*
Y878461D1*
X937282Y760353D2*
Y878461D1*
X968772D2*
X937282D1*
X968772Y760353D2*
X937282D1*
X1034590Y1833975D2*
X1066079D1*
X1034590D2*
Y1676497D1*
X1097591Y1833975D2*
X1129080D1*
X1034590Y1676497D2*
X1129080D1*
Y1833975D1*
X1066079D2*
G03X1097591Y1833975I15756J8D01*
G01*
D67*
X1054921Y1042745D3*
X1060183Y1096810D2*
D10*
X1178291D1*
X1060183Y1128301D2*
X1178291D1*
Y1096810D2*
Y1128301D1*
X1060183Y1096810D2*
Y1128301D1*
X304276Y495977D2*
X835772D1*
Y877857D1*
X304276D1*
Y495977D1*
X2618044Y1172584D2*
X2361794D1*
Y453875D1*
X2618044D1*
Y1172584D1*
X1393420D2*
X1368420D1*
X1368045Y535077D1*
X1368420Y460081D2*
X1393420D1*
X1368420D2*
Y553845D1*
D67*
X1175678Y1398830D3*
X1170415Y1344765D2*
D10*
X1052307D1*
X1170415Y1313274D2*
X1052307D1*
Y1344765D2*
Y1313274D1*
X1170415Y1344765D2*
Y1313274D1*
X1693965Y1818343D2*
D159*
Y1783899D1*
X1676765Y1801099D2*
X1711209D1*
X1586214Y1801121D2*
X1608322D1*
X692513Y1478719D2*
Y1438527D1*
X715461D1*
X745012Y1475823D2*
Y1441379D1*
X727812Y1458579D2*
X762256D1*
X692513Y1341079D2*
Y1300887D1*
X715461D1*
X727812Y1320961D2*
X749920D1*
X692513Y1183983D2*
X709713D1*
X715461Y1185929D1*
X717406Y1187830D1*
X719308Y1191633D1*
Y1195479D1*
X717406Y1199282D1*
X715461Y1201227D1*
X709713Y1203129D1*
X692513D1*
Y1162937D1*
X705910Y1183983D2*
X719308Y1162937D1*
X731659Y1183010D2*
X753767D1*
X692513Y1046188D2*
X709713D1*
X715461Y1048133D1*
X717406Y1050035D1*
X719308Y1053837D1*
Y1057684D1*
X717406Y1061487D1*
X715461Y1063432D1*
X709713Y1065333D1*
X692513D1*
Y1025141D1*
X705910Y1046188D2*
X719308Y1025141D1*
X748859Y1062437D2*
Y1027993D1*
X731659Y1045193D2*
X766103D1*
X1779891Y1337681D2*
X1797091D1*
X1802839Y1339627D1*
X1804784Y1341528D1*
X1806686Y1345331D1*
Y1349177D1*
X1804784Y1352980D1*
X1802839Y1354925D1*
X1797091Y1356827D1*
X1779891D1*
Y1316635D1*
X1793288Y1337681D2*
X1806686Y1316635D1*
X1845832Y1351079D2*
X1842029Y1354925D1*
X1836281Y1356827D1*
X1828632D1*
X1822884Y1354925D1*
X1819037Y1351079D1*
Y1347276D1*
X1820983Y1343429D1*
X1822884Y1341528D1*
X1826686Y1339627D1*
X1838182Y1335780D1*
X1842029Y1333879D1*
X1843930Y1331933D1*
X1845832Y1328131D1*
Y1322383D1*
X1842029Y1318580D1*
X1836281Y1316635D1*
X1828632D1*
X1822884Y1318580D1*
X1819037Y1322383D1*
X1871580Y1356827D2*
Y1316635D1*
X1858183Y1356827D2*
X1884978D1*
X731731Y1988944D2*
X743227Y1962149D1*
X754679Y1988944D1*
X770877Y2002297D2*
X791879D1*
X780428Y1986998D1*
X786176D1*
X789978Y1985097D1*
X791879Y1983196D1*
X793825Y1977448D1*
Y1973645D1*
X791879Y1967897D1*
X788077Y1964050D1*
X782329Y1962149D1*
X776581D1*
X770877Y1964050D1*
X768976Y1965996D1*
X767030Y1969798D1*
X808078Y1965996D2*
X806176Y1964050D1*
X808078Y1962149D1*
X810023Y1964050D1*
X808078Y1965996D1*
X833870Y2002297D2*
X828122Y2000396D1*
X824276Y1994648D1*
X822374Y1985097D1*
Y1979349D1*
X824276Y1969798D1*
X828122Y1964050D1*
X833870Y1962149D1*
X837673D1*
X843421Y1964050D1*
X847224Y1969798D1*
X849169Y1979349D1*
Y1985097D1*
X847224Y1994648D1*
X843421Y2000396D1*
X837673Y2002297D1*
X833870D1*
X847224Y1994648D2*
X824276Y1969798D1*
M02*
