G04 DipTrace 3.3.1.3*
G04 BottomMask.gbr*
%MOIN*%
G04 #@! TF.FileFunction,Soldermask,Bot*
G04 #@! TF.Part,Single*
%ADD51C,0.08905*%
%ADD89C,0.047402*%
%ADD91C,0.086772*%
%ADD93R,0.086772X0.086772*%
%ADD99C,0.078898*%
%ADD101C,0.06315*%
%ADD109R,0.342677X0.145827*%
%ADD111R,0.019252X0.047402*%
%ADD115R,0.057244X0.043465*%
%ADD125R,0.071024X0.232441*%
%ADD127R,0.047402X0.059213*%
%ADD129O,0.047402X0.059213*%
%ADD131R,0.059213X0.092677*%
%ADD133R,0.039528X0.055276*%
%ADD135O,0.114331X0.098583*%
%ADD137R,0.114331X0.098583*%
%ADD139C,0.067402*%
%ADD141R,0.067402X0.067402*%
%ADD143R,0.074961X0.074961*%
%ADD145C,0.074961*%
%ADD147O,0.149764X0.086772*%
%ADD149O,0.086772X0.145827*%
%ADD151O,0.145827X0.086772*%
%ADD155R,0.06315X0.090709*%
%ADD159R,0.059213X0.067087*%
%ADD161R,0.067087X0.059213*%
%FSLAX26Y26*%
G04*
G70*
G90*
G75*
G01*
G04 BotMask*
%LPD*%
D89*
X3657480Y1358268D3*
X3826772Y779528D3*
D161*
X3937008Y1444882D3*
Y1519685D3*
D159*
X3759843Y1291339D3*
X3834646D3*
X3774144Y600306D3*
X3699341D3*
X3759843Y1397638D3*
X3834646D3*
X3759843Y1507874D3*
X3834646D3*
X3774144Y519980D3*
X3699341D3*
X3773940Y439655D3*
X3699136D3*
X4173228Y649606D3*
X4098425D3*
D161*
X4102362Y1326772D3*
Y1251969D3*
D159*
X4173739Y561626D3*
X4098936D3*
X3956693Y523622D3*
X4031496D3*
D161*
X4006352Y1254068D3*
Y1328871D3*
D159*
X4173228Y1429134D3*
X4098425D3*
X4098731Y732503D3*
X4173534D3*
D161*
X3607243Y1162622D3*
Y1087819D3*
X3893701Y602362D3*
Y677165D3*
X3858268Y437008D3*
Y511811D3*
D159*
X3602362Y1287402D3*
X3677165D3*
D161*
X3613493Y781537D3*
Y856340D3*
D159*
X3605619Y675071D3*
X3680423D3*
D161*
X3220472Y807087D3*
Y881890D3*
Y527559D3*
Y602362D3*
Y1448819D3*
Y1374016D3*
Y1173228D3*
Y1098425D3*
D159*
X2822835Y586614D3*
X2748031D3*
D155*
X3472441Y1696850D3*
X3318903D3*
D151*
X3000000Y1527559D3*
D149*
X2913386Y1657480D3*
D151*
X3000000Y1787402D3*
D147*
X2708661Y1803150D3*
Y1511811D3*
D145*
X4401575Y1811024D3*
X4275591Y1492126D3*
X4070866Y1614173D3*
X4035433Y1811024D3*
D143*
X4496063Y1763780D3*
D145*
Y1663780D3*
Y1563780D3*
Y1463780D3*
Y1363780D3*
Y1263780D3*
D141*
X3791341Y1623228D3*
D139*
X3889761D3*
D137*
X2748031Y1354331D3*
D135*
Y1216535D3*
Y1078740D3*
Y940945D3*
D133*
X4019685Y448819D3*
X4068898D3*
D131*
X4438976Y358465D3*
X3944882D3*
D133*
X4118110Y448819D3*
X4216535D3*
X4167323D3*
X4314961D3*
X4265748D3*
X4364173D3*
D129*
X3104921Y837205D3*
D127*
X3154921D3*
D129*
X4292520Y1185039D3*
X4342520D3*
D141*
X3791341Y1773622D3*
D51*
X3889761D3*
D129*
X3181693Y454134D3*
D127*
X3231693D3*
D125*
X3488189Y800428D3*
X3303150D3*
X3488189Y480315D3*
X3303150D3*
X3488189Y1440655D3*
X3303150D3*
X3488189Y1120542D3*
X3303150D3*
D161*
X4019685Y1444882D3*
Y1519685D3*
D159*
X4173228Y1515748D3*
X4098425D3*
D115*
X4366142Y700787D3*
Y562992D3*
X4303150Y631891D3*
D111*
X3711881Y1125118D3*
X3731566D3*
X3751251D3*
X3770936D3*
X3790621D3*
X3810306D3*
X3829991D3*
X3849676D3*
X3869361D3*
X3889046D3*
X3908731D3*
X3928416D3*
X3948101D3*
X3967786D3*
X3987471D3*
X4007156D3*
X4026841D3*
X4046526D3*
X4066211D3*
X4085896D3*
X4105581D3*
X4125266D3*
X4144951D3*
X4164636D3*
Y829843D3*
X4144951D3*
X4125266D3*
X4105581D3*
X4085896D3*
X4066211D3*
X4046526D3*
X4026841D3*
X4007156D3*
X3987471D3*
X3967786D3*
X3948101D3*
X3928416D3*
X3908731D3*
X3889046D3*
X3869361D3*
X3849676D3*
X3829991D3*
X3810306D3*
X3790621D3*
X3770936D3*
X3751251D3*
X3731566D3*
X3711881D3*
D109*
X3938259Y977480D3*
D101*
X2935039Y488189D3*
Y588189D3*
Y688189D3*
D99*
X2831890Y488189D3*
Y688189D3*
D93*
X4644685Y1462087D3*
D91*
Y1562087D3*
Y1662087D3*
G36*
X4196850Y1139764D2*
X4465551D1*
Y1013780D1*
X4409449D1*
Y978346D1*
X4465551D1*
Y807087D1*
X4196850D1*
D1*
Y1139764D1*
G37*
M02*
