G04 DipTrace 3.3.1.3*
G04 BottomPaste.gbr*
%MOIN*%
G04 #@! TF.FileFunction,Paste,Bot*
G04 #@! TF.Part,Single*
%ADD110R,0.326614X0.129764*%
%ADD112R,0.003189X0.031339*%
%ADD116R,0.041181X0.027402*%
%ADD126R,0.054961X0.216378*%
%ADD132R,0.04315X0.076614*%
%ADD134R,0.023465X0.039213*%
%ADD156R,0.047087X0.074646*%
%ADD160R,0.04315X0.051024*%
%ADD162R,0.051024X0.04315*%
%FSLAX26Y26*%
G04*
G70*
G90*
G75*
G01*
G04 BotPaste*
%LPD*%
D162*
X3937008Y1444882D3*
Y1519685D3*
D160*
X3759843Y1291339D3*
X3834646D3*
X3774144Y600306D3*
X3699341D3*
X3759843Y1397638D3*
X3834646D3*
X3759843Y1507874D3*
X3834646D3*
X3774144Y519980D3*
X3699341D3*
X3773940Y439655D3*
X3699136D3*
X4173228Y649606D3*
X4098425D3*
D162*
X4102362Y1326772D3*
Y1251969D3*
D160*
X4173739Y561626D3*
X4098936D3*
X3956693Y523622D3*
X4031496D3*
D162*
X4006352Y1254068D3*
Y1328871D3*
D160*
X4173228Y1429134D3*
X4098425D3*
X4098731Y732503D3*
X4173534D3*
D162*
X3607243Y1162622D3*
Y1087819D3*
X3893701Y602362D3*
Y677165D3*
X3858268Y437008D3*
Y511811D3*
D160*
X3602362Y1287402D3*
X3677165D3*
D162*
X3613493Y781537D3*
Y856340D3*
D160*
X3605619Y675071D3*
X3680423D3*
D162*
X3220472Y807087D3*
Y881890D3*
Y527559D3*
Y602362D3*
Y1448819D3*
Y1374016D3*
Y1173228D3*
Y1098425D3*
D160*
X2822835Y586614D3*
X2748031D3*
D156*
X3472441Y1696850D3*
X3318903D3*
D134*
X4019685Y448819D3*
X4068898D3*
D132*
X4438976Y358465D3*
X3944882D3*
D134*
X4118110Y448819D3*
X4216535D3*
X4167323D3*
X4314961D3*
X4265748D3*
X4364173D3*
D126*
X3488189Y800428D3*
X3303150D3*
X3488189Y480315D3*
X3303150D3*
X3488189Y1440655D3*
X3303150D3*
X3488189Y1120542D3*
X3303150D3*
D162*
X4019685Y1444882D3*
Y1519685D3*
D160*
X4173228Y1515748D3*
X4098425D3*
D116*
X4366142Y700787D3*
Y562992D3*
X4303150Y631891D3*
D112*
X3711881Y1125118D3*
X3731566D3*
X3751251D3*
X3770936D3*
X3790621D3*
X3810306D3*
X3829991D3*
X3849676D3*
X3869361D3*
X3889046D3*
X3908731D3*
X3928416D3*
X3948101D3*
X3967786D3*
X3987471D3*
X4007156D3*
X4026841D3*
X4046526D3*
X4066211D3*
X4085896D3*
X4105581D3*
X4125266D3*
X4144951D3*
X4164636D3*
Y829843D3*
X4144951D3*
X4125266D3*
X4105581D3*
X4085896D3*
X4066211D3*
X4046526D3*
X4026841D3*
X4007156D3*
X3987471D3*
X3967786D3*
X3948101D3*
X3928416D3*
X3908731D3*
X3889046D3*
X3869361D3*
X3849676D3*
X3829991D3*
X3810306D3*
X3790621D3*
X3770936D3*
X3751251D3*
X3731566D3*
X3711881D3*
D110*
X3938259Y977480D3*
M02*
