G04 DipTrace 3.3.1.3*
G04 TopMask.gbr*
%MOIN*%
G04 #@! TF.FileFunction,Soldermask,Top*
G04 #@! TF.Part,Single*
%ADD51C,0.08905*%
%ADD89C,0.047402*%
%ADD91C,0.086772*%
%ADD93R,0.086772X0.086772*%
%ADD95R,0.126142X0.204882*%
%ADD97R,0.043465X0.086772*%
%ADD99C,0.078898*%
%ADD101C,0.06315*%
%ADD103R,0.031654X0.051339*%
%ADD105R,0.071024X0.118268*%
%ADD107R,0.06315X0.019843*%
%ADD113R,0.051339X0.031654*%
%ADD117R,0.027717X0.027717*%
%ADD119R,0.04937X0.033622*%
%ADD121R,0.114331X0.053307*%
%ADD123R,0.14189X0.051339*%
%ADD127R,0.047402X0.059213*%
%ADD129O,0.047402X0.059213*%
%ADD135O,0.114331X0.098583*%
%ADD137R,0.114331X0.098583*%
%ADD139C,0.067402*%
%ADD141R,0.067402X0.067402*%
%ADD143R,0.074961X0.074961*%
%ADD145C,0.074961*%
%ADD147O,0.149764X0.086772*%
%ADD149O,0.086772X0.145827*%
%ADD151O,0.145827X0.086772*%
%ADD153R,0.039528X0.071024*%
%ADD157R,0.055276X0.055276*%
%ADD159R,0.059213X0.067087*%
%ADD161R,0.067087X0.059213*%
%FSLAX26Y26*%
G04*
G70*
G90*
G75*
G01*
G04 TopMask*
%LPD*%
D89*
X3657480Y1358268D3*
X3826772Y779528D3*
D161*
X3507874Y818898D3*
Y744094D3*
D159*
X3114173Y1795276D3*
X3188976D3*
D161*
X3220472Y1511811D3*
Y1437008D3*
D159*
X3566929Y1803150D3*
X3641732D3*
X3562992Y1401575D3*
X3488189D3*
X4437008Y1137795D3*
X4511811D3*
D161*
X4263780Y1330709D3*
Y1405512D3*
X3204724Y1039370D3*
Y964567D3*
X3507874Y519685D3*
Y444882D3*
X3421260Y818898D3*
Y744094D3*
D159*
X3102362Y594488D3*
X3177165D3*
D161*
X3507874D3*
Y669291D3*
X3421260Y519685D3*
Y444882D3*
D159*
X3039370Y1433071D3*
X2964567D3*
D157*
X3106299Y1704724D3*
Y1594488D3*
X3464567Y1807087D3*
X3354331D3*
X3641732Y1732283D3*
Y1622047D3*
Y1444882D3*
Y1555118D3*
D153*
X3787402Y1157480D3*
Y1283465D3*
X3842520Y1157480D3*
Y1283465D3*
D151*
X3000000Y1527559D3*
D149*
X2913386Y1657480D3*
D151*
X3000000Y1787402D3*
D147*
X2708661Y1803150D3*
Y1511811D3*
D145*
X4401575Y1811024D3*
X4275591Y1492126D3*
X4070866Y1614173D3*
X4035433Y1811024D3*
D143*
X4496063Y1763780D3*
D145*
Y1663780D3*
Y1563780D3*
Y1463780D3*
Y1363780D3*
Y1263780D3*
D141*
X3791341Y1623228D3*
D139*
X3889761D3*
D137*
X2748031Y1354331D3*
D135*
Y1216535D3*
Y1078740D3*
Y940945D3*
D129*
X3104921Y837205D3*
D127*
X3154921D3*
D129*
X4292520Y1185039D3*
X4342520D3*
D141*
X3791341Y1773622D3*
D51*
X3889761D3*
D129*
X3181693Y454134D3*
D127*
X3231693D3*
D123*
X3503937Y1720472D3*
Y1602362D3*
D121*
X3307087Y740157D3*
Y622047D3*
D119*
X3425197Y1212598D3*
Y1137795D3*
X3515748Y1175197D3*
D161*
X3335467Y444882D3*
Y519685D3*
X3078740Y444882D3*
Y519685D3*
X3137795Y1511811D3*
Y1437008D3*
X3712598Y1236220D3*
Y1161417D3*
X3921260Y1236220D3*
Y1161417D3*
D159*
X3562992Y1488189D3*
X3488189D3*
D161*
X3391732Y1437008D3*
Y1511811D3*
X3303150Y1437008D3*
Y1511811D3*
D159*
X3098425Y1169291D3*
X3173228D3*
X3098425Y1279528D3*
X3173228D3*
D161*
X4350394Y1405512D3*
Y1330709D3*
X4177165D3*
Y1405512D3*
X4007874D3*
Y1330709D3*
X4090551D3*
Y1405512D3*
D117*
X4216535Y1255906D3*
Y1224409D3*
X4118110D3*
Y1255906D3*
D113*
X3199969Y683264D3*
Y720665D3*
Y758067D3*
X3093669D3*
Y720665D3*
Y683264D3*
D107*
X3188976Y1720472D3*
Y1694882D3*
Y1669291D3*
Y1643701D3*
Y1618110D3*
Y1592520D3*
X3362205D3*
Y1618110D3*
Y1643701D3*
Y1669291D3*
Y1694882D3*
Y1720472D3*
D105*
X3275591Y1656496D3*
D103*
Y960630D3*
X3312992D3*
X3350394D3*
Y1066929D3*
X3312992D3*
X3275591D3*
D101*
X2935039Y488189D3*
Y588189D3*
Y688189D3*
D99*
X2831890Y488189D3*
Y688189D3*
D97*
X4511811Y1055118D3*
X4461811Y1055512D3*
X4411811D3*
X4361811D3*
X4311811D3*
X4261811D3*
X4211811D3*
X4161811D3*
X4111811D3*
X4061811D3*
X4011811D3*
X3961811D3*
X3911811D3*
X3861811D3*
X3862192Y377478D3*
X3912192D3*
X3962192D3*
X4012190D3*
X4062192D3*
X3612192D3*
X3662192D3*
X3712192D3*
X3762192D3*
X3812192D3*
X4111850Y377480D3*
X4161850D3*
X4211850D3*
X4261850D3*
X4311850D3*
X4361850D3*
X4411850D3*
X4461850D3*
X4511850D3*
D95*
X4263701Y755118D3*
D97*
X3812151Y1055508D3*
X3762151D3*
X3712151D3*
X3662151D3*
X3612151D3*
D103*
X3342520Y1283465D3*
X3305118D3*
X3267717D3*
Y1177165D3*
X3305118D3*
X3342520D3*
D93*
X4644685Y1462087D3*
D91*
Y1562087D3*
Y1662087D3*
M02*
