G04 DipTrace 3.3.1.3*
G04 Bottom.gbr*
%MOIN*%
G04 #@! TF.FileFunction,Copper,L2,Bot*
G04 #@! TF.Part,Single*
G04 #@! TA.AperFunction,Nonconductor*
%ADD10C,0.009843*%
G04 #@! TA.AperFunction,CopperBalancing*
%ADD13C,0.03937*%
%ADD14C,0.012992*%
%ADD15C,0.025984*%
G04 #@! TA.AperFunction,Conductor*
%ADD16C,0.015748*%
%ADD17C,0.023622*%
G04 #@! TA.AperFunction,ViaPad*
%ADD18C,0.019685*%
G04 #@! TA.AperFunction,Conductor*
%ADD19C,0.01122*%
G04 #@! TA.AperFunction,CopperBalancing*
%ADD20C,0.043307*%
G04 #@! TA.AperFunction,Conductor*
%ADD21C,0.007874*%
G04 #@! TA.AperFunction,CopperBalancing*
%ADD23C,0.047244*%
G04 #@! TA.AperFunction,Conductor*
%ADD24C,0.059055*%
G04 #@! TA.AperFunction,CopperBalancing*
%ADD25C,0.031496*%
%ADD27C,0.003937*%
%ADD28C,0.025*%
%ADD29C,0.017717*%
%ADD31R,0.059055X0.051181*%
%ADD32R,0.051181X0.059055*%
%ADD37R,0.055118X0.082677*%
G04 #@! TA.AperFunction,ComponentPad*
%ADD40O,0.137795X0.07874*%
%ADD41O,0.07874X0.137795*%
%ADD42O,0.141732X0.07874*%
%ADD43C,0.066929*%
%ADD44R,0.066929X0.066929*%
%ADD45R,0.05937X0.05937*%
%ADD46C,0.05937*%
%ADD47R,0.106299X0.090551*%
%ADD48O,0.106299X0.090551*%
%ADD49R,0.031496X0.047244*%
%ADD50R,0.051181X0.084646*%
G04 #@! TA.AperFunction,ComponentPad*
%ADD51R,0.03937X0.051181*%
%ADD52O,0.03937X0.051181*%
%ADD54R,0.062992X0.224409*%
%ADD63R,0.049213X0.035433*%
%ADD68R,0.01122X0.03937*%
%ADD69R,0.334646X0.137795*%
G04 #@! TA.AperFunction,ComponentPad*
%ADD74C,0.055118*%
%ADD75C,0.070866*%
G04 #@! TA.AperFunction,ViaPad*
%ADD78C,0.04*%
%FSLAX26Y26*%
G04*
G70*
G90*
G75*
G01*
G04 Bottom*
%LPD*%
X1852770Y928583D2*
D14*
Y869676D1*
D15*
X1849551Y866457D1*
Y771969D1*
X1865299Y756220D1*
X1892858D1*
X1900732Y748346D1*
X1904669D1*
X1849551Y768031D2*
D14*
Y771969D1*
X1872455Y928583D2*
D16*
Y889361D1*
X1852770Y869676D1*
X2117268Y1382205D2*
D15*
X2030654D1*
X1999157Y1350709D1*
X1966955D1*
X1908606D1*
Y1319213D1*
X1888921Y1299528D1*
D17*
X1814118D1*
D18*
X1782622Y1268031D1*
X1778685D1*
D14*
X1774030Y1263377D1*
Y1223858D1*
X1888921Y1271969D2*
D15*
Y1299528D1*
X1904669Y1315276D1*
Y1346772D1*
X1908606Y1350709D1*
X1971598Y1382205D2*
Y1355352D1*
D14*
X1966955Y1350709D1*
X1872455Y1223858D2*
D19*
Y1250039D1*
D14*
Y1255503D1*
X1888921Y1271969D1*
X741283Y706614D2*
X631441D1*
X629079Y708976D1*
X741283Y706614D2*
X780063D1*
X933803Y552874D1*
X987937D1*
X1810181Y1256220D2*
X1813400Y1253001D1*
D19*
Y1223858D1*
X1845614Y1264094D2*
X1833085Y1251566D1*
Y1223858D1*
X1695290D2*
Y1197677D1*
D14*
Y1174261D1*
X1793715Y1223858D2*
D19*
Y1197677D1*
D14*
Y1174261D1*
X1892140Y1223858D2*
D19*
Y1197677D1*
D14*
Y1174261D1*
X1640890Y1606614D2*
D13*
Y1496378D1*
Y1390079D1*
X1695290Y1197677D2*
D14*
Y1125433D1*
X1744503Y1076220D1*
X1793715Y1197677D2*
Y1125433D1*
X1744503Y1076220D1*
X1892140Y1197677D2*
Y1154576D1*
X1813785Y1076220D1*
X1744503D1*
X1505585Y699046D2*
D13*
Y618720D1*
Y538395D1*
X1505381D1*
X1557495Y1223858D2*
D19*
Y1197677D1*
D14*
Y1186072D1*
X1585772Y1157795D1*
X1662928D1*
X1744503Y1076220D1*
X1557495Y928583D2*
D19*
Y954764D1*
D14*
Y1004970D1*
X1628745Y1076220D1*
X1744503D1*
X1813400Y928583D2*
D19*
Y954764D1*
D14*
Y1007323D1*
X1744503Y1076220D1*
X1892140Y928583D2*
D19*
Y954764D1*
D14*
Y1027156D1*
X1843076Y1076220D1*
X1744503D1*
X1951196Y928583D2*
D19*
Y954764D1*
D14*
Y1056151D1*
X1931126Y1076220D1*
X1744503D1*
X1979472Y1527874D2*
D15*
Y1614488D1*
X915102Y935945D2*
Y875497D1*
X933986Y856614D1*
X1026717D1*
Y910748D1*
X1837740Y622362D2*
D14*
X1860378D1*
X1883016Y599724D1*
X2027701D1*
X2046402Y618425D1*
Y842835D1*
X2070024Y866457D1*
X1695290Y928583D2*
D19*
Y954764D1*
D14*
Y1027008D1*
X1744503Y1076220D1*
X1026717Y626299D2*
D15*
Y602588D1*
X1037937Y591367D1*
Y552874D1*
X1566087Y1496378D2*
D23*
Y1606614D1*
Y1496378D2*
Y1390079D1*
X1463724Y1457008D2*
D24*
Y1669606D1*
Y1708976D1*
X1377110Y1795591D1*
X1278685D1*
X1616550Y1223858D2*
D19*
Y1250039D1*
D14*
Y1294873D1*
X1624157Y1302480D1*
D25*
Y1319213D1*
X1566087Y1377283D1*
Y1390079D1*
X1636235Y1223858D2*
D19*
Y1250039D1*
D14*
Y1290403D1*
X1624157Y1302480D1*
X1626070Y1215866D2*
Y1302480D1*
X1624157D1*
X1566087Y1606614D2*
D24*
X1526717D1*
X1463724Y1669606D1*
X1580184Y538395D2*
D13*
Y618720D1*
X1580388D1*
Y699046D2*
D23*
Y618720D1*
X1655920Y928583D2*
D19*
X1636235D1*
X1616550D1*
X1636235D2*
D23*
X1633016Y878268D1*
X1580388Y825640D1*
Y699046D1*
D14*
D3*
X1754345Y1223858D2*
Y1279125D1*
X1812596Y1337375D1*
Y1352808D1*
X1861362Y1401575D1*
Y1457008D1*
X1877110Y1472756D1*
X2022780D1*
X2081835Y1531811D1*
Y1590866D1*
X1714975Y1223858D2*
D19*
Y1250039D1*
D14*
Y1294873D1*
X1747189Y1327087D1*
Y1441260D1*
X1802307Y1496378D1*
X1857425D1*
X1904669Y1543622D1*
Y1527874D1*
X1734660Y1223858D2*
D19*
Y1250039D1*
D14*
Y1286999D1*
X1766874Y1319213D1*
Y1405827D1*
X1786559Y1425512D1*
X1812596D1*
Y1427612D1*
X1754345Y928583D2*
D19*
Y902402D1*
D14*
Y751566D1*
X1703882Y701102D1*
X1699945D1*
X1754345Y928583D2*
D19*
Y954764D1*
D14*
Y983849D1*
X1755063Y984567D1*
X1714975Y928583D2*
D19*
Y877550D1*
D14*
X1644827Y807402D1*
Y610551D1*
X1664512D1*
X1833085Y928583D2*
D19*
Y897235D1*
D14*
X1814118Y878268D1*
Y736535D1*
X1845614Y705039D1*
X1955850D1*
X1975535Y685354D1*
X1979983Y660366D1*
X1793715Y928583D2*
D19*
Y902402D1*
D14*
Y713631D1*
X1829866Y677480D1*
X1905180D1*
Y660366D1*
X1904975Y831243D2*
Y866151D1*
X1908606Y869782D1*
Y902402D1*
D19*
X1911825D1*
Y928583D1*
X1774030D2*
Y902402D1*
D14*
Y646702D1*
X1762937Y635609D1*
Y622362D1*
X1411864Y773811D2*
D23*
X1294433Y656381D1*
Y579055D1*
X1577180Y928583D2*
D14*
Y901172D1*
X1524827Y848819D1*
X1474370D1*
D15*
X1411864Y786312D1*
D14*
Y773811D1*
X1522780Y823150D2*
D15*
X1486667Y787037D1*
D14*
Y773811D1*
X1596865Y928583D2*
D19*
Y893298D1*
D14*
X1486667Y783100D1*
Y773811D1*
X1518125Y928583D2*
D19*
X1511874D1*
D15*
X1469614D1*
X1443117Y955080D1*
D14*
X1419738D1*
X1577180Y1223858D2*
D19*
Y1250039D1*
D14*
Y1271064D1*
X1543127Y1305117D1*
D15*
X1479789D1*
X1424354Y1360551D1*
D14*
Y1370394D1*
X1408606Y1386142D1*
D23*
X1294433Y1500315D1*
Y1539395D1*
X1483409Y1386142D2*
D14*
X1499157D1*
Y1366457D1*
D15*
X1527701Y1337913D1*
X1551323D1*
D14*
X1596865Y1292371D1*
Y1250039D1*
D19*
Y1223858D1*
X1537810D2*
Y1250039D1*
D14*
Y1267613D1*
D15*
X1419738D1*
D14*
X1413487Y1261362D1*
D23*
X1294433D1*
Y1219282D1*
X1413487Y1186559D2*
D15*
X1437071D1*
X1474370Y1223858D1*
X1510969D1*
D19*
X1518125D1*
X1109394Y579055D2*
D23*
Y659764D1*
X1068055Y701102D1*
X1026717D1*
X1010969D1*
X672386Y1039685D1*
X554276D1*
X1109394Y899168D2*
Y985551D1*
X1026717D1*
X822976Y1189291D1*
X581835D1*
X570024Y1177480D1*
X554276D1*
X1109394Y1539395D2*
Y1472756D1*
X1026717D1*
X589709D1*
D14*
Y1484567D1*
X554276D1*
Y1453071D1*
X1109394Y1219282D2*
D23*
Y1197165D1*
X1026717D1*
X995220D1*
X861362Y1331024D1*
X554276D1*
Y1315276D1*
X1675605Y1223858D2*
D19*
Y1240472D1*
D14*
Y1283062D1*
X1727504Y1334961D1*
Y1453071D1*
X1818055Y1543622D1*
X1825929D1*
X1833803D1*
X1904669Y1614488D1*
X1825929Y1618425D2*
X1751126Y1543622D1*
X1743252D1*
X1655920Y1223858D2*
D19*
Y1240472D1*
D14*
Y1292896D1*
X1707819Y1344795D1*
Y1476693D1*
X1743252Y1512126D1*
Y1543622D1*
X1924354Y1264094D2*
X1937140D1*
X1951196Y1250039D1*
D19*
Y1223858D1*
X1971598Y890079D2*
D14*
Y901684D1*
X1970881Y902402D1*
D19*
Y928583D1*
Y1223858D2*
Y1260157D1*
X1975535D1*
X1125147Y1795591D2*
D24*
X1010969D1*
X841677Y1626299D1*
X806244D1*
X1696005Y1724724D2*
D14*
Y1579052D1*
X1684197Y1567244D1*
Y1475297D1*
X1685181Y1474312D1*
X1734660Y928583D2*
D19*
Y902402D1*
D14*
Y869676D1*
X1703882Y838898D1*
Y779843D1*
X1699945Y775906D1*
X2232425Y1094803D2*
D21*
X2274748D1*
X2286559Y1106614D1*
Y1257205D1*
X2239315Y1304449D1*
Y1438307D1*
X2263528Y1462520D1*
X2302307D1*
X2212740Y563307D2*
D14*
X2185181Y590866D1*
X2137937D1*
X2121205Y574134D1*
Y547559D1*
X2331835Y668622D2*
D21*
X2325929D1*
X2288528Y706024D1*
Y756220D1*
X2301323Y769016D1*
Y1272953D1*
X2267858Y1306417D1*
X2132031Y615472D2*
D14*
Y691260D1*
X2172386Y731614D1*
Y799528D1*
X2331835Y734567D2*
D21*
Y1313307D1*
X2302307Y1342835D1*
Y1362520D1*
X1932228Y890079D2*
D14*
Y901684D1*
X1931510Y902402D1*
D19*
Y928583D1*
X1537810D2*
D14*
Y899757D1*
D18*
X1524375Y886323D1*
X1419738D1*
Y880277D1*
D23*
X1313324D1*
X1294433Y899168D1*
X1778685Y551496D2*
D14*
X1821992D1*
X1825929Y547559D1*
X1877110Y535748D2*
Y545591D1*
X1875142Y547559D1*
X1924354Y535748D2*
Y547559D1*
X1975535Y535748D2*
Y545591D1*
X1973567Y547559D1*
X2022780Y535748D2*
Y547559D1*
X1621205Y575118D2*
Y813307D1*
X1676323Y868425D1*
Y901684D1*
X1675605Y902402D1*
D19*
Y928583D1*
X2109394Y730631D2*
D14*
Y672559D1*
X2071992Y635157D1*
Y547559D1*
X2245220Y535748D2*
Y536732D1*
X2181244D1*
X2170417Y547559D1*
X2331835Y703071D2*
D21*
X2326913D1*
X2309197Y720787D1*
Y747362D1*
X2317071Y755236D1*
Y1285748D1*
X2256047Y1346772D1*
Y1393031D1*
X2268843Y1405827D1*
D13*
X1463724Y1457008D3*
D78*
X1849551Y768031D3*
X2321992Y594803D3*
D18*
X1975535Y1260157D3*
X1971598Y890079D3*
X1924354Y1264094D3*
X1932228Y890079D3*
X1845614Y1264094D3*
X1810181Y1256220D3*
X2331835Y734567D3*
Y703071D3*
Y668622D3*
X2267858Y1306417D3*
X2268843Y1405827D3*
D13*
X1633016Y878268D3*
D25*
X1755063Y984567D3*
D78*
X1814118Y1043622D3*
D25*
X2117268Y1382205D3*
D18*
X1685181Y1474312D3*
D25*
X1971598Y1382205D3*
D78*
X2290496Y565276D3*
D25*
X1888921Y1271969D3*
D78*
X1207819Y697165D3*
X2188134Y1075118D3*
X1680260D3*
D25*
X1230188Y976083D3*
D78*
X1566087Y1075118D3*
X1947976D3*
X2188134Y866457D3*
X877110Y468819D3*
D25*
X1199945Y1468819D3*
D78*
X660575Y1111535D3*
D25*
X1231441Y1421575D3*
D78*
X1207819Y468819D3*
Y778530D3*
X660575Y1396969D3*
Y1539685D3*
Y968819D3*
D18*
X2132031Y615472D3*
X1081835Y1722756D3*
D78*
X660575Y1254252D3*
X1270811Y1966850D3*
D18*
X1109394Y1722756D3*
D25*
X1172386Y1421575D3*
X1176501Y976083D3*
D18*
X1778685Y551496D3*
X1877110Y535748D3*
X1924354D3*
X1975535D3*
D78*
X1438949Y689291D3*
D18*
X2022780Y535748D3*
D78*
X1434197Y590866D3*
D18*
X1066087Y1870394D3*
D78*
X1727504Y1966850D3*
D18*
X1109394Y1870394D3*
D78*
X2070024Y1075118D3*
Y866457D3*
D18*
X1621205Y575118D3*
X1081835Y1677480D3*
X1109394D3*
X1095614Y1699134D3*
X1066087Y1911732D3*
X1109394D3*
X1087740Y1892047D3*
X2245220Y535748D3*
X2212740Y563307D3*
X2232425Y1094803D3*
X1476736Y855546D2*
D27*
X1528260D1*
X1476736Y851740D2*
X1528260D1*
X1528650Y859352D2*
X1476346D1*
X1476339Y850793D1*
X1528650Y850787D1*
X1528657Y859346D1*
X500487Y1970820D2*
D28*
X1889803D1*
X2147858D2*
X2249219D1*
X593499Y1945951D2*
X755396D1*
X857068D2*
X1795392D1*
X1887949D2*
X1904731D1*
X2132966D2*
X2161554D1*
X608606Y1921083D2*
X722168D1*
X890333D2*
X1542085D1*
X1653087D2*
X1672596D1*
X1719401D2*
X1783514D1*
X1899827D2*
X1971655D1*
X2066042D2*
X2149676D1*
X2265953D2*
X2327841D1*
X611333Y1896214D2*
X712335D1*
X900165D2*
X1542085D1*
X1745848D2*
X1784016D1*
X1899324D2*
X1972301D1*
X2065396D2*
X2150179D1*
X2265487D2*
X2327841D1*
X603654Y1871345D2*
X713304D1*
X899196D2*
X1542085D1*
X1751517D2*
X1797365D1*
X1886011D2*
X1990853D1*
X2046808D2*
X2163492D1*
X2252138D2*
X2327841D1*
X428719Y1846476D2*
X451565D1*
X578248D2*
X701534D1*
X886816D2*
X994170D1*
X1178519D2*
X1225300D1*
X1393896D2*
X1542085D1*
X1744771D2*
X2327841D1*
X428719Y1821608D2*
X513932D1*
X602470D2*
X665686D1*
X773566D2*
X959721D1*
X1178519D2*
X1225300D1*
X1428345D2*
X1542085D1*
X1653087D2*
X1678194D1*
X1713803D2*
X2327841D1*
X428719Y1796739D2*
X489530D1*
X626871D2*
X655387D1*
X783865D2*
X934853D1*
X1180492D2*
X1223326D1*
X1453212D2*
X2254494D1*
X428719Y1771870D2*
X479698D1*
X636703D2*
X654418D1*
X784833D2*
X909985D1*
X1178519D2*
X1225300D1*
X1478080D2*
X1542085D1*
X1653087D2*
X1669259D1*
X1722738D2*
X2243801D1*
X428719Y1747001D2*
X478657D1*
X637744D2*
X654418D1*
X784833D2*
X885118D1*
X1178519D2*
X1225300D1*
X1502948D2*
X1542085D1*
X1746601D2*
X1829195D1*
X1925018D2*
X1985327D1*
X2052371D2*
X2245164D1*
X428719Y1722133D2*
X486014D1*
X630424D2*
X654598D1*
X784654D2*
X860250D1*
X1014743D2*
X1373322D1*
X1517409D2*
X1542085D1*
X1751446D2*
X1818573D1*
X1935639D2*
X1971188D1*
X2066509D2*
X2259877D1*
X428719Y1697264D2*
X505283D1*
X611154D2*
X661774D1*
X777477D2*
X835382D1*
X989876D2*
X1398190D1*
X1519096D2*
X1542085D1*
X1743838D2*
X1820008D1*
X1934204D2*
X1972983D1*
X2064715D2*
X2254889D1*
X428719Y1672395D2*
X470619D1*
X559194D2*
X685781D1*
X965008D2*
X1052087D1*
X1166713D2*
X1237106D1*
X1351768D2*
X1408381D1*
X1728336D2*
X1834828D1*
X1919420D2*
X1994370D1*
X2043328D2*
X2243872D1*
X599527Y1647526D2*
X715206D1*
X940140D2*
X1052087D1*
X1166713D2*
X1237106D1*
X1351768D2*
X1408381D1*
X2030876D2*
X2075468D1*
X2088197D2*
X2245021D1*
X610436Y1622657D2*
X711618D1*
X915272D2*
X1052087D1*
X1166713D2*
X1237106D1*
X1351768D2*
X1408381D1*
X2131387D2*
X2259374D1*
X610293Y1597789D2*
X718364D1*
X894101D2*
X1052087D1*
X1166713D2*
X1237106D1*
X1351768D2*
X1408381D1*
X2140717D2*
X2255283D1*
X599061Y1572920D2*
X741330D1*
X871171D2*
X971347D1*
X1166713D2*
X1237106D1*
X1351768D2*
X1408381D1*
X2138205D2*
X2243980D1*
X428719Y1548051D2*
X475930D1*
X553883D2*
X971347D1*
X1166713D2*
X1237106D1*
X1351768D2*
X1408381D1*
X2121663D2*
X2244877D1*
X428719Y1523182D2*
X971347D1*
X1166713D2*
X1237106D1*
X1351768D2*
X1408381D1*
X2112871D2*
X2258836D1*
X428719Y1498314D2*
X475284D1*
X1166713D2*
X1237106D1*
X1365332D2*
X1408381D1*
X2093027D2*
X2255714D1*
X428719Y1473445D2*
X475284D1*
X1166713D2*
X1237106D1*
X1390200D2*
X1408381D1*
X2068160D2*
X2233394D1*
X428719Y1448576D2*
X475284D1*
X1166713D2*
X1237106D1*
X2042754D2*
X2211577D1*
X428719Y1423707D2*
X475284D1*
X633259D2*
X1052087D1*
X1166713D2*
X1237106D1*
X1963952D2*
X2209567D1*
X428719Y1398839D2*
X475284D1*
X633259D2*
X1327031D1*
X2155143D2*
X2209567D1*
X428719Y1373970D2*
X508370D1*
X882833D2*
X1351899D1*
X2157978D2*
X2209567D1*
X428719Y1349101D2*
X484219D1*
X912186D2*
X1052087D1*
X1166713D2*
X1237106D1*
X2140538D2*
X2209567D1*
X428719Y1324232D2*
X475894D1*
X937054D2*
X1052087D1*
X1166713D2*
X1237106D1*
X1351768D2*
X1406802D1*
X2026534D2*
X2070659D1*
X2176889D2*
X2209567D1*
X428719Y1299364D2*
X477186D1*
X1166713D2*
X1237106D1*
X1941524D2*
X2054368D1*
X2193180D2*
X2210034D1*
X428719Y1274495D2*
X488741D1*
X619802D2*
X848982D1*
X1166713D2*
X1237106D1*
X2007946D2*
X2053399D1*
X2194149D2*
X2228227D1*
X428719Y1249626D2*
X523979D1*
X584564D2*
X873850D1*
X1166713D2*
X1237106D1*
X2009489D2*
X2063841D1*
X2183707D2*
X2253095D1*
X428719Y1224757D2*
X494195D1*
X856243D2*
X898718D1*
X1166713D2*
X1237106D1*
X2002312D2*
X2256791D1*
X428719Y1199888D2*
X479052D1*
X881290D2*
X923585D1*
X1166713D2*
X1237106D1*
X2002312D2*
X2256791D1*
X428719Y1175020D2*
X475356D1*
X906158D2*
X948453D1*
X1166713D2*
X1237106D1*
X1479408D2*
X2256791D1*
X428719Y1150151D2*
X480990D1*
X931026D2*
X971347D1*
X1166713D2*
X1237106D1*
X1468858D2*
X2256791D1*
X428719Y1125282D2*
X499398D1*
X609180D2*
X818086D1*
X955893D2*
X1052087D1*
X1166713D2*
X1237106D1*
X1351768D2*
X2216852D1*
X428719Y1100413D2*
X511994D1*
X596549D2*
X842954D1*
X980761D2*
X1052087D1*
X1166713D2*
X1237106D1*
X1351768D2*
X2197223D1*
X428719Y1075545D2*
X485404D1*
X705206D2*
X867821D1*
X1005629D2*
X2202928D1*
X428719Y1050676D2*
X476181D1*
X730289D2*
X892689D1*
X1030497D2*
X2271575D1*
X428719Y1025807D2*
X476720D1*
X755157D2*
X917557D1*
X1166713D2*
X1237106D1*
X1351768D2*
X2271575D1*
X428719Y1000938D2*
X487306D1*
X780025D2*
X942425D1*
X1166713D2*
X1237106D1*
X1351768D2*
X1364387D1*
X1475102D2*
X1717092D1*
X1793035D2*
X2271575D1*
X428719Y976070D2*
X518238D1*
X590341D2*
X667121D1*
X804893D2*
X869580D1*
X1166713D2*
X1237106D1*
X1351768D2*
X1364387D1*
X1475999D2*
X1714437D1*
X1795691D2*
X2271575D1*
X428719Y951201D2*
X691989D1*
X829760D2*
X869580D1*
X1166713D2*
X1237106D1*
X1351768D2*
X1364387D1*
X2002312D2*
X2271575D1*
X428719Y926332D2*
X716857D1*
X854628D2*
X869580D1*
X1166713D2*
X1237106D1*
X2002312D2*
X2271575D1*
X428719Y901463D2*
X741724D1*
X1166713D2*
X1237106D1*
X2005255D2*
X2271575D1*
X428719Y876594D2*
X766592D1*
X904364D2*
X971347D1*
X1166713D2*
X1237106D1*
X2031199D2*
X2271575D1*
X428719Y851726D2*
X597972D1*
X678293D2*
X715242D1*
X767322D2*
X791460D1*
X929231D2*
X1052087D1*
X1166713D2*
X1237106D1*
X2031199D2*
X2271575D1*
X428719Y826857D2*
X580461D1*
X790467D2*
X816328D1*
X954099D2*
X1052087D1*
X1166713D2*
X1237106D1*
X1351768D2*
X1398549D1*
X2031199D2*
X2121938D1*
X2222820D2*
X2271575D1*
X428719Y801988D2*
X577052D1*
X794450D2*
X841195D1*
X978967D2*
X1052087D1*
X1166713D2*
X1237106D1*
X2031199D2*
X2121938D1*
X2222820D2*
X2271575D1*
X428719Y777119D2*
X584803D1*
X785264D2*
X866063D1*
X1003835D2*
X1052087D1*
X1166713D2*
X1237106D1*
X2030876D2*
X2121938D1*
X2222820D2*
X2268381D1*
X428719Y752251D2*
X502843D1*
X680482D2*
X716283D1*
X766281D2*
X890931D1*
X1028702D2*
X1321398D1*
X2030876D2*
X2058961D1*
X2204699D2*
X2258764D1*
X428719Y727382D2*
X502843D1*
X803960D2*
X915799D1*
X1110662D2*
X1296530D1*
X2030876D2*
X2058961D1*
X2204412D2*
X2258764D1*
X428719Y702513D2*
X502843D1*
X828827D2*
X940666D1*
X1166713D2*
X1237106D1*
X1409469D2*
X1454169D1*
X2031414D2*
X2058961D1*
X2222820D2*
X2258980D1*
X428719Y677644D2*
X502843D1*
X853695D2*
X965534D1*
X1166713D2*
X1237106D1*
X1384602D2*
X1454169D1*
X2031414D2*
X2069798D1*
X2222820D2*
X2275845D1*
X428719Y652776D2*
X599264D1*
X677001D2*
X717359D1*
X765205D2*
X789235D1*
X878563D2*
X971347D1*
X1166713D2*
X1237106D1*
X1359734D2*
X1454169D1*
X2031414D2*
X2045433D1*
X2222820D2*
X2300210D1*
X428719Y627907D2*
X580856D1*
X790001D2*
X814103D1*
X903431D2*
X971347D1*
X1166713D2*
X1237106D1*
X1351768D2*
X1454169D1*
X2222820D2*
X2327841D1*
X428719Y603038D2*
X576980D1*
X794558D2*
X838971D1*
X928298D2*
X971347D1*
X1166713D2*
X1237106D1*
X1351768D2*
X1454169D1*
X1889169D2*
X2039655D1*
X2217689D2*
X2327841D1*
X428719Y578169D2*
X584229D1*
X785982D2*
X863838D1*
X1166713D2*
X1237106D1*
X1351768D2*
X1453954D1*
X2244889D2*
X2327841D1*
X428719Y553301D2*
X610927D1*
X665339D2*
X888706D1*
X1166713D2*
X1237106D1*
X1351768D2*
X1453954D1*
X2275857D2*
X2327841D1*
X428719Y528432D2*
X914220D1*
X1166713D2*
X1237106D1*
X1351768D2*
X1453954D1*
X2280056D2*
X2327841D1*
X428719Y503563D2*
X1052087D1*
X1166713D2*
X1237106D1*
X1351768D2*
X1453954D1*
X2296634D2*
X2327841D1*
X486600Y478694D2*
X1052087D1*
X1166713D2*
X1237106D1*
X1351768D2*
X1699725D1*
X1802545D2*
X2193814D1*
X2296634D2*
X2327841D1*
X499913Y453825D2*
X1052087D1*
X1166713D2*
X1237106D1*
X1351768D2*
X1699725D1*
X1802545D2*
X2193814D1*
X2296634D2*
X2327841D1*
X499949Y428957D2*
X1699725D1*
X1802545D2*
X2193814D1*
X2296634D2*
X2327841D1*
X1725830Y1667342D2*
X1843228D1*
X1836953Y1672756D1*
X1831165Y1679532D1*
X1826509Y1687131D1*
X1823098Y1695364D1*
X1821018Y1704029D1*
X1820319Y1712913D1*
X1821018Y1721798D1*
X1823098Y1730463D1*
X1826509Y1738696D1*
X1831165Y1746294D1*
X1836953Y1753071D1*
X1843729Y1758859D1*
X1851328Y1763515D1*
X1859561Y1766925D1*
X1868226Y1769006D1*
X1877110Y1769705D1*
X1885994Y1769006D1*
X1894660Y1766925D1*
X1902893Y1763515D1*
X1910491Y1758859D1*
X1917268Y1753071D1*
X1923055Y1746294D1*
X1927712Y1738696D1*
X1931122Y1730463D1*
X1933202Y1721798D1*
X1933902Y1712913D1*
X1933202Y1704029D1*
X1931122Y1695364D1*
X1927712Y1687131D1*
X1923055Y1679532D1*
X1917268Y1672756D1*
X1910970Y1667346D1*
X2011632Y1667385D1*
X2004598Y1669074D1*
X1997915Y1671842D1*
X1991748Y1675621D1*
X1986248Y1680319D1*
X1981550Y1685819D1*
X1977771Y1691986D1*
X1975003Y1698669D1*
X1973314Y1705702D1*
X1972747Y1712913D1*
X1973314Y1720124D1*
X1975003Y1727158D1*
X1977771Y1733840D1*
X1981550Y1740008D1*
X1986248Y1745508D1*
X1991748Y1750206D1*
X1997915Y1753985D1*
X2004598Y1756753D1*
X2011632Y1758442D1*
X2018843Y1759009D1*
X2026053Y1758442D1*
X2033087Y1756753D1*
X2039770Y1753985D1*
X2045937Y1750206D1*
X2051437Y1745508D1*
X2056135Y1740008D1*
X2059914Y1733840D1*
X2062682Y1727158D1*
X2064371Y1720124D1*
X2064938Y1712913D1*
X2064371Y1705702D1*
X2062682Y1698669D1*
X2059914Y1691986D1*
X2056135Y1685819D1*
X2051437Y1680319D1*
X2045937Y1675621D1*
X2039770Y1671842D1*
X2033087Y1669074D1*
X2025702Y1667344D1*
X2028390Y1667342D1*
Y1610078D1*
X2031233Y1616649D1*
X2035889Y1624247D1*
X2041677Y1631024D1*
X2048454Y1636811D1*
X2056052Y1641468D1*
X2064285Y1644878D1*
X2072951Y1646958D1*
X2081835Y1647657D1*
X2090719Y1646958D1*
X2099384Y1644878D1*
X2107617Y1641468D1*
X2115216Y1636811D1*
X2121992Y1631024D1*
X2127780Y1624247D1*
X2132436Y1616649D1*
X2135846Y1608416D1*
X2137927Y1599750D1*
X2138626Y1590866D1*
X2137927Y1581982D1*
X2135846Y1573317D1*
X2132436Y1565083D1*
X2127780Y1557485D1*
X2121992Y1550709D1*
X2115216Y1544921D1*
X2111667Y1542550D1*
X2111566Y1529471D1*
X2110834Y1524849D1*
X2109387Y1520398D1*
X2107263Y1516229D1*
X2104512Y1512443D1*
X2050957Y1458757D1*
X2042148Y1450078D1*
X2038362Y1447328D1*
X2034192Y1445203D1*
X2029742Y1443757D1*
X2025119Y1443025D1*
X1961453Y1442933D1*
X1961461Y1419935D1*
X1968533Y1421159D1*
X1974664D1*
X1980720Y1420200D1*
X1986552Y1418305D1*
X1992015Y1415521D1*
X1996975Y1411917D1*
X2001311Y1407582D1*
X2002788Y1405709D1*
X2007066Y1409822D1*
X2011677Y1413172D1*
X2016755Y1415759D1*
X2022175Y1417520D1*
X2027804Y1418412D1*
X2076585Y1418524D1*
X2102888D1*
X2108146Y1420200D1*
X2114202Y1421159D1*
X2120333D1*
X2126390Y1420200D1*
X2132221Y1418305D1*
X2137684Y1415521D1*
X2142645Y1411917D1*
X2146980Y1407582D1*
X2150584Y1402621D1*
X2153368Y1397158D1*
X2155263Y1391327D1*
X2156222Y1385270D1*
Y1379139D1*
X2155263Y1373083D1*
X2153368Y1367251D1*
X2150584Y1361788D1*
X2146980Y1356828D1*
X2142645Y1352492D1*
X2137684Y1348888D1*
X2132221Y1346104D1*
X2126390Y1344210D1*
X2120333Y1343250D1*
X2114202D1*
X2108146Y1344210D1*
X2102910Y1345884D1*
X2045679Y1345886D1*
X2022745Y1323091D1*
X2018134Y1319742D1*
X2013056Y1317154D1*
X2007636Y1315393D1*
X2002007Y1314502D1*
X1961465Y1314390D1*
X1961461Y1301791D1*
X1940469D1*
X1937989Y1297865D1*
X1936216Y1295617D1*
X1937048Y1294739D1*
X1939480Y1293826D1*
X1944102Y1293093D1*
X1948553Y1291647D1*
X1952723Y1289523D1*
X1954677Y1288216D1*
X1958205Y1288439D1*
X1962842Y1290802D1*
X1967792Y1292410D1*
X1972933Y1293225D1*
X1978138D1*
X1983279Y1292410D1*
X1988229Y1290802D1*
X1992866Y1288439D1*
X1997077Y1285380D1*
X2000758Y1281699D1*
X2003817Y1277488D1*
X2006180Y1272851D1*
X2007788Y1267901D1*
X2008602Y1262760D1*
Y1257555D1*
X2007788Y1252414D1*
X2006180Y1247464D1*
X2003817Y1242827D1*
X2000758Y1238616D1*
X1999811Y1237592D1*
X1999818Y1180846D1*
X1882889D1*
X1804148Y1180882D1*
X1725408D1*
X1626983Y1180846D1*
X1567928Y1180882D1*
X1489188Y1180846D1*
Y1187341D1*
X1466349Y1164474D1*
X1466341Y1137642D1*
X1360633D1*
Y1214418D1*
X1349290Y1214413D1*
X1349256Y1083751D1*
X1239610D1*
Y1354814D1*
X1349256D1*
Y1308344D1*
X1360639Y1308311D1*
X1360633Y1310279D1*
X1423251D1*
X1400258Y1333285D1*
X1359689Y1333287D1*
Y1368633D1*
X1324483Y1403869D1*
X1239610Y1403863D1*
Y1674926D1*
X1349256D1*
Y1511905D1*
X1411390Y1449753D1*
X1410870Y1457008D1*
Y1687082D1*
X1355228Y1742726D1*
X1329564Y1742736D1*
X1329571Y1730925D1*
X1227799D1*
Y1781271D1*
X1226481Y1787322D1*
X1225831Y1795591D1*
X1226481Y1803859D1*
X1227797Y1809723D1*
X1227799Y1860256D1*
X1329571D1*
Y1848450D1*
X1381257Y1848282D1*
X1389449Y1846985D1*
X1397337Y1844422D1*
X1404727Y1840656D1*
X1411436Y1835781D1*
X1433971Y1813477D1*
X1503915Y1743303D1*
X1508790Y1736593D1*
X1512555Y1729203D1*
X1515118Y1721315D1*
X1516416Y1713123D1*
X1516579Y1691501D1*
X1548624Y1659455D1*
X1666188Y1659468D1*
X1666182Y1680928D1*
X1661577Y1684414D1*
X1655695Y1690296D1*
X1650591Y1697409D1*
X1650597Y1671712D1*
X1544574D1*
Y1777736D1*
X1650597D1*
X1650805Y1752423D1*
X1655695Y1759153D1*
X1661577Y1765035D1*
X1668307Y1769924D1*
X1675719Y1773701D1*
X1683630Y1776271D1*
X1691846Y1777573D1*
X1700165D1*
X1708381Y1776271D1*
X1716292Y1773701D1*
X1723704Y1769924D1*
X1730434Y1765035D1*
X1736316Y1759153D1*
X1741205Y1752423D1*
X1744982Y1745011D1*
X1747552Y1737100D1*
X1748854Y1728884D1*
Y1720565D1*
X1747552Y1712349D1*
X1744982Y1704438D1*
X1741205Y1697026D1*
X1736316Y1690296D1*
X1730434Y1684414D1*
X1725826Y1680943D1*
X1725828Y1667346D1*
X1456670Y646192D2*
X1456668Y720953D1*
X1425435Y720956D1*
X1349275Y644827D1*
X1349256Y443524D1*
X1239610D1*
Y714587D1*
X1286224D1*
X1335302Y763645D1*
X1239611Y763636D1*
Y1034699D1*
X1349256D1*
Y927226D1*
X1366899D1*
X1366883Y1003997D1*
X1472592D1*
Y976976D1*
X1484657Y964903D1*
X1489171Y964902D1*
X1489188Y971594D1*
X1617635Y971690D1*
X1624607Y974069D1*
X1631866Y975328D1*
X1639233Y975436D1*
X1646525Y974390D1*
X1653564Y972216D1*
X1654973Y971592D1*
X1718175Y971594D1*
X1716469Y978454D1*
X1715988Y984567D1*
X1716469Y990680D1*
X1717901Y996642D1*
X1720247Y1002307D1*
X1723451Y1007535D1*
X1727433Y1012197D1*
X1732095Y1016179D1*
X1737323Y1019383D1*
X1742988Y1021729D1*
X1748950Y1023161D1*
X1755063Y1023642D1*
X1761176Y1023161D1*
X1767138Y1021729D1*
X1772803Y1019383D1*
X1778031Y1016179D1*
X1782693Y1012197D1*
X1786675Y1007535D1*
X1789879Y1002307D1*
X1792225Y996642D1*
X1793657Y990680D1*
X1794138Y984567D1*
X1793657Y978454D1*
X1791898Y971604D1*
X1999818Y971594D1*
X1999962Y910899D1*
X2001055Y906340D1*
X2003851Y897822D1*
X2004665Y892681D1*
Y887476D1*
X2004352Y884097D1*
X2028696D1*
Y778388D1*
X2028387D1*
X2028390Y713220D1*
X2028901D1*
Y607512D1*
X1886671Y607511D1*
X1886657Y594513D1*
X2042160Y594508D1*
X2042261Y637497D1*
X2042993Y642119D1*
X2044439Y646570D1*
X2046564Y650740D1*
X2049315Y654526D1*
X2079551Y684893D1*
X2074650Y689588D1*
X2061461D1*
Y771674D1*
X2124438D1*
X2124453Y840571D1*
X2220319D1*
Y758484D1*
X2202198D1*
X2202117Y729274D1*
X2201385Y724652D1*
X2199939Y720201D1*
X2197814Y716032D1*
X2195063Y712246D1*
X2185735Y702787D1*
X2220319Y702775D1*
Y620689D1*
X2187521Y620597D1*
X2192143Y619865D1*
X2196594Y618419D1*
X2200764Y616294D1*
X2204550Y613544D1*
X2223549Y594674D1*
X2227799Y592861D1*
X2232237Y590142D1*
X2236194Y586761D1*
X2239575Y582804D1*
X2242294Y578366D1*
X2244286Y573557D1*
X2245416Y568925D1*
X2250409Y568509D1*
X2255470Y567294D1*
X2260279Y565302D1*
X2264717Y562583D1*
X2268675Y559202D1*
X2272055Y555244D1*
X2274775Y550807D1*
X2276766Y545998D1*
X2277981Y540937D1*
X2278390Y535748D1*
X2277981Y530559D1*
X2276766Y525498D1*
X2275775Y522861D1*
X2294138Y522854D1*
Y426204D1*
X2330311Y426201D1*
X2330335Y635501D1*
X2324091Y636369D1*
X2319141Y637978D1*
X2314504Y640341D1*
X2310293Y643400D1*
X2306613Y647080D1*
X2303553Y651291D1*
X2302149Y653850D1*
X2267796Y688317D1*
X2265281Y691778D1*
X2263339Y695590D1*
X2262017Y699659D1*
X2261348Y703885D1*
X2261264Y756220D1*
X2261599Y760485D1*
X2262598Y764645D1*
X2264235Y768598D1*
X2266471Y772246D1*
X2269249Y775499D1*
X2274057Y780307D1*
X2274059Y1067536D1*
X2251316Y1067539D1*
X2247484Y1065249D1*
X2242675Y1063257D1*
X2237614Y1062042D1*
X2232425Y1061634D1*
X2227236Y1062042D1*
X2222175Y1063257D1*
X2217367Y1065249D1*
X2212929Y1067969D1*
X2208971Y1071349D1*
X2205591Y1075307D1*
X2202871Y1079745D1*
X2200879Y1084553D1*
X2199664Y1089614D1*
X2199256Y1094803D1*
X2199664Y1099992D1*
X2200879Y1105053D1*
X2202871Y1109862D1*
X2205591Y1114300D1*
X2208971Y1118257D1*
X2212929Y1121638D1*
X2217367Y1124357D1*
X2222175Y1126349D1*
X2227236Y1127564D1*
X2232425Y1127972D1*
X2237614Y1127564D1*
X2242675Y1126349D1*
X2247484Y1124357D1*
X2251287Y1122062D1*
X2259295Y1124987D1*
Y1245881D1*
X2218583Y1286742D1*
X2216069Y1290204D1*
X2214127Y1294015D1*
X2212804Y1298084D1*
X2212135Y1302310D1*
X2212051Y1405499D1*
X2212135Y1440446D1*
X2212804Y1444672D1*
X2214126Y1448740D1*
X2216069Y1452552D1*
X2218583Y1456014D1*
X2244249Y1481798D1*
X2247502Y1484577D1*
X2249290Y1485770D1*
X2251706Y1488302D1*
X2256362Y1495901D1*
X2262150Y1502677D1*
X2268926Y1508465D1*
X2275415Y1512500D1*
X2268926Y1516575D1*
X2262150Y1522362D1*
X2256362Y1529139D1*
X2251706Y1536737D1*
X2248295Y1544970D1*
X2246215Y1553636D1*
X2245516Y1562520D1*
X2246215Y1571404D1*
X2248295Y1580069D1*
X2251706Y1588302D1*
X2256362Y1595901D1*
X2262150Y1602677D1*
X2268926Y1608465D1*
X2275415Y1612500D1*
X2268926Y1616575D1*
X2262150Y1622362D1*
X2256362Y1629139D1*
X2251706Y1636737D1*
X2248295Y1644970D1*
X2246215Y1653636D1*
X2245516Y1662520D1*
X2246215Y1671404D1*
X2248295Y1680069D1*
X2251706Y1688302D1*
X2256362Y1695901D1*
X2262150Y1702677D1*
X2268926Y1708465D1*
X2275415Y1712500D1*
X2268926Y1716575D1*
X2262150Y1722362D1*
X2256362Y1729139D1*
X2251706Y1736737D1*
X2248295Y1744970D1*
X2246215Y1753636D1*
X2245516Y1762520D1*
X2246215Y1771404D1*
X2248295Y1780069D1*
X2251706Y1788302D1*
X2256362Y1795901D1*
X2262150Y1802677D1*
X2268926Y1808465D1*
X2276524Y1813121D1*
X2284758Y1816531D1*
X2293423Y1818612D1*
X2302307Y1819311D1*
X2311191Y1818612D1*
X2319857Y1816531D1*
X2328090Y1813121D1*
X2330324Y1811870D1*
X2330335Y1927475D1*
X2323185Y1924553D1*
X2314820Y1922545D1*
X2306244Y1921870D1*
X2297668Y1922545D1*
X2289303Y1924553D1*
X2281355Y1927845D1*
X2274020Y1932340D1*
X2267478Y1937927D1*
X2261891Y1944469D1*
X2257397Y1951804D1*
X2254104Y1959752D1*
X2252096Y1968117D1*
X2251421Y1976693D1*
X2252096Y1985269D1*
X2254104Y1993634D1*
X2254867Y1995701D1*
X2145508Y1995689D1*
X2145429Y1971286D1*
X2143245Y1960898D1*
X2141912Y1958280D1*
X2136429Y1950350D1*
X2134194Y1948441D1*
X2126095Y1943217D1*
X2123297Y1942309D1*
X2113331Y1940571D1*
X2053153D1*
X2058146Y1933849D1*
X2061429Y1927404D1*
X2063665Y1920525D1*
X2064796Y1913380D1*
Y1906147D1*
X2063665Y1899003D1*
X2061429Y1892124D1*
X2058146Y1885679D1*
X2053894Y1879827D1*
X2048779Y1874712D1*
X2042928Y1870461D1*
X2036483Y1867177D1*
X2029603Y1864942D1*
X2022459Y1863810D1*
X2015226D1*
X2008082Y1864942D1*
X2001202Y1867177D1*
X1994758Y1870461D1*
X1988906Y1874712D1*
X1983791Y1879827D1*
X1979539Y1885679D1*
X1976256Y1892124D1*
X1974020Y1899003D1*
X1972889Y1906147D1*
Y1913380D1*
X1974020Y1920525D1*
X1976256Y1927404D1*
X1979539Y1933849D1*
X1983791Y1939701D1*
X1984588Y1940562D1*
X1922885Y1940658D1*
X1912497Y1942842D1*
X1909878Y1944175D1*
X1901948Y1949658D1*
X1900040Y1951893D1*
X1894816Y1959989D1*
X1893908Y1962784D1*
X1892169Y1972756D1*
Y1995686D1*
X496753Y1995689D1*
X498187Y1989206D1*
X498862Y1980630D1*
X498187Y1972054D1*
X496430Y1964579D1*
X550422Y1964458D1*
X557712Y1963558D1*
X564846Y1961812D1*
X571727Y1959244D1*
X578261Y1955889D1*
X584357Y1951792D1*
X589933Y1947011D1*
X594911Y1941611D1*
X599223Y1935665D1*
X602811Y1929256D1*
X605624Y1922471D1*
X607625Y1915404D1*
X608785Y1908151D1*
X609072Y1900053D1*
X608427Y1892736D1*
X606931Y1885545D1*
X604604Y1878579D1*
X601478Y1871932D1*
X597597Y1865697D1*
X593013Y1859958D1*
X587789Y1854794D1*
X581997Y1850277D1*
X575717Y1846469D1*
X569035Y1843421D1*
X562041Y1841175D1*
X554834Y1839763D1*
X547510Y1839203D1*
X479010Y1839347D1*
X471726Y1840291D1*
X464602Y1842080D1*
X457737Y1844690D1*
X451223Y1848085D1*
X445152Y1852218D1*
X439606Y1857033D1*
X434660Y1862464D1*
X430384Y1868435D1*
X426835Y1874866D1*
X426203Y1876242D1*
X426201Y1636178D1*
X429982Y1643360D1*
X434186Y1649383D1*
X439065Y1654873D1*
X444553Y1659755D1*
X450574Y1663962D1*
X457045Y1667435D1*
X463879Y1670128D1*
X470980Y1672004D1*
X478252Y1673036D1*
X488922Y1673248D1*
X550422Y1673119D1*
X557712Y1672219D1*
X564846Y1670474D1*
X571727Y1667905D1*
X578261Y1664550D1*
X584357Y1660454D1*
X589933Y1655672D1*
X594911Y1650272D1*
X599223Y1644326D1*
X602811Y1637917D1*
X605624Y1631132D1*
X607625Y1624065D1*
X608785Y1616813D1*
X609072Y1608714D1*
X608427Y1601398D1*
X606931Y1594207D1*
X604604Y1587240D1*
X601478Y1580594D1*
X597597Y1574358D1*
X593013Y1568619D1*
X587789Y1563456D1*
X581997Y1558939D1*
X575717Y1555130D1*
X569035Y1552082D1*
X562041Y1549836D1*
X554834Y1548424D1*
X547510Y1547864D1*
X479010Y1548009D1*
X471726Y1548953D1*
X464602Y1550742D1*
X457737Y1553351D1*
X451223Y1556746D1*
X445152Y1560880D1*
X439606Y1565695D1*
X434660Y1571125D1*
X430384Y1577097D1*
X426835Y1583528D1*
X426203Y1584903D1*
X426201Y493123D1*
X435463Y495408D1*
X444039Y496083D1*
X452616Y495408D1*
X460981Y493399D1*
X468928Y490107D1*
X476263Y485612D1*
X482805Y480025D1*
X488392Y473484D1*
X492887Y466149D1*
X496179Y458201D1*
X498187Y449836D1*
X498862Y441260D1*
X498187Y432684D1*
X496713Y426212D1*
X1702194Y426201D1*
X1702209Y486828D1*
X1629098Y486831D1*
X1629101Y485540D1*
X1456463D1*
X1456668Y600774D1*
Y646196D1*
X1405525Y831359D2*
X1366883D1*
Y833333D1*
X1349225Y833328D1*
X1349256Y777589D1*
X1362959Y791303D1*
X1362946Y826665D1*
X1400876D1*
X1054574Y861830D2*
X973863D1*
Y887933D1*
X968477Y887160D1*
X961728D1*
X958114Y887487D1*
Y887027D1*
X891434D1*
X1028467Y749999D1*
X1079571Y750020D1*
Y746611D1*
X1086022Y744477D1*
X1092586Y741133D1*
X1098546Y736803D1*
X1120969Y714585D1*
X1164217Y714587D1*
Y443524D1*
X1054571D1*
Y503988D1*
X994925Y503956D1*
Y504523D1*
X987937Y503957D1*
X981208Y504486D1*
X974646Y506062D1*
X968410Y508645D1*
X962655Y512171D1*
X957523Y516555D1*
X953140Y521687D1*
X952224Y523058D1*
X931463Y523143D1*
X926841Y523875D1*
X922390Y525321D1*
X918221Y527446D1*
X914435Y530196D1*
X860749Y583752D1*
X775518Y668983D1*
X771193Y665447D1*
X764385Y661275D1*
X757008Y658219D1*
X750637Y656632D1*
X756628Y655131D1*
X763451Y652418D1*
X769812Y648751D1*
X775579Y644206D1*
X780633Y638879D1*
X784866Y632880D1*
X788193Y626334D1*
X790543Y619377D1*
X791867Y612155D1*
X792136Y604777D1*
X791342Y597478D1*
X789506Y590368D1*
X786666Y583597D1*
X782881Y577305D1*
X778230Y571624D1*
X772809Y566670D1*
X766732Y562549D1*
X760125Y559345D1*
X753126Y557126D1*
X745880Y555936D1*
X738539Y555802D1*
X731255Y556726D1*
X724179Y558689D1*
X717460Y561650D1*
X711236Y565547D1*
X705639Y570299D1*
X700783Y575807D1*
X696771Y581956D1*
X693896Y588093D1*
X691353Y581706D1*
X687830Y575262D1*
X683531Y569307D1*
X678523Y563936D1*
X672883Y559231D1*
X666701Y555266D1*
X660073Y552104D1*
X653101Y549793D1*
X645896Y548369D1*
X638570Y547856D1*
X631237Y548260D1*
X624012Y549577D1*
X617007Y551784D1*
X610332Y554848D1*
X604092Y558720D1*
X598383Y563341D1*
X593295Y568637D1*
X588908Y574527D1*
X585290Y580919D1*
X582498Y587711D1*
X580574Y594799D1*
X579550Y602072D1*
X579441Y609415D1*
X580249Y616715D1*
X581961Y623857D1*
X584551Y630729D1*
X587977Y637225D1*
X592188Y643243D1*
X597116Y648688D1*
X602685Y653476D1*
X606498Y656123D1*
X505358Y656122D1*
Y761831D1*
X600077D1*
X594505Y767254D1*
X589935Y773004D1*
X586119Y779279D1*
X583116Y785981D1*
X580972Y793006D1*
X579721Y800242D1*
X579382Y807579D1*
X579961Y814900D1*
X581449Y822092D1*
X583823Y829042D1*
X587045Y835642D1*
X591065Y841789D1*
X595820Y847385D1*
X601237Y852345D1*
X607230Y856591D1*
X613705Y860055D1*
X620563Y862685D1*
X627695Y864439D1*
X634989Y865290D1*
X642333Y865224D1*
X649612Y864242D1*
X656711Y862360D1*
X663520Y859607D1*
X669932Y856027D1*
X675848Y851674D1*
X681174Y846618D1*
X685828Y840936D1*
X689737Y834718D1*
X692840Y828062D1*
X693891Y825138D1*
X695944Y829716D1*
X700116Y836524D1*
X705302Y842596D1*
X711374Y847782D1*
X718182Y851954D1*
X725559Y855009D1*
X733323Y856874D1*
X741283Y857500D1*
X749244Y856874D1*
X757008Y855009D1*
X764385Y851954D1*
X771193Y847782D1*
X777265Y842596D1*
X782451Y836524D1*
X786623Y829716D1*
X789679Y822339D1*
X791543Y814574D1*
X792169Y806614D1*
X791543Y798654D1*
X789679Y790890D1*
X786623Y783512D1*
X782451Y776704D1*
X777265Y770632D1*
X771193Y765447D1*
X764385Y761275D1*
X757008Y758219D1*
X750637Y756632D1*
X757008Y755009D1*
X764385Y751954D1*
X771193Y747782D1*
X777265Y742596D1*
X782581Y736329D1*
X787025Y735613D1*
X791476Y734167D1*
X795645Y732042D1*
X799431Y729292D1*
X853117Y675736D1*
X946163Y582690D1*
X952212Y582697D1*
X955231Y586713D1*
X960003Y591486D1*
X965463Y595453D1*
X971477Y598517D1*
X973862Y599429D1*
Y671808D1*
X652959Y992716D1*
X612136Y992736D1*
X606703Y987519D1*
X597994Y981192D1*
X588403Y976305D1*
X578165Y972978D1*
X567532Y971294D1*
X546402Y971083D1*
X541019Y971294D1*
X530387Y972978D1*
X520149Y976305D1*
X510557Y981192D1*
X501848Y987519D1*
X494236Y995131D1*
X487908Y1003840D1*
X483021Y1013432D1*
X479695Y1023670D1*
X478011Y1034303D1*
Y1045068D1*
X479695Y1055700D1*
X483021Y1065938D1*
X487908Y1075530D1*
X494236Y1084239D1*
X501848Y1091851D1*
X510557Y1098178D1*
X520149Y1103065D1*
X530387Y1106392D1*
X541019Y1108076D1*
X562150Y1108287D1*
X572881Y1107443D1*
X583349Y1104930D1*
X593294Y1100810D1*
X602473Y1095186D1*
X610659Y1088194D1*
X612101Y1086634D1*
X676069Y1086489D1*
X683346Y1085337D1*
X690352Y1083060D1*
X696917Y1079716D1*
X702877Y1075385D1*
X725071Y1053396D1*
X872113Y906354D1*
X872091Y984862D1*
X958114D1*
Y984295D1*
X961040Y984832D1*
X803544Y1142328D1*
X621056Y1142342D1*
X617650Y1137157D1*
X610659Y1128971D1*
X602473Y1121980D1*
X593294Y1116355D1*
X583349Y1112236D1*
X572881Y1109723D1*
X562150Y1108878D1*
X541019Y1109089D1*
X530387Y1110773D1*
X520149Y1114100D1*
X510557Y1118987D1*
X501848Y1125315D1*
X494236Y1132927D1*
X487908Y1141636D1*
X483021Y1151227D1*
X479695Y1161465D1*
X478011Y1172098D1*
Y1182863D1*
X479695Y1193495D1*
X483021Y1203733D1*
X487908Y1213325D1*
X494236Y1222034D1*
X501848Y1229646D1*
X510557Y1235973D1*
X520149Y1240861D1*
X530387Y1244187D1*
X541019Y1245871D1*
X562150Y1246083D1*
X567532Y1245871D1*
X578165Y1244187D1*
X588403Y1240861D1*
X597535Y1236230D1*
X826660Y1236096D1*
X833936Y1234943D1*
X840943Y1232666D1*
X847507Y1229322D1*
X853467Y1224992D1*
X875661Y1203002D1*
X1044170Y1034494D1*
X1054566Y1034469D1*
X1054571Y1034699D1*
X1164217D1*
Y763636D1*
X1054571D1*
Y861851D1*
X975700Y1596476D2*
X1054566D1*
X1054571Y1674926D1*
X1164217D1*
Y1403863D1*
X1054571D1*
Y1423851D1*
X973862Y1423839D1*
Y1425812D1*
X630735Y1425807D1*
X630752Y1384468D1*
X477800D1*
Y1521673D1*
X630752D1*
Y1519699D1*
X973849Y1519705D1*
X973862Y1596476D1*
X975700D1*
Y1320886D2*
X1054566D1*
X1054571Y1354814D1*
X1164217D1*
Y1083751D1*
X1054571D1*
Y1148234D1*
X973862Y1148248D1*
Y1155389D1*
X967625Y1159183D1*
X962013Y1163978D1*
X841928Y1284062D1*
X623271Y1284075D1*
X617650Y1274952D1*
X610659Y1266766D1*
X602473Y1259775D1*
X593294Y1254150D1*
X583349Y1250031D1*
X572881Y1247518D1*
X562150Y1246673D1*
X541019Y1246885D1*
X530387Y1248569D1*
X520149Y1251895D1*
X510557Y1256782D1*
X501848Y1263110D1*
X494236Y1270722D1*
X487908Y1279431D1*
X483021Y1289023D1*
X479695Y1299261D1*
X478011Y1309893D1*
Y1320658D1*
X479695Y1331290D1*
X483021Y1341529D1*
X487908Y1351120D1*
X494236Y1359829D1*
X501848Y1367441D1*
X510557Y1373769D1*
X520149Y1378656D1*
X530387Y1381982D1*
X541019Y1383666D1*
X562150Y1383878D1*
X572881Y1383033D1*
X583349Y1380520D1*
X589874Y1377978D1*
X865046Y1377828D1*
X872322Y1376675D1*
X879329Y1374399D1*
X885893Y1371054D1*
X891853Y1366724D1*
X914047Y1344734D1*
X973854Y1284928D1*
X973862Y1320886D1*
X975700D1*
X676154Y761831D2*
X677996D1*
Y736460D1*
X700116Y736524D1*
X705302Y742596D1*
X711374Y747782D1*
X718182Y751954D1*
X725559Y755009D1*
X731930Y756596D1*
X725559Y758219D1*
X718182Y761275D1*
X711374Y765447D1*
X705302Y770632D1*
X700116Y776704D1*
X695944Y783512D1*
X693909Y788122D1*
X691353Y781706D1*
X687830Y775262D1*
X683531Y769307D1*
X678523Y763936D1*
X676163Y761828D1*
X677996Y676821D2*
Y656122D1*
X669932Y656027D1*
X675848Y651674D1*
X681174Y646618D1*
X685828Y640936D1*
X689737Y634718D1*
X692840Y628062D1*
X693891Y625138D1*
X696752Y631237D1*
X700759Y637390D1*
X705610Y642902D1*
X711204Y647658D1*
X717424Y651560D1*
X724141Y654526D1*
X731215Y656494D1*
X731844Y656609D1*
X725559Y658219D1*
X718182Y661275D1*
X711374Y665447D1*
X705302Y670632D1*
X700055Y676795D1*
X678020Y676791D1*
X1083448Y1860256D2*
X1176033D1*
Y1809910D1*
X1177351Y1803859D1*
X1178001Y1795591D1*
X1177351Y1787322D1*
X1176035Y1781458D1*
X1176033Y1730925D1*
X1074261D1*
Y1742731D1*
X1032889Y1742736D1*
X894500Y1604375D1*
X891635Y1597835D1*
X886494Y1589447D1*
X880105Y1581966D1*
X872624Y1575576D1*
X864235Y1570436D1*
X855146Y1566671D1*
X845580Y1564374D1*
X835772Y1563602D1*
X776717D1*
X766909Y1564374D1*
X757342Y1566671D1*
X748253Y1570436D1*
X739864Y1575576D1*
X732383Y1581966D1*
X725994Y1589447D1*
X720853Y1597835D1*
X717088Y1606925D1*
X714792Y1616491D1*
X714020Y1626299D1*
X714792Y1636107D1*
X717088Y1645674D1*
X720853Y1654763D1*
X725994Y1663151D1*
X727006Y1664435D1*
X718901Y1664000D1*
X711575Y1664516D1*
X704358Y1665884D1*
X697352Y1668088D1*
X690651Y1671095D1*
X684348Y1674866D1*
X678529Y1679348D1*
X673274Y1684479D1*
X668655Y1690190D1*
X664736Y1696402D1*
X661570Y1703030D1*
X659201Y1709982D1*
X657661Y1717164D1*
X656972Y1724476D1*
X657020Y1789041D1*
X657834Y1796341D1*
X659497Y1803495D1*
X661985Y1810405D1*
X665264Y1816978D1*
X669290Y1823121D1*
X674006Y1828752D1*
X679348Y1833793D1*
X685243Y1838174D1*
X691610Y1841835D1*
X698362Y1844727D1*
X705405Y1846810D1*
X712644Y1848054D1*
X719978Y1848444D1*
X726944Y1848012D1*
X722734Y1854255D1*
X719375Y1860787D1*
X716803Y1867667D1*
X715054Y1874801D1*
X714151Y1882090D1*
X714106Y1889435D1*
X714921Y1896734D1*
X716584Y1903888D1*
X719072Y1910799D1*
X722351Y1917371D1*
X726376Y1923515D1*
X731092Y1929146D1*
X736435Y1934186D1*
X742330Y1938567D1*
X748697Y1942229D1*
X755448Y1945121D1*
X762492Y1947204D1*
X769731Y1948448D1*
X778554Y1948838D1*
X839792Y1948710D1*
X847082Y1947810D1*
X854216Y1946064D1*
X861097Y1943496D1*
X867631Y1940141D1*
X873727Y1936044D1*
X879303Y1931263D1*
X884281Y1925862D1*
X888593Y1919917D1*
X892181Y1913508D1*
X894994Y1906723D1*
X896995Y1899656D1*
X898155Y1892403D1*
X898442Y1884305D1*
X897797Y1876988D1*
X896301Y1869797D1*
X893974Y1862831D1*
X890848Y1856184D1*
X886967Y1849949D1*
X882383Y1844210D1*
X877159Y1839046D1*
X871367Y1834529D1*
X865087Y1830721D1*
X858405Y1827673D1*
X851412Y1825427D1*
X844204Y1824014D1*
X836880Y1823455D1*
X772317Y1823599D1*
X769396Y1823880D1*
X773419Y1817961D1*
X776817Y1811449D1*
X779430Y1804585D1*
X781223Y1797462D1*
X782170Y1790179D1*
X782327Y1774724D1*
X782085Y1721188D1*
X781012Y1713922D1*
X779098Y1706831D1*
X776367Y1700013D1*
X772857Y1693561D1*
X769395Y1688567D1*
X776736Y1688995D1*
X829646Y1688996D1*
X976642Y1835781D1*
X983352Y1840656D1*
X990742Y1844422D1*
X998630Y1846985D1*
X1006822Y1848282D1*
X1038528Y1848445D1*
X1074232D1*
X1074261Y1860256D1*
X1083448D1*
X635565Y1750133D2*
X634849Y1744082D1*
X633661Y1738107D1*
X632007Y1732243D1*
X629898Y1726527D1*
X627347Y1720995D1*
X624371Y1715679D1*
X620986Y1710613D1*
X617214Y1705829D1*
X613078Y1701355D1*
X608604Y1697219D1*
X603820Y1693447D1*
X598754Y1690063D1*
X593439Y1687086D1*
X587906Y1684535D1*
X582190Y1682426D1*
X576326Y1680772D1*
X570351Y1679584D1*
X564300Y1678868D1*
X558213Y1678629D1*
X552125Y1678868D1*
X546075Y1679584D1*
X540099Y1680772D1*
X534235Y1682426D1*
X528519Y1684535D1*
X522987Y1687086D1*
X517671Y1690063D1*
X512605Y1693447D1*
X507821Y1697219D1*
X503347Y1701355D1*
X499211Y1705829D1*
X495439Y1710613D1*
X492055Y1715679D1*
X489078Y1720995D1*
X486527Y1726527D1*
X484418Y1732243D1*
X482765Y1738107D1*
X481576Y1744082D1*
X480860Y1750133D1*
X480621Y1756220D1*
X480860Y1762308D1*
X481576Y1768359D1*
X482765Y1774334D1*
X484418Y1780198D1*
X486527Y1785914D1*
X489078Y1791446D1*
X492055Y1796762D1*
X495439Y1801828D1*
X499211Y1806612D1*
X503347Y1811086D1*
X507821Y1815222D1*
X512605Y1818994D1*
X517671Y1822378D1*
X522987Y1825355D1*
X528519Y1827906D1*
X534235Y1830015D1*
X540099Y1831668D1*
X546075Y1832857D1*
X552125Y1833573D1*
X558213Y1833812D1*
X564300Y1833573D1*
X570351Y1832857D1*
X576326Y1831668D1*
X582190Y1830015D1*
X587906Y1827906D1*
X593439Y1825355D1*
X598754Y1822378D1*
X603820Y1818994D1*
X608604Y1815222D1*
X613078Y1811086D1*
X617214Y1806612D1*
X620986Y1801828D1*
X624371Y1796762D1*
X627347Y1791446D1*
X629898Y1785914D1*
X632007Y1780198D1*
X633661Y1774334D1*
X634849Y1768359D1*
X635565Y1762308D1*
X635804Y1756220D1*
X635565Y1750133D1*
X2264581Y1907927D2*
X2263869Y1900617D1*
X2262220Y1893461D1*
X2259661Y1886577D1*
X2256236Y1880081D1*
X2252001Y1874081D1*
X2247027Y1868678D1*
X2241397Y1863962D1*
X2235206Y1860012D1*
X2228557Y1856894D1*
X2221561Y1854660D1*
X2214335Y1853347D1*
X2207000Y1852978D1*
X2199679Y1853559D1*
X2192494Y1855079D1*
X2185566Y1857514D1*
X2179009Y1860822D1*
X2172935Y1864949D1*
X2167443Y1869826D1*
X2162627Y1875370D1*
X2158567Y1881489D1*
X2155330Y1888081D1*
X2152971Y1895036D1*
X2151529Y1902237D1*
X2151028Y1909564D1*
X2151477Y1916894D1*
X2152868Y1924105D1*
X2155178Y1931076D1*
X2158369Y1937691D1*
X2162386Y1943839D1*
X2167163Y1949417D1*
X2172620Y1954331D1*
X2178665Y1958501D1*
X2185198Y1961856D1*
X2192110Y1964339D1*
X2199284Y1965910D1*
X2206600Y1966542D1*
X2213937Y1966225D1*
X2221172Y1964963D1*
X2228184Y1962778D1*
X2234855Y1959707D1*
X2241073Y1955801D1*
X2246736Y1951124D1*
X2251748Y1945757D1*
X2256025Y1939787D1*
X2259497Y1933315D1*
X2262104Y1926449D1*
X2263803Y1919305D1*
X2264566Y1912001D1*
X2264581Y1907927D1*
X1898293Y1905308D2*
X1896899Y1896506D1*
X1894146Y1888031D1*
X1890100Y1880090D1*
X1884862Y1872881D1*
X1878560Y1866579D1*
X1871351Y1861341D1*
X1863410Y1857295D1*
X1854935Y1854542D1*
X1846133Y1853148D1*
X1837221D1*
X1828419Y1854542D1*
X1819944Y1857295D1*
X1812004Y1861341D1*
X1804794Y1866579D1*
X1798493Y1872881D1*
X1793255Y1880090D1*
X1789209Y1888031D1*
X1786455Y1896506D1*
X1785061Y1905308D1*
Y1914220D1*
X1786455Y1923021D1*
X1789209Y1931497D1*
X1793255Y1939437D1*
X1798493Y1946647D1*
X1804794Y1952948D1*
X1812004Y1958186D1*
X1819944Y1962232D1*
X1828419Y1964986D1*
X1837221Y1966380D1*
X1846133D1*
X1854935Y1964986D1*
X1863410Y1962232D1*
X1871351Y1958186D1*
X1878560Y1952948D1*
X1884862Y1946647D1*
X1890100Y1939437D1*
X1894146Y1931497D1*
X1896899Y1923021D1*
X1898293Y1914220D1*
Y1905308D1*
X1836045Y500610D2*
X1800018D1*
X1800043Y426204D1*
X2196320Y426201D1*
X2196303Y500607D1*
X1885280Y500610D1*
X1836067Y500646D1*
X2055752Y1289672D2*
X2056282Y1296414D1*
X2057857Y1302976D1*
X2060440Y1309212D1*
X2063966Y1314967D1*
X2068350Y1320099D1*
X2073482Y1324482D1*
X2079237Y1328009D1*
X2085472Y1330592D1*
X2092035Y1332167D1*
X2098764Y1332697D1*
X2105492Y1332167D1*
X2112055Y1330592D1*
X2118291Y1328009D1*
X2123749Y1324680D1*
X2129237Y1328009D1*
X2135472Y1330592D1*
X2142035Y1332167D1*
X2148764Y1332697D1*
X2155492Y1332167D1*
X2162055Y1330592D1*
X2168291Y1328009D1*
X2174045Y1324482D1*
X2179178Y1320099D1*
X2183561Y1314967D1*
X2187088Y1309212D1*
X2189670Y1302976D1*
X2191246Y1296414D1*
X2191776Y1289685D1*
X2191643Y1274499D1*
X2190587Y1267833D1*
X2188502Y1261414D1*
X2185437Y1255400D1*
X2181470Y1249940D1*
X2176698Y1245168D1*
X2171237Y1241200D1*
X2165224Y1238136D1*
X2158805Y1236051D1*
X2152138Y1234995D1*
X2145389D1*
X2138723Y1236051D1*
X2132304Y1238136D1*
X2126290Y1241200D1*
X2123778Y1242879D1*
X2118291Y1239550D1*
X2112055Y1236967D1*
X2105492Y1235392D1*
X2098764Y1234862D1*
X2092035Y1235392D1*
X2085472Y1236967D1*
X2079237Y1239550D1*
X2073482Y1243077D1*
X2068350Y1247460D1*
X2063966Y1252592D1*
X2060440Y1258347D1*
X2057857Y1264583D1*
X2056282Y1271145D1*
X2055752Y1277887D1*
Y1289552D1*
X1546408Y1925374D2*
X1650595D1*
X1650803Y1900061D1*
X1655692Y1906791D1*
X1661574Y1912673D1*
X1668304Y1917562D1*
X1675716Y1921339D1*
X1683627Y1923909D1*
X1691843Y1925211D1*
X1700162D1*
X1708378Y1923909D1*
X1716289Y1921339D1*
X1723701Y1917562D1*
X1730431Y1912673D1*
X1736313Y1906791D1*
X1741203Y1900061D1*
X1744979Y1892649D1*
X1747550Y1884738D1*
X1748851Y1876521D1*
Y1868203D1*
X1747550Y1859987D1*
X1744979Y1852075D1*
X1741203Y1844664D1*
X1736313Y1837934D1*
X1730431Y1832052D1*
X1723701Y1827162D1*
X1716289Y1823386D1*
X1708378Y1820815D1*
X1700162Y1819514D1*
X1691843D1*
X1683627Y1820815D1*
X1675716Y1823386D1*
X1668304Y1827162D1*
X1661574Y1832052D1*
X1655692Y1837934D1*
X1650588Y1845047D1*
X1650595Y1819350D1*
X1544571D1*
Y1925374D1*
X1546408D1*
X1743252Y1667307D2*
D15*
Y1618425D1*
X1456704Y699046D2*
X1505585D1*
X1640890Y1659432D2*
D23*
Y1606614D1*
X1456704Y618720D2*
X1505585D1*
X1505381Y538395D2*
Y485576D1*
X1456499Y538395D2*
X1505381D1*
X1979472Y748346D2*
D15*
X2028354D1*
X1908606Y1425512D2*
X1961425D1*
X1979778Y831243D2*
X2028660D1*
X1664512Y535748D2*
Y486866D1*
X1026717Y910748D2*
Y861866D1*
X973898Y626299D2*
D25*
X1026717D1*
Y1596440D2*
D15*
Y1547559D1*
X973898D2*
X1026717D1*
Y1320850D2*
Y1271969D1*
X554276Y761795D2*
Y656158D1*
X505394Y708976D2*
X554276D1*
X719630Y1848409D2*
D20*
Y1664032D1*
X656969Y1756220D2*
X782291D1*
X806244Y1948803D2*
D15*
Y1823481D1*
X714056Y1886142D2*
X898433D1*
X514906Y1964551D2*
Y1839229D1*
Y1901890D2*
X609063D1*
X514906Y1673212D2*
Y1547890D1*
Y1610551D2*
X609063D1*
X2207819Y1966519D2*
Y1853008D1*
X2151063Y1909764D2*
X2264574D1*
X1597585Y1777700D2*
D13*
Y1671748D1*
X1544610Y1724724D2*
X1597585D1*
X2196339Y457205D2*
D15*
X2294102D1*
X1702245D2*
X1800008D1*
X915102Y984826D2*
Y887063D1*
X872127Y935945D2*
X915102D1*
X1597583Y1925338D2*
Y1819386D1*
X1544607Y1872362D2*
X1597583D1*
X1037937Y552874D2*
Y503992D1*
X1979472Y1667307D2*
Y1614488D1*
X2028354D1*
X2172386Y661732D2*
X2220283D1*
X741283Y657464D2*
D14*
Y555764D1*
Y606614D2*
X792133D1*
X638134D2*
Y547890D1*
X579410Y606614D2*
X638134D1*
Y865338D2*
Y806614D1*
X579410D2*
X638134D1*
X1710592Y564685D2*
D29*
X1750786D1*
X1710592Y547100D2*
X1747984D1*
X1710592Y529514D2*
X1757603D1*
X1759320Y573425D2*
X1746171D1*
X1746205Y572165D1*
X1713436D1*
X1713449Y565551D1*
X1708777D1*
X1708803Y520973D1*
X1773752Y520984D1*
X1771856Y523052D1*
X1767491Y524471D1*
X1763401Y526555D1*
X1759687Y529253D1*
X1756442Y532498D1*
X1753744Y536212D1*
X1751660Y540302D1*
X1750241Y544667D1*
X1749523Y549201D1*
Y553791D1*
X1750241Y558325D1*
X1751660Y562690D1*
X1753744Y566780D1*
X1756442Y570494D1*
X1759351Y573429D1*
D31*
X1743252Y1543622D3*
Y1618425D3*
D32*
X1566087Y1390079D3*
X1640890D3*
X1580388Y699046D3*
X1505585D3*
X1566087Y1496378D3*
X1640890D3*
X1566087Y1606614D3*
X1640890D3*
X1580388Y618720D3*
X1505585D3*
X1580184Y538395D3*
X1505381D3*
X1979472Y748346D3*
X1904669D3*
D31*
X1908606Y1425512D3*
Y1350709D3*
D32*
X1979983Y660366D3*
X1905180D3*
X1762937Y622362D3*
X1837740D3*
D31*
X1812596Y1352808D3*
Y1427612D3*
D32*
X1979472Y1527874D3*
X1904669D3*
X1904975Y831243D3*
X1979778D3*
D31*
X1413487Y1261362D3*
Y1186559D3*
X1699945Y701102D3*
Y775906D3*
X1664512Y535748D3*
Y610551D3*
D32*
X1408606Y1386142D3*
X1483409D3*
D31*
X1419738Y880277D3*
Y955080D3*
D32*
X1411864Y773811D3*
X1486667D3*
D31*
X1026717Y910748D3*
Y985551D3*
Y626299D3*
Y701102D3*
Y1547559D3*
Y1472756D3*
Y1271969D3*
Y1197165D3*
D32*
X629079Y708976D3*
X554276D3*
D37*
X1278685Y1795591D3*
X1125147D3*
D40*
X806244Y1626299D3*
D41*
X719630Y1756220D3*
D40*
X806244Y1886142D3*
D42*
X514906Y1901890D3*
Y1610551D3*
D43*
X2207819Y1909764D3*
X2081835Y1590866D3*
X1877110Y1712913D3*
X1841677Y1909764D3*
D44*
X2302307Y1862520D3*
D43*
Y1762520D3*
Y1662520D3*
Y1562520D3*
Y1462520D3*
Y1362520D3*
D45*
X1597585Y1724724D3*
D46*
X1696005D3*
D47*
X554276Y1453071D3*
D48*
Y1315276D3*
Y1177480D3*
Y1039685D3*
D49*
X1825929Y547559D3*
X1875142D3*
D50*
X2245220Y457205D3*
X1751126D3*
D49*
X1924354Y547559D3*
X2022780D3*
X1973567D3*
X2121205D3*
X2071992D3*
X2170417D3*
D51*
X915102Y935945D3*
D52*
X965102D3*
X2098764Y1283780D3*
X2148764D3*
D45*
X1597583Y1872362D3*
D46*
X1696003D3*
D52*
X987937Y552874D3*
D51*
X1037937D3*
D54*
X1294433Y899168D3*
X1109394D3*
X1294433Y579055D3*
X1109394D3*
X1294433Y1539395D3*
X1109394D3*
X1294433Y1219282D3*
X1109394D3*
D31*
X1825929Y1543622D3*
Y1618425D3*
D32*
X1979472Y1614488D3*
X1904669D3*
D63*
X2172386Y799528D3*
Y661732D3*
X2109394Y730631D3*
D68*
X1518125Y1223858D3*
X1537810D3*
X1557495D3*
X1577180D3*
X1596865D3*
X1616550D3*
X1636235D3*
X1655920D3*
X1675605D3*
X1695290D3*
X1714975D3*
X1734660D3*
X1754345D3*
X1774030D3*
X1793715D3*
X1813400D3*
X1833085D3*
X1852770D3*
X1872455D3*
X1892140D3*
X1911825D3*
X1931510D3*
X1951196D3*
X1970881D3*
Y928583D3*
X1951196D3*
X1931510D3*
X1911825D3*
X1892140D3*
X1872455D3*
X1852770D3*
X1833085D3*
X1813400D3*
X1793715D3*
X1774030D3*
X1754345D3*
X1734660D3*
X1714975D3*
X1695290D3*
X1675605D3*
X1655920D3*
X1636235D3*
X1616550D3*
X1596865D3*
X1577180D3*
X1557495D3*
X1537810D3*
X1518125D3*
D69*
X1744503Y1076220D3*
D74*
X741283Y606614D3*
Y706614D3*
Y806614D3*
D75*
X638134Y606614D3*
Y806614D3*
G36*
X1550339Y1315276D2*
X1581835Y1275906D1*
X1577898Y1268031D1*
X1542465Y1303465D1*
X1550339Y1315276D1*
G37*
G36*
X1551323Y1351693D2*
X1563134Y1343819D1*
X1567071Y1339882D1*
X1574945Y1332008D1*
X1602504Y1296575D1*
Y1292638D1*
X1594630Y1288701D1*
X1539512Y1339882D1*
X1551323Y1351693D1*
G37*
G36*
X1550339Y1264094D2*
X1546402Y1252283D1*
X1542465Y1236535D1*
X1534591D1*
X1530654Y1264094D1*
X1550339D1*
G37*
G36*
X1699945Y527874D2*
X1715693D1*
Y472756D1*
X1699945D1*
Y527874D1*
G37*
G36*
X1638921Y1752283D2*
X1658606D1*
Y1697165D1*
X1638921D1*
Y1752283D1*
G37*
G36*
Y1901890D2*
X1658606D1*
Y1846772D1*
X1638921D1*
Y1901890D1*
G37*
G36*
X1626381Y1743446D2*
X1649084D1*
Y1705055D1*
X1626381D1*
Y1743446D1*
G37*
G36*
X1622189Y1885248D2*
X1644605D1*
Y1859567D1*
X1622189D1*
Y1885248D1*
G37*
G36*
X880976Y909567D2*
X883672Y903594D1*
X888849Y897904D1*
X887598Y891522D1*
X898794D1*
X897037Y882127D1*
X900974Y878190D1*
X894295Y866660D1*
X854478Y906476D1*
X880976Y909567D1*
G37*
X689676Y816335D2*
D10*
G02X688010Y789688I-31944J-11379D01*
G01*
X699425Y796147D2*
G02X701091Y822794I31944J11379D01*
G01*
X689241Y616192D2*
G02X687576Y589545I-31944J-11379D01*
G01*
X698766Y593035D2*
G02X700432Y619682I31944J11379D01*
G01*
X664647Y762929D2*
G02X609308Y765085I-26138J40390D01*
G01*
X612004Y650105D2*
G02X667343Y647949I26138J-40390D01*
G01*
G36*
X602165Y668196D2*
X667003D1*
Y655727D1*
X602165D1*
Y668196D1*
G37*
G36*
X604042Y761302D2*
X668879D1*
Y748833D1*
X604042D1*
Y761302D1*
G37*
M02*
