G04 DipTrace 3.3.1.3*
G04 BottomSilk.gbr*
%MOIN*%
G04 #@! TF.FileFunction,Legend,Bot*
G04 #@! TF.Part,Single*
%ADD10C,0.009843*%
%ADD36C,0.023631*%
%ADD66C,0.005906*%
%ADD168C,0.006176*%
%FSLAX26Y26*%
G04*
G70*
G90*
G75*
G01*
G04 BotSilk*
%LPD*%
X1717681Y1502262D2*
D10*
X1768823D1*
X1551978Y1411946D2*
Y1360804D1*
X1621748Y673475D2*
Y724617D1*
X1551774Y1521201D2*
Y1470059D1*
Y1629783D2*
Y1578642D1*
X1621748Y593150D2*
Y644291D1*
X1621543Y512824D2*
Y563966D1*
X2020832Y722776D2*
Y773917D1*
X1934177Y1466871D2*
X1883035D1*
X2021343Y634795D2*
Y685937D1*
X1721577Y647933D2*
Y596791D1*
X1787025Y1311449D2*
X1838167D1*
X2020832Y1502303D2*
Y1553445D1*
X1863615Y856814D2*
Y805672D1*
X1439058Y1302722D2*
X1387916D1*
X1674374Y659743D2*
X1725516D1*
X1638941Y494388D2*
X1690083D1*
X1392503Y1411946D2*
Y1360804D1*
X1394167Y838917D2*
X1445308D1*
X1370504Y799382D2*
Y748240D1*
X1001146Y864467D2*
X1052287D1*
X1001146Y584940D2*
X1052287D1*
Y1588919D2*
X1001146D1*
X1052287Y1313328D2*
X1001146D1*
X670438Y683406D2*
Y734547D1*
X1288526Y1852679D2*
X1115311D1*
X1288526Y1738505D2*
X1115311D1*
D36*
X1327896Y1795586D3*
X1734696Y552242D2*
D10*
X2260942D1*
X1735405Y398192D2*
Y552488D1*
X1734696Y395984D2*
X2260942D1*
Y398192D2*
Y552488D1*
X1247179Y997594D2*
X1156648D1*
X1247179Y800742D2*
X1156648D1*
X1247179Y677481D2*
X1156648D1*
X1247179Y480629D2*
X1156648D1*
X1247179Y1637821D2*
X1156648D1*
X1247179Y1440969D2*
X1156648D1*
X1247179Y1317708D2*
X1156648D1*
X1247179Y1120856D2*
X1156648D1*
X2172386Y624528D2*
Y837028D1*
X2109888Y624528D2*
X2172386D1*
X2109888D2*
Y837028D1*
X2172386D1*
X1493540Y1201228D2*
D66*
X1500399D1*
X1493540Y951213D2*
X1503648D1*
X1995466D2*
X1985357D1*
X1995466Y1201228D2*
X1985357D1*
X1493540D2*
Y951213D1*
X1995466Y1201228D2*
Y951213D1*
X1500399Y1201228D2*
Y1243535D1*
X2214551Y1858932D2*
D168*
X2216452Y1862735D1*
X2220299Y1866582D1*
X2224101Y1868483D1*
X2231750D1*
X2235597Y1866582D1*
X2239400Y1862735D1*
X2241345Y1858932D1*
X2243247Y1853184D1*
Y1843590D1*
X2241345Y1837886D1*
X2239400Y1834039D1*
X2235597Y1830236D1*
X2231750Y1828291D1*
X2224101D1*
X2220299Y1830236D1*
X2216452Y1834039D1*
X2214551Y1837886D1*
Y1843590D1*
X2224101D1*
X2175405Y1868483D2*
Y1828291D1*
X2202199Y1868483D1*
Y1828291D1*
X2163053Y1868483D2*
Y1828291D1*
X2149656D1*
X2143908Y1830236D1*
X2140061Y1834039D1*
X2138160Y1837886D1*
X2136258Y1843590D1*
Y1853184D1*
X2138160Y1858932D1*
X2140061Y1862735D1*
X2143908Y1866582D1*
X2149656Y1868483D1*
X2163053D1*
X2246198Y1460713D2*
X2228998D1*
X2223250Y1462658D1*
X2221305Y1464560D1*
X2219404Y1468362D1*
Y1472209D1*
X2221305Y1476011D1*
X2223250Y1477957D1*
X2228998Y1479858D1*
X2246198D1*
Y1439666D1*
X2232801Y1460713D2*
X2219404Y1439666D1*
X2180258Y1474110D2*
X2184060Y1477957D1*
X2189808Y1479858D1*
X2197457D1*
X2203205Y1477957D1*
X2207052Y1474110D1*
Y1470308D1*
X2205107Y1466461D1*
X2203205Y1464560D1*
X2199403Y1462658D1*
X2187907Y1458812D1*
X2184060Y1456910D1*
X2182159Y1454965D1*
X2180258Y1451162D1*
Y1445414D1*
X2184060Y1441612D1*
X2189808Y1439666D1*
X2197457D1*
X2203205Y1441612D1*
X2207052Y1445414D1*
X2154509Y1479858D2*
Y1439666D1*
X2167906Y1479858D2*
X2141111D1*
X2235463Y1778872D2*
X2214460D1*
X2225912Y1763573D1*
X2220164D1*
X2216362Y1761672D1*
X2214460Y1759771D1*
X2212515Y1754023D1*
Y1750220D1*
X2214460Y1744472D1*
X2218263Y1740625D1*
X2224011Y1738724D1*
X2229759D1*
X2235463Y1740625D1*
X2237364Y1742571D1*
X2239309Y1746373D1*
X2198262Y1742571D2*
X2200163Y1740625D1*
X2198262Y1738724D1*
X2196317Y1740625D1*
X2198262Y1742571D1*
X2180118Y1778872D2*
X2159116D1*
X2170568Y1763573D1*
X2164820D1*
X2161017Y1761672D1*
X2159116Y1759771D1*
X2157171Y1754023D1*
Y1750220D1*
X2159116Y1744472D1*
X2162919Y1740625D1*
X2168667Y1738724D1*
X2174415D1*
X2180118Y1740625D1*
X2182020Y1742571D1*
X2183965Y1746373D1*
X2251121Y1385215D2*
Y1345023D1*
X2237723D1*
X2231975Y1346969D1*
X2228128Y1350771D1*
X2226227Y1354618D1*
X2224326Y1360322D1*
Y1369917D1*
X2226227Y1375665D1*
X2228128Y1379467D1*
X2231975Y1383314D1*
X2237723Y1385215D1*
X2251121D1*
X2211974D2*
X2202380Y1345023D1*
X2192829Y1385215D1*
X2183279Y1345023D1*
X2173684Y1385215D1*
X2161332D2*
Y1345023D1*
X2138384D1*
X2224928Y1678522D2*
Y1638330D1*
X2238325Y1678522D2*
X2211531D1*
X2199179Y1665125D2*
X2178132Y1638330D1*
Y1665125D2*
X2199179Y1638330D1*
X2233404Y1564889D2*
X2216204D1*
X2210456Y1566834D1*
X2208511Y1568735D1*
X2206609Y1572538D1*
Y1576385D1*
X2208511Y1580187D1*
X2210456Y1582133D1*
X2216204Y1584034D1*
X2233404D1*
Y1543842D1*
X2220007Y1564889D2*
X2206609Y1543842D1*
X2194258Y1570637D2*
X2173211Y1543842D1*
Y1570637D2*
X2194258Y1543842D1*
X478792Y1474782D2*
Y1434590D1*
X455844D1*
X426293Y1471886D2*
Y1437442D1*
X443492Y1454642D2*
X409048D1*
X478792Y1337142D2*
Y1296950D1*
X455844D1*
X443492Y1317024D2*
X421384D1*
X466456Y1180046D2*
X449256D1*
X443508Y1181992D1*
X441563Y1183893D1*
X439661Y1187696D1*
Y1191542D1*
X441563Y1195345D1*
X443508Y1197290D1*
X449256Y1199192D1*
X466456D1*
Y1159000D1*
X453059Y1180046D2*
X439661Y1159000D1*
X427310Y1179073D2*
X405202D1*
X491128Y1042251D2*
X473928D1*
X468180Y1044196D1*
X466235Y1046098D1*
X464333Y1049900D1*
Y1053747D1*
X466235Y1057550D1*
X468180Y1059495D1*
X473928Y1061396D1*
X491128D1*
Y1021204D1*
X477731Y1042251D2*
X464333Y1021204D1*
X434782Y1058500D2*
Y1024056D1*
X451982Y1041256D2*
X417538D1*
X1694009Y1822280D2*
Y1787836D1*
X1711209Y1805036D2*
X1676765D1*
X1608322Y1805058D2*
X1586214D1*
M02*
