G04 DipTrace 3.3.1.3*
G04 TopPaste.gbr*
%MOIN*%
G04 #@! TF.FileFunction,Paste,Top*
G04 #@! TF.Part,Single*
%AMOUTLINE2*
4,1,4,
0.019606,-0.019606,
-0.019606,-0.019606,
-0.019606,0.019606,
0.019606,0.019606,
0.019606,-0.019606,
0*%
%ADD96R,0.110079X0.188819*%
%ADD98R,0.027402X0.070709*%
%ADD104R,0.015591X0.035276*%
%ADD106R,0.054961X0.102205*%
%ADD108R,0.047087X0.00378*%
%ADD114R,0.035276X0.015591*%
%ADD118R,0.011654X0.011654*%
%ADD120R,0.011654X0.025433*%
%ADD122R,0.033307X0.017559*%
%ADD124R,0.035276X0.125827*%
%ADD126R,0.098268X0.037244*%
%ADD128R,0.125827X0.035276*%
%ADD158R,0.023465X0.054961*%
%ADD162R,0.039213X0.039213*%
%ADD164R,0.04315X0.051024*%
%ADD166R,0.051024X0.04315*%
%ADD172OUTLINE2*%
%FSLAX26Y26*%
G04*
G70*
G90*
G75*
G01*
G04 TopPaste*
%LPD*%
D166*
X1314118Y917638D3*
Y842835D3*
D164*
X920417Y1897953D3*
X995220D3*
D166*
X1058213Y1610551D3*
Y1535748D3*
D164*
X1373173Y1901890D3*
X1447976D3*
X1377110Y1500315D3*
X1302307D3*
X2243252Y1236535D3*
X2318055D3*
D166*
X2070024Y1429449D3*
Y1504252D3*
D164*
X739315Y957008D3*
X814118D3*
D166*
X932228Y1287717D3*
Y1212913D3*
X1105457Y1114488D3*
Y1039685D3*
X1164512Y618425D3*
Y543622D3*
X1227504Y917638D3*
Y842835D3*
D164*
X909449Y700988D3*
X984252D3*
D166*
X1262937Y618425D3*
Y543622D3*
X1073961Y618425D3*
Y543622D3*
X920417Y1732598D3*
Y1807402D3*
D162*
X739315Y1350709D3*
Y1460945D3*
X1286559Y1905827D3*
X1176323D3*
X1447976Y1831024D3*
Y1720787D3*
Y1543622D3*
Y1653858D3*
X829866Y1460945D3*
Y1350709D3*
D158*
X1593646Y1256220D3*
Y1382205D3*
X1648764Y1256220D3*
Y1382205D3*
D172*
X802308Y1533783D3*
X912545D3*
D128*
X1314118Y1815276D3*
Y1697165D3*
D126*
X1113331Y854646D3*
Y736535D3*
D124*
X739336Y1224724D3*
X857446D3*
D122*
X1231441Y1291654D3*
Y1216850D3*
X1321992Y1254252D3*
D120*
X957822Y1455039D3*
X906635D3*
X932228Y1372362D3*
D166*
X980524Y618425D3*
Y543622D3*
X895328D3*
Y618425D3*
X979472Y1610551D3*
Y1535748D3*
X1518843Y1334961D3*
Y1260157D3*
X1727504Y1334961D3*
Y1260157D3*
D164*
X1377110Y1586929D3*
X1302307D3*
D166*
X1213724Y1535748D3*
Y1610551D3*
X1136953Y1535748D3*
Y1610551D3*
X1022780Y1287717D3*
Y1212913D3*
D164*
X1018843Y1388110D3*
X1093646D3*
D166*
X1022780Y1114488D3*
Y1039685D3*
X2156638Y1504252D3*
Y1429449D3*
X1983409D3*
Y1504252D3*
X1814118D3*
Y1429449D3*
X1896795D3*
Y1504252D3*
X932228Y1114488D3*
Y1039685D3*
D164*
X1093646Y1464882D3*
X1018843D3*
D118*
X2026717Y1350709D3*
Y1319213D3*
X1928291D3*
Y1350709D3*
D114*
X1006213Y782004D3*
Y819406D3*
Y856807D3*
X899913D3*
Y819406D3*
Y782004D3*
D108*
X1007031Y1819213D3*
Y1793622D3*
Y1768031D3*
Y1742441D3*
Y1716850D3*
Y1691260D3*
X1180260D3*
Y1716850D3*
Y1742441D3*
Y1768031D3*
Y1793622D3*
Y1819213D3*
D106*
X1093646Y1755236D3*
D104*
X1180260Y1039685D3*
X1217661D3*
X1255063D3*
Y1145984D3*
X1217661D3*
X1180260D3*
D98*
X2318055Y1153858D3*
X2268055Y1154252D3*
X2218055D3*
X2168055D3*
X2118055D3*
X2068055D3*
X2018055D3*
X1968055D3*
X1918055D3*
X1868055D3*
X1818055D3*
X1768055D3*
X1718055D3*
X1668055D3*
X1668436Y476218D3*
X1718436D3*
X1768436D3*
X1818434D3*
X1868436D3*
X1418436D3*
X1468436D3*
X1518436D3*
X1568436D3*
X1618436D3*
X1918094Y476220D3*
X1968094D3*
X2018094D3*
X2068094D3*
X2118094D3*
X2168094D3*
X2218094D3*
X2268094D3*
X2318094D3*
D96*
X2069945Y853858D3*
D98*
X1618395Y1154248D3*
X1568395D3*
X1518395D3*
X1468395D3*
X1418395D3*
D104*
X1168449Y1315276D3*
X1131047D3*
X1093646D3*
Y1208976D3*
X1131047D3*
X1168449D3*
D114*
X845614Y1027874D3*
Y1065276D3*
Y1102677D3*
X739315D3*
Y1027874D3*
M02*
