G04 DipTrace 3.3.1.3*
G04 BottomSilk.gbr*
%MOIN*%
G04 #@! TF.FileFunction,Legend,Bot*
G04 #@! TF.Part,Single*
%ADD10C,0.009843*%
%ADD35C,0.023631*%
%ADD61C,0.005906*%
%ADD158C,0.00772*%
%ADD159C,0.006176*%
%FSLAX26Y26*%
G04*
G70*
G90*
G75*
G01*
G04 BotSilk*
%LPD*%
X1717681Y1502262D2*
D10*
X1768823D1*
X1551978Y1411946D2*
Y1360804D1*
X1621748Y673475D2*
Y724617D1*
X1551773Y1521211D2*
Y1470070D1*
Y1629786D2*
Y1578644D1*
X1621748Y593150D2*
Y644291D1*
X1621543Y512824D2*
Y563966D1*
X2020832Y722776D2*
Y773917D1*
X1934177Y1466871D2*
X1883035D1*
X2021343Y634795D2*
Y685937D1*
X1721577Y647933D2*
Y596791D1*
X1787025Y1311449D2*
X1838167D1*
X2020832Y1502303D2*
Y1553445D1*
X1863615Y856814D2*
Y805672D1*
X1439058Y1302722D2*
X1387916D1*
X1674374Y659743D2*
X1725516D1*
X1638941Y494388D2*
X1690083D1*
X1392503Y1411946D2*
Y1360804D1*
X1394167Y838917D2*
X1445308D1*
X1370504Y799382D2*
Y748240D1*
X1001146Y864467D2*
X1052287D1*
Y742462D2*
X1001146D1*
X1052287Y1588919D2*
X1001146D1*
X1052287Y1313328D2*
X1001146D1*
X670438Y683406D2*
Y734547D1*
X1288526Y1852679D2*
X1115311D1*
X1288526Y1738505D2*
X1115311D1*
D35*
X1327896Y1795586D3*
X1734675Y552242D2*
D10*
X2108741D1*
X1735388Y398192D2*
Y552488D1*
X1734675Y395984D2*
X2108741D1*
X2110363Y398192D2*
Y552488D1*
X1247179Y997594D2*
X1156648D1*
X1247179Y800742D2*
X1156648D1*
X1247179Y677481D2*
X1156648D1*
X1247179Y480629D2*
X1156648D1*
X1247179Y1637821D2*
X1156648D1*
X1247179Y1440969D2*
X1156648D1*
X1247179Y1317708D2*
X1156648D1*
X1247179Y1120856D2*
X1156648D1*
X2148764Y750117D2*
Y537617D1*
X2211262Y750117D2*
X2148764D1*
X2211262D2*
Y537617D1*
X2148764D1*
X1493540Y1201228D2*
D61*
X1500399D1*
X1493540Y951213D2*
X1503648D1*
X1995466D2*
X1985357D1*
X1995466Y1201228D2*
X1985357D1*
X1493540D2*
Y951213D1*
X1995466Y1201228D2*
Y951213D1*
X1500399Y1201228D2*
Y1243535D1*
X1652440Y1579671D2*
D158*
X1647686Y1582047D1*
X1642878Y1586856D1*
X1640501Y1591609D1*
Y1601170D1*
X1642878Y1605979D1*
X1647686Y1610732D1*
X1652440Y1613164D1*
X1659625Y1615540D1*
X1671618D1*
X1678748Y1613164D1*
X1683556Y1610732D1*
X1688310Y1605979D1*
X1690741Y1601170D1*
Y1591609D1*
X1688310Y1586855D1*
X1683556Y1582047D1*
X1678748Y1579670D1*
X1652495Y1561799D2*
X1650118D1*
X1645310Y1559423D1*
X1642933Y1557046D1*
X1640557Y1552238D1*
Y1542676D1*
X1642933Y1537923D1*
X1645310Y1535546D1*
X1650118Y1533115D1*
X1654871D1*
X1659680Y1535546D1*
X1666810Y1540300D1*
X1690741Y1564231D1*
Y1530738D1*
X1629386Y1477188D2*
X1631762Y1481941D1*
X1636571Y1486749D1*
X1641324Y1489126D1*
X1650886D1*
X1655694Y1486749D1*
X1660447Y1481941D1*
X1662879Y1477188D1*
X1665256Y1470003D1*
Y1458009D1*
X1662879Y1450879D1*
X1660447Y1446071D1*
X1655694Y1441318D1*
X1650886Y1438886D1*
X1641324D1*
X1636571Y1441318D1*
X1631762Y1446071D1*
X1629386Y1450879D1*
X1609138Y1489071D2*
X1582885D1*
X1597200Y1469947D1*
X1590015D1*
X1585262Y1467571D1*
X1582885Y1465194D1*
X1580453Y1458009D1*
Y1453256D1*
X1582885Y1446071D1*
X1587638Y1441263D1*
X1594823Y1438886D1*
X1602008D1*
X1609138Y1441263D1*
X1611515Y1443694D1*
X1613946Y1448448D1*
X1558591Y789858D2*
X1560968Y794612D1*
X1565776Y799420D1*
X1570529Y801797D1*
X1580091D1*
X1584899Y799420D1*
X1589652Y794612D1*
X1592084Y789858D1*
X1594461Y782673D1*
Y770680D1*
X1592084Y763550D1*
X1589652Y758742D1*
X1584899Y753988D1*
X1580091Y751557D1*
X1570529D1*
X1565776Y753988D1*
X1560968Y758742D1*
X1558591Y763550D1*
X1519220Y751557D2*
Y801741D1*
X1543152Y768303D1*
X1507282D1*
X1629181Y1586453D2*
X1631558Y1591206D1*
X1636366Y1596014D1*
X1641119Y1598391D1*
X1650681D1*
X1655489Y1596014D1*
X1660242Y1591206D1*
X1662674Y1586453D1*
X1665051Y1579268D1*
Y1567274D1*
X1662674Y1560145D1*
X1660242Y1555336D1*
X1655489Y1550583D1*
X1650681Y1548151D1*
X1641119D1*
X1636366Y1550583D1*
X1631558Y1555336D1*
X1629181Y1560145D1*
X1585057Y1598336D2*
X1608933D1*
X1611310Y1576836D1*
X1608933Y1579213D1*
X1601748Y1581644D1*
X1594618D1*
X1587433Y1579213D1*
X1582625Y1574459D1*
X1580248Y1567274D1*
Y1562521D1*
X1582625Y1555336D1*
X1587433Y1550528D1*
X1594618Y1548151D1*
X1601748D1*
X1608933Y1550528D1*
X1611310Y1552959D1*
X1613742Y1557713D1*
X1627965Y1695028D2*
X1630342Y1699781D1*
X1635150Y1704589D1*
X1639903Y1706966D1*
X1649465D1*
X1654273Y1704589D1*
X1659026Y1699781D1*
X1661458Y1695028D1*
X1663835Y1687843D1*
Y1675849D1*
X1661458Y1668719D1*
X1659026Y1663911D1*
X1654273Y1659158D1*
X1649465Y1656726D1*
X1639903D1*
X1635150Y1659158D1*
X1630342Y1663911D1*
X1627965Y1668719D1*
X1583841Y1699781D2*
X1586217Y1704534D1*
X1593402Y1706911D1*
X1598156D1*
X1605341Y1704534D1*
X1610149Y1697349D1*
X1612526Y1685411D1*
Y1673473D1*
X1610149Y1663911D1*
X1605341Y1659102D1*
X1598156Y1656726D1*
X1595779D1*
X1588649Y1659102D1*
X1583841Y1663911D1*
X1581464Y1671096D1*
Y1673473D1*
X1583841Y1680658D1*
X1588649Y1685411D1*
X1595779Y1687787D1*
X1598156D1*
X1605341Y1685411D1*
X1610149Y1680658D1*
X1612526Y1673473D1*
X1557403Y709533D2*
X1559779Y714286D1*
X1564588Y719095D1*
X1569341Y721471D1*
X1578903D1*
X1583711Y719095D1*
X1588464Y714286D1*
X1590896Y709533D1*
X1593273Y702348D1*
Y690354D1*
X1590896Y683225D1*
X1588464Y678416D1*
X1583711Y673663D1*
X1578903Y671231D1*
X1569341D1*
X1564588Y673663D1*
X1559779Y678416D1*
X1557403Y683225D1*
X1532402Y671231D2*
X1508470Y721416D1*
X1541963D1*
X1557170Y629207D2*
X1559547Y633961D1*
X1564355Y638769D1*
X1569109Y641146D1*
X1578670D1*
X1583479Y638769D1*
X1588232Y633961D1*
X1590664Y629207D1*
X1593040Y622022D1*
Y610029D1*
X1590664Y602899D1*
X1588232Y598091D1*
X1583479Y593338D1*
X1578670Y590906D1*
X1569109D1*
X1564355Y593338D1*
X1559547Y598091D1*
X1557170Y602899D1*
X1529793Y641090D2*
X1536923Y638714D1*
X1539355Y633961D1*
Y629152D1*
X1536923Y624399D1*
X1532169Y621967D1*
X1522608Y619591D1*
X1515423Y617214D1*
X1510670Y612405D1*
X1508293Y607652D1*
Y600467D1*
X1510670Y595714D1*
X1513046Y593282D1*
X1520231Y590906D1*
X1529793D1*
X1536923Y593282D1*
X1539355Y595714D1*
X1541731Y600467D1*
Y607652D1*
X1539355Y612405D1*
X1534546Y617214D1*
X1527416Y619591D1*
X1517855Y621967D1*
X1513046Y624399D1*
X1510670Y629152D1*
Y633961D1*
X1513046Y638714D1*
X1520231Y641090D1*
X1529793D1*
X1955298Y839159D2*
X1957675Y843912D1*
X1962483Y848721D1*
X1967237Y851097D1*
X1976798D1*
X1981607Y848721D1*
X1986360Y843912D1*
X1988792Y839159D1*
X1991168Y831974D1*
Y819980D1*
X1988792Y812851D1*
X1986360Y808042D1*
X1981607Y803289D1*
X1976798Y800857D1*
X1967237D1*
X1962483Y803289D1*
X1957675Y808042D1*
X1955298Y812851D1*
X1908742Y834350D2*
X1911174Y827165D1*
X1915927Y822357D1*
X1923112Y819980D1*
X1925489D1*
X1932674Y822357D1*
X1937427Y827165D1*
X1939859Y834350D1*
Y836727D1*
X1937427Y843912D1*
X1932674Y848665D1*
X1925489Y851042D1*
X1923112D1*
X1915927Y848665D1*
X1911174Y843912D1*
X1908742Y834350D1*
Y822357D1*
X1911174Y810419D1*
X1915927Y803234D1*
X1923112Y800857D1*
X1927866D1*
X1935051Y803234D1*
X1937427Y808042D1*
X1817794Y1405493D2*
X1813041Y1407869D1*
X1808232Y1412678D1*
X1805856Y1417431D1*
Y1426992D1*
X1808232Y1431801D1*
X1813041Y1436554D1*
X1817794Y1438986D1*
X1824979Y1441362D1*
X1836972D1*
X1844102Y1438986D1*
X1848911Y1436554D1*
X1853664Y1431801D1*
X1856096Y1426992D1*
Y1417431D1*
X1853664Y1412678D1*
X1848911Y1407869D1*
X1844102Y1405493D1*
X1815473Y1390053D2*
X1813041Y1385245D1*
X1805911Y1378060D1*
X1856096D1*
X1815473Y1362621D2*
X1813041Y1357812D1*
X1805911Y1350627D1*
X1856096D1*
X1970714Y751179D2*
X1973090Y755932D1*
X1977899Y760740D1*
X1982652Y763117D1*
X1992213D1*
X1997022Y760740D1*
X2001775Y755932D1*
X2004207Y751179D1*
X2006584Y743994D1*
Y732000D1*
X2004207Y724870D1*
X2001775Y720062D1*
X1997022Y715309D1*
X1992213Y712877D1*
X1982652D1*
X1977899Y715309D1*
X1973090Y720062D1*
X1970714Y724870D1*
X1955274Y753500D2*
X1950466Y755932D1*
X1943281Y763062D1*
Y712877D1*
X1925410Y751123D2*
Y753500D1*
X1923033Y758308D1*
X1920657Y760685D1*
X1915848Y763062D1*
X1906286D1*
X1901533Y760685D1*
X1899157Y758308D1*
X1896725Y753500D1*
Y748747D1*
X1899157Y743938D1*
X1903910Y736808D1*
X1927842Y712877D1*
X1894348D1*
X1812702Y713175D2*
X1815078Y717928D1*
X1819887Y722736D1*
X1824640Y725113D1*
X1834202D1*
X1839010Y722736D1*
X1843763Y717928D1*
X1846195Y713175D1*
X1848572Y705990D1*
Y693996D1*
X1846195Y686866D1*
X1843763Y682058D1*
X1839010Y677305D1*
X1834202Y674873D1*
X1824640D1*
X1819887Y677305D1*
X1815078Y682058D1*
X1812702Y686866D1*
X1797263Y715496D2*
X1792454Y717928D1*
X1785269Y725058D1*
Y674873D1*
X1765021Y725058D2*
X1738768D1*
X1753083Y705934D1*
X1745898D1*
X1741145Y703558D1*
X1738768Y701181D1*
X1736336Y693996D1*
Y689243D1*
X1738768Y682058D1*
X1743521Y677249D1*
X1750707Y674873D1*
X1757892D1*
X1765021Y677249D1*
X1767398Y679681D1*
X1769830Y684434D1*
X1721783Y1403761D2*
X1717030Y1406138D1*
X1712222Y1410947D1*
X1709845Y1415700D1*
Y1425261D1*
X1712222Y1430070D1*
X1717030Y1434823D1*
X1721783Y1437255D1*
X1728968Y1439631D1*
X1740962D1*
X1748092Y1437255D1*
X1752900Y1434823D1*
X1757653Y1430070D1*
X1760085Y1425261D1*
Y1415700D1*
X1757653Y1410946D1*
X1752900Y1406138D1*
X1748092Y1403761D1*
X1719462Y1388322D2*
X1717030Y1383514D1*
X1709900Y1376329D1*
X1760085D1*
Y1336958D2*
X1709900D1*
X1743339Y1360890D1*
Y1325020D1*
X1970203Y1618686D2*
X1972580Y1623440D1*
X1977388Y1628248D1*
X1982141Y1630625D1*
X1991703D1*
X1996511Y1628248D1*
X2001265Y1623440D1*
X2003696Y1618686D1*
X2006073Y1611501D1*
Y1599508D1*
X2003696Y1592378D1*
X2001265Y1587570D1*
X1996511Y1582817D1*
X1991703Y1580385D1*
X1982141D1*
X1977388Y1582817D1*
X1972580Y1587570D1*
X1970203Y1592378D1*
X1954764Y1621008D2*
X1949955Y1623440D1*
X1942770Y1630569D1*
Y1580385D1*
X1898646Y1630569D2*
X1922523D1*
X1924899Y1609070D1*
X1922523Y1611446D1*
X1915338Y1613878D1*
X1908208D1*
X1901023Y1611446D1*
X1896214Y1606693D1*
X1893838Y1599508D1*
Y1594755D1*
X1896214Y1587570D1*
X1901023Y1582761D1*
X1908208Y1580385D1*
X1915338D1*
X1922523Y1582761D1*
X1924899Y1585193D1*
X1927331Y1589946D1*
X1953524Y922055D2*
X1955900Y926808D1*
X1960709Y931617D1*
X1965462Y933993D1*
X1975024D1*
X1979832Y931617D1*
X1984585Y926808D1*
X1987017Y922055D1*
X1989394Y914870D1*
Y902877D1*
X1987017Y895747D1*
X1984585Y890938D1*
X1979832Y886185D1*
X1975024Y883753D1*
X1965462D1*
X1960709Y886185D1*
X1955900Y890938D1*
X1953524Y895747D1*
X1938085Y924377D2*
X1933276Y926808D1*
X1926091Y933938D1*
Y883753D1*
X1881967Y926808D2*
X1884344Y931562D1*
X1891529Y933938D1*
X1896282D1*
X1903467Y931562D1*
X1908275Y924377D1*
X1910652Y912438D1*
Y900500D1*
X1908275Y890938D1*
X1903467Y886130D1*
X1896282Y883753D1*
X1893905D1*
X1886775Y886130D1*
X1881967Y890938D1*
X1879590Y898123D1*
Y900500D1*
X1881967Y907685D1*
X1886775Y912438D1*
X1893905Y914815D1*
X1896282D1*
X1903467Y912438D1*
X1908275Y907685D1*
X1910652Y900500D1*
X1322675Y1252093D2*
X1317921Y1254469D1*
X1313113Y1259278D1*
X1310736Y1264031D1*
Y1273593D1*
X1313113Y1278401D1*
X1317921Y1283154D1*
X1322675Y1285586D1*
X1329860Y1287963D1*
X1341853D1*
X1348983Y1285586D1*
X1353791Y1283154D1*
X1358544Y1278401D1*
X1360976Y1273593D1*
Y1264031D1*
X1358544Y1259278D1*
X1353791Y1254469D1*
X1348983Y1252093D1*
X1320353Y1236654D2*
X1317921Y1231845D1*
X1310792Y1224660D1*
X1360976D1*
Y1199659D2*
X1310792Y1175728D1*
Y1209221D1*
X1609133Y750840D2*
X1604379Y753216D1*
X1599571Y758025D1*
X1597194Y762778D1*
Y772339D1*
X1599571Y777148D1*
X1604379Y781901D1*
X1609133Y784333D1*
X1616318Y786709D1*
X1628311D1*
X1635441Y784333D1*
X1640249Y781901D1*
X1645002Y777148D1*
X1647434Y772339D1*
Y762778D1*
X1645002Y758025D1*
X1640249Y753216D1*
X1635441Y750840D1*
X1606811Y735400D2*
X1604379Y730592D1*
X1597250Y723407D1*
X1647434D1*
X1597250Y696029D2*
X1599626Y703159D1*
X1604379Y705591D1*
X1609188D1*
X1613941Y703159D1*
X1616373Y698406D1*
X1618749Y688844D1*
X1621126Y681659D1*
X1625934Y676906D1*
X1630688Y674530D1*
X1637873D1*
X1642626Y676906D1*
X1645058Y679283D1*
X1647434Y686468D1*
Y696029D1*
X1645058Y703159D1*
X1642626Y705591D1*
X1637873Y707968D1*
X1630688D1*
X1625934Y705591D1*
X1621126Y700783D1*
X1618749Y693653D1*
X1616373Y684091D1*
X1613941Y679283D1*
X1609188Y676906D1*
X1604379D1*
X1599626Y679283D1*
X1597250Y686468D1*
Y696029D1*
X1573699Y584325D2*
X1568946Y586701D1*
X1564138Y591510D1*
X1561761Y596263D1*
Y605824D1*
X1564138Y610633D1*
X1568946Y615386D1*
X1573699Y617818D1*
X1580884Y620194D1*
X1592878D1*
X1600008Y617818D1*
X1604816Y615386D1*
X1609569Y610633D1*
X1612001Y605824D1*
Y596263D1*
X1609569Y591510D1*
X1604816Y586701D1*
X1600008Y584325D1*
X1571378Y568885D2*
X1568946Y564077D1*
X1561817Y556892D1*
X1612001D1*
X1578508Y510336D2*
X1585693Y512768D1*
X1590501Y517521D1*
X1592878Y524706D1*
Y527083D1*
X1590501Y534268D1*
X1585693Y539021D1*
X1578508Y541453D1*
X1576131D1*
X1568946Y539021D1*
X1564193Y534268D1*
X1561816Y527083D1*
Y524706D1*
X1564193Y517521D1*
X1568946Y512768D1*
X1578508Y510336D1*
X1590501D1*
X1602440Y512768D1*
X1609625Y517521D1*
X1612001Y524706D1*
Y529459D1*
X1609625Y536644D1*
X1604816Y539021D1*
X1494377Y1477188D2*
X1496753Y1481941D1*
X1501562Y1486749D1*
X1506315Y1489126D1*
X1515877D1*
X1520685Y1486749D1*
X1525438Y1481941D1*
X1527870Y1477188D1*
X1530247Y1470003D1*
Y1458009D1*
X1527870Y1450879D1*
X1525438Y1446071D1*
X1520685Y1441318D1*
X1515877Y1438886D1*
X1506315D1*
X1501562Y1441318D1*
X1496753Y1446071D1*
X1494377Y1450879D1*
X1476506Y1477132D2*
Y1479509D1*
X1474129Y1484318D1*
X1471753Y1486694D1*
X1466944Y1489071D1*
X1457383D1*
X1452629Y1486694D1*
X1450253Y1484318D1*
X1447821Y1479509D1*
Y1474756D1*
X1450253Y1469947D1*
X1455006Y1462818D1*
X1478938Y1438886D1*
X1445444D1*
X1427573Y1477132D2*
Y1479509D1*
X1425197Y1484318D1*
X1422820Y1486694D1*
X1418012Y1489071D1*
X1408450D1*
X1403697Y1486694D1*
X1401320Y1484318D1*
X1398888Y1479509D1*
Y1474756D1*
X1401320Y1469947D1*
X1406073Y1462818D1*
X1430005Y1438886D1*
X1396512D1*
X1328925Y940792D2*
X1324172Y943168D1*
X1319364Y947977D1*
X1316987Y952730D1*
Y962291D1*
X1319364Y967100D1*
X1324172Y971853D1*
X1328925Y974285D1*
X1336110Y976662D1*
X1348104D1*
X1355233Y974285D1*
X1360042Y971853D1*
X1364795Y967100D1*
X1367227Y962291D1*
Y952730D1*
X1364795Y947977D1*
X1360042Y943168D1*
X1355233Y940792D1*
X1328980Y922921D2*
X1326604D1*
X1321795Y920544D1*
X1319419Y918167D1*
X1317042Y913359D1*
Y903797D1*
X1319419Y899044D1*
X1321795Y896668D1*
X1326604Y894236D1*
X1331357D1*
X1336165Y896668D1*
X1343295Y901421D1*
X1367227Y925352D1*
Y891859D1*
X1317042Y871611D2*
Y845358D1*
X1336165Y859673D1*
Y852488D1*
X1338542Y847735D1*
X1340919Y845358D1*
X1348104Y842927D1*
X1352857D1*
X1360042Y845358D1*
X1364850Y850112D1*
X1367227Y857297D1*
Y864482D1*
X1364850Y871611D1*
X1362419Y873988D1*
X1357665Y876420D1*
X1473566Y864623D2*
X1475943Y869377D1*
X1480752Y874185D1*
X1485505Y876562D1*
X1495066D1*
X1499875Y874185D1*
X1504628Y869377D1*
X1507060Y864623D1*
X1509436Y857438D1*
Y845445D1*
X1507060Y838315D1*
X1504628Y833507D1*
X1499875Y828754D1*
X1495066Y826322D1*
X1485505D1*
X1480752Y828754D1*
X1475943Y833507D1*
X1473566Y838315D1*
X1455695Y864568D2*
Y866945D1*
X1453319Y871753D1*
X1450942Y874130D1*
X1446134Y876506D1*
X1436572D1*
X1431819Y874130D1*
X1429442Y871753D1*
X1427010Y866945D1*
Y862192D1*
X1429442Y857383D1*
X1434196Y850253D1*
X1458127Y826322D1*
X1424634D1*
X1385263D2*
Y876506D1*
X1409195Y843068D1*
X1373325D1*
X935904Y966341D2*
X931151Y968718D1*
X926343Y973527D1*
X923966Y978280D1*
Y987841D1*
X926343Y992650D1*
X931151Y997403D1*
X935904Y999835D1*
X943089Y1002211D1*
X955083D1*
X962212Y999835D1*
X967021Y997403D1*
X971774Y992650D1*
X974206Y987841D1*
Y978280D1*
X971774Y973526D1*
X967021Y968718D1*
X962212Y966341D1*
X935959Y948470D2*
X933583D1*
X928774Y946094D1*
X926398Y943717D1*
X924021Y938909D1*
Y929347D1*
X926398Y924594D1*
X928774Y922217D1*
X933583Y919786D1*
X938336D1*
X943144Y922217D1*
X950274Y926971D1*
X974206Y950902D1*
Y917409D1*
X924021Y873285D2*
Y897161D1*
X945521Y899538D1*
X943144Y897161D1*
X940713Y889976D1*
Y882846D1*
X943144Y875661D1*
X947898Y870853D1*
X955083Y868476D1*
X959836D1*
X967021Y870853D1*
X971829Y875661D1*
X974206Y882846D1*
Y889976D1*
X971829Y897161D1*
X969398Y899538D1*
X964644Y901970D1*
X935904Y701367D2*
X931151Y703744D1*
X926343Y708552D1*
X923966Y713305D1*
Y722867D1*
X926343Y727675D1*
X931151Y732428D1*
X935904Y734860D1*
X943089Y737237D1*
X955083D1*
X962212Y734860D1*
X967021Y732428D1*
X971774Y727675D1*
X974206Y722867D1*
Y713305D1*
X971774Y708552D1*
X967021Y703744D1*
X962212Y701367D1*
X935959Y683496D2*
X933583D1*
X928774Y681119D1*
X926398Y678743D1*
X924021Y673934D1*
Y664373D1*
X926398Y659620D1*
X928774Y657243D1*
X933583Y654811D1*
X938336D1*
X943144Y657243D1*
X950274Y661996D1*
X974206Y685928D1*
Y652434D1*
X931151Y608310D2*
X926398Y610687D1*
X924021Y617872D1*
Y622625D1*
X926398Y629810D1*
X933583Y634619D1*
X945521Y636995D1*
X957459D1*
X967021Y634619D1*
X971829Y629810D1*
X974206Y622625D1*
Y620249D1*
X971829Y613119D1*
X967021Y608310D1*
X959836Y605934D1*
X957459D1*
X950274Y608310D1*
X945521Y613119D1*
X943144Y620249D1*
Y622625D1*
X945521Y629810D1*
X950274Y634619D1*
X957459Y636995D1*
X935904Y1549040D2*
X931151Y1551416D1*
X926343Y1556225D1*
X923966Y1560978D1*
Y1570539D1*
X926343Y1575348D1*
X931151Y1580101D1*
X935904Y1582533D1*
X943089Y1584910D1*
X955083D1*
X962212Y1582533D1*
X967021Y1580101D1*
X971774Y1575348D1*
X974206Y1570539D1*
Y1560978D1*
X971774Y1556225D1*
X967021Y1551416D1*
X962212Y1549040D1*
X935959Y1531169D2*
X933583D1*
X928774Y1528792D1*
X926398Y1526415D1*
X924021Y1521607D1*
Y1512045D1*
X926398Y1507292D1*
X928774Y1504916D1*
X933583Y1502484D1*
X938336D1*
X943144Y1504916D1*
X950274Y1509669D1*
X974206Y1533600D1*
Y1500107D1*
Y1475106D2*
X924021Y1451175D1*
Y1484668D1*
X935904Y1273421D2*
X931151Y1275798D1*
X926343Y1280607D1*
X923966Y1285360D1*
Y1294921D1*
X926343Y1299730D1*
X931151Y1304483D1*
X935904Y1306915D1*
X943089Y1309291D1*
X955083D1*
X962212Y1306915D1*
X967021Y1304483D1*
X971774Y1299730D1*
X974206Y1294921D1*
Y1285360D1*
X971774Y1280606D1*
X967021Y1275798D1*
X962212Y1273421D1*
X935959Y1255550D2*
X933583D1*
X928774Y1253174D1*
X926398Y1250797D1*
X924021Y1245989D1*
Y1236427D1*
X926398Y1231674D1*
X928774Y1229297D1*
X933583Y1226866D1*
X938336D1*
X943144Y1229297D1*
X950274Y1234051D1*
X974206Y1257982D1*
Y1224489D1*
X924021Y1197111D2*
X926398Y1204241D1*
X931151Y1206673D1*
X935959D1*
X940713Y1204241D1*
X943144Y1199488D1*
X945521Y1189926D1*
X947898Y1182741D1*
X952706Y1177988D1*
X957459Y1175612D1*
X964644D1*
X969397Y1177988D1*
X971829Y1180365D1*
X974206Y1187550D1*
Y1197111D1*
X971829Y1204241D1*
X969398Y1206673D1*
X964644Y1209050D1*
X957459D1*
X952706Y1206673D1*
X947898Y1201865D1*
X945521Y1194735D1*
X943144Y1185173D1*
X940713Y1180365D1*
X935959Y1177988D1*
X931151D1*
X926398Y1180365D1*
X924021Y1187550D1*
Y1197111D1*
X619809Y799789D2*
X622186Y804542D1*
X626994Y809350D1*
X631748Y811727D1*
X641309D1*
X646118Y809350D1*
X650871Y804542D1*
X653303Y799789D1*
X655679Y792604D1*
Y780610D1*
X653303Y773480D1*
X650871Y768672D1*
X646118Y763919D1*
X641309Y761487D1*
X631748D1*
X626994Y763919D1*
X622186Y768672D1*
X619809Y773480D1*
X599562Y811672D2*
X573309D1*
X587623Y792548D1*
X580438D1*
X575685Y790172D1*
X573309Y787795D1*
X570877Y780610D1*
Y775857D1*
X573309Y768672D1*
X578062Y763864D1*
X585247Y761487D1*
X592432D1*
X599562Y763864D1*
X601938Y766295D1*
X604370Y771049D1*
X555438Y802110D2*
X550629Y804542D1*
X543444Y811672D1*
Y761487D1*
X1258647Y1925902D2*
Y1875662D1*
X1241900D1*
X1234715Y1878094D1*
X1229906Y1882847D1*
X1227530Y1887656D1*
X1225153Y1894785D1*
Y1906779D1*
X1227530Y1913964D1*
X1229906Y1918717D1*
X1234715Y1923526D1*
X1241900Y1925902D1*
X1258647D1*
X1181029Y1918717D2*
X1183406Y1923470D1*
X1190591Y1925847D1*
X1195344D1*
X1202529Y1923470D1*
X1207337Y1916285D1*
X1209714Y1904347D1*
Y1892409D1*
X1207337Y1882847D1*
X1202529Y1878039D1*
X1195344Y1875662D1*
X1192967D1*
X1185838Y1878039D1*
X1181029Y1882847D1*
X1178653Y1890032D1*
Y1892409D1*
X1181029Y1899594D1*
X1185838Y1904347D1*
X1192967Y1906724D1*
X1195344D1*
X1202529Y1904347D1*
X1207337Y1899594D1*
X1209714Y1892409D1*
X1934655Y644404D2*
Y606158D1*
X1937031Y598973D1*
X1939463Y596596D1*
X1944216Y594164D1*
X1949025D1*
X1953778Y596596D1*
X1956154Y598973D1*
X1958586Y606158D1*
Y610911D1*
X1890530Y637219D2*
X1892907Y641972D1*
X1900092Y644349D1*
X1904845D1*
X1912030Y641972D1*
X1916839Y634787D1*
X1919215Y622849D1*
Y610911D1*
X1916839Y601349D1*
X1912030Y596541D1*
X1904845Y594164D1*
X1902469D1*
X1895339Y596541D1*
X1890530Y601349D1*
X1888154Y608534D1*
Y610911D1*
X1890530Y618096D1*
X1895339Y622849D1*
X1902469Y625226D1*
X1904845D1*
X1912030Y622849D1*
X1916839Y618096D1*
X1919215Y610911D1*
X1229972Y1084596D2*
Y1034356D1*
X1201287D1*
X1185848Y1074979D2*
X1181040Y1077411D1*
X1173855Y1084541D1*
Y1034356D1*
X1240722Y764483D2*
Y714243D1*
X1212037D1*
X1194166Y752489D2*
Y754866D1*
X1191790Y759674D1*
X1189413Y762051D1*
X1184604Y764428D1*
X1175043D1*
X1170290Y762051D1*
X1167913Y759674D1*
X1165481Y754866D1*
Y750113D1*
X1167913Y745304D1*
X1172666Y738175D1*
X1196598Y714243D1*
X1163105D1*
X1240722Y1724823D2*
Y1674583D1*
X1212037D1*
X1191790Y1724768D2*
X1165537D1*
X1179851Y1705644D1*
X1172666D1*
X1167913Y1703268D1*
X1165537Y1700891D1*
X1163105Y1693706D1*
Y1688953D1*
X1165537Y1681768D1*
X1170290Y1676959D1*
X1177475Y1674583D1*
X1184660D1*
X1191790Y1676959D1*
X1194166Y1679391D1*
X1196598Y1684144D1*
X1241910Y1404710D2*
Y1354470D1*
X1213226D1*
X1173855D2*
Y1404655D1*
X1197786Y1371217D1*
X1161916D1*
X1747110Y1623425D2*
Y1601925D1*
X1744678Y1594740D1*
X1742302Y1592308D1*
X1737549Y1589932D1*
X1732740D1*
X1727987Y1592308D1*
X1725555Y1594740D1*
X1723179Y1601925D1*
Y1623425D1*
X1773419D1*
X1747110Y1606678D2*
X1773419Y1589932D1*
Y1550561D2*
X1723234D1*
X1756672Y1574492D1*
Y1538622D1*
X1997000Y1693307D2*
X1975500D1*
X1968315Y1695739D1*
X1965883Y1698116D1*
X1963507Y1702869D1*
Y1707677D1*
X1965883Y1712430D1*
X1968315Y1714862D1*
X1975500Y1717239D1*
X1997000D1*
Y1666999D1*
X1980254Y1693307D2*
X1963507Y1666999D1*
X1948068Y1707622D2*
X1943259Y1710054D1*
X1936074Y1717184D1*
Y1666999D1*
X1915826Y1717184D2*
X1889573D1*
X1903888Y1698060D1*
X1896703D1*
X1891950Y1695684D1*
X1889573Y1693307D1*
X1887142Y1686122D1*
Y1681369D1*
X1889573Y1674184D1*
X1894327Y1669375D1*
X1901512Y1666999D1*
X1908697D1*
X1915826Y1669375D1*
X1918203Y1671807D1*
X1920635Y1676560D1*
X2187979Y816155D2*
X2192733Y820964D1*
X2199918Y823341D1*
X2209479D1*
X2216664Y820964D1*
X2221473Y816155D1*
Y811402D1*
X2219041Y806594D1*
X2216664Y804217D1*
X2211911Y801841D1*
X2197541Y797032D1*
X2192733Y794656D1*
X2190356Y792224D1*
X2187979Y787471D1*
Y780286D1*
X2192733Y775532D1*
X2199918Y773101D1*
X2209479D1*
X2216664Y775532D1*
X2221473Y780286D1*
X2170108Y811347D2*
Y813724D1*
X2167732Y818532D1*
X2165355Y820909D1*
X2160547Y823285D1*
X2150985D1*
X2146232Y820909D1*
X2143855Y818532D1*
X2141423Y813724D1*
Y808970D1*
X2143855Y804162D1*
X2148609Y797032D1*
X2172540Y773101D1*
X2139047D1*
X1785716Y1326609D2*
Y1290739D1*
X1783339Y1283554D1*
X1778531Y1278801D1*
X1771346Y1276369D1*
X1766592D1*
X1759407Y1278801D1*
X1754599Y1283554D1*
X1752222Y1290739D1*
Y1326609D1*
X1734351Y1314615D2*
Y1316992D1*
X1731975Y1321800D1*
X1729598Y1324177D1*
X1724790Y1326554D1*
X1715228D1*
X1710475Y1324177D1*
X1708098Y1321800D1*
X1705666Y1316992D1*
Y1312239D1*
X1708098Y1307430D1*
X1712851Y1300301D1*
X1736783Y1276369D1*
X1703290D1*
X2218488Y1858932D2*
D159*
X2220389Y1862735D1*
X2224236Y1866582D1*
X2228038Y1868483D1*
X2235687D1*
X2239534Y1866582D1*
X2243337Y1862735D1*
X2245282Y1858932D1*
X2247184Y1853184D1*
Y1843590D1*
X2245282Y1837886D1*
X2243337Y1834039D1*
X2239534Y1830236D1*
X2235687Y1828291D1*
X2228038D1*
X2224236Y1830236D1*
X2220389Y1834039D1*
X2218488Y1837886D1*
Y1843590D1*
X2228038D1*
X2179342Y1868483D2*
Y1828291D1*
X2206136Y1868483D1*
Y1828291D1*
X2166990Y1868483D2*
Y1828291D1*
X2153593D1*
X2147845Y1830236D1*
X2143998Y1834039D1*
X2142097Y1837886D1*
X2140195Y1843590D1*
Y1853184D1*
X2142097Y1858932D1*
X2143998Y1862735D1*
X2147845Y1866582D1*
X2153593Y1868483D1*
X2166990D1*
X2247183Y1755004D2*
X2229983D1*
X2224235Y1756950D1*
X2222289Y1758851D1*
X2220388Y1762654D1*
Y1766500D1*
X2222289Y1770303D1*
X2224235Y1772248D1*
X2229983Y1774150D1*
X2247183D1*
Y1733958D1*
X2233785Y1755004D2*
X2220388Y1733958D1*
X2181242Y1768402D2*
X2185044Y1772248D1*
X2190792Y1774150D1*
X2198442D1*
X2204190Y1772248D1*
X2208036Y1768402D1*
Y1764599D1*
X2206091Y1760752D1*
X2204190Y1758851D1*
X2200387Y1756950D1*
X2188891Y1753103D1*
X2185044Y1751202D1*
X2183143Y1749256D1*
X2181242Y1745454D1*
Y1739706D1*
X2185044Y1735903D1*
X2190792Y1733958D1*
X2198442D1*
X2204190Y1735903D1*
X2208036Y1739706D1*
X2155493Y1774150D2*
Y1733958D1*
X2168890Y1774150D2*
X2142096D1*
X2243337Y1671588D2*
X2222334D1*
X2233786Y1656290D1*
X2228038D1*
X2224236Y1654388D1*
X2222334Y1652487D1*
X2220389Y1646739D1*
Y1642937D1*
X2222334Y1637189D1*
X2226137Y1633342D1*
X2231885Y1631441D1*
X2237633D1*
X2243337Y1633342D1*
X2245238Y1635287D1*
X2247183Y1639090D1*
X2206136Y1635287D2*
X2208037Y1633342D1*
X2206136Y1631441D1*
X2204191Y1633342D1*
X2206136Y1635287D1*
X2187992Y1671588D2*
X2166990D1*
X2178442Y1656290D1*
X2172694D1*
X2168891Y1654388D1*
X2166990Y1652487D1*
X2165045Y1646739D1*
Y1642937D1*
X2166990Y1637189D1*
X2170793Y1633342D1*
X2176541Y1631441D1*
X2182289D1*
X2187992Y1633342D1*
X2189894Y1635287D1*
X2191839Y1639090D1*
X2247184Y1569270D2*
Y1529078D1*
X2233786D1*
X2228038Y1531024D1*
X2224191Y1534826D1*
X2222290Y1538673D1*
X2220389Y1544377D1*
Y1553972D1*
X2222290Y1559720D1*
X2224191Y1563522D1*
X2228038Y1567369D1*
X2233786Y1569270D1*
X2247184D1*
X2208037D2*
X2198443Y1529078D1*
X2188892Y1569270D1*
X2179342Y1529078D1*
X2169747Y1569270D1*
X2157395D2*
Y1529078D1*
X2134447D1*
X2233786Y1474782D2*
Y1434590D1*
X2247183Y1474782D2*
X2220389D1*
X2208037Y1461385D2*
X2186991Y1434590D1*
Y1461385D2*
X2208037Y1434590D1*
X2247183Y1349338D2*
X2229984D1*
X2224236Y1351283D1*
X2222290Y1353184D1*
X2220389Y1356987D1*
Y1360834D1*
X2222290Y1364636D1*
X2224236Y1366582D1*
X2229984Y1368483D1*
X2247183D1*
Y1328291D1*
X2233786Y1349338D2*
X2220389Y1328291D1*
X2208037Y1355086D2*
X2186991Y1328291D1*
Y1355086D2*
X2208037Y1328291D1*
X478792Y1474782D2*
Y1434590D1*
X455844D1*
X426293Y1471886D2*
Y1437442D1*
X443492Y1454642D2*
X409048D1*
X478792Y1337142D2*
Y1296950D1*
X455844D1*
X443492Y1317024D2*
X421384D1*
X466456Y1180046D2*
X449256D1*
X443508Y1181992D1*
X441563Y1183893D1*
X439661Y1187696D1*
Y1191542D1*
X441563Y1195345D1*
X443508Y1197290D1*
X449256Y1199192D1*
X466456D1*
Y1159000D1*
X453059Y1180046D2*
X439661Y1159000D1*
X427310Y1179073D2*
X405202D1*
X491128Y1042251D2*
X473928D1*
X468180Y1044196D1*
X466235Y1046098D1*
X464333Y1049900D1*
Y1053747D1*
X466235Y1057550D1*
X468180Y1059495D1*
X473928Y1061396D1*
X491128D1*
Y1021204D1*
X477731Y1042251D2*
X464333Y1021204D1*
X434782Y1058500D2*
Y1024056D1*
X451982Y1041256D2*
X417538D1*
X1694009Y1822280D2*
Y1787836D1*
X1711209Y1805036D2*
X1676765D1*
X1608322Y1805058D2*
X1586214D1*
M02*
