G04 DipTrace 3.3.1.3*
G04 TopMask.gbr*
%MOIN*%
G04 #@! TF.FileFunction,Soldermask,Top*
G04 #@! TF.Part,Single*
%ADD51C,0.08905*%
%ADD88C,0.047402*%
%ADD90R,0.126142X0.204882*%
%ADD92R,0.043465X0.086772*%
%ADD94C,0.078898*%
%ADD96C,0.06315*%
%ADD98R,0.031654X0.051339*%
%ADD100R,0.071024X0.118268*%
%ADD102R,0.06315X0.019843*%
%ADD108R,0.051339X0.031654*%
%ADD112R,0.027717X0.027717*%
%ADD114R,0.04937X0.033622*%
%ADD116R,0.114331X0.053307*%
%ADD118R,0.14189X0.051339*%
%ADD122O,0.047402X0.059213*%
%ADD124R,0.047402X0.059213*%
%ADD130O,0.114331X0.098583*%
%ADD132R,0.114331X0.098583*%
%ADD134C,0.067402*%
%ADD136R,0.067402X0.067402*%
%ADD138R,0.074961X0.074961*%
%ADD140C,0.074961*%
%ADD142O,0.149764X0.086772*%
%ADD144O,0.086772X0.145827*%
%ADD146O,0.145827X0.086772*%
%ADD148R,0.039528X0.071024*%
%ADD152R,0.055276X0.055276*%
%ADD154R,0.059213X0.067087*%
%ADD156R,0.067087X0.059213*%
%FSLAX26Y26*%
G04*
G70*
G90*
G75*
G01*
G04 TopMask*
%LPD*%
D88*
X1463724Y1457008D3*
X1633016Y878268D3*
D156*
X1314118Y917638D3*
Y842835D3*
D154*
X920417Y1894016D3*
X995220D3*
D156*
X1026717Y1610551D3*
Y1535748D3*
D154*
X1373173Y1901890D3*
X1447976D3*
X1369236Y1500315D3*
X1294433D3*
X2243252Y1236535D3*
X2318055D3*
D156*
X2070024Y1429449D3*
Y1504252D3*
X1010969Y1138110D3*
Y1063307D3*
X1164512Y618425D3*
Y543622D3*
X1227504Y917638D3*
Y842835D3*
D154*
X909449Y700988D3*
X984252D3*
D156*
X1262937Y618425D3*
Y543622D3*
X1073961Y618425D3*
Y543622D3*
D154*
X845614Y1531811D3*
X770811D3*
D152*
X912543Y1803465D3*
Y1693228D3*
X1270811Y1905827D3*
X1160575D3*
X1447976Y1831024D3*
Y1720787D3*
Y1543622D3*
Y1653858D3*
D148*
X1593646Y1256220D3*
Y1382205D3*
X1648764Y1256220D3*
Y1382205D3*
D146*
X806244Y1626299D3*
D144*
X719630Y1756220D3*
D146*
X806244Y1886142D3*
D142*
X514906Y1901890D3*
Y1610551D3*
D140*
X2207819Y1909764D3*
X2081835Y1590866D3*
X1877110Y1712913D3*
X1841677Y1909764D3*
D138*
X2302307Y1862520D3*
D140*
Y1762520D3*
Y1662520D3*
Y1562520D3*
Y1462520D3*
Y1362520D3*
D136*
X1597585Y1721969D3*
D134*
X1696005D3*
D132*
X554276Y1453071D3*
D130*
Y1315276D3*
Y1177480D3*
Y1039685D3*
D124*
X925732Y935945D3*
D122*
X875732D3*
D124*
X2098764Y1279843D3*
D122*
X2148764D3*
D136*
X1597585Y1899921D3*
D51*
X1696005D3*
D118*
X1310181Y1819213D3*
Y1701102D3*
D116*
X1113331Y854646D3*
Y736535D3*
D114*
X1231441Y1311339D3*
Y1236535D3*
X1321992Y1273937D3*
D156*
X980524Y618425D3*
Y543622D3*
X895328D3*
Y618425D3*
X944039Y1610551D3*
Y1535748D3*
X1518843Y1334961D3*
Y1260157D3*
X1727504Y1334961D3*
Y1260157D3*
D154*
X1369236Y1586929D3*
X1294433D3*
D156*
X1197976Y1535748D3*
Y1610551D3*
X1109394Y1535748D3*
Y1610551D3*
D154*
X904669Y1268031D3*
X979472D3*
X904669Y1378268D3*
X979472D3*
D156*
X2156638Y1504252D3*
Y1429449D3*
X1983409D3*
Y1504252D3*
X1814118D3*
Y1429449D3*
X1896795D3*
Y1504252D3*
D112*
X2026717Y1350709D3*
Y1319213D3*
X1928291D3*
Y1350709D3*
D108*
X1006213Y782004D3*
Y819406D3*
Y856807D3*
X899913D3*
Y819406D3*
Y782004D3*
D102*
X995220Y1819213D3*
Y1793622D3*
Y1768031D3*
Y1742441D3*
Y1716850D3*
Y1691260D3*
X1168449D3*
Y1716850D3*
Y1742441D3*
Y1768031D3*
Y1793622D3*
Y1819213D3*
D100*
X1081835Y1755236D3*
D98*
Y1059370D3*
X1119236D3*
X1156638D3*
Y1165669D3*
X1119236D3*
X1081835D3*
D96*
X741283Y606614D3*
Y706614D3*
Y806614D3*
D94*
X638134Y606614D3*
Y806614D3*
D92*
X2318055Y1153858D3*
X2268055Y1154252D3*
X2218055D3*
X2168055D3*
X2118055D3*
X2068055D3*
X2018055D3*
X1968055D3*
X1918055D3*
X1868055D3*
X1818055D3*
X1768055D3*
X1718055D3*
X1668055D3*
X1668436Y476218D3*
X1718436D3*
X1768436D3*
X1818434D3*
X1868436D3*
X1418436D3*
X1468436D3*
X1518436D3*
X1568436D3*
X1618436D3*
X1918094Y476220D3*
X1968094D3*
X2018094D3*
X2068094D3*
X2118094D3*
X2168094D3*
X2218094D3*
X2268094D3*
X2318094D3*
D90*
X2069945Y853858D3*
D92*
X1618395Y1154248D3*
X1568395D3*
X1518395D3*
X1468395D3*
X1418395D3*
D98*
X1148764Y1382205D3*
X1111362D3*
X1073961D3*
Y1275906D3*
X1111362D3*
X1148764D3*
M02*
