G04 DipTrace 3.3.1.3*
G04 TopPaste.gbr*
%MOIN*%
G04 #@! TF.FileFunction,Paste,Top*
G04 #@! TF.Part,Single*
%ADD91R,0.110079X0.188819*%
%ADD93R,0.027402X0.070709*%
%ADD99R,0.015591X0.035276*%
%ADD101R,0.054961X0.102205*%
%ADD103R,0.047087X0.00378*%
%ADD109R,0.035276X0.015591*%
%ADD113R,0.011654X0.011654*%
%ADD115R,0.033307X0.017559*%
%ADD117R,0.098268X0.037244*%
%ADD119R,0.125827X0.035276*%
%ADD149R,0.023465X0.054961*%
%ADD153R,0.039213X0.039213*%
%ADD155R,0.04315X0.051024*%
%ADD157R,0.051024X0.04315*%
%FSLAX26Y26*%
G04*
G70*
G90*
G75*
G01*
G04 TopPaste*
%LPD*%
D157*
X1314118Y917638D3*
Y842835D3*
D155*
X920417Y1894016D3*
X995220D3*
D157*
X1026717Y1610551D3*
Y1535748D3*
D155*
X1373173Y1901890D3*
X1447976D3*
X1369236Y1500315D3*
X1294433D3*
X2243252Y1236535D3*
X2318055D3*
D157*
X2070024Y1429449D3*
Y1504252D3*
X1010969Y1138110D3*
Y1063307D3*
X1164512Y618425D3*
Y543622D3*
X1227504Y917638D3*
Y842835D3*
D155*
X909449Y700988D3*
X984252D3*
D157*
X1262937Y618425D3*
Y543622D3*
X1073961Y618425D3*
Y543622D3*
D155*
X845614Y1531811D3*
X770811D3*
D153*
X912543Y1803465D3*
Y1693228D3*
X1270811Y1905827D3*
X1160575D3*
X1447976Y1831024D3*
Y1720787D3*
Y1543622D3*
Y1653858D3*
D149*
X1593646Y1256220D3*
Y1382205D3*
X1648764Y1256220D3*
Y1382205D3*
D119*
X1310181Y1819213D3*
Y1701102D3*
D117*
X1113331Y854646D3*
Y736535D3*
D115*
X1231441Y1311339D3*
Y1236535D3*
X1321992Y1273937D3*
D157*
X980524Y618425D3*
Y543622D3*
X895328D3*
Y618425D3*
X944039Y1610551D3*
Y1535748D3*
X1518843Y1334961D3*
Y1260157D3*
X1727504Y1334961D3*
Y1260157D3*
D155*
X1369236Y1586929D3*
X1294433D3*
D157*
X1197976Y1535748D3*
Y1610551D3*
X1109394Y1535748D3*
Y1610551D3*
D155*
X904669Y1268031D3*
X979472D3*
X904669Y1378268D3*
X979472D3*
D157*
X2156638Y1504252D3*
Y1429449D3*
X1983409D3*
Y1504252D3*
X1814118D3*
Y1429449D3*
X1896795D3*
Y1504252D3*
D113*
X2026717Y1350709D3*
Y1319213D3*
X1928291D3*
Y1350709D3*
D109*
X1006213Y782004D3*
Y819406D3*
Y856807D3*
X899913D3*
Y819406D3*
Y782004D3*
D103*
X995220Y1819213D3*
Y1793622D3*
Y1768031D3*
Y1742441D3*
Y1716850D3*
Y1691260D3*
X1168449D3*
Y1716850D3*
Y1742441D3*
Y1768031D3*
Y1793622D3*
Y1819213D3*
D101*
X1081835Y1755236D3*
D99*
Y1059370D3*
X1119236D3*
X1156638D3*
Y1165669D3*
X1119236D3*
X1081835D3*
D93*
X2318055Y1153858D3*
X2268055Y1154252D3*
X2218055D3*
X2168055D3*
X2118055D3*
X2068055D3*
X2018055D3*
X1968055D3*
X1918055D3*
X1868055D3*
X1818055D3*
X1768055D3*
X1718055D3*
X1668055D3*
X1668436Y476218D3*
X1718436D3*
X1768436D3*
X1818434D3*
X1868436D3*
X1418436D3*
X1468436D3*
X1518436D3*
X1568436D3*
X1618436D3*
X1918094Y476220D3*
X1968094D3*
X2018094D3*
X2068094D3*
X2118094D3*
X2168094D3*
X2218094D3*
X2268094D3*
X2318094D3*
D91*
X2069945Y853858D3*
D93*
X1618395Y1154248D3*
X1568395D3*
X1518395D3*
X1468395D3*
X1418395D3*
D99*
X1148764Y1382205D3*
X1111362D3*
X1073961D3*
Y1275906D3*
X1111362D3*
X1148764D3*
M02*
