G04 DipTrace 3.3.1.3*
G04 BottomSilk.gbr*
%MOIN*%
G04 #@! TF.FileFunction,Legend,Bot*
G04 #@! TF.Part,Single*
%ADD10C,0.009843*%
%ADD36C,0.023631*%
%ADD66C,0.005906*%
%ADD173C,0.006176*%
%FSLAX26Y26*%
G04*
G70*
G90*
G75*
G01*
G04 BotSilk*
%LPD*%
X3911437Y1403522D2*
D10*
X3962579D1*
X3718483Y1316909D2*
Y1265768D1*
X3815504Y574735D2*
Y625877D1*
X3718483Y1423209D2*
Y1372067D1*
Y1533445D2*
Y1482303D1*
X3815504Y494409D2*
Y545551D1*
X3815299Y414084D2*
Y465226D1*
X4214588Y624035D2*
Y675177D1*
X4127933Y1368131D2*
X4076791D1*
X4215098Y536055D2*
Y587197D1*
X3915333Y549193D2*
Y498051D1*
X3980781Y1212709D2*
X4031923D1*
X4214588Y1403563D2*
Y1454705D1*
X4057371Y758073D2*
Y706932D1*
X3632814Y1203982D2*
X3581672D1*
X3868130Y561003D2*
X3919272D1*
X3832697Y395648D2*
X3883839D1*
X3561003Y1312972D2*
Y1261831D1*
X3587923Y740177D2*
X3639064D1*
X3564260Y700642D2*
Y649500D1*
X3194902Y770648D2*
X3246043D1*
X3194902Y486199D2*
X3246043D1*
Y1490178D2*
X3194902D1*
X3246043Y1214588D2*
X3194902D1*
X2864194Y584665D2*
Y635807D1*
X3482282Y1753939D2*
X3309067D1*
X3482282Y1639764D2*
X3309067D1*
D36*
X3521652Y1696846D3*
X3928452Y453502D2*
D10*
X4454697D1*
X3929161Y299452D2*
Y453747D1*
X3928452Y297244D2*
X4454697D1*
Y299452D2*
Y453747D1*
X3440935Y898854D2*
X3350404D1*
X3440935Y702002D2*
X3350404D1*
X3440935Y578741D2*
X3350404D1*
X3440935Y381889D2*
X3350404D1*
X3440935Y1539081D2*
X3350404D1*
X3440935Y1342229D2*
X3350404D1*
X3440935Y1218968D2*
X3350404D1*
X3440935Y1022116D2*
X3350404D1*
X4366142Y525788D2*
Y738288D1*
X4303644Y525788D2*
X4366142D1*
X4303644D2*
Y738288D1*
X4366142D1*
X3687296Y1102488D2*
D66*
X3694155D1*
X3687296Y852472D2*
X3697404D1*
X4189222D2*
X4179113D1*
X4189222Y1102488D2*
X4179113D1*
X3687296D2*
Y852472D1*
X4189222Y1102488D2*
Y852472D1*
X3694155Y1102488D2*
Y1144795D1*
X4408306Y1760192D2*
D173*
X4410208Y1763995D1*
X4414055Y1767841D1*
X4417857Y1769743D1*
X4425506D1*
X4429353Y1767841D1*
X4433156Y1763995D1*
X4435101Y1760192D1*
X4437002Y1754444D1*
Y1744849D1*
X4435101Y1739146D1*
X4433156Y1735299D1*
X4429353Y1731496D1*
X4425506Y1729551D1*
X4417857D1*
X4414055Y1731496D1*
X4410208Y1735299D1*
X4408306Y1739146D1*
Y1744849D1*
X4417857D1*
X4369160Y1769743D2*
Y1729551D1*
X4395955Y1769743D1*
Y1729551D1*
X4356809Y1769743D2*
Y1729551D1*
X4343412D1*
X4337664Y1731496D1*
X4333817Y1735299D1*
X4331916Y1739146D1*
X4330014Y1744849D1*
Y1754444D1*
X4331916Y1760192D1*
X4333817Y1763995D1*
X4337664Y1767841D1*
X4343412Y1769743D1*
X4356809D1*
X4439954Y1361973D2*
X4422754D1*
X4417006Y1363918D1*
X4415061Y1365819D1*
X4413160Y1369622D1*
Y1373469D1*
X4415061Y1377271D1*
X4417006Y1379217D1*
X4422754Y1381118D1*
X4439954D1*
Y1340926D1*
X4426557Y1361973D2*
X4413160Y1340926D1*
X4374013Y1375370D2*
X4377816Y1379217D1*
X4383564Y1381118D1*
X4391213D1*
X4396961Y1379217D1*
X4400808Y1375370D1*
Y1371568D1*
X4398863Y1367721D1*
X4396961Y1365819D1*
X4393159Y1363918D1*
X4381663Y1360071D1*
X4377816Y1358170D1*
X4375915Y1356225D1*
X4374013Y1352422D1*
Y1346674D1*
X4377816Y1342872D1*
X4383564Y1340926D1*
X4391213D1*
X4396961Y1342872D1*
X4400808Y1346674D1*
X4348265Y1381118D2*
Y1340926D1*
X4361662Y1381118D2*
X4334867D1*
X4429219Y1680132D2*
X4408216D1*
X4419668Y1664833D1*
X4413920D1*
X4410117Y1662932D1*
X4408216Y1661030D1*
X4406271Y1655282D1*
Y1651480D1*
X4408216Y1645732D1*
X4412019Y1641885D1*
X4417767Y1639984D1*
X4423515D1*
X4429219Y1641885D1*
X4431120Y1643831D1*
X4433065Y1647633D1*
X4392018Y1643831D2*
X4393919Y1641885D1*
X4392018Y1639984D1*
X4390072Y1641885D1*
X4392018Y1643831D1*
X4373874Y1680132D2*
X4352872D1*
X4364324Y1664833D1*
X4358576D1*
X4354773Y1662932D1*
X4352872Y1661030D1*
X4350926Y1655282D1*
Y1651480D1*
X4352872Y1645732D1*
X4356674Y1641885D1*
X4362422Y1639984D1*
X4368171D1*
X4373874Y1641885D1*
X4375776Y1643831D1*
X4377721Y1647633D1*
X4444876Y1286475D2*
Y1246283D1*
X4431479D1*
X4425731Y1248229D1*
X4421884Y1252031D1*
X4419983Y1255878D1*
X4418082Y1261582D1*
Y1271176D1*
X4419983Y1276924D1*
X4421884Y1280727D1*
X4425731Y1284574D1*
X4431479Y1286475D1*
X4444876D1*
X4405730D2*
X4396136Y1246283D1*
X4386585Y1286475D1*
X4377034Y1246283D1*
X4367440Y1286475D1*
X4355088D2*
Y1246283D1*
X4332140D1*
X4418684Y1579782D2*
Y1539590D1*
X4432081Y1579782D2*
X4405286D1*
X4392935Y1566385D2*
X4371888Y1539590D1*
Y1566385D2*
X4392935Y1539590D1*
X4427160Y1466149D2*
X4409960D1*
X4404212Y1468094D1*
X4402266Y1469995D1*
X4400365Y1473798D1*
Y1477645D1*
X4402266Y1481447D1*
X4404212Y1483393D1*
X4409960Y1485294D1*
X4427160D1*
Y1445102D1*
X4413762Y1466149D2*
X4400365Y1445102D1*
X4388014Y1471897D2*
X4366967Y1445102D1*
Y1471897D2*
X4388014Y1445102D1*
X2672548Y1101463D2*
Y1061271D1*
X2649600D1*
X2620048Y1098567D2*
Y1064123D1*
X2637248Y1081323D2*
X2602804D1*
X2672547Y963823D2*
Y923631D1*
X2649600D1*
X2637248Y943705D2*
X2615140D1*
X2669472Y1365145D2*
X2652272D1*
X2646524Y1367090D1*
X2644578Y1368991D1*
X2642677Y1372794D1*
Y1376641D1*
X2644578Y1380443D1*
X2646524Y1382389D1*
X2652272Y1384290D1*
X2669472D1*
Y1344098D1*
X2656074Y1365145D2*
X2642677Y1344098D1*
X2630326Y1364172D2*
X2608218D1*
X3782430Y2360175D2*
X3765230D1*
X3759482Y2362120D1*
X3757536Y2364022D1*
X3755635Y2367824D1*
Y2371671D1*
X3757536Y2375473D1*
X3759482Y2377419D1*
X3765230Y2379320D1*
X3782430D1*
Y2339128D1*
X3769033Y2360175D2*
X3755635Y2339128D1*
X3726084Y2376424D2*
Y2341980D1*
X3743284Y2359180D2*
X3708840D1*
X3887765Y1723540D2*
Y1689096D1*
X3904965Y1706295D2*
X3870521D1*
X3802078Y1706318D2*
X3779970D1*
M02*
