G04 DipTrace 3.3.1.3*
G04 BottomSilk.gbr*
%MOIN*%
G04 #@! TF.FileFunction,Legend,Bot*
G04 #@! TF.Part,Single*
%ADD10C,0.009843*%
%ADD36C,0.023631*%
%ADD64C,0.005906*%
%ADD166C,0.006176*%
%FSLAX26Y26*%
G04*
G70*
G90*
G75*
G01*
G04 BotSilk*
%LPD*%
X1717681Y1502262D2*
D10*
X1768823D1*
X1551978Y1411946D2*
Y1360804D1*
X1621748Y673475D2*
Y724617D1*
X1551774Y1521201D2*
Y1470059D1*
Y1629783D2*
Y1578642D1*
X1621748Y593150D2*
Y644291D1*
X1621543Y512824D2*
Y563966D1*
X2020832Y722776D2*
Y773917D1*
X1934177Y1466871D2*
X1883035D1*
X2021343Y634795D2*
Y685937D1*
X1721577Y647933D2*
Y596791D1*
X1787025Y1311449D2*
X1838167D1*
X2020832Y1502303D2*
Y1553445D1*
X1863615Y856814D2*
Y805672D1*
X1439058Y1302722D2*
X1387916D1*
X1674374Y659743D2*
X1725516D1*
X1638941Y494388D2*
X1690083D1*
X1392503Y1411946D2*
Y1360804D1*
X1394167Y838917D2*
X1445308D1*
X1370504Y799382D2*
Y748240D1*
X1001146Y864467D2*
X1052287D1*
Y742462D2*
X1001146D1*
X1052287Y1588919D2*
X1001146D1*
X1052287Y1313328D2*
X1001146D1*
X670438Y683406D2*
Y734547D1*
X1288526Y1852679D2*
X1115311D1*
X1288526Y1738505D2*
X1115311D1*
D36*
X1327896Y1795586D3*
X1734675Y552242D2*
D10*
X2108741D1*
X1735388Y398192D2*
Y552488D1*
X1734675Y395984D2*
X2108741D1*
X2110363Y398192D2*
Y552488D1*
X1247179Y997594D2*
X1156648D1*
X1247179Y800742D2*
X1156648D1*
X1247179Y677481D2*
X1156648D1*
X1247179Y480629D2*
X1156648D1*
X1247179Y1637821D2*
X1156648D1*
X1247179Y1440969D2*
X1156648D1*
X1247179Y1317708D2*
X1156648D1*
X1247179Y1120856D2*
X1156648D1*
X2148764Y750117D2*
Y537617D1*
X2211262Y750117D2*
X2148764D1*
X2211262D2*
Y537617D1*
X2148764D1*
X1493540Y1201228D2*
D64*
X1500399D1*
X1493540Y951213D2*
X1503648D1*
X1995466D2*
X1985357D1*
X1995466Y1201228D2*
X1985357D1*
X1493540D2*
Y951213D1*
X1995466Y1201228D2*
Y951213D1*
X1500399Y1201228D2*
Y1243535D1*
X2214551Y1858932D2*
D166*
X2216452Y1862735D1*
X2220299Y1866582D1*
X2224101Y1868483D1*
X2231750D1*
X2235597Y1866582D1*
X2239400Y1862735D1*
X2241345Y1858932D1*
X2243247Y1853184D1*
Y1843590D1*
X2241345Y1837886D1*
X2239400Y1834039D1*
X2235597Y1830236D1*
X2231750Y1828291D1*
X2224101D1*
X2220299Y1830236D1*
X2216452Y1834039D1*
X2214551Y1837886D1*
Y1843590D1*
X2224101D1*
X2175405Y1868483D2*
Y1828291D1*
X2202199Y1868483D1*
Y1828291D1*
X2163053Y1868483D2*
Y1828291D1*
X2149656D1*
X2143908Y1830236D1*
X2140061Y1834039D1*
X2138160Y1837886D1*
X2136258Y1843590D1*
Y1853184D1*
X2138160Y1858932D1*
X2140061Y1862735D1*
X2143908Y1866582D1*
X2149656Y1868483D1*
X2163053D1*
X2243246Y1755004D2*
X2226046D1*
X2220298Y1756950D1*
X2218352Y1758851D1*
X2216451Y1762654D1*
Y1766500D1*
X2218352Y1770303D1*
X2220298Y1772248D1*
X2226046Y1774150D1*
X2243246D1*
Y1733958D1*
X2229848Y1755004D2*
X2216451Y1733958D1*
X2177305Y1768402D2*
X2181107Y1772248D1*
X2186855Y1774150D1*
X2194505D1*
X2200253Y1772248D1*
X2204099Y1768402D1*
Y1764599D1*
X2202154Y1760752D1*
X2200253Y1758851D1*
X2196450Y1756950D1*
X2184954Y1753103D1*
X2181107Y1751202D1*
X2179206Y1749256D1*
X2177305Y1745454D1*
Y1739706D1*
X2181107Y1735903D1*
X2186855Y1733958D1*
X2194505D1*
X2200253Y1735903D1*
X2204099Y1739706D1*
X2151556Y1774150D2*
Y1733958D1*
X2164953Y1774150D2*
X2138159D1*
X2239400Y1671588D2*
X2218397D1*
X2229849Y1656290D1*
X2224101D1*
X2220299Y1654388D1*
X2218397Y1652487D1*
X2216452Y1646739D1*
Y1642937D1*
X2218397Y1637189D1*
X2222200Y1633342D1*
X2227948Y1631441D1*
X2233696D1*
X2239400Y1633342D1*
X2241301Y1635287D1*
X2243246Y1639090D1*
X2202199Y1635287D2*
X2204100Y1633342D1*
X2202199Y1631441D1*
X2200254Y1633342D1*
X2202199Y1635287D1*
X2184055Y1671588D2*
X2163053D1*
X2174505Y1656290D1*
X2168757D1*
X2164954Y1654388D1*
X2163053Y1652487D1*
X2161108Y1646739D1*
Y1642937D1*
X2163053Y1637189D1*
X2166856Y1633342D1*
X2172604Y1631441D1*
X2178352D1*
X2184055Y1633342D1*
X2185957Y1635287D1*
X2187902Y1639090D1*
X2243247Y1569270D2*
Y1529078D1*
X2229849D1*
X2224101Y1531024D1*
X2220254Y1534826D1*
X2218353Y1538673D1*
X2216452Y1544377D1*
Y1553972D1*
X2218353Y1559720D1*
X2220254Y1563522D1*
X2224101Y1567369D1*
X2229849Y1569270D1*
X2243247D1*
X2204100D2*
X2194506Y1529078D1*
X2184955Y1569270D1*
X2175405Y1529078D1*
X2165810Y1569270D1*
X2153458D2*
Y1529078D1*
X2130510D1*
X2229849Y1474782D2*
Y1434590D1*
X2243246Y1474782D2*
X2216452D1*
X2204100Y1461385D2*
X2183054Y1434590D1*
Y1461385D2*
X2204100Y1434590D1*
X2243246Y1349338D2*
X2226047D1*
X2220299Y1351283D1*
X2218353Y1353184D1*
X2216452Y1356987D1*
Y1360834D1*
X2218353Y1364636D1*
X2220299Y1366582D1*
X2226047Y1368483D1*
X2243246D1*
Y1328291D1*
X2229849Y1349338D2*
X2216452Y1328291D1*
X2204100Y1355086D2*
X2183054Y1328291D1*
Y1355086D2*
X2204100Y1328291D1*
M02*
