G04 DipTrace 3.3.1.3*
G04 Bottom.gbr*
%MOIN*%
G04 #@! TF.FileFunction,Copper,L2,Bot*
G04 #@! TF.Part,Single*
G04 #@! TA.AperFunction,Conductor*
%ADD13C,0.01122*%
%ADD14C,0.012992*%
G04 #@! TA.AperFunction,CopperBalancing*
%ADD15C,0.03937*%
%ADD16C,0.025984*%
G04 #@! TA.AperFunction,Conductor*
%ADD17C,0.007874*%
G04 #@! TA.AperFunction,ViaPad*
%ADD20C,0.031496*%
G04 #@! TA.AperFunction,Conductor*
%ADD21C,0.059055*%
%ADD22C,0.015748*%
%ADD23C,0.023622*%
G04 #@! TA.AperFunction,ViaPad*
%ADD24C,0.019685*%
G04 #@! TA.AperFunction,CopperBalancing*
%ADD25C,0.047244*%
%ADD26C,0.043307*%
%ADD27C,0.003937*%
%ADD28C,0.025*%
%ADD29C,0.017717*%
%ADD31R,0.059055X0.051181*%
%ADD32R,0.051181X0.059055*%
%ADD37R,0.055118X0.082677*%
G04 #@! TA.AperFunction,ComponentPad*
%ADD39O,0.137795X0.07874*%
%ADD40O,0.07874X0.137795*%
%ADD41O,0.141732X0.07874*%
%ADD42C,0.066929*%
%ADD43R,0.066929X0.066929*%
%ADD44R,0.05937X0.05937*%
%ADD45C,0.05937*%
%ADD46R,0.106299X0.090551*%
%ADD47O,0.106299X0.090551*%
%ADD48R,0.031496X0.047244*%
%ADD49R,0.051181X0.084646*%
G04 #@! TA.AperFunction,ComponentPad*
%ADD50R,0.03937X0.051181*%
%ADD51O,0.03937X0.051181*%
%ADD52R,0.062992X0.224409*%
%ADD61R,0.049213X0.035433*%
%ADD66R,0.01122X0.03937*%
%ADD67R,0.334646X0.137795*%
G04 #@! TA.AperFunction,ComponentPad*
%ADD72C,0.055118*%
%ADD73C,0.070866*%
G04 #@! TA.AperFunction,ViaPad*
%ADD76C,0.04*%
%FSLAX26Y26*%
G04*
G70*
G90*
G75*
G01*
G04 Bottom*
%LPD*%
X1695290Y1223858D2*
D13*
Y1197677D1*
D14*
Y1174261D1*
X1793715Y1223858D2*
D13*
Y1197677D1*
D14*
Y1174261D1*
X1892140Y1223858D2*
D13*
Y1197677D1*
D14*
Y1174261D1*
X1667937Y1604213D2*
D15*
Y1495630D1*
Y1386375D1*
X1668140D1*
X1695290Y1197677D2*
D14*
Y1125433D1*
X1744503Y1076220D1*
X1793715Y1197677D2*
Y1125433D1*
X1744503Y1076220D1*
X1892140Y1197677D2*
Y1154576D1*
X1813785Y1076220D1*
X1744503D1*
X1675605Y928583D2*
D13*
Y954764D1*
D14*
Y1007323D1*
X1744503Y1076220D1*
X1505585Y699046D2*
D15*
Y618720D1*
Y538395D1*
X1505381D1*
X1557495Y1223858D2*
D13*
Y1197677D1*
D14*
Y1186072D1*
X1585772Y1157795D1*
X1662928D1*
X1744503Y1076220D1*
X1557495Y928583D2*
D13*
Y954764D1*
D14*
Y1004970D1*
X1628745Y1076220D1*
X1744503D1*
X1813400Y928583D2*
D13*
Y954764D1*
D14*
Y1007323D1*
X1744503Y1076220D1*
X1892140Y928583D2*
D13*
Y954764D1*
D14*
Y1027156D1*
X1843076Y1076220D1*
X1744503D1*
X1951196Y928583D2*
D13*
Y954764D1*
D14*
Y1056151D1*
X1931126Y1076220D1*
X1744503D1*
X1837740Y622362D2*
Y602677D1*
X2014906D1*
X2066087Y653858D1*
Y705039D1*
X2073961Y712913D1*
X2148764D1*
X1979472Y1527874D2*
D16*
Y1614488D1*
X1852770Y928583D2*
D14*
Y869676D1*
D16*
X1849551Y866457D1*
Y771969D1*
X1865299Y756220D1*
X1892858D1*
X1900732Y748346D1*
X1904669D1*
X1849551Y768031D2*
D14*
Y771969D1*
X1872455Y928583D2*
D22*
Y889361D1*
X1852770Y869676D1*
X741283Y706614D2*
D14*
X784984D1*
X955850Y535748D1*
X1014906D1*
X741283Y706614D2*
X631441D1*
X629079Y708976D1*
X2117268Y1382205D2*
D16*
X2030654D1*
X1999157Y1350709D1*
X1966955D1*
X1908606D1*
Y1319213D1*
X1888921Y1299528D1*
D23*
X1814118D1*
D24*
X1782622Y1268031D1*
X1778685D1*
D14*
X1774030Y1263377D1*
Y1223858D1*
X1888921Y1271969D2*
D16*
Y1299528D1*
X1904669Y1315276D1*
Y1346772D1*
X1908606Y1350709D1*
X1971598Y1382205D2*
Y1355352D1*
D14*
X1966955Y1350709D1*
X1734660Y1223858D2*
D13*
Y1250039D1*
D14*
Y1286999D1*
X1766874Y1319213D1*
Y1405827D1*
X1786559Y1425512D1*
X1812596D1*
Y1427612D1*
X2329866Y771969D2*
D17*
Y1315276D1*
X2282622Y1362520D1*
X2302307D1*
X2133016Y575118D2*
D14*
X2148764D1*
X2286559Y1283780D2*
D17*
X2298370Y1271969D1*
Y795591D1*
X2290496Y787717D1*
Y756220D1*
X2298370Y748346D1*
Y724724D1*
X1932228Y890079D2*
D14*
Y901684D1*
X1931510Y902402D1*
D13*
Y928583D1*
X1621205Y575118D2*
D14*
Y811339D1*
X1695290Y885424D1*
D13*
Y928583D1*
X1537810D2*
D14*
Y899757D1*
D24*
X1524375Y886323D1*
X1419738D1*
Y880277D1*
D25*
X1313324D1*
X1294433Y899168D1*
X1924354Y1264094D2*
D14*
X1937140D1*
X1951196Y1250039D1*
D13*
Y1223858D1*
X1971598Y890079D2*
D14*
Y901684D1*
X1970881Y902402D1*
D13*
Y928583D1*
Y1223858D2*
Y1260157D1*
X1975535D1*
X1125147Y1795591D2*
D21*
X1010969D1*
X841677Y1626299D1*
X806244D1*
X1734660Y928583D2*
D13*
Y902402D1*
D14*
Y869676D1*
X1703882Y838898D1*
Y779843D1*
X1699945Y775906D1*
X2298370Y1307402D2*
D17*
X2314118Y1291654D1*
Y787717D1*
X2306244Y779843D1*
Y764094D1*
X2329866Y740472D1*
Y665669D1*
X1778685Y551496D2*
D14*
X1821992D1*
X1825929Y547559D1*
X1877110Y535748D2*
Y545591D1*
X1875142Y547559D1*
X1924354Y535748D2*
Y547559D1*
X1975535Y535748D2*
Y545591D1*
X1973567Y547559D1*
X2066087Y551496D2*
X2026717D1*
X2022780Y547559D1*
X821992Y1429449D2*
X888921D1*
X1593134Y1495630D2*
D25*
Y1604213D1*
Y1495630D2*
Y1386375D1*
X1593337D1*
X1463724Y1457008D2*
D21*
Y1669606D1*
Y1708976D1*
X1377110Y1795591D1*
X1278685D1*
X1616550Y1223858D2*
D13*
Y1250039D1*
D14*
Y1294873D1*
X1629079Y1307402D1*
D20*
X1601520Y1334961D1*
Y1386375D1*
X1593337D1*
X1636235Y1223858D2*
D13*
Y1250039D1*
D14*
Y1300245D1*
X1629079Y1307402D1*
X1625142Y1224724D2*
X1629079Y1307402D1*
X1593134Y1604213D2*
D21*
X1529118D1*
X1463724Y1669606D1*
X1580184Y538395D2*
D15*
Y618720D1*
X1580388D1*
Y699046D2*
D25*
Y618720D1*
X1655920Y928583D2*
D13*
X1636235D1*
X1616550D1*
X1636235D2*
D25*
X1633016Y878268D1*
X1580388Y825640D1*
Y699046D1*
D14*
D3*
X1629079Y1433386D2*
X1605457D1*
Y1398495D1*
X1593337Y1386375D1*
X1754345Y1223858D2*
Y1279125D1*
X1812596Y1337375D1*
Y1352808D1*
X1861362Y1401575D1*
Y1457008D1*
X1877110Y1472756D1*
X2022780D1*
X2081835Y1531811D1*
Y1590866D1*
X1714975Y1223858D2*
D13*
Y1250039D1*
D14*
Y1294873D1*
X1747189Y1327087D1*
Y1441260D1*
X1802307Y1496378D1*
X1857425D1*
X1904669Y1543622D1*
Y1527874D1*
X1754345Y928583D2*
D13*
Y902402D1*
D14*
Y751566D1*
X1703882Y701102D1*
X1699945D1*
X1754345Y928583D2*
D13*
Y954764D1*
D14*
Y983849D1*
X1755063Y984567D1*
X1714975Y928583D2*
D13*
Y877550D1*
D14*
X1644827Y807402D1*
Y610551D1*
X1664512D1*
X1833085Y928583D2*
D13*
Y897235D1*
D14*
X1814118Y878268D1*
Y736535D1*
X1845614Y705039D1*
X1955850D1*
X1975535Y685354D1*
X1979983Y660366D1*
X1793715Y928583D2*
D13*
Y902402D1*
D14*
Y713631D1*
X1829866Y677480D1*
X1905180D1*
Y660366D1*
X1904975Y831243D2*
Y866151D1*
X1908606Y869782D1*
Y902402D1*
D13*
X1911825D1*
Y928583D1*
X1774030D2*
Y902402D1*
D14*
Y646702D1*
X1762937Y635609D1*
Y622362D1*
X1411864Y773811D2*
D25*
X1294433Y656381D1*
Y579055D1*
X1577180Y928583D2*
D14*
Y901172D1*
X1524827Y848819D1*
X1474370D1*
D16*
X1411864Y786312D1*
D14*
Y773811D1*
X1522780Y823150D2*
D16*
X1486667Y787037D1*
D14*
Y773811D1*
X1596865Y928583D2*
D13*
Y893298D1*
D14*
X1486667Y783100D1*
Y773811D1*
X1518125Y928583D2*
D13*
X1511874D1*
D16*
X1469614D1*
X1443117Y955080D1*
D14*
X1419738D1*
X1577180Y1223858D2*
D13*
Y1250039D1*
D14*
Y1271064D1*
X1543127Y1305117D1*
D16*
X1486871D1*
X1430615Y1361373D1*
D14*
Y1383129D1*
X1433862Y1386375D1*
D25*
X1408373D1*
X1294433Y1500315D1*
Y1539395D1*
X1508665Y1386375D2*
D14*
X1499157D1*
Y1366457D1*
D16*
X1522993Y1342621D1*
X1549378D1*
D14*
X1596865Y1295134D1*
Y1250039D1*
D13*
Y1223858D1*
X1537810D2*
Y1250039D1*
D14*
Y1267613D1*
D16*
X1419738D1*
D14*
X1413487Y1261362D1*
D25*
X1294433D1*
Y1219282D1*
X1413487Y1186559D2*
D16*
X1437071D1*
X1474370Y1223858D1*
X1510969D1*
D13*
X1518125D1*
X1109394Y579055D2*
D25*
Y626299D1*
X1026717D1*
X987346D1*
X936165Y677480D1*
Y783780D1*
X680260Y1039685D1*
X554276D1*
X1109394Y899168D2*
Y980630D1*
X1026717D1*
X818055Y1189291D1*
X581835D1*
X570024Y1177480D1*
X554276D1*
X1109394Y1539395D2*
Y1472756D1*
X1026717D1*
X589709D1*
D14*
Y1484567D1*
X554276D1*
Y1453071D1*
X1109394Y1219282D2*
D25*
Y1197165D1*
X1026717D1*
X995220D1*
X861362Y1331024D1*
X554276D1*
Y1315276D1*
X1675605Y1223858D2*
D13*
Y1240472D1*
D14*
Y1283062D1*
X1727504Y1334961D1*
Y1453071D1*
X1818055Y1543622D1*
X1825929D1*
X1833803D1*
X1904669Y1614488D1*
X1825929Y1618425D2*
X1751126Y1543622D1*
X1743252D1*
X1655920Y1223858D2*
D13*
Y1240472D1*
D14*
Y1292896D1*
X1707819Y1344795D1*
Y1476693D1*
X1743252Y1512126D1*
Y1543622D1*
X1845614Y1264094D2*
D13*
X1833085Y1251566D1*
Y1223858D1*
X1810181Y1256220D2*
D14*
X1813400Y1253001D1*
D13*
Y1223858D1*
D15*
X1463724Y1457008D3*
D76*
X1849551Y768031D3*
X2321992Y594803D3*
D24*
X1975535Y1260157D3*
X1971598Y890079D3*
X1924354Y1264094D3*
X1932228Y890079D3*
X1845614Y1264094D3*
X1810181Y1256220D3*
X2298370Y724724D3*
X2329866Y771969D3*
Y665669D3*
X2298370Y1307402D3*
X2286559Y1283780D3*
D15*
X1633016Y878268D3*
D20*
X1755063Y984567D3*
D76*
X1814118Y1043622D3*
D20*
X2117268Y1382205D3*
D24*
X1629079Y1433386D3*
D20*
X1971598Y1382205D3*
D76*
X2243252Y551496D3*
D20*
X1888921Y1271969D3*
D76*
X1207819Y697165D3*
X2188134Y1075118D3*
X1680260D3*
D20*
X1014906Y535748D3*
D76*
X1566087Y1075118D3*
X1947976D3*
X2188134Y866457D3*
X877110Y468819D3*
D20*
X1199945Y1468819D3*
D76*
X660575Y1111535D3*
D20*
X1231441Y1425512D3*
D76*
X1207819Y468819D3*
Y778530D3*
X660575Y1396969D3*
Y1539685D3*
Y968819D3*
D24*
X2133016Y575118D3*
X1081835Y1722756D3*
D76*
X660575Y1254252D3*
X1270811Y1966850D3*
D24*
X1109394Y1722756D3*
D20*
X1172386Y1425512D3*
D24*
X821992Y1429449D3*
X1778685Y551496D3*
X1877110Y535748D3*
X1924354D3*
X1975535D3*
D76*
X1434197Y689291D3*
D24*
X2066087Y551496D3*
D76*
X1434197Y590866D3*
D24*
X1066087Y1870394D3*
D76*
X1727504Y1966850D3*
D24*
X1109394Y1870394D3*
D76*
X2070024Y1075118D3*
Y866457D3*
X2077898Y645984D3*
D24*
X1621205Y575118D3*
X1081835Y1677480D3*
X1109394D3*
X1095614Y1699134D3*
X1066087Y1911732D3*
X1109394D3*
X1087740Y1892047D3*
X888921Y1429449D3*
X1476736Y855546D2*
D27*
X1528260D1*
X1476736Y851740D2*
X1528260D1*
X1528650Y859352D2*
X1476346D1*
X1476339Y850793D1*
X1528650Y850787D1*
X1528657Y859346D1*
X500487Y1970820D2*
D28*
X1889803D1*
X2147858D2*
X2249219D1*
X593499Y1945951D2*
X755396D1*
X857068D2*
X1795392D1*
X1887949D2*
X1904731D1*
X2132966D2*
X2161554D1*
X608606Y1921083D2*
X722168D1*
X890333D2*
X1783514D1*
X1899827D2*
X1971655D1*
X2066042D2*
X2149676D1*
X2265953D2*
X2327841D1*
X611333Y1896214D2*
X712335D1*
X900165D2*
X1784016D1*
X1899324D2*
X1972301D1*
X2065396D2*
X2150179D1*
X2265487D2*
X2327841D1*
X603654Y1871345D2*
X713304D1*
X899196D2*
X1797365D1*
X1886011D2*
X1990853D1*
X2046808D2*
X2163492D1*
X2252138D2*
X2327841D1*
X428719Y1846476D2*
X451565D1*
X578248D2*
X701534D1*
X886816D2*
X994170D1*
X1178519D2*
X1225300D1*
X1393896D2*
X2327841D1*
X428719Y1821608D2*
X513932D1*
X602470D2*
X665686D1*
X773566D2*
X959721D1*
X1178519D2*
X1225300D1*
X1428345D2*
X2327841D1*
X428719Y1796739D2*
X489530D1*
X626871D2*
X655387D1*
X783865D2*
X934853D1*
X1180492D2*
X1223326D1*
X1453212D2*
X2254494D1*
X428719Y1771870D2*
X479698D1*
X636703D2*
X654418D1*
X784833D2*
X909985D1*
X1178519D2*
X1225300D1*
X1478080D2*
X1542085D1*
X1653087D2*
X1669259D1*
X1722738D2*
X2243801D1*
X428719Y1747001D2*
X478657D1*
X637744D2*
X654418D1*
X784833D2*
X885118D1*
X1178519D2*
X1225300D1*
X1502948D2*
X1542085D1*
X1746601D2*
X1829195D1*
X1925018D2*
X1985327D1*
X2052371D2*
X2245164D1*
X428719Y1722133D2*
X486014D1*
X630424D2*
X654598D1*
X784654D2*
X860250D1*
X1014743D2*
X1373322D1*
X1517409D2*
X1542085D1*
X1751446D2*
X1818573D1*
X1935639D2*
X1971188D1*
X2066509D2*
X2259877D1*
X428719Y1697264D2*
X505283D1*
X611154D2*
X661774D1*
X777477D2*
X835382D1*
X989876D2*
X1398190D1*
X1519096D2*
X1542085D1*
X1743838D2*
X1820008D1*
X1934204D2*
X1972983D1*
X2064715D2*
X2254889D1*
X428719Y1672395D2*
X470619D1*
X559194D2*
X685781D1*
X965008D2*
X1052087D1*
X1166713D2*
X1237106D1*
X1351768D2*
X1408381D1*
X1653087D2*
X1685012D1*
X1706985D2*
X1834828D1*
X1919420D2*
X1994370D1*
X2043328D2*
X2243872D1*
X599527Y1647526D2*
X715206D1*
X940140D2*
X1052087D1*
X1166713D2*
X1237106D1*
X1351768D2*
X1408381D1*
X2030876D2*
X2075468D1*
X2088197D2*
X2245021D1*
X610436Y1622657D2*
X711618D1*
X915272D2*
X1052087D1*
X1166713D2*
X1237106D1*
X1351768D2*
X1408381D1*
X2131387D2*
X2259374D1*
X610293Y1597789D2*
X718364D1*
X894101D2*
X1052087D1*
X1166713D2*
X1237106D1*
X1351768D2*
X1408381D1*
X2140717D2*
X2255283D1*
X599061Y1572920D2*
X741330D1*
X871171D2*
X971347D1*
X1166713D2*
X1237106D1*
X1351768D2*
X1408381D1*
X2138205D2*
X2243980D1*
X428719Y1548051D2*
X475930D1*
X553883D2*
X971347D1*
X1166713D2*
X1237106D1*
X1351768D2*
X1408381D1*
X2121663D2*
X2244877D1*
X428719Y1523182D2*
X971347D1*
X1166713D2*
X1237106D1*
X1351768D2*
X1408381D1*
X2112871D2*
X2258836D1*
X428719Y1498314D2*
X475284D1*
X1166713D2*
X1237106D1*
X1365332D2*
X1408381D1*
X2093027D2*
X2255714D1*
X428719Y1473445D2*
X475284D1*
X1166713D2*
X1237106D1*
X1390200D2*
X1408381D1*
X2068160D2*
X2244088D1*
X428719Y1448576D2*
X475284D1*
X1166713D2*
X1237106D1*
X2042754D2*
X2244769D1*
X428719Y1423707D2*
X475284D1*
X633259D2*
X786831D1*
X924100D2*
X1052087D1*
X1166713D2*
X1237106D1*
X1963952D2*
X2258334D1*
X428719Y1398839D2*
X475284D1*
X633259D2*
X806711D1*
X837260D2*
X873635D1*
X904184D2*
X1327031D1*
X2155143D2*
X2256145D1*
X428719Y1373970D2*
X508370D1*
X882833D2*
X1351899D1*
X2157978D2*
X2244195D1*
X428719Y1349101D2*
X484219D1*
X912186D2*
X1052087D1*
X1166713D2*
X1237106D1*
X1351768D2*
X1377341D1*
X2140538D2*
X2244626D1*
X428719Y1324232D2*
X475894D1*
X937054D2*
X1052087D1*
X1166713D2*
X1237106D1*
X1351768D2*
X1413907D1*
X2026534D2*
X2053256D1*
X2170465D2*
X2257867D1*
X428719Y1299364D2*
X477186D1*
X1166713D2*
X1237106D1*
X1941524D2*
X2053256D1*
X2192068D2*
X2254781D1*
X428719Y1274495D2*
X488741D1*
X619802D2*
X848982D1*
X1166713D2*
X1237106D1*
X2007946D2*
X2053256D1*
X2194292D2*
X2252233D1*
X428719Y1249626D2*
X523979D1*
X584564D2*
X873850D1*
X1166713D2*
X1237106D1*
X2009489D2*
X2053256D1*
X2186757D2*
X2268597D1*
X428719Y1224757D2*
X494195D1*
X851327D2*
X898718D1*
X1166713D2*
X1237106D1*
X2002312D2*
X2268597D1*
X428719Y1199888D2*
X479052D1*
X876338D2*
X923585D1*
X1166713D2*
X1237106D1*
X2002312D2*
X2268597D1*
X428719Y1175020D2*
X475356D1*
X901206D2*
X948453D1*
X1166713D2*
X1237106D1*
X1479408D2*
X2268597D1*
X428719Y1150151D2*
X480990D1*
X926074D2*
X971347D1*
X1166713D2*
X1237106D1*
X1468858D2*
X2268597D1*
X428719Y1125282D2*
X499398D1*
X609180D2*
X813170D1*
X950977D2*
X1052087D1*
X1166713D2*
X1237106D1*
X1351768D2*
X2268597D1*
X428719Y1100413D2*
X511994D1*
X596549D2*
X838038D1*
X975845D2*
X1052087D1*
X1166713D2*
X1237106D1*
X1351768D2*
X2268597D1*
X428719Y1075545D2*
X485404D1*
X713065D2*
X862905D1*
X1000713D2*
X2268597D1*
X428719Y1050676D2*
X476181D1*
X738148D2*
X887773D1*
X1025580D2*
X2268597D1*
X428719Y1025807D2*
X476720D1*
X763016D2*
X912641D1*
X1166713D2*
X1237106D1*
X1351768D2*
X2268597D1*
X428719Y1000938D2*
X487306D1*
X787919D2*
X937509D1*
X1166713D2*
X1237106D1*
X1351768D2*
X1364387D1*
X1475102D2*
X1717092D1*
X1793035D2*
X2268597D1*
X428719Y976070D2*
X518238D1*
X590341D2*
X674980D1*
X812787D2*
X830215D1*
X1166713D2*
X1237106D1*
X1351768D2*
X1364387D1*
X1475999D2*
X1714437D1*
X1795691D2*
X2268597D1*
X428719Y951201D2*
X699848D1*
X1166713D2*
X1237106D1*
X1351768D2*
X1364387D1*
X2002312D2*
X2268597D1*
X428719Y926332D2*
X724715D1*
X1166713D2*
X1237106D1*
X2002312D2*
X2268597D1*
X428719Y901463D2*
X749583D1*
X1166713D2*
X1237106D1*
X2005255D2*
X2268597D1*
X428719Y876594D2*
X774451D1*
X912258D2*
X971347D1*
X1166713D2*
X1237106D1*
X2031199D2*
X2268597D1*
X428719Y851726D2*
X597972D1*
X678293D2*
X715242D1*
X767322D2*
X799319D1*
X937126D2*
X1052087D1*
X1166713D2*
X1237106D1*
X2031199D2*
X2268597D1*
X428719Y826857D2*
X580461D1*
X790467D2*
X824186D1*
X961994D2*
X1052087D1*
X1166713D2*
X1237106D1*
X1351768D2*
X1398549D1*
X2031199D2*
X2268597D1*
X428719Y801988D2*
X577052D1*
X794450D2*
X849054D1*
X981945D2*
X1052087D1*
X1166713D2*
X1237106D1*
X2031199D2*
X2264757D1*
X428719Y777119D2*
X584803D1*
X785264D2*
X873922D1*
X985605D2*
X1052087D1*
X1166713D2*
X1237106D1*
X2030876D2*
X2260738D1*
X428719Y752251D2*
X502843D1*
X680482D2*
X716283D1*
X766281D2*
X886732D1*
X985605D2*
X1321398D1*
X2030876D2*
X2098326D1*
X2199209D2*
X2261025D1*
X428719Y727382D2*
X502843D1*
X808876D2*
X886732D1*
X1082062D2*
X1296530D1*
X2030876D2*
X2098326D1*
X2199209D2*
X2262819D1*
X428719Y702513D2*
X502843D1*
X833744D2*
X886732D1*
X1166713D2*
X1237106D1*
X1409469D2*
X1454169D1*
X2031414D2*
X2098326D1*
X2199209D2*
X2271252D1*
X428719Y677644D2*
X502843D1*
X858647D2*
X886732D1*
X1166713D2*
X1237106D1*
X1384602D2*
X1454169D1*
X2031414D2*
X2098326D1*
X2262185D2*
X2296443D1*
X428719Y652776D2*
X599264D1*
X677001D2*
X717359D1*
X765205D2*
X794151D1*
X1166713D2*
X1237106D1*
X1359734D2*
X1454169D1*
X2031414D2*
X2161339D1*
X2262185D2*
X2296801D1*
X428719Y627907D2*
X580856D1*
X790001D2*
X819019D1*
X1166713D2*
X1237106D1*
X1351768D2*
X1454169D1*
X2031414D2*
X2161339D1*
X2262185D2*
X2327841D1*
X428719Y603038D2*
X576980D1*
X794558D2*
X843887D1*
X1166713D2*
X1237106D1*
X1351768D2*
X1454169D1*
X1889169D2*
X2098326D1*
X2262185D2*
X2327841D1*
X428719Y578169D2*
X584229D1*
X785982D2*
X868754D1*
X958118D2*
X971347D1*
X1166713D2*
X1237106D1*
X1351768D2*
X1453954D1*
X2199209D2*
X2327841D1*
X428719Y553301D2*
X610927D1*
X665339D2*
X893622D1*
X1166713D2*
X1237106D1*
X1351768D2*
X1453954D1*
X2199209D2*
X2327841D1*
X428719Y528432D2*
X918490D1*
X1166713D2*
X1237106D1*
X1351768D2*
X1453954D1*
X2092417D2*
X2327841D1*
X428719Y503563D2*
X990258D1*
X1039575D2*
X1052087D1*
X1166713D2*
X1237106D1*
X1351768D2*
X1453954D1*
X2147033D2*
X2327841D1*
X486600Y478694D2*
X1052087D1*
X1166713D2*
X1237106D1*
X1351768D2*
X1699725D1*
X1802545D2*
X2044213D1*
X2147033D2*
X2327841D1*
X499913Y453825D2*
X1052087D1*
X1166713D2*
X1237106D1*
X1351768D2*
X1699725D1*
X1802545D2*
X2044213D1*
X2147033D2*
X2327841D1*
X499949Y428957D2*
X1699725D1*
X1802545D2*
X2044213D1*
X2147033D2*
X2327841D1*
X1692235Y1667342D2*
X1843228D1*
X1836953Y1672756D1*
X1831165Y1679532D1*
X1826509Y1687131D1*
X1823098Y1695364D1*
X1821018Y1704029D1*
X1820319Y1712913D1*
X1821018Y1721798D1*
X1823098Y1730463D1*
X1826509Y1738696D1*
X1831165Y1746294D1*
X1836953Y1753071D1*
X1843729Y1758859D1*
X1851328Y1763515D1*
X1859561Y1766925D1*
X1868226Y1769006D1*
X1877110Y1769705D1*
X1885994Y1769006D1*
X1894660Y1766925D1*
X1902893Y1763515D1*
X1910491Y1758859D1*
X1917268Y1753071D1*
X1923055Y1746294D1*
X1927712Y1738696D1*
X1931122Y1730463D1*
X1933202Y1721798D1*
X1933902Y1712913D1*
X1933202Y1704029D1*
X1931122Y1695364D1*
X1927712Y1687131D1*
X1923055Y1679532D1*
X1917268Y1672756D1*
X1910970Y1667346D1*
X2011632Y1667385D1*
X2004598Y1669074D1*
X1997915Y1671842D1*
X1991748Y1675621D1*
X1986248Y1680319D1*
X1981550Y1685819D1*
X1977771Y1691986D1*
X1975003Y1698669D1*
X1973314Y1705702D1*
X1972747Y1712913D1*
X1973314Y1720124D1*
X1975003Y1727158D1*
X1977771Y1733840D1*
X1981550Y1740008D1*
X1986248Y1745508D1*
X1991748Y1750206D1*
X1997915Y1753985D1*
X2004598Y1756753D1*
X2011632Y1758442D1*
X2018843Y1759009D1*
X2026053Y1758442D1*
X2033087Y1756753D1*
X2039770Y1753985D1*
X2045937Y1750206D1*
X2051437Y1745508D1*
X2056135Y1740008D1*
X2059914Y1733840D1*
X2062682Y1727158D1*
X2064371Y1720124D1*
X2064938Y1712913D1*
X2064371Y1705702D1*
X2062682Y1698669D1*
X2059914Y1691986D1*
X2056135Y1685819D1*
X2051437Y1680319D1*
X2045937Y1675621D1*
X2039770Y1671842D1*
X2033087Y1669074D1*
X2025702Y1667344D1*
X2028390Y1667342D1*
Y1610078D1*
X2031233Y1616649D1*
X2035889Y1624247D1*
X2041677Y1631024D1*
X2048454Y1636811D1*
X2056052Y1641468D1*
X2064285Y1644878D1*
X2072951Y1646958D1*
X2081835Y1647657D1*
X2090719Y1646958D1*
X2099384Y1644878D1*
X2107617Y1641468D1*
X2115216Y1636811D1*
X2121992Y1631024D1*
X2127780Y1624247D1*
X2132436Y1616649D1*
X2135846Y1608416D1*
X2137927Y1599750D1*
X2138626Y1590866D1*
X2137927Y1581982D1*
X2135846Y1573317D1*
X2132436Y1565083D1*
X2127780Y1557485D1*
X2121992Y1550709D1*
X2115216Y1544921D1*
X2111667Y1542550D1*
X2111566Y1529471D1*
X2110834Y1524849D1*
X2109387Y1520398D1*
X2107263Y1516229D1*
X2104512Y1512443D1*
X2050957Y1458757D1*
X2042148Y1450078D1*
X2038362Y1447328D1*
X2034192Y1445203D1*
X2029742Y1443757D1*
X2025119Y1443025D1*
X1961453Y1442933D1*
X1961461Y1419935D1*
X1968533Y1421159D1*
X1974664D1*
X1980720Y1420200D1*
X1986552Y1418305D1*
X1992015Y1415521D1*
X1996975Y1411917D1*
X2001311Y1407582D1*
X2002788Y1405709D1*
X2007066Y1409822D1*
X2011677Y1413172D1*
X2016755Y1415759D1*
X2022175Y1417520D1*
X2027804Y1418412D1*
X2076585Y1418524D1*
X2102888D1*
X2108146Y1420200D1*
X2114202Y1421159D1*
X2120333D1*
X2126390Y1420200D1*
X2132221Y1418305D1*
X2137684Y1415521D1*
X2142645Y1411917D1*
X2146980Y1407582D1*
X2150584Y1402621D1*
X2153368Y1397158D1*
X2155263Y1391327D1*
X2156222Y1385270D1*
Y1379139D1*
X2155263Y1373083D1*
X2153368Y1367251D1*
X2150584Y1361788D1*
X2146980Y1356828D1*
X2142645Y1352492D1*
X2137684Y1348888D1*
X2132221Y1346104D1*
X2126390Y1344210D1*
X2120333Y1343250D1*
X2114202D1*
X2108146Y1344210D1*
X2102910Y1345884D1*
X2045679Y1345886D1*
X2022745Y1323092D1*
X2018134Y1319742D1*
X2013056Y1317154D1*
X2007636Y1315393D1*
X2002007Y1314502D1*
X1961465Y1314390D1*
X1961461Y1301791D1*
X1940469D1*
X1937989Y1297865D1*
X1936216Y1295617D1*
X1937048Y1294739D1*
X1939480Y1293825D1*
X1944102Y1293093D1*
X1948553Y1291647D1*
X1952723Y1289523D1*
X1954677Y1288216D1*
X1958205Y1288439D1*
X1962842Y1290802D1*
X1967792Y1292410D1*
X1972933Y1293225D1*
X1978138D1*
X1983279Y1292410D1*
X1988229Y1290802D1*
X1992866Y1288439D1*
X1997077Y1285380D1*
X2000758Y1281699D1*
X2003817Y1277488D1*
X2006180Y1272851D1*
X2007788Y1267901D1*
X2008602Y1262760D1*
Y1257555D1*
X2007788Y1252414D1*
X2006180Y1247464D1*
X2003817Y1242827D1*
X2000758Y1238616D1*
X1999811Y1237592D1*
X1999818Y1180846D1*
X1882889D1*
X1804148Y1180882D1*
X1725408D1*
X1626983Y1180846D1*
X1567928Y1180882D1*
X1489188Y1180846D1*
Y1187341D1*
X1466349Y1164474D1*
X1466341Y1137642D1*
X1360633D1*
Y1214418D1*
X1349290Y1214413D1*
X1349256Y1083751D1*
X1239610D1*
Y1354814D1*
X1349256D1*
Y1308344D1*
X1360639Y1308311D1*
X1360633Y1310279D1*
X1430356D1*
X1407096Y1333530D1*
X1384945Y1333521D1*
Y1345686D1*
X1380777Y1348393D1*
X1375175Y1353177D1*
X1324503Y1403849D1*
X1239610Y1403863D1*
Y1674926D1*
X1349256D1*
Y1511905D1*
X1411390Y1449753D1*
X1410870Y1457008D1*
Y1687082D1*
X1355227Y1742726D1*
X1329564Y1742736D1*
X1329571Y1730925D1*
X1227799D1*
Y1781271D1*
X1226481Y1787322D1*
X1225831Y1795591D1*
X1226481Y1803859D1*
X1227797Y1809723D1*
X1227799Y1860256D1*
X1329571D1*
Y1848450D1*
X1381257Y1848282D1*
X1389449Y1846985D1*
X1397337Y1844422D1*
X1404727Y1840656D1*
X1411436Y1835781D1*
X1433971Y1813477D1*
X1503915Y1743303D1*
X1508790Y1736593D1*
X1512556Y1729203D1*
X1515119Y1721315D1*
X1516416Y1713123D1*
X1516579Y1691501D1*
X1551009Y1657069D1*
X1690393Y1657067D1*
X1690398Y1667342D1*
X1692235D1*
X1456670Y646192D2*
X1456668Y720953D1*
X1425435Y720956D1*
X1349275Y644826D1*
X1349256Y443524D1*
X1239610D1*
Y714587D1*
X1286224D1*
X1335302Y763645D1*
X1239611Y763636D1*
Y1034699D1*
X1349256D1*
Y927226D1*
X1366899D1*
X1366883Y1003997D1*
X1472592D1*
Y976976D1*
X1484657Y964903D1*
X1489171Y964902D1*
X1489188Y971594D1*
X1617635Y971690D1*
X1624607Y974069D1*
X1631866Y975328D1*
X1639233Y975436D1*
X1646525Y974390D1*
X1653564Y972216D1*
X1654973Y971592D1*
X1718175Y971594D1*
X1716469Y978454D1*
X1715988Y984567D1*
X1716469Y990680D1*
X1717901Y996642D1*
X1720247Y1002307D1*
X1723451Y1007535D1*
X1727433Y1012197D1*
X1732095Y1016179D1*
X1737323Y1019383D1*
X1742988Y1021729D1*
X1748950Y1023161D1*
X1755063Y1023642D1*
X1761176Y1023161D1*
X1767138Y1021729D1*
X1772803Y1019383D1*
X1778031Y1016179D1*
X1782693Y1012197D1*
X1786675Y1007535D1*
X1789879Y1002307D1*
X1792225Y996642D1*
X1793657Y990680D1*
X1794138Y984567D1*
X1793657Y978454D1*
X1791898Y971604D1*
X1999818Y971594D1*
X1999962Y910900D1*
X2001055Y906340D1*
X2003851Y897822D1*
X2004665Y892681D1*
Y887476D1*
X2004352Y884097D1*
X2028696D1*
Y778388D1*
X2028387D1*
X2028390Y713220D1*
X2028901D1*
Y607512D1*
X1886671Y607511D1*
X1886657Y594513D1*
X2061855Y594508D1*
Y584424D1*
X2068689Y584563D1*
X2073830Y583749D1*
X2078780Y582140D1*
X2083418Y579778D1*
X2087628Y576718D1*
X2091309Y573038D1*
X2094368Y568827D1*
X2096731Y564189D1*
X2098339Y559239D1*
X2099154Y554098D1*
Y548894D1*
X2098339Y543753D1*
X2096731Y538803D1*
X2094368Y534165D1*
X2091309Y529954D1*
X2087628Y526274D1*
X2082770Y522852D1*
X2144532Y522854D1*
Y426204D1*
X2330311Y426201D1*
X2330335Y632487D1*
X2324677Y632908D1*
X2319616Y634123D1*
X2314808Y636115D1*
X2310370Y638835D1*
X2306412Y642215D1*
X2303032Y646173D1*
X2300312Y650611D1*
X2298320Y655419D1*
X2297105Y660480D1*
X2296697Y665669D1*
X2297105Y670858D1*
X2298320Y675919D1*
X2300312Y680728D1*
X2302608Y684531D1*
X2300973Y691657D1*
X2295768D1*
X2290627Y692472D1*
X2285677Y694080D1*
X2281039Y696443D1*
X2276828Y699502D1*
X2273148Y703183D1*
X2270089Y707394D1*
X2267726Y712031D1*
X2266117Y716981D1*
X2265303Y722122D1*
Y727327D1*
X2266117Y732468D1*
X2267726Y737418D1*
X2268786Y739718D1*
X2266204Y743843D1*
X2264567Y747795D1*
X2263568Y751955D1*
X2263233Y756229D1*
X2263316Y789856D1*
X2263986Y794081D1*
X2265308Y798150D1*
X2267250Y801962D1*
X2269770Y805429D1*
X2271106Y813963D1*
Y1254442D1*
X2267063Y1256945D1*
X2263105Y1260325D1*
X2259725Y1264283D1*
X2257005Y1268721D1*
X2255013Y1273530D1*
X2253798Y1278591D1*
X2253390Y1283780D1*
X2253798Y1288968D1*
X2255013Y1294029D1*
X2257005Y1298838D1*
X2259725Y1303276D1*
X2263105Y1307234D1*
X2265249Y1309184D1*
X2266117Y1315145D1*
X2266976Y1318062D1*
X2262150Y1322362D1*
X2256362Y1329139D1*
X2251706Y1336737D1*
X2248295Y1344970D1*
X2246215Y1353636D1*
X2245516Y1362520D1*
X2246215Y1371404D1*
X2248295Y1380069D1*
X2251706Y1388302D1*
X2256362Y1395901D1*
X2262150Y1402677D1*
X2268926Y1408465D1*
X2275415Y1412500D1*
X2268926Y1416575D1*
X2262150Y1422362D1*
X2256362Y1429139D1*
X2251706Y1436737D1*
X2248295Y1444970D1*
X2246215Y1453636D1*
X2245516Y1462520D1*
X2246215Y1471404D1*
X2248295Y1480069D1*
X2251706Y1488302D1*
X2256362Y1495901D1*
X2262150Y1502677D1*
X2268926Y1508465D1*
X2275415Y1512500D1*
X2268926Y1516575D1*
X2262150Y1522362D1*
X2256362Y1529139D1*
X2251706Y1536737D1*
X2248295Y1544970D1*
X2246215Y1553636D1*
X2245516Y1562520D1*
X2246215Y1571404D1*
X2248295Y1580069D1*
X2251706Y1588302D1*
X2256362Y1595901D1*
X2262150Y1602677D1*
X2268926Y1608465D1*
X2275415Y1612500D1*
X2268926Y1616575D1*
X2262150Y1622362D1*
X2256362Y1629139D1*
X2251706Y1636737D1*
X2248295Y1644970D1*
X2246215Y1653636D1*
X2245516Y1662520D1*
X2246215Y1671404D1*
X2248295Y1680069D1*
X2251706Y1688302D1*
X2256362Y1695901D1*
X2262150Y1702677D1*
X2268926Y1708465D1*
X2275415Y1712500D1*
X2268926Y1716575D1*
X2262150Y1722362D1*
X2256362Y1729139D1*
X2251706Y1736737D1*
X2248295Y1744970D1*
X2246215Y1753636D1*
X2245516Y1762520D1*
X2246215Y1771404D1*
X2248295Y1780069D1*
X2251706Y1788302D1*
X2256362Y1795901D1*
X2262150Y1802677D1*
X2268926Y1808465D1*
X2276524Y1813121D1*
X2284758Y1816531D1*
X2293423Y1818612D1*
X2302307Y1819311D1*
X2311191Y1818612D1*
X2319857Y1816531D1*
X2328090Y1813121D1*
X2330324Y1811870D1*
X2330335Y1927475D1*
X2323185Y1924553D1*
X2314820Y1922545D1*
X2306244Y1921870D1*
X2297668Y1922545D1*
X2289303Y1924553D1*
X2281355Y1927845D1*
X2274020Y1932340D1*
X2267478Y1937927D1*
X2261891Y1944469D1*
X2257397Y1951804D1*
X2254104Y1959752D1*
X2252096Y1968117D1*
X2251421Y1976693D1*
X2252096Y1985269D1*
X2254104Y1993634D1*
X2254867Y1995701D1*
X2145508Y1995689D1*
X2145429Y1971286D1*
X2143245Y1960898D1*
X2141912Y1958280D1*
X2136429Y1950350D1*
X2134194Y1948441D1*
X2126097Y1943218D1*
X2123303Y1942310D1*
X2113331Y1940571D1*
X2053153D1*
X2058146Y1933849D1*
X2061429Y1927404D1*
X2063665Y1920525D1*
X2064796Y1913380D1*
Y1906147D1*
X2063665Y1899003D1*
X2061429Y1892124D1*
X2058146Y1885679D1*
X2053894Y1879827D1*
X2048779Y1874712D1*
X2042928Y1870461D1*
X2036483Y1867177D1*
X2029603Y1864942D1*
X2022459Y1863810D1*
X2015226D1*
X2008082Y1864942D1*
X2001202Y1867177D1*
X1994758Y1870461D1*
X1988906Y1874712D1*
X1983791Y1879827D1*
X1979539Y1885679D1*
X1976256Y1892124D1*
X1974020Y1899003D1*
X1972889Y1906147D1*
Y1913380D1*
X1974020Y1920525D1*
X1976256Y1927404D1*
X1979539Y1933849D1*
X1983791Y1939701D1*
X1984588Y1940562D1*
X1922885Y1940657D1*
X1912495Y1942842D1*
X1909873Y1944179D1*
X1901948Y1949658D1*
X1900040Y1951893D1*
X1894816Y1959989D1*
X1893908Y1962784D1*
X1892169Y1972756D1*
Y1995686D1*
X496753Y1995689D1*
X498187Y1989206D1*
X498862Y1980630D1*
X498187Y1972054D1*
X496430Y1964579D1*
X551321Y1964393D1*
X561038Y1962854D1*
X570395Y1959814D1*
X579161Y1955348D1*
X587120Y1949565D1*
X594077Y1942608D1*
X599859Y1934649D1*
X604326Y1925883D1*
X607366Y1916526D1*
X608905Y1906809D1*
Y1896971D1*
X607366Y1887253D1*
X604326Y1877897D1*
X599859Y1869131D1*
X594077Y1861171D1*
X587120Y1854215D1*
X579161Y1848432D1*
X570395Y1843965D1*
X561038Y1840925D1*
X551321Y1839386D1*
X528029Y1839193D1*
X483409D1*
X473602Y1839965D1*
X464035Y1842262D1*
X454946Y1846026D1*
X446557Y1851167D1*
X439076Y1857556D1*
X432687Y1865037D1*
X427546Y1873426D1*
X426202Y1876342D1*
X426201Y1636178D1*
X429952Y1643310D1*
X435734Y1651270D1*
X442691Y1658226D1*
X450650Y1664009D1*
X459416Y1668476D1*
X468773Y1671516D1*
X478490Y1673055D1*
X501782Y1673248D1*
X546402D1*
X556210Y1672476D1*
X565776Y1670179D1*
X574865Y1666414D1*
X583254Y1661274D1*
X590735Y1654885D1*
X597124Y1647403D1*
X602265Y1639015D1*
X606030Y1629926D1*
X608327Y1620359D1*
X609098Y1610551D1*
X608327Y1600743D1*
X606030Y1591177D1*
X602265Y1582087D1*
X597124Y1573699D1*
X590735Y1566218D1*
X583254Y1559828D1*
X574865Y1554688D1*
X565776Y1550923D1*
X556210Y1548626D1*
X546402Y1547854D1*
X483409D1*
X473602Y1548626D1*
X464035Y1550923D1*
X454946Y1554688D1*
X446557Y1559828D1*
X439076Y1566218D1*
X432687Y1573699D1*
X427546Y1582087D1*
X426202Y1585004D1*
X426201Y493123D1*
X435463Y495408D1*
X444039Y496083D1*
X452616Y495408D1*
X460981Y493399D1*
X468928Y490107D1*
X476263Y485612D1*
X482805Y480025D1*
X488392Y473484D1*
X492887Y466149D1*
X496179Y458201D1*
X498187Y449836D1*
X498862Y441260D1*
X498187Y432684D1*
X496713Y426212D1*
X1702194Y426201D1*
X1702209Y486827D1*
X1629098Y486831D1*
X1629101Y485540D1*
X1456463D1*
X1456668Y600774D1*
Y646196D1*
X1405525Y831359D2*
X1366883D1*
Y833333D1*
X1349225Y833328D1*
X1349256Y777589D1*
X1362959Y791303D1*
X1362946Y826665D1*
X1400876D1*
X1054574Y856909D2*
X973863D1*
X973862Y967059D1*
X798621Y1142329D1*
X621087Y1142342D1*
X617650Y1137157D1*
X610659Y1128971D1*
X602473Y1121980D1*
X593294Y1116355D1*
X583349Y1112236D1*
X572881Y1109723D1*
X562150Y1108878D1*
X541019Y1109089D1*
X530387Y1110773D1*
X520149Y1114100D1*
X510557Y1118987D1*
X501848Y1125315D1*
X494236Y1132927D1*
X487908Y1141636D1*
X483021Y1151227D1*
X479695Y1161465D1*
X478011Y1172098D1*
Y1182863D1*
X479695Y1193495D1*
X483021Y1203733D1*
X487908Y1213325D1*
X494236Y1222034D1*
X501848Y1229646D1*
X510557Y1235973D1*
X520149Y1240861D1*
X530387Y1244187D1*
X541019Y1245871D1*
X562150Y1246083D1*
X572881Y1245238D1*
X583349Y1242725D1*
X593294Y1238605D1*
X597535Y1236230D1*
X821739Y1236096D1*
X829015Y1234943D1*
X836022Y1232667D1*
X842586Y1229322D1*
X848546Y1224992D1*
X870740Y1203002D1*
X1044171Y1029571D1*
X1054566Y1029547D1*
X1054571Y1034699D1*
X1164217D1*
Y763636D1*
X1054571D1*
Y856899D1*
X983113Y750020D2*
X1079571D1*
Y714588D1*
X1164217Y714587D1*
Y443524D1*
X1054571D1*
Y577408D1*
X973862Y577382D1*
Y581293D1*
X966032Y584467D1*
X959751Y588317D1*
X954149Y593101D1*
X900465Y646989D1*
X896135Y652950D1*
X892790Y659514D1*
X890514Y666520D1*
X889361Y673797D1*
X889216Y705039D1*
Y764356D1*
X660824Y992725D1*
X612188Y992736D1*
X606703Y987519D1*
X597994Y981192D1*
X588403Y976305D1*
X578165Y972978D1*
X567532Y971294D1*
X546402Y971083D1*
X541019Y971294D1*
X530387Y972978D1*
X520149Y976305D1*
X510557Y981192D1*
X501848Y987519D1*
X494236Y995131D1*
X487908Y1003840D1*
X483021Y1013432D1*
X479695Y1023670D1*
X478011Y1034303D1*
Y1045068D1*
X479695Y1055700D1*
X483021Y1065938D1*
X487908Y1075530D1*
X494236Y1084239D1*
X501848Y1091851D1*
X510557Y1098178D1*
X520149Y1103065D1*
X530387Y1106392D1*
X541019Y1108076D1*
X562150Y1108287D1*
X572881Y1107443D1*
X583349Y1104930D1*
X593294Y1100810D1*
X602473Y1095186D1*
X610659Y1088194D1*
X612101Y1086634D1*
X683943Y1086489D1*
X691220Y1085337D1*
X698226Y1083060D1*
X704791Y1079716D1*
X710751Y1075385D1*
X732945Y1053396D1*
X832741Y953600D1*
X832721Y984862D1*
X918744D1*
Y984295D1*
X925732Y984862D1*
X932461Y984333D1*
X939024Y982757D1*
X945259Y980174D1*
X951014Y976648D1*
X956146Y972264D1*
X960530Y967132D1*
X964056Y961377D1*
X966639Y955142D1*
X968215Y948579D1*
X968744Y941850D1*
X968612Y926665D1*
X967556Y919998D1*
X965470Y913579D1*
X962406Y907566D1*
X958439Y902105D1*
X953666Y897333D1*
X948206Y893366D1*
X942192Y890302D1*
X935773Y888216D1*
X929107Y887160D1*
X922358D1*
X918744Y887487D1*
Y887027D1*
X899317D1*
X971866Y814270D1*
X976196Y808310D1*
X979541Y801746D1*
X981817Y794740D1*
X982970Y787463D1*
X983114Y756220D1*
Y750013D1*
X975700Y1596476D2*
X1054566D1*
X1054571Y1674926D1*
X1164217D1*
Y1403863D1*
X1054571D1*
Y1423851D1*
X973862Y1423839D1*
Y1425812D1*
X921899Y1425807D1*
X920467Y1419199D1*
X918475Y1414390D1*
X915756Y1409952D1*
X912375Y1405995D1*
X908418Y1402614D1*
X903980Y1399895D1*
X899171Y1397903D1*
X894110Y1396688D1*
X888921Y1396280D1*
X883732Y1396688D1*
X878671Y1397903D1*
X874445Y1399626D1*
X836494D1*
X832242Y1397903D1*
X827181Y1396688D1*
X821992Y1396280D1*
X816803Y1396688D1*
X811742Y1397903D1*
X806934Y1399895D1*
X802496Y1402614D1*
X798538Y1405995D1*
X795158Y1409952D1*
X792438Y1414390D1*
X790446Y1419199D1*
X789231Y1424260D1*
X789048Y1425806D1*
X630735Y1425807D1*
X630752Y1384468D1*
X477799D1*
Y1521673D1*
X630752D1*
Y1519700D1*
X973849Y1519705D1*
X973862Y1596476D1*
X975700D1*
Y1320886D2*
X1054566D1*
X1054571Y1354814D1*
X1164217D1*
Y1083751D1*
X1054571D1*
Y1148234D1*
X973862Y1148248D1*
Y1155389D1*
X967625Y1159183D1*
X962023Y1163967D1*
X841928Y1284062D1*
X623271Y1284075D1*
X617650Y1274952D1*
X610659Y1266766D1*
X602473Y1259775D1*
X593294Y1254150D1*
X583349Y1250031D1*
X572881Y1247518D1*
X562150Y1246673D1*
X541019Y1246885D1*
X530387Y1248569D1*
X520149Y1251895D1*
X510557Y1256782D1*
X501848Y1263110D1*
X494236Y1270722D1*
X487908Y1279431D1*
X483021Y1289023D1*
X479695Y1299261D1*
X478011Y1309893D1*
Y1320658D1*
X479695Y1331290D1*
X483021Y1341529D1*
X487908Y1351120D1*
X494236Y1359829D1*
X501848Y1367441D1*
X510557Y1373769D1*
X520149Y1378656D1*
X530387Y1381982D1*
X541019Y1383666D1*
X562150Y1383878D1*
X572881Y1383033D1*
X583349Y1380520D1*
X589874Y1377978D1*
X865046Y1377828D1*
X872322Y1376675D1*
X879329Y1374399D1*
X885893Y1371054D1*
X891853Y1366724D1*
X914047Y1344734D1*
X973854Y1284928D1*
X973862Y1320886D1*
X975700D1*
X589348Y761831D2*
X599972Y761933D1*
X593453Y768453D1*
X588033Y775912D1*
X583847Y784128D1*
X580998Y792897D1*
X579555Y802004D1*
Y811224D1*
X580998Y820331D1*
X583847Y829101D1*
X588033Y837316D1*
X593453Y844776D1*
X599972Y851296D1*
X607432Y856715D1*
X615647Y860901D1*
X624417Y863750D1*
X633524Y865193D1*
X642744D1*
X651851Y863750D1*
X660620Y860901D1*
X668836Y856715D1*
X676295Y851296D1*
X682815Y844776D1*
X688235Y837316D1*
X692421Y829101D1*
X693887Y825127D1*
X695944Y829716D1*
X700116Y836524D1*
X705302Y842596D1*
X711374Y847782D1*
X718182Y851954D1*
X725559Y855009D1*
X733323Y856874D1*
X741283Y857500D1*
X749244Y856874D1*
X757008Y855009D1*
X764385Y851954D1*
X771193Y847782D1*
X777265Y842596D1*
X782451Y836524D1*
X786623Y829716D1*
X789679Y822339D1*
X791543Y814574D1*
X792169Y806614D1*
X791543Y798654D1*
X789679Y790890D1*
X786623Y783512D1*
X782451Y776704D1*
X777265Y770632D1*
X771193Y765447D1*
X764385Y761275D1*
X757008Y758219D1*
X750637Y756632D1*
X757008Y755009D1*
X764385Y751954D1*
X771193Y747782D1*
X777265Y742596D1*
X782512Y736433D1*
X789650Y736070D1*
X794200Y734977D1*
X798524Y733187D1*
X802514Y730741D1*
X806072Y727702D1*
X968186Y565588D1*
X989689Y565571D1*
X994489Y569065D1*
X999952Y571848D1*
X1005784Y573743D1*
X1011840Y574702D1*
X1017971D1*
X1024027Y573743D1*
X1029859Y571848D1*
X1035322Y569065D1*
X1040283Y565461D1*
X1044618Y561125D1*
X1048222Y556165D1*
X1051006Y550701D1*
X1052901Y544870D1*
X1053860Y538814D1*
Y532682D1*
X1052901Y526626D1*
X1051006Y520795D1*
X1048222Y515332D1*
X1044618Y510371D1*
X1040283Y506035D1*
X1035322Y502431D1*
X1029859Y499648D1*
X1024027Y497753D1*
X1017971Y496794D1*
X1011840D1*
X1005784Y497753D1*
X999952Y499648D1*
X994489Y502431D1*
X989670Y505924D1*
X953511Y506017D1*
X948888Y506749D1*
X944438Y508195D1*
X940268Y510320D1*
X936482Y513070D1*
X882797Y566626D1*
X778027Y671395D1*
X771193Y665447D1*
X764385Y661275D1*
X757008Y658219D1*
X750637Y656632D1*
X756628Y655131D1*
X763451Y652418D1*
X769812Y648751D1*
X775579Y644206D1*
X780633Y638879D1*
X784866Y632880D1*
X788193Y626334D1*
X790543Y619377D1*
X791867Y612155D1*
X792136Y604777D1*
X791342Y597478D1*
X789506Y590368D1*
X786666Y583597D1*
X782881Y577305D1*
X778230Y571624D1*
X772809Y566670D1*
X766732Y562549D1*
X760125Y559345D1*
X753126Y557126D1*
X745880Y555936D1*
X738539Y555802D1*
X731255Y556726D1*
X724179Y558689D1*
X717460Y561650D1*
X711236Y565547D1*
X705639Y570299D1*
X700783Y575807D1*
X696771Y581956D1*
X693896Y588093D1*
X690489Y579938D1*
X685672Y572076D1*
X679683Y565065D1*
X672672Y559076D1*
X664810Y554259D1*
X656292Y550730D1*
X647326Y548578D1*
X638134Y547854D1*
X628942Y548578D1*
X619976Y550730D1*
X611457Y554259D1*
X603596Y559076D1*
X596584Y565065D1*
X590596Y572076D1*
X585778Y579938D1*
X582250Y588456D1*
X580097Y597422D1*
X579374Y606614D1*
X580097Y615806D1*
X582250Y624772D1*
X585778Y633291D1*
X590596Y641152D1*
X596584Y648164D1*
X603596Y654152D1*
X606548Y656124D1*
X505358Y656122D1*
Y761831D1*
X589348D1*
X676154D2*
X677996D1*
Y736460D1*
X700116Y736524D1*
X705302Y742596D1*
X711374Y747782D1*
X718182Y751954D1*
X725559Y755009D1*
X731930Y756596D1*
X725559Y758219D1*
X718182Y761275D1*
X711374Y765447D1*
X705302Y770632D1*
X700116Y776704D1*
X695944Y783512D1*
X693909Y788122D1*
X690489Y779938D1*
X685672Y772076D1*
X679683Y765065D1*
X676168Y761832D1*
X677996Y676821D2*
Y656122D1*
X669779D1*
X676295Y651296D1*
X682815Y644776D1*
X688235Y637316D1*
X692421Y629101D1*
X693887Y625127D1*
X696752Y631237D1*
X700759Y637390D1*
X705610Y642902D1*
X711204Y647658D1*
X717424Y651560D1*
X724141Y654526D1*
X731215Y656494D1*
X731844Y656609D1*
X725559Y658219D1*
X718182Y661275D1*
X711374Y665447D1*
X705302Y670632D1*
X700055Y676795D1*
X678020Y676791D1*
X1083448Y1860256D2*
X1176033D1*
Y1809910D1*
X1177351Y1803859D1*
X1178001Y1795591D1*
X1177351Y1787322D1*
X1176035Y1781458D1*
X1176033Y1730925D1*
X1074261D1*
Y1742731D1*
X1032889Y1742736D1*
X894500Y1604375D1*
X891635Y1597835D1*
X886494Y1589447D1*
X880105Y1581966D1*
X872624Y1575576D1*
X864235Y1570436D1*
X855146Y1566671D1*
X845580Y1564374D1*
X835772Y1563602D1*
X776717D1*
X766909Y1564374D1*
X757342Y1566671D1*
X748253Y1570436D1*
X739864Y1575576D1*
X732383Y1581966D1*
X725994Y1589447D1*
X720853Y1597835D1*
X717088Y1606925D1*
X714792Y1616491D1*
X714020Y1626299D1*
X714792Y1636107D1*
X717088Y1645674D1*
X720853Y1654763D1*
X725994Y1663151D1*
X727006Y1664435D1*
X718901Y1664000D1*
X711575Y1664516D1*
X704358Y1665884D1*
X697352Y1668088D1*
X690651Y1671095D1*
X684348Y1674866D1*
X678529Y1679348D1*
X673274Y1684479D1*
X668655Y1690190D1*
X664736Y1696402D1*
X661570Y1703030D1*
X659201Y1709982D1*
X657661Y1717164D1*
X656972Y1724476D1*
X657020Y1789041D1*
X657834Y1796341D1*
X659497Y1803495D1*
X661985Y1810405D1*
X665264Y1816978D1*
X669290Y1823121D1*
X674006Y1828752D1*
X679348Y1833793D1*
X685243Y1838174D1*
X691610Y1841835D1*
X698362Y1844727D1*
X705405Y1846810D1*
X712644Y1848054D1*
X719978Y1848444D1*
X726944Y1848012D1*
X723259Y1853383D1*
X718792Y1862149D1*
X715752Y1871505D1*
X714213Y1881223D1*
Y1891061D1*
X715752Y1900778D1*
X718792Y1910135D1*
X723259Y1918901D1*
X729041Y1926860D1*
X735998Y1933817D1*
X743958Y1939600D1*
X752723Y1944066D1*
X762080Y1947106D1*
X771797Y1948645D1*
X795089Y1948838D1*
X840691Y1948645D1*
X850408Y1947106D1*
X859765Y1944066D1*
X868531Y1939600D1*
X876490Y1933817D1*
X883447Y1926860D1*
X889230Y1918901D1*
X893696Y1910135D1*
X896736Y1900778D1*
X898275Y1891061D1*
Y1881223D1*
X896736Y1871505D1*
X893696Y1862149D1*
X889230Y1853383D1*
X883447Y1845423D1*
X876490Y1838467D1*
X868531Y1832684D1*
X859765Y1828217D1*
X850408Y1825177D1*
X840691Y1823638D1*
X817399Y1823445D1*
X776717D1*
X769372Y1823925D1*
X773419Y1817961D1*
X776817Y1811449D1*
X779430Y1804585D1*
X781223Y1797462D1*
X782170Y1790179D1*
X782327Y1774724D1*
X782085Y1721188D1*
X781012Y1713922D1*
X779098Y1706831D1*
X776367Y1700013D1*
X772857Y1693561D1*
X769395Y1688567D1*
X776736Y1688995D1*
X829646Y1688996D1*
X976642Y1835781D1*
X983352Y1840656D1*
X990742Y1844422D1*
X998630Y1846985D1*
X1006822Y1848282D1*
X1038528Y1848445D1*
X1074232D1*
X1074261Y1860256D1*
X1083448D1*
X635565Y1750133D2*
X634849Y1744082D1*
X633661Y1738107D1*
X632007Y1732243D1*
X629898Y1726527D1*
X627347Y1720995D1*
X624371Y1715679D1*
X620986Y1710613D1*
X617214Y1705829D1*
X613078Y1701355D1*
X608604Y1697219D1*
X603820Y1693447D1*
X598754Y1690063D1*
X593439Y1687086D1*
X587906Y1684535D1*
X582190Y1682426D1*
X576326Y1680772D1*
X570351Y1679584D1*
X564300Y1678868D1*
X558213Y1678629D1*
X552125Y1678868D1*
X546075Y1679584D1*
X540099Y1680772D1*
X534235Y1682426D1*
X528519Y1684535D1*
X522987Y1687086D1*
X517671Y1690063D1*
X512605Y1693447D1*
X507821Y1697219D1*
X503347Y1701355D1*
X499211Y1705829D1*
X495439Y1710613D1*
X492055Y1715679D1*
X489078Y1720995D1*
X486527Y1726527D1*
X484418Y1732243D1*
X482765Y1738107D1*
X481576Y1744082D1*
X480860Y1750133D1*
X480621Y1756220D1*
X480860Y1762308D1*
X481576Y1768359D1*
X482765Y1774334D1*
X484418Y1780198D1*
X486527Y1785914D1*
X489078Y1791446D1*
X492055Y1796762D1*
X495439Y1801828D1*
X499211Y1806612D1*
X503347Y1811086D1*
X507821Y1815222D1*
X512605Y1818994D1*
X517671Y1822378D1*
X522987Y1825355D1*
X528519Y1827906D1*
X534235Y1830015D1*
X540099Y1831668D1*
X546075Y1832857D1*
X552125Y1833573D1*
X558213Y1833812D1*
X564300Y1833573D1*
X570351Y1832857D1*
X576326Y1831668D1*
X582190Y1830015D1*
X587906Y1827906D1*
X593439Y1825355D1*
X598754Y1822378D1*
X603820Y1818994D1*
X608604Y1815222D1*
X613078Y1811086D1*
X617214Y1806612D1*
X620986Y1801828D1*
X624371Y1796762D1*
X627347Y1791446D1*
X629898Y1785914D1*
X632007Y1780198D1*
X633661Y1774334D1*
X634849Y1768359D1*
X635565Y1762308D1*
X635804Y1756220D1*
X635565Y1750133D1*
X2264581Y1907927D2*
X2263869Y1900617D1*
X2262220Y1893461D1*
X2259661Y1886577D1*
X2256236Y1880081D1*
X2252001Y1874081D1*
X2247027Y1868678D1*
X2241397Y1863962D1*
X2235206Y1860012D1*
X2228557Y1856894D1*
X2221561Y1854660D1*
X2214335Y1853347D1*
X2207000Y1852978D1*
X2199679Y1853559D1*
X2192494Y1855079D1*
X2185566Y1857514D1*
X2179009Y1860822D1*
X2172935Y1864949D1*
X2167443Y1869826D1*
X2162627Y1875370D1*
X2158567Y1881489D1*
X2155330Y1888081D1*
X2152971Y1895036D1*
X2151529Y1902237D1*
X2151028Y1909564D1*
X2151477Y1916894D1*
X2152868Y1924105D1*
X2155178Y1931076D1*
X2158369Y1937691D1*
X2162386Y1943839D1*
X2167163Y1949417D1*
X2172620Y1954331D1*
X2178665Y1958501D1*
X2185198Y1961856D1*
X2192110Y1964339D1*
X2199284Y1965910D1*
X2206600Y1966542D1*
X2213937Y1966225D1*
X2221172Y1964963D1*
X2228184Y1962778D1*
X2234855Y1959707D1*
X2241073Y1955801D1*
X2246736Y1951124D1*
X2251748Y1945757D1*
X2256025Y1939787D1*
X2259497Y1933315D1*
X2262104Y1926449D1*
X2263803Y1919305D1*
X2264566Y1912001D1*
X2264581Y1907927D1*
X1898293Y1905308D2*
X1896899Y1896506D1*
X1894146Y1888031D1*
X1890100Y1880090D1*
X1884862Y1872881D1*
X1878560Y1866579D1*
X1871351Y1861341D1*
X1863410Y1857295D1*
X1854935Y1854542D1*
X1846133Y1853148D1*
X1837221D1*
X1828419Y1854542D1*
X1819944Y1857295D1*
X1812004Y1861341D1*
X1804794Y1866579D1*
X1798493Y1872881D1*
X1793255Y1880090D1*
X1789209Y1888031D1*
X1786455Y1896506D1*
X1785061Y1905308D1*
Y1914220D1*
X1786455Y1923021D1*
X1789209Y1931497D1*
X1793255Y1939437D1*
X1798493Y1946647D1*
X1804794Y1952948D1*
X1812004Y1958186D1*
X1819944Y1962232D1*
X1828419Y1964986D1*
X1837221Y1966380D1*
X1846133D1*
X1854935Y1964986D1*
X1863410Y1962232D1*
X1871351Y1958186D1*
X1878560Y1952948D1*
X1884862Y1946647D1*
X1890100Y1939437D1*
X1894146Y1931497D1*
X1896899Y1923021D1*
X1898293Y1914220D1*
Y1905308D1*
X1546411Y1777736D2*
X1650597D1*
X1650805Y1752423D1*
X1655695Y1759153D1*
X1661577Y1765035D1*
X1668307Y1769924D1*
X1675719Y1773701D1*
X1683630Y1776271D1*
X1691846Y1777573D1*
X1700165D1*
X1708381Y1776271D1*
X1716292Y1773701D1*
X1723704Y1769924D1*
X1730434Y1765035D1*
X1736316Y1759153D1*
X1741205Y1752423D1*
X1744982Y1745011D1*
X1747552Y1737100D1*
X1748854Y1728884D1*
Y1720565D1*
X1747552Y1712349D1*
X1744982Y1704438D1*
X1741205Y1697026D1*
X1736316Y1690296D1*
X1730434Y1684414D1*
X1723704Y1679524D1*
X1716292Y1675748D1*
X1708381Y1673177D1*
X1700165Y1671876D1*
X1691846D1*
X1683630Y1673177D1*
X1675719Y1675748D1*
X1668307Y1679524D1*
X1661577Y1684414D1*
X1655695Y1690296D1*
X1650591Y1697409D1*
X1650597Y1671713D1*
X1544574D1*
Y1777736D1*
X1546411D1*
X1836046Y500610D2*
X1800018D1*
X1800043Y426204D1*
X2046682Y426201D1*
X2046697Y500607D1*
X1836067Y500646D1*
X2064939Y1328760D2*
X2141776D1*
Y1328221D1*
X2148764Y1328760D1*
X2155492Y1328230D1*
X2162055Y1326655D1*
X2168291Y1324072D1*
X2174045Y1320545D1*
X2179178Y1316162D1*
X2183561Y1311030D1*
X2187088Y1305275D1*
X2189670Y1299039D1*
X2191246Y1292477D1*
X2191776Y1285748D1*
X2191643Y1270562D1*
X2190587Y1263896D1*
X2188502Y1257477D1*
X2185437Y1251463D1*
X2181470Y1246003D1*
X2176698Y1241231D1*
X2171237Y1237263D1*
X2165224Y1234199D1*
X2158805Y1232114D1*
X2152138Y1231058D1*
X2145389D1*
X2141764Y1231509D1*
X2141776Y1230925D1*
X2055752D1*
Y1328760D1*
X2064939D1*
X2110017Y616161D2*
X2163808D1*
X2163823Y671876D1*
X2100831Y671870D1*
Y753957D1*
X2196697D1*
X2196894Y685058D1*
X2259689D1*
Y602971D1*
X2196698D1*
X2196697Y534075D1*
X2100831D1*
X2100763Y567375D1*
X2099949Y572516D1*
Y577721D1*
X2100832Y583106D1*
X2100831Y616161D1*
X2110017D1*
X1743252Y1667307D2*
D16*
Y1618425D1*
X1456704Y699046D2*
X1505585D1*
X1667937Y1657031D2*
D25*
Y1604213D1*
X1456704Y618720D2*
X1505585D1*
X1505381Y538395D2*
Y485576D1*
X1456499Y538395D2*
X1505381D1*
X1979472Y748346D2*
D16*
X2028354D1*
X1908606Y1425512D2*
X1961425D1*
X1979778Y831243D2*
X2028660D1*
X1664512Y535748D2*
Y486866D1*
X1026717Y905827D2*
Y856945D1*
X973898Y905827D2*
X1026717D1*
Y749984D2*
Y701102D1*
Y1596440D2*
Y1547559D1*
X973898D2*
X1026717D1*
Y1320850D2*
Y1271969D1*
X554276Y761795D2*
Y656158D1*
X505394Y708976D2*
X554276D1*
X719630Y1848409D2*
D26*
Y1664032D1*
X656969Y1756220D2*
X782291D1*
X2207819Y1966519D2*
D16*
Y1853008D1*
X2151063Y1909764D2*
X2264574D1*
X1597585Y1777700D2*
D15*
Y1671748D1*
X1544609Y1724724D2*
X1597585D1*
X2095614Y522818D2*
D16*
Y457205D1*
X2046733D2*
X2144496D1*
X1702245D2*
X1800008D1*
X875732Y984826D2*
D26*
Y935945D1*
X1979472Y1667307D2*
D16*
Y1614488D1*
X2028354D1*
X2148764Y753921D2*
Y671906D1*
X2100867Y712913D2*
X2196661D1*
X2211756Y685022D2*
Y603007D1*
X2163859Y644014D2*
X2259653D1*
X741283Y657464D2*
Y555764D1*
Y606614D2*
X792133D1*
X1710592Y564685D2*
D29*
X1750786D1*
X1710592Y547100D2*
X1747984D1*
X1710592Y529514D2*
X1757603D1*
X1759320Y573425D2*
X1746171D1*
X1746205Y572165D1*
X1713436D1*
X1713449Y565551D1*
X1708777D1*
X1708803Y520973D1*
X1773752Y520984D1*
X1771856Y523052D1*
X1767491Y524471D1*
X1763401Y526555D1*
X1759687Y529253D1*
X1756442Y532498D1*
X1753744Y536212D1*
X1751660Y540302D1*
X1750241Y544667D1*
X1749523Y549201D1*
Y553791D1*
X1750241Y558325D1*
X1751660Y562690D1*
X1753744Y566780D1*
X1756442Y570494D1*
X1759351Y573429D1*
D31*
X1743252Y1543622D3*
Y1618425D3*
D32*
X1593337Y1386375D3*
X1668140D3*
X1580388Y699046D3*
X1505585D3*
X1593134Y1495630D3*
X1667937D3*
X1593134Y1604213D3*
X1667937D3*
X1580388Y618720D3*
X1505585D3*
X1580184Y538395D3*
X1505381D3*
X1979472Y748346D3*
X1904669D3*
D31*
X1908606Y1425512D3*
Y1350709D3*
D32*
X1979983Y660366D3*
X1905180D3*
X1762937Y622362D3*
X1837740D3*
D31*
X1812596Y1352808D3*
Y1427612D3*
D32*
X1979472Y1527874D3*
X1904669D3*
X1904975Y831243D3*
X1979778D3*
D31*
X1413487Y1261362D3*
Y1186559D3*
X1699945Y701102D3*
Y775906D3*
X1664512Y535748D3*
Y610551D3*
D32*
X1433862Y1386375D3*
X1508665D3*
D31*
X1419738Y880277D3*
Y955080D3*
D32*
X1411864Y773811D3*
X1486667D3*
D31*
X1026717Y905827D3*
Y980630D3*
Y701102D3*
Y626299D3*
Y1547559D3*
Y1472756D3*
Y1271969D3*
Y1197165D3*
D32*
X629079Y708976D3*
X554276D3*
D37*
X1278685Y1795591D3*
X1125147D3*
D39*
X806244Y1626299D3*
D40*
X719630Y1756220D3*
D39*
X806244Y1886142D3*
D41*
X514906Y1901890D3*
Y1610551D3*
D42*
X2207819Y1909764D3*
X2081835Y1590866D3*
X1877110Y1712913D3*
X1841677Y1909764D3*
D43*
X2302307Y1862520D3*
D42*
Y1762520D3*
Y1662520D3*
Y1562520D3*
Y1462520D3*
Y1362520D3*
D44*
X1597585Y1724724D3*
D45*
X1696005D3*
D46*
X554276Y1453071D3*
D47*
Y1315276D3*
Y1177480D3*
Y1039685D3*
D48*
X1825929Y547559D3*
X1875142D3*
D49*
X2095614Y457205D3*
X1751126D3*
D48*
X1924354Y547559D3*
X2022780D3*
X1973567D3*
D50*
X875732Y935945D3*
D51*
X925732D3*
D50*
X2098764Y1279843D3*
D51*
X2148764D3*
D52*
X1294433Y899168D3*
X1109394D3*
X1294433Y579055D3*
X1109394D3*
X1294433Y1539395D3*
X1109394D3*
X1294433Y1219282D3*
X1109394D3*
D31*
X1825929Y1543622D3*
Y1618425D3*
D32*
X1979472Y1614488D3*
X1904669D3*
D61*
X2148764Y575118D3*
Y712913D3*
X2211756Y644014D3*
D66*
X1518125Y1223858D3*
X1537810D3*
X1557495D3*
X1577180D3*
X1596865D3*
X1616550D3*
X1636235D3*
X1655920D3*
X1675605D3*
X1695290D3*
X1714975D3*
X1734660D3*
X1754345D3*
X1774030D3*
X1793715D3*
X1813400D3*
X1833085D3*
X1852770D3*
X1872455D3*
X1892140D3*
X1911825D3*
X1931510D3*
X1951196D3*
X1970881D3*
Y928583D3*
X1951196D3*
X1931510D3*
X1911825D3*
X1892140D3*
X1872455D3*
X1852770D3*
X1833085D3*
X1813400D3*
X1793715D3*
X1774030D3*
X1754345D3*
X1734660D3*
X1714975D3*
X1695290D3*
X1675605D3*
X1655920D3*
X1636235D3*
X1616550D3*
X1596865D3*
X1577180D3*
X1557495D3*
X1537810D3*
X1518125D3*
D67*
X1744503Y1076220D3*
D72*
X741283Y606614D3*
Y706614D3*
Y806614D3*
D73*
X638134Y606614D3*
Y806614D3*
G36*
X1550339Y1315276D2*
X1581835Y1275906D1*
X1577898Y1268031D1*
X1542465Y1303465D1*
X1550339Y1315276D1*
G37*
G36*
X1554276Y1354646D2*
X1566087Y1346772D1*
X1570024Y1342835D1*
X1573961Y1331024D1*
X1589709Y1315276D1*
X1601520Y1299528D1*
X1597583Y1291654D1*
X1542465Y1342835D1*
X1554276Y1354646D1*
G37*
G36*
X1550339Y1264094D2*
X1546402Y1252283D1*
X1542465Y1236535D1*
X1534591D1*
X1530654Y1264094D1*
X1550339D1*
G37*
G36*
X1699945Y527874D2*
X1715693D1*
Y472756D1*
X1699945D1*
Y527874D1*
G37*
G36*
X1638921Y1752283D2*
X1658606D1*
Y1697165D1*
X1638921D1*
Y1752283D1*
G37*
M02*
