G04 DipTrace 3.3.1.3*
G04 Bottom.gbr*
%MOIN*%
G04 #@! TF.FileFunction,Copper,L2,Bot*
G04 #@! TF.Part,Single*
G04 #@! TA.AperFunction,Nonconductor*
%ADD10C,0.009843*%
G04 #@! TA.AperFunction,CopperBalancing*
%ADD13C,0.03937*%
%ADD14C,0.012992*%
%ADD15C,0.025984*%
G04 #@! TA.AperFunction,Conductor*
%ADD16C,0.015748*%
%ADD17C,0.023622*%
G04 #@! TA.AperFunction,ViaPad*
%ADD18C,0.019685*%
G04 #@! TA.AperFunction,Conductor*
%ADD19C,0.01122*%
G04 #@! TA.AperFunction,CopperBalancing*
%ADD20C,0.043307*%
G04 #@! TA.AperFunction,Conductor*
%ADD21C,0.007874*%
G04 #@! TA.AperFunction,CopperBalancing*
%ADD23C,0.047244*%
G04 #@! TA.AperFunction,Conductor*
%ADD24C,0.059055*%
G04 #@! TA.AperFunction,CopperBalancing*
%ADD25C,0.031496*%
%ADD27C,0.003937*%
%ADD28C,0.025*%
%ADD29C,0.017717*%
%ADD31R,0.059055X0.051181*%
%ADD32R,0.051181X0.059055*%
%ADD37R,0.055118X0.082677*%
G04 #@! TA.AperFunction,ComponentPad*
%ADD40O,0.137795X0.07874*%
%ADD41O,0.07874X0.137795*%
%ADD42O,0.141732X0.07874*%
%ADD43C,0.066929*%
%ADD44R,0.066929X0.066929*%
%ADD45R,0.05937X0.05937*%
%ADD46C,0.05937*%
%ADD47R,0.106299X0.090551*%
%ADD48O,0.106299X0.090551*%
%ADD49R,0.031496X0.047244*%
%ADD50R,0.051181X0.084646*%
G04 #@! TA.AperFunction,ComponentPad*
%ADD51R,0.03937X0.051181*%
%ADD52O,0.03937X0.051181*%
%ADD54R,0.062992X0.224409*%
%ADD63R,0.049213X0.035433*%
%ADD68R,0.01122X0.03937*%
%ADD69R,0.334646X0.137795*%
G04 #@! TA.AperFunction,ComponentPad*
%ADD74C,0.055118*%
%ADD75C,0.070866*%
G04 #@! TA.AperFunction,ViaPad*
%ADD78C,0.04*%
%FSLAX26Y26*%
G04*
G70*
G90*
G75*
G01*
G04 Bottom*
%LPD*%
X4046526Y829843D2*
D14*
Y770936D1*
D15*
X4043307Y767717D1*
Y673228D1*
X4059055Y657480D1*
X4086614D1*
X4094488Y649606D1*
X4098425D1*
X4043307Y669291D2*
D14*
Y673228D1*
X4066211Y829843D2*
D16*
Y790621D1*
X4046526Y770936D1*
X4311024Y1283465D2*
D15*
X4224409D1*
X4192913Y1251969D1*
X4160711D1*
X4102362D1*
Y1220472D1*
X4082677Y1200787D1*
D17*
X4007874D1*
D18*
X3976378Y1169291D1*
X3972441D1*
D14*
X3967786Y1164636D1*
Y1125118D1*
X4082677Y1173228D2*
D15*
Y1200787D1*
X4098425Y1216535D1*
Y1248031D1*
X4102362Y1251969D1*
X4165354Y1283465D2*
Y1256612D1*
D14*
X4160711Y1251969D1*
X4066211Y1125118D2*
D19*
Y1151299D1*
D14*
Y1156762D1*
X4082677Y1173228D1*
X2935039Y607874D2*
X2825197D1*
X2822835Y610236D1*
X2935039Y607874D2*
X2973819D1*
X3127559Y454134D1*
X3181693D1*
X4003937Y1157480D2*
X4007156Y1154261D1*
D19*
Y1125118D1*
X4039370Y1165354D2*
X4026841Y1152825D1*
Y1125118D1*
X3889046D2*
Y1098937D1*
D14*
Y1075521D1*
X3987471Y1125118D2*
D19*
Y1098937D1*
D14*
Y1075521D1*
X4085896Y1125118D2*
D19*
Y1098937D1*
D14*
Y1075521D1*
X3834646Y1507874D2*
D13*
Y1397638D1*
Y1291339D1*
X3889046Y1098937D2*
D14*
Y1026693D1*
X3938259Y977480D1*
X3987471Y1098937D2*
Y1026693D1*
X3938259Y977480D1*
X4085896Y1098937D2*
Y1055836D1*
X4007541Y977480D1*
X3938259D1*
X3699341Y600306D2*
D13*
Y519980D1*
Y439655D1*
X3699136D1*
X3751251Y1125118D2*
D19*
Y1098937D1*
D14*
Y1087332D1*
X3779528Y1059055D1*
X3856684D1*
X3938259Y977480D1*
X3751251Y829843D2*
D19*
Y856024D1*
D14*
Y906230D1*
X3822501Y977480D1*
X3938259D1*
X4007156Y829843D2*
D19*
Y856024D1*
D14*
Y908583D1*
X3938259Y977480D1*
X4085896Y829843D2*
D19*
Y856024D1*
D14*
Y928416D1*
X4036832Y977480D1*
X3938259D1*
X4144951Y829843D2*
D19*
Y856024D1*
D14*
Y957411D1*
X4124882Y977480D1*
X3938259D1*
X4173228Y1429134D2*
D15*
Y1515748D1*
X3108858Y837205D2*
Y776757D1*
X3127741Y757874D1*
X3220472D1*
Y812008D1*
X4031496Y523622D2*
D14*
X4054134D1*
X4076772Y500984D1*
X4221457D1*
X4240157Y519685D1*
Y744094D1*
X4263780Y767717D1*
X3889046Y829843D2*
D19*
Y856024D1*
D14*
Y928268D1*
X3938259Y977480D1*
X3220472Y527559D2*
D15*
Y503848D1*
X3231693Y492627D1*
Y454134D1*
X3759843Y1397638D2*
D23*
Y1507874D1*
Y1397638D2*
Y1291339D1*
X3657480Y1358268D2*
D24*
Y1570866D1*
Y1610236D1*
X3570866Y1696850D1*
X3472441D1*
X3810306Y1125118D2*
D19*
Y1151299D1*
D14*
Y1196133D1*
X3817913Y1203740D1*
D25*
Y1220472D1*
X3759843Y1278543D1*
Y1291339D1*
X3829991Y1125118D2*
D19*
Y1151299D1*
D14*
Y1191663D1*
X3817913Y1203740D1*
X3819825Y1117126D2*
Y1203740D1*
X3817913D1*
X3759843Y1507874D2*
D24*
X3720472D1*
X3657480Y1570866D1*
X3773940Y439655D2*
D13*
Y519980D1*
X3774144D1*
Y600306D2*
D23*
Y519980D1*
X3849676Y829843D2*
D19*
X3829991D1*
X3810306D1*
X3829991D2*
D23*
X3826772Y779528D1*
X3774144Y726900D1*
Y600306D1*
D14*
D3*
X3948101Y1125118D2*
Y1180385D1*
X4006352Y1238635D1*
Y1254068D1*
X4055118Y1302835D1*
Y1358268D1*
X4070866Y1374016D1*
X4216535D1*
X4275591Y1433071D1*
Y1492126D1*
X3908731Y1125118D2*
D19*
Y1151299D1*
D14*
Y1196133D1*
X3940945Y1228346D1*
Y1342520D1*
X3996063Y1397638D1*
X4051181D1*
X4098425Y1444882D1*
Y1429134D1*
X3928416Y1125118D2*
D19*
Y1151299D1*
D14*
Y1188259D1*
X3960630Y1220472D1*
Y1307087D1*
X3980315Y1326772D1*
X4006352D1*
Y1328871D1*
X3948101Y829843D2*
D19*
Y803661D1*
D14*
Y652825D1*
X3897638Y602362D1*
X3893701D1*
X3948101Y829843D2*
D19*
Y856024D1*
D14*
Y885109D1*
X3948819Y885827D1*
X3908731Y829843D2*
D19*
Y778810D1*
D14*
X3838583Y708661D1*
Y511811D1*
X3858268D1*
X4026841Y829843D2*
D19*
Y798495D1*
D14*
X4007874Y779528D1*
Y637795D1*
X4039370Y606299D1*
X4149606D1*
X4169291Y586614D1*
X4173739Y561626D1*
X3987471Y829843D2*
D19*
Y803661D1*
D14*
Y614891D1*
X4023622Y578740D1*
X4098936D1*
Y561626D1*
X4098731Y732503D2*
Y767411D1*
X4102362Y771042D1*
Y803661D1*
D19*
X4105581D1*
Y829843D1*
X3967786D2*
Y803661D1*
D14*
Y547962D1*
X3956693Y536869D1*
Y523622D1*
X3605619Y675071D2*
D23*
X3488189Y557640D1*
Y480315D1*
X3770936Y829843D2*
D14*
Y802432D1*
X3718583Y750079D1*
X3668126D1*
D15*
X3605619Y687572D1*
D14*
Y675071D1*
X3716535Y724409D2*
D15*
X3680423Y688297D1*
D14*
Y675071D1*
X3790621Y829843D2*
D19*
Y794558D1*
D14*
X3680423Y684360D1*
Y675071D1*
X3711881Y829843D2*
D19*
X3705630D1*
D15*
X3663370D1*
X3636873Y856340D1*
D14*
X3613493D1*
X3770936Y1125118D2*
D19*
Y1151299D1*
D14*
Y1172324D1*
X3736883Y1206377D1*
D15*
X3673545D1*
X3618110Y1261811D1*
D14*
Y1271654D1*
X3602362Y1287402D1*
D23*
X3488189Y1401575D1*
Y1440655D1*
X3677165Y1287402D2*
D14*
X3692913D1*
Y1267717D1*
D15*
X3721457Y1239173D1*
X3745079D1*
D14*
X3790621Y1193631D1*
Y1151299D1*
D19*
Y1125118D1*
X3731566D2*
Y1151299D1*
D14*
Y1168873D1*
D15*
X3613493D1*
D14*
X3607243Y1162622D1*
D23*
X3488189D1*
Y1120542D1*
X3607243Y1087819D2*
D15*
X3630827D1*
X3668126Y1125118D1*
X3704724D1*
D19*
X3711881D1*
X3303150Y480315D2*
D23*
Y561024D1*
X3261811Y602362D1*
X3220472D1*
X3204724D1*
X2866142Y940945D1*
X2748031D1*
X3303150Y800428D2*
Y886811D1*
X3220472D1*
X3016732Y1090551D1*
X2775591D1*
X2763780Y1078740D1*
X2748031D1*
X3303150Y1440655D2*
Y1374016D1*
X3220472D1*
X2783465D1*
D14*
Y1385827D1*
X2748031D1*
Y1354331D1*
X3303150Y1120542D2*
D23*
Y1098425D1*
X3220472D1*
X3188976D1*
X3055118Y1232283D1*
X2748031D1*
Y1216535D1*
X3869361Y1125118D2*
D19*
Y1141732D1*
D14*
Y1184322D1*
X3921260Y1236220D1*
Y1354331D1*
X4011811Y1444882D1*
X4019685D1*
X4027559D1*
X4098425Y1515748D1*
X4019685Y1519685D2*
X3944882Y1444882D1*
X3937008D1*
X3849676Y1125118D2*
D19*
Y1141732D1*
D14*
Y1194156D1*
X3901575Y1246055D1*
Y1377953D1*
X3937008Y1413386D1*
Y1444882D1*
X4118110Y1165354D2*
X4130896D1*
X4144951Y1151299D1*
D19*
Y1125118D1*
X4165354Y791339D2*
D14*
Y802944D1*
X4164636Y803661D1*
D19*
Y829843D1*
Y1125118D2*
Y1161417D1*
X4169291D1*
X3318903Y1696850D2*
D24*
X3204724D1*
X3035433Y1527559D1*
X3000000D1*
X3889761Y1625984D2*
D14*
Y1480312D1*
X3877953Y1468504D1*
Y1376556D1*
X3878937Y1375572D1*
X3928416Y829843D2*
D19*
Y803661D1*
D14*
Y770936D1*
X3897638Y740157D1*
Y681102D1*
X3893701Y677165D1*
X4426181Y996063D2*
D21*
X4468504D1*
X4480315Y1007874D1*
Y1158465D1*
X4433071Y1205709D1*
Y1339567D1*
X4457283Y1363780D1*
X4496063D1*
X4406496Y464567D2*
D14*
X4378937Y492126D1*
X4331693D1*
X4314961Y475394D1*
Y448819D1*
X4525591Y569882D2*
D21*
X4519685D1*
X4482283Y607283D1*
Y657480D1*
X4495079Y670276D1*
Y1174213D1*
X4461614Y1207677D1*
X4325787Y516732D2*
D14*
Y592520D1*
X4366142Y632874D1*
Y700787D1*
X4525591Y635827D2*
D21*
Y1214567D1*
X4496063Y1244094D1*
Y1263780D1*
X4125984Y791339D2*
D14*
Y802944D1*
X4125266Y803661D1*
D19*
Y829843D1*
X3731566D2*
D14*
Y801017D1*
D18*
X3718131Y787583D1*
X3613493D1*
Y781537D1*
D23*
X3507080D1*
X3488189Y800428D1*
X3972441Y452756D2*
D14*
X4015748D1*
X4019685Y448819D1*
X4070866Y437008D2*
Y446850D1*
X4068898Y448819D1*
X4118110Y437008D2*
Y448819D1*
X4169291Y437008D2*
Y446850D1*
X4167323Y448819D1*
X4216535Y437008D2*
Y448819D1*
X3814961Y476378D2*
Y714567D1*
X3870079Y769685D1*
Y802944D1*
X3869361Y803661D1*
D19*
Y829843D1*
X4303150Y631891D2*
D14*
Y573819D1*
X4265748Y536417D1*
Y448819D1*
X4438976Y437008D2*
Y437992D1*
X4375000D1*
X4364173Y448819D1*
X4525591Y604331D2*
D21*
X4520669D1*
X4502953Y622047D1*
Y648622D1*
X4510827Y656496D1*
Y1187008D1*
X4449803Y1248031D1*
Y1294291D1*
X4462598Y1307087D1*
D13*
X3657480Y1358268D3*
D78*
X4043307Y669291D3*
X4515748Y496063D3*
D18*
X4169291Y1161417D3*
X4165354Y791339D3*
X4118110Y1165354D3*
X4125984Y791339D3*
X4039370Y1165354D3*
X4003937Y1157480D3*
X4525591Y635827D3*
Y604331D3*
Y569882D3*
X4461614Y1207677D3*
X4462598Y1307087D3*
D13*
X3826772Y779528D3*
D25*
X3948819Y885827D3*
D78*
X4007874Y944882D3*
D25*
X4311024Y1283465D3*
D18*
X3878937Y1375572D3*
D25*
X4165354Y1283465D3*
D78*
X4484252Y466535D3*
D25*
X4082677Y1173228D3*
D78*
X3401575Y598425D3*
X4381890Y976378D3*
X3874016D3*
D25*
X3423944Y877343D3*
D78*
X3759843Y976378D3*
X4141732D3*
X4381890Y767717D3*
X3070866Y370079D3*
D25*
X3393701Y1370079D3*
D78*
X2854331Y1012795D3*
D25*
X3425197Y1322835D3*
D78*
X3401575Y370079D3*
Y679790D3*
X2854331Y1298228D3*
Y1440945D3*
Y870079D3*
D18*
X4325787Y516732D3*
X3275591Y1624016D3*
D78*
X2854331Y1155512D3*
X3464567Y1868110D3*
D18*
X3303150Y1624016D3*
D25*
X3366142Y1322835D3*
X3370257Y877343D3*
D18*
X3972441Y452756D3*
X4070866Y437008D3*
X4118110D3*
X4169291D3*
D78*
X3632705Y590551D3*
D18*
X4216535Y437008D3*
D78*
X3627953Y492126D3*
D18*
X3259843Y1771654D3*
D78*
X3921260Y1868110D3*
D18*
X3303150Y1771654D3*
D78*
X4263780Y976378D3*
Y767717D3*
D18*
X3814961Y476378D3*
X3275591Y1578740D3*
X3303150D3*
X3289370Y1600394D3*
X3259843Y1812992D3*
X3303150D3*
X3281496Y1793307D3*
X4438976Y437008D3*
X4406496Y464567D3*
X4426181Y996063D3*
X3670492Y756806D2*
D27*
X3722016D1*
X3670492Y753000D2*
X3722016D1*
X3722406Y760612D2*
X3670102D1*
X3670094Y752054D1*
X3722406Y752047D1*
X3722413Y760605D1*
X2694243Y1872080D2*
D28*
X4083559D1*
X4341614D2*
X4442975D1*
X2787255Y1847211D2*
X2949152D1*
X3050824D2*
X3989148D1*
X4081705D2*
X4098487D1*
X4326722D2*
X4355310D1*
X2802362Y1822343D2*
X2915924D1*
X3084089D2*
X3735841D1*
X3846843D2*
X3866352D1*
X3913157D2*
X3977270D1*
X4093583D2*
X4165411D1*
X4259798D2*
X4343432D1*
X4459709D2*
X4521597D1*
X2805089Y1797474D2*
X2906091D1*
X3093921D2*
X3735841D1*
X3939604D2*
X3977773D1*
X4093080D2*
X4166056D1*
X4259152D2*
X4343934D1*
X4459243D2*
X4521597D1*
X2797409Y1772605D2*
X2907060D1*
X3092953D2*
X3735841D1*
X3945273D2*
X3991121D1*
X4079768D2*
X4184609D1*
X4240564D2*
X4357248D1*
X4445894D2*
X4521597D1*
X2622475Y1747736D2*
X2645320D1*
X2772004D2*
X2895290D1*
X3080572D2*
X3187925D1*
X3372274D2*
X3419055D1*
X3587652D2*
X3735841D1*
X3938528D2*
X4521597D1*
X2622475Y1722867D2*
X2707688D1*
X2796226D2*
X2859442D1*
X2967322D2*
X3153476D1*
X3372274D2*
X3419055D1*
X3622101D2*
X3735841D1*
X3846843D2*
X3871950D1*
X3907559D2*
X4521597D1*
X2622475Y1697999D2*
X2683286D1*
X2820627D2*
X2849143D1*
X2977621D2*
X3128609D1*
X3374248D2*
X3417081D1*
X3646969D2*
X4448249D1*
X2622475Y1673130D2*
X2673454D1*
X2830459D2*
X2848175D1*
X2978589D2*
X3103741D1*
X3372274D2*
X3419055D1*
X3671836D2*
X3735841D1*
X3846843D2*
X3863014D1*
X3916495D2*
X4437556D1*
X2622475Y1648261D2*
X2672413D1*
X2831500D2*
X2848175D1*
X2978589D2*
X3078874D1*
X3372274D2*
X3419055D1*
X3696703D2*
X3735841D1*
X3940357D2*
X4022950D1*
X4118773D2*
X4179083D1*
X4246126D2*
X4438920D1*
X2622475Y1623392D2*
X2679769D1*
X2824180D2*
X2848353D1*
X2978409D2*
X3054005D1*
X3208499D2*
X3567077D1*
X3711165D2*
X3735841D1*
X3945202D2*
X4012329D1*
X4129395D2*
X4164945D1*
X4260265D2*
X4453633D1*
X2622475Y1598524D2*
X2699039D1*
X2804909D2*
X2855530D1*
X2971234D2*
X3029138D1*
X3183631D2*
X3591946D1*
X3712852D2*
X3735841D1*
X3937594D2*
X4013764D1*
X4127959D2*
X4166739D1*
X4258471D2*
X4448644D1*
X2622475Y1573655D2*
X2664375D1*
X2752950D2*
X2879537D1*
X3158764D2*
X3245843D1*
X3360469D2*
X3430861D1*
X3545524D2*
X3602136D1*
X3922092D2*
X4028584D1*
X4113176D2*
X4188126D1*
X4237084D2*
X4437629D1*
X2793283Y1548786D2*
X2908962D1*
X3133896D2*
X3245843D1*
X3360469D2*
X3430861D1*
X3545524D2*
X3602136D1*
X4224631D2*
X4269223D1*
X4281953D2*
X4438777D1*
X2804192Y1523917D2*
X2905374D1*
X3109029D2*
X3245843D1*
X3360469D2*
X3430861D1*
X3545524D2*
X3602136D1*
X4325143D2*
X4453130D1*
X2804049Y1499049D2*
X2912119D1*
X3087857D2*
X3245843D1*
X3360469D2*
X3430861D1*
X3545524D2*
X3602136D1*
X4334474D2*
X4449039D1*
X2792816Y1474180D2*
X2935085D1*
X3064927D2*
X3165104D1*
X3360469D2*
X3430861D1*
X3545524D2*
X3602136D1*
X4331962D2*
X4437736D1*
X2622475Y1449311D2*
X2669686D1*
X2747639D2*
X3165104D1*
X3360469D2*
X3430861D1*
X3545524D2*
X3602136D1*
X4315419D2*
X4438633D1*
X2622475Y1424442D2*
X3165104D1*
X3360469D2*
X3430861D1*
X3545524D2*
X3602136D1*
X4306627D2*
X4452592D1*
X2622475Y1399573D2*
X2669041D1*
X3360469D2*
X3430861D1*
X3559088D2*
X3602136D1*
X4286783D2*
X4449470D1*
X2622475Y1374705D2*
X2669041D1*
X3360469D2*
X3430861D1*
X3583955D2*
X3602136D1*
X4261916D2*
X4427150D1*
X2622475Y1349836D2*
X2669041D1*
X3360469D2*
X3430861D1*
X4236509D2*
X4405332D1*
X2622475Y1324967D2*
X2669041D1*
X2827014D2*
X3245843D1*
X3360469D2*
X3430861D1*
X4157707D2*
X4403323D1*
X2622475Y1300098D2*
X2669041D1*
X2827014D2*
X3520787D1*
X4348899D2*
X4403323D1*
X2622475Y1275230D2*
X2702126D1*
X3076589D2*
X3545655D1*
X4351734D2*
X4403323D1*
X2622475Y1250361D2*
X2677975D1*
X3105942D2*
X3245843D1*
X3360469D2*
X3430861D1*
X4334294D2*
X4403323D1*
X2622475Y1225492D2*
X2669650D1*
X3130810D2*
X3245843D1*
X3360469D2*
X3430861D1*
X3545524D2*
X3600558D1*
X4220290D2*
X4264415D1*
X4370644D2*
X4403323D1*
X2622475Y1200623D2*
X2670942D1*
X3360469D2*
X3430861D1*
X4135280D2*
X4248123D1*
X4386936D2*
X4403790D1*
X2622475Y1175755D2*
X2682497D1*
X2813558D2*
X3042738D1*
X3360469D2*
X3430861D1*
X4201702D2*
X4247155D1*
X4387904D2*
X4421983D1*
X2622475Y1150886D2*
X2717735D1*
X2778320D2*
X3067606D1*
X3360469D2*
X3430861D1*
X4203245D2*
X4257597D1*
X4377462D2*
X4446850D1*
X2622475Y1126017D2*
X2687951D1*
X3049999D2*
X3092474D1*
X3360469D2*
X3430861D1*
X4196068D2*
X4450546D1*
X2622475Y1101148D2*
X2672808D1*
X3075046D2*
X3117341D1*
X3360469D2*
X3430861D1*
X4196068D2*
X4450546D1*
X2622475Y1076280D2*
X2669112D1*
X3099913D2*
X3142209D1*
X3360469D2*
X3430861D1*
X3673164D2*
X4450546D1*
X2622475Y1051411D2*
X2674745D1*
X3124781D2*
X3165104D1*
X3360469D2*
X3430861D1*
X3662614D2*
X4450546D1*
X2622475Y1026542D2*
X2693155D1*
X2802936D2*
X3011841D1*
X3149650D2*
X3245843D1*
X3360469D2*
X3430861D1*
X3545524D2*
X4410608D1*
X2622475Y1001673D2*
X2705749D1*
X2790304D2*
X3036710D1*
X3174517D2*
X3245843D1*
X3360469D2*
X3430861D1*
X3545524D2*
X4390979D1*
X2622475Y976804D2*
X2679160D1*
X2898962D2*
X3061577D1*
X3199385D2*
X4396684D1*
X2622475Y951936D2*
X2669937D1*
X2924046D2*
X3086445D1*
X3224252D2*
X4465331D1*
X2622475Y927067D2*
X2670475D1*
X2948913D2*
X3111312D1*
X3360469D2*
X3430861D1*
X3545524D2*
X4465331D1*
X2622475Y902198D2*
X2681062D1*
X2973781D2*
X3136181D1*
X3360469D2*
X3430861D1*
X3545524D2*
X3558143D1*
X3668857D2*
X3910848D1*
X3986791D2*
X4465331D1*
X2622475Y877329D2*
X2711993D1*
X2784097D2*
X2860877D1*
X2998648D2*
X3063336D1*
X3360469D2*
X3430861D1*
X3545524D2*
X3558143D1*
X3669755D2*
X3908193D1*
X3989446D2*
X4465331D1*
X2622475Y852461D2*
X2885745D1*
X3023516D2*
X3063336D1*
X3360469D2*
X3430861D1*
X3545524D2*
X3558143D1*
X4196068D2*
X4465331D1*
X2622475Y827592D2*
X2910613D1*
X3048385D2*
X3063336D1*
X3360469D2*
X3430861D1*
X4196068D2*
X4465331D1*
X2622475Y802723D2*
X2935480D1*
X3360469D2*
X3430861D1*
X4199010D2*
X4465331D1*
X2622475Y777854D2*
X2960348D1*
X3098119D2*
X3165104D1*
X3360469D2*
X3430861D1*
X4224955D2*
X4465331D1*
X2622475Y752986D2*
X2791728D1*
X2872049D2*
X2908997D1*
X2961077D2*
X2985215D1*
X3122987D2*
X3245843D1*
X3360469D2*
X3430861D1*
X4224955D2*
X4465331D1*
X2622475Y728117D2*
X2774217D1*
X2984223D2*
X3010084D1*
X3147856D2*
X3245843D1*
X3360469D2*
X3430861D1*
X3545524D2*
X3592304D1*
X4224955D2*
X4315694D1*
X4416576D2*
X4465331D1*
X2622475Y703248D2*
X2770808D1*
X2988206D2*
X3034951D1*
X3172723D2*
X3245843D1*
X3360469D2*
X3430861D1*
X4224955D2*
X4315694D1*
X4416576D2*
X4465331D1*
X2622475Y678379D2*
X2778559D1*
X2979020D2*
X3059819D1*
X3197591D2*
X3245843D1*
X3360469D2*
X3430861D1*
X4224631D2*
X4315694D1*
X4416576D2*
X4462136D1*
X2622475Y653510D2*
X2696600D1*
X2874238D2*
X2910038D1*
X2960037D2*
X3084686D1*
X3222458D2*
X3515154D1*
X4224631D2*
X4252717D1*
X4398455D2*
X4452520D1*
X2622475Y628642D2*
X2696600D1*
X2997715D2*
X3109555D1*
X3304417D2*
X3490286D1*
X4224631D2*
X4252717D1*
X4398168D2*
X4452520D1*
X2622475Y603773D2*
X2696600D1*
X3022583D2*
X3134423D1*
X3360469D2*
X3430861D1*
X3603226D2*
X3647925D1*
X4225171D2*
X4252717D1*
X4416576D2*
X4452735D1*
X2622475Y578904D2*
X2696600D1*
X3047451D2*
X3159290D1*
X3360469D2*
X3430861D1*
X3578357D2*
X3647925D1*
X4225171D2*
X4263554D1*
X4416576D2*
X4469601D1*
X2622475Y554035D2*
X2793020D1*
X2870757D2*
X2911115D1*
X2958961D2*
X2982991D1*
X3072319D2*
X3165104D1*
X3360469D2*
X3430861D1*
X3553490D2*
X3647925D1*
X4225171D2*
X4239189D1*
X4416576D2*
X4493966D1*
X2622475Y529167D2*
X2774612D1*
X2983757D2*
X3007858D1*
X3097186D2*
X3165104D1*
X3360469D2*
X3430861D1*
X3545524D2*
X3647925D1*
X4416576D2*
X4521597D1*
X2622475Y504298D2*
X2770736D1*
X2988314D2*
X3032727D1*
X3122054D2*
X3165104D1*
X3360469D2*
X3430861D1*
X3545524D2*
X3647925D1*
X4082925D2*
X4233411D1*
X4411445D2*
X4521597D1*
X2622475Y479429D2*
X2777984D1*
X2979738D2*
X3057594D1*
X3360469D2*
X3430861D1*
X3545524D2*
X3647710D1*
X4438646D2*
X4521597D1*
X2622475Y454560D2*
X2804682D1*
X2859094D2*
X3082462D1*
X3360469D2*
X3430861D1*
X3545524D2*
X3647710D1*
X4469613D2*
X4521597D1*
X2622475Y429692D2*
X3107975D1*
X3360469D2*
X3430861D1*
X3545524D2*
X3647710D1*
X4473811D2*
X4521597D1*
X2622475Y404823D2*
X3245843D1*
X3360469D2*
X3430861D1*
X3545524D2*
X3647710D1*
X4490390D2*
X4521597D1*
X2680356Y379954D2*
X3245843D1*
X3360469D2*
X3430861D1*
X3545524D2*
X3893480D1*
X3996301D2*
X4387570D1*
X4490390D2*
X4521597D1*
X2693669Y355085D2*
X3245843D1*
X3360469D2*
X3430861D1*
X3545524D2*
X3893480D1*
X3996301D2*
X4387570D1*
X4490390D2*
X4521597D1*
X2693705Y330217D2*
X3893480D1*
X3996301D2*
X4387570D1*
X4490390D2*
X4521597D1*
X3919585Y1568602D2*
X4036984D1*
X4030709Y1574016D1*
X4024921Y1580793D1*
X4020265Y1588391D1*
X4016854Y1596623D1*
X4014774Y1605289D1*
X4014075Y1614173D1*
X4014774Y1623058D1*
X4016854Y1631723D1*
X4020265Y1639955D1*
X4024921Y1647554D1*
X4030709Y1654331D1*
X4037486Y1660118D1*
X4045084Y1664774D1*
X4053316Y1668185D1*
X4061982Y1670265D1*
X4070866Y1670965D1*
X4079751Y1670265D1*
X4088416Y1668185D1*
X4096648Y1664774D1*
X4104247Y1660118D1*
X4111024Y1654331D1*
X4116811Y1647554D1*
X4121467Y1639955D1*
X4124878Y1631723D1*
X4126958Y1623058D1*
X4127657Y1614173D1*
X4126958Y1605289D1*
X4124878Y1596623D1*
X4121467Y1588391D1*
X4116811Y1580793D1*
X4111024Y1574016D1*
X4104726Y1568605D1*
X4205387Y1568644D1*
X4198354Y1570333D1*
X4191672Y1573101D1*
X4185504Y1576881D1*
X4180004Y1581579D1*
X4175306Y1587079D1*
X4171526Y1593247D1*
X4168759Y1599929D1*
X4167070Y1606962D1*
X4166503Y1614173D1*
X4167070Y1621385D1*
X4168759Y1628417D1*
X4171526Y1635100D1*
X4175306Y1641268D1*
X4180004Y1646768D1*
X4185504Y1651466D1*
X4191672Y1655245D1*
X4198354Y1658013D1*
X4205387Y1659702D1*
X4212598Y1660269D1*
X4219810Y1659702D1*
X4226843Y1658013D1*
X4233525Y1655245D1*
X4239693Y1651466D1*
X4245193Y1646768D1*
X4249891Y1641268D1*
X4253671Y1635100D1*
X4256438Y1628417D1*
X4258127Y1621385D1*
X4258694Y1614173D1*
X4258127Y1606962D1*
X4256438Y1599929D1*
X4253671Y1593247D1*
X4249891Y1587079D1*
X4245193Y1581579D1*
X4239693Y1576881D1*
X4233525Y1573101D1*
X4226843Y1570333D1*
X4219458Y1568604D1*
X4222146Y1568602D1*
Y1511339D1*
X4224990Y1517908D1*
X4229646Y1525507D1*
X4235433Y1532283D1*
X4242210Y1538071D1*
X4249808Y1542727D1*
X4258041Y1546138D1*
X4266706Y1548218D1*
X4275591Y1548917D1*
X4284475Y1548218D1*
X4293140Y1546138D1*
X4301373Y1542727D1*
X4308971Y1538071D1*
X4315748Y1532283D1*
X4321535Y1525507D1*
X4326192Y1517908D1*
X4329602Y1509676D1*
X4331682Y1501010D1*
X4332382Y1492126D1*
X4331682Y1483241D1*
X4329602Y1474576D1*
X4326192Y1466344D1*
X4321535Y1458745D1*
X4315748Y1451969D1*
X4308971Y1446181D1*
X4305424Y1443810D1*
X4305322Y1430731D1*
X4304589Y1426109D1*
X4303143Y1421657D1*
X4301018Y1417488D1*
X4298268Y1413702D1*
X4244713Y1360017D1*
X4235904Y1351339D1*
X4232118Y1348588D1*
X4227949Y1346463D1*
X4223497Y1345017D1*
X4218875Y1344285D1*
X4155210Y1344193D1*
X4155217Y1321196D1*
X4162289Y1322419D1*
X4168420D1*
X4174476Y1321459D1*
X4180307Y1319566D1*
X4185770Y1316781D1*
X4190731Y1313177D1*
X4195067Y1308841D1*
X4196543Y1306969D1*
X4200822Y1311081D1*
X4205433Y1314432D1*
X4210510Y1317018D1*
X4215930Y1318780D1*
X4221560Y1319672D1*
X4270341Y1319783D1*
X4296644D1*
X4301902Y1321459D1*
X4307958Y1322419D1*
X4314089D1*
X4320146Y1321459D1*
X4325976Y1319566D1*
X4331440Y1316781D1*
X4336400Y1313177D1*
X4340736Y1308841D1*
X4344340Y1303881D1*
X4347125Y1298417D1*
X4349018Y1292587D1*
X4349978Y1286530D1*
Y1280399D1*
X4349018Y1274343D1*
X4347125Y1268512D1*
X4344340Y1263049D1*
X4340736Y1258088D1*
X4336400Y1253752D1*
X4331440Y1250148D1*
X4325976Y1247364D1*
X4320146Y1245470D1*
X4314089Y1244510D1*
X4307958D1*
X4301902Y1245470D1*
X4296667Y1247144D1*
X4239434Y1247146D1*
X4216501Y1224352D1*
X4211890Y1221001D1*
X4206812Y1218415D1*
X4201392Y1216654D1*
X4195762Y1215761D1*
X4155220Y1215650D1*
X4155217Y1203051D1*
X4134224D1*
X4131745Y1199125D1*
X4129972Y1196877D1*
X4130803Y1195999D1*
X4133236Y1195085D1*
X4137858Y1194353D1*
X4142310Y1192907D1*
X4146479Y1190782D1*
X4148433Y1189476D1*
X4151961Y1189698D1*
X4156598Y1192062D1*
X4161549Y1193671D1*
X4166689Y1194484D1*
X4171894D1*
X4177034Y1193671D1*
X4181984Y1192062D1*
X4186622Y1189698D1*
X4190833Y1186639D1*
X4194513Y1182959D1*
X4197572Y1178748D1*
X4199936Y1174110D1*
X4201545Y1169160D1*
X4202358Y1164020D1*
Y1158815D1*
X4201545Y1153675D1*
X4199936Y1148724D1*
X4197572Y1144087D1*
X4194513Y1139875D1*
X4193567Y1138852D1*
X4193573Y1082106D1*
X4076644D1*
X3997904Y1082142D1*
X3919164D1*
X3820739Y1082106D1*
X3761684Y1082142D1*
X3682944Y1082106D1*
Y1088601D1*
X3660105Y1065734D1*
X3660097Y1038902D1*
X3554388D1*
Y1115678D1*
X3543046Y1115673D1*
X3543012Y985010D1*
X3433366D1*
Y1256073D1*
X3543012D1*
Y1209604D1*
X3554395Y1209571D1*
X3554388Y1211539D1*
X3617007D1*
X3594014Y1234545D1*
X3553445Y1234547D1*
Y1269892D1*
X3518239Y1305129D1*
X3433366Y1305123D1*
Y1576186D1*
X3543012D1*
Y1413164D1*
X3605146Y1351013D1*
X3604626Y1358268D1*
Y1588341D1*
X3548983Y1643986D1*
X3523320Y1643996D1*
X3523327Y1632185D1*
X3421555D1*
Y1682530D1*
X3420238Y1688583D1*
X3419587Y1696850D1*
X3420238Y1705118D1*
X3421552Y1710983D1*
X3421555Y1761516D1*
X3523327D1*
Y1749710D1*
X3575013Y1749542D1*
X3583205Y1748244D1*
X3591093Y1745681D1*
X3598483Y1741916D1*
X3605193Y1737041D1*
X3627727Y1714738D1*
X3697671Y1644563D1*
X3702546Y1637853D1*
X3706311Y1630463D1*
X3708874Y1622575D1*
X3710172Y1614383D1*
X3710335Y1592761D1*
X3742379Y1560714D1*
X3859944Y1560728D1*
X3859938Y1582188D1*
X3855333Y1585673D1*
X3849450Y1591556D1*
X3844346Y1598669D1*
X3844353Y1572972D1*
X3738329D1*
Y1678996D1*
X3844353D1*
X3844562Y1653682D1*
X3849450Y1660412D1*
X3855333Y1666295D1*
X3862063Y1671184D1*
X3869475Y1674961D1*
X3877386Y1677531D1*
X3885602Y1678832D1*
X3893920D1*
X3902136Y1677531D1*
X3910047Y1674961D1*
X3917459Y1671184D1*
X3924189Y1666295D1*
X3930072Y1660412D1*
X3934961Y1653682D1*
X3938738Y1646270D1*
X3941308Y1638360D1*
X3942609Y1630143D1*
Y1621825D1*
X3941308Y1613609D1*
X3938738Y1605698D1*
X3934961Y1598286D1*
X3930072Y1591556D1*
X3924189Y1585673D1*
X3919583Y1582202D1*
X3919584Y1568605D1*
X3650425Y547451D2*
X3650424Y622213D1*
X3619192Y622217D1*
X3543030Y546087D1*
X3543012Y344783D1*
X3433366D1*
Y615846D1*
X3479980D1*
X3529058Y664904D1*
X3433366Y664896D1*
Y935959D1*
X3543012D1*
Y828486D1*
X3560655D1*
X3560639Y905257D1*
X3666348D1*
Y878236D1*
X3678413Y866163D1*
X3682927Y866161D1*
X3682944Y872854D1*
X3811391Y872950D1*
X3818364Y875329D1*
X3825622Y876588D1*
X3832988Y876696D1*
X3840281Y875650D1*
X3847320Y873476D1*
X3848728Y872852D1*
X3911930Y872854D1*
X3910226Y879714D1*
X3909744Y885827D1*
X3910226Y891940D1*
X3911656Y897902D1*
X3914003Y903567D1*
X3917207Y908794D1*
X3921189Y913457D1*
X3925852Y917438D1*
X3931079Y920643D1*
X3936744Y922990D1*
X3942706Y924420D1*
X3948819Y924902D1*
X3954932Y924420D1*
X3960894Y922990D1*
X3966559Y920643D1*
X3971786Y917438D1*
X3976449Y913457D1*
X3980430Y908794D1*
X3983635Y903567D1*
X3985982Y897902D1*
X3987412Y891940D1*
X3987894Y885827D1*
X3987412Y879714D1*
X3985654Y872864D1*
X4193573Y872854D1*
X4193718Y812159D1*
X4194811Y807600D1*
X4197608Y799081D1*
X4198421Y793941D1*
Y788736D1*
X4198108Y785357D1*
X4222451D1*
Y679648D1*
X4222143D1*
X4222146Y614479D1*
X4222656Y614480D1*
Y508772D1*
X4080427D1*
X4080413Y495773D1*
X4235916Y495768D1*
X4236017Y538757D1*
X4236749Y543379D1*
X4238196Y547829D1*
X4240320Y552000D1*
X4243071Y555786D1*
X4273307Y586152D1*
X4268406Y590848D1*
X4255217D1*
Y672934D1*
X4318193D1*
X4318209Y741831D1*
X4414075D1*
Y659744D1*
X4395954D1*
X4395873Y630534D1*
X4395140Y625912D1*
X4393694Y621461D1*
X4391570Y617291D1*
X4388819Y613505D1*
X4379491Y604047D1*
X4414075Y604035D1*
Y521949D1*
X4381277Y521857D1*
X4385899Y521125D1*
X4390349Y519678D1*
X4394520Y517554D1*
X4398306Y514803D1*
X4417304Y495934D1*
X4421555Y494121D1*
X4425992Y491402D1*
X4429950Y488021D1*
X4433331Y484063D1*
X4436050Y479626D1*
X4438042Y474816D1*
X4439172Y470185D1*
X4444165Y469769D1*
X4449226Y468554D1*
X4454035Y466562D1*
X4458472Y463843D1*
X4462430Y460462D1*
X4465811Y456504D1*
X4468530Y452067D1*
X4470522Y447257D1*
X4471738Y442197D1*
X4472146Y437008D1*
X4471738Y431819D1*
X4470522Y426759D1*
X4469531Y424121D1*
X4487894Y424114D1*
Y327463D1*
X4524067Y327461D1*
X4524091Y536761D1*
X4517848Y537629D1*
X4512898Y539238D1*
X4508260Y541601D1*
X4504049Y544660D1*
X4500369Y548340D1*
X4497310Y552551D1*
X4495904Y555110D1*
X4461552Y589577D1*
X4459037Y593038D1*
X4457094Y596850D1*
X4455773Y600919D1*
X4455104Y605144D1*
X4455020Y657480D1*
X4455356Y661745D1*
X4456354Y665906D1*
X4457991Y669858D1*
X4460227Y673505D1*
X4463005Y676759D1*
X4467814Y681567D1*
X4467815Y968797D1*
X4445072Y968799D1*
X4441240Y966509D1*
X4436430Y964517D1*
X4431370Y963302D1*
X4426181Y962894D1*
X4420992Y963302D1*
X4415932Y964517D1*
X4411122Y966509D1*
X4406685Y969228D1*
X4402727Y972609D1*
X4399346Y976567D1*
X4396627Y981004D1*
X4394635Y985814D1*
X4393420Y990874D1*
X4393012Y996063D1*
X4393420Y1001252D1*
X4394635Y1006312D1*
X4396627Y1011122D1*
X4399346Y1015559D1*
X4402727Y1019517D1*
X4406685Y1022898D1*
X4411122Y1025617D1*
X4415932Y1027609D1*
X4420992Y1028824D1*
X4426181Y1029232D1*
X4431370Y1028824D1*
X4436430Y1027609D1*
X4441240Y1025617D1*
X4445043Y1023322D1*
X4453051Y1026247D1*
Y1147140D1*
X4412340Y1188003D1*
X4409824Y1191463D1*
X4407882Y1195276D1*
X4406560Y1199344D1*
X4405891Y1203570D1*
X4405807Y1306759D1*
X4405891Y1341706D1*
X4406560Y1345932D1*
X4407882Y1350000D1*
X4409824Y1353812D1*
X4412340Y1357273D1*
X4438005Y1383058D1*
X4441259Y1385836D1*
X4443046Y1387030D1*
X4445462Y1389562D1*
X4450118Y1397160D1*
X4455906Y1403937D1*
X4462682Y1409724D1*
X4469171Y1413760D1*
X4462682Y1417835D1*
X4455906Y1423622D1*
X4450118Y1430399D1*
X4445462Y1437997D1*
X4442051Y1446230D1*
X4439971Y1454895D1*
X4439272Y1463780D1*
X4439971Y1472664D1*
X4442051Y1481329D1*
X4445462Y1489562D1*
X4450118Y1497160D1*
X4455906Y1503937D1*
X4462682Y1509724D1*
X4469171Y1513760D1*
X4462682Y1517835D1*
X4455906Y1523622D1*
X4450118Y1530399D1*
X4445462Y1537997D1*
X4442051Y1546230D1*
X4439971Y1554895D1*
X4439272Y1563780D1*
X4439971Y1572664D1*
X4442051Y1581329D1*
X4445462Y1589562D1*
X4450118Y1597160D1*
X4455906Y1603937D1*
X4462682Y1609724D1*
X4469171Y1613760D1*
X4462682Y1617835D1*
X4455906Y1623622D1*
X4450118Y1630399D1*
X4445462Y1637997D1*
X4442051Y1646230D1*
X4439971Y1654895D1*
X4439272Y1663780D1*
X4439971Y1672664D1*
X4442051Y1681329D1*
X4445462Y1689562D1*
X4450118Y1697160D1*
X4455906Y1703937D1*
X4462682Y1709724D1*
X4470281Y1714381D1*
X4478513Y1717791D1*
X4487178Y1719871D1*
X4496063Y1720571D1*
X4504948Y1719871D1*
X4513613Y1717791D1*
X4521845Y1714381D1*
X4524080Y1713130D1*
X4524091Y1828735D1*
X4516941Y1825814D1*
X4508576Y1823804D1*
X4500000Y1823130D1*
X4491424Y1823804D1*
X4483059Y1825814D1*
X4475112Y1829105D1*
X4467776Y1833600D1*
X4461235Y1839188D1*
X4455647Y1845728D1*
X4451152Y1853064D1*
X4447861Y1861012D1*
X4445852Y1869377D1*
X4445177Y1877953D1*
X4445852Y1886529D1*
X4447861Y1894894D1*
X4448623Y1896961D1*
X4339264Y1896949D1*
X4339185Y1872546D1*
X4337001Y1862157D1*
X4335668Y1859539D1*
X4330185Y1851609D1*
X4327950Y1849701D1*
X4319852Y1844476D1*
X4317052Y1843568D1*
X4307087Y1841831D1*
X4246909D1*
X4251902Y1835109D1*
X4255185Y1828664D1*
X4257420Y1821785D1*
X4258552Y1814640D1*
Y1807407D1*
X4257420Y1800262D1*
X4255185Y1793383D1*
X4251902Y1786938D1*
X4247650Y1781087D1*
X4242535Y1775972D1*
X4236684Y1771720D1*
X4230239Y1768437D1*
X4223360Y1766202D1*
X4216215Y1765070D1*
X4208982D1*
X4201837Y1766202D1*
X4194958Y1768437D1*
X4188513Y1771720D1*
X4182661Y1775972D1*
X4177547Y1781087D1*
X4173295Y1786938D1*
X4170012Y1793383D1*
X4167777Y1800262D1*
X4166644Y1807407D1*
Y1814640D1*
X4167777Y1821785D1*
X4170012Y1828664D1*
X4173295Y1835109D1*
X4177547Y1840961D1*
X4178344Y1841822D1*
X4116640Y1841917D1*
X4106253Y1844101D1*
X4103634Y1845434D1*
X4095703Y1850919D1*
X4093795Y1853152D1*
X4088572Y1861249D1*
X4087664Y1864043D1*
X4085925Y1874016D1*
Y1896946D1*
X2690509Y1896949D1*
X2691944Y1890466D1*
X2692618Y1881890D1*
X2691944Y1873314D1*
X2690186Y1865839D1*
X2744178Y1865718D1*
X2751467Y1864818D1*
X2758602Y1863072D1*
X2765483Y1860504D1*
X2772017Y1857148D1*
X2778113Y1853052D1*
X2783689Y1848270D1*
X2788667Y1842870D1*
X2792979Y1836925D1*
X2796567Y1830516D1*
X2799381Y1823731D1*
X2801381Y1816664D1*
X2802541Y1809411D1*
X2802827Y1801312D1*
X2802182Y1793996D1*
X2800686Y1786806D1*
X2798360Y1779839D1*
X2795234Y1773192D1*
X2791353Y1766957D1*
X2786769Y1761218D1*
X2781545Y1756054D1*
X2775753Y1751537D1*
X2769472Y1747728D1*
X2762790Y1744681D1*
X2755798Y1742434D1*
X2748589Y1741022D1*
X2741266Y1740462D1*
X2672766Y1740608D1*
X2665482Y1741551D1*
X2658358Y1743340D1*
X2651492Y1745950D1*
X2644979Y1749345D1*
X2638908Y1753478D1*
X2633361Y1758293D1*
X2628416Y1763723D1*
X2624140Y1769696D1*
X2620592Y1776126D1*
X2619959Y1777501D1*
X2619957Y1537437D1*
X2623739Y1544619D1*
X2627942Y1550643D1*
X2632820Y1556134D1*
X2638308Y1561016D1*
X2644329Y1565222D1*
X2650801Y1568696D1*
X2657634Y1571388D1*
X2664736Y1573264D1*
X2672008Y1574295D1*
X2682677Y1574508D1*
X2744178Y1574379D1*
X2751467Y1573479D1*
X2758602Y1571734D1*
X2765483Y1569165D1*
X2772017Y1565810D1*
X2778113Y1561714D1*
X2783689Y1556932D1*
X2788667Y1551531D1*
X2792979Y1545587D1*
X2796567Y1539177D1*
X2799381Y1532392D1*
X2801381Y1525325D1*
X2802541Y1518072D1*
X2802827Y1509974D1*
X2802182Y1502657D1*
X2800686Y1495467D1*
X2798360Y1488500D1*
X2795234Y1481853D1*
X2791353Y1475618D1*
X2786769Y1469879D1*
X2781545Y1464715D1*
X2775753Y1460198D1*
X2769472Y1456390D1*
X2762790Y1453343D1*
X2755798Y1451096D1*
X2748589Y1449684D1*
X2741266Y1449123D1*
X2672766Y1449269D1*
X2665482Y1450213D1*
X2658358Y1452001D1*
X2651492Y1454612D1*
X2644979Y1458007D1*
X2638908Y1462139D1*
X2633361Y1466954D1*
X2628416Y1472385D1*
X2624140Y1478357D1*
X2620592Y1484787D1*
X2619959Y1486163D1*
X2619957Y394383D1*
X2629219Y396668D1*
X2637795Y397343D1*
X2646371Y396668D1*
X2654736Y394659D1*
X2662684Y391367D1*
X2670020Y386873D1*
X2676560Y381285D1*
X2682148Y374744D1*
X2686643Y367408D1*
X2689934Y359461D1*
X2691944Y351096D1*
X2692618Y342520D1*
X2691944Y333944D1*
X2690469Y327472D1*
X3895950Y327461D1*
X3895965Y388088D1*
X3822854Y388091D1*
X3822857Y386801D1*
X3650219D1*
X3650424Y502034D1*
Y547457D1*
X3599281Y732619D2*
X3560639D1*
Y734593D1*
X3542982Y734588D1*
X3543012Y678849D1*
X3556715Y692563D1*
X3556702Y727925D1*
X3594633D1*
X3248331Y763091D2*
X3167618D1*
Y789193D1*
X3162232Y788420D1*
X3155484D1*
X3151870Y788747D1*
Y788287D1*
X3085190D1*
X3222223Y651260D1*
X3273327Y651280D1*
Y647870D1*
X3279778Y645738D1*
X3286341Y642392D1*
X3292302Y638063D1*
X3314724Y615844D1*
X3357972Y615846D1*
Y344783D1*
X3248327D1*
Y405248D1*
X3188681Y405217D1*
Y405783D1*
X3181693Y405217D1*
X3174965Y405747D1*
X3168402Y407322D1*
X3162165Y409904D1*
X3156411Y413430D1*
X3151280Y417815D1*
X3146895Y422946D1*
X3145979Y424318D1*
X3125219Y424403D1*
X3120597Y425135D1*
X3116146Y426581D1*
X3111976Y428706D1*
X3108190Y431457D1*
X3054505Y485012D1*
X2969274Y570243D1*
X2964949Y566706D1*
X2958140Y562534D1*
X2950764Y559479D1*
X2944392Y557892D1*
X2950383Y556391D1*
X2957206Y553677D1*
X2963568Y550010D1*
X2969335Y545466D1*
X2974388Y540139D1*
X2978622Y534139D1*
X2981949Y527593D1*
X2984299Y520638D1*
X2985622Y513415D1*
X2985892Y506037D1*
X2985098Y498738D1*
X2983262Y491629D1*
X2980423Y484857D1*
X2976636Y478566D1*
X2971986Y472883D1*
X2966566Y467930D1*
X2960488Y463808D1*
X2953881Y460605D1*
X2946882Y458386D1*
X2939636Y457197D1*
X2932295Y457062D1*
X2925010Y457987D1*
X2917934Y459949D1*
X2911215Y462909D1*
X2904992Y466807D1*
X2899395Y471559D1*
X2894539Y477067D1*
X2890528Y483217D1*
X2887651Y489353D1*
X2885109Y482966D1*
X2881587Y476521D1*
X2877287Y470567D1*
X2872278Y465196D1*
X2866639Y460491D1*
X2860457Y456526D1*
X2853828Y453364D1*
X2846857Y451052D1*
X2839652Y449629D1*
X2832325Y449115D1*
X2824993Y449520D1*
X2817768Y450836D1*
X2810762Y453043D1*
X2804088Y456108D1*
X2797848Y459980D1*
X2792139Y464601D1*
X2787051Y469898D1*
X2782664Y475787D1*
X2779046Y482178D1*
X2776253Y488971D1*
X2774329Y496059D1*
X2773306Y503332D1*
X2773197Y510675D1*
X2774004Y517975D1*
X2775717Y525117D1*
X2778306Y531990D1*
X2781734Y538486D1*
X2785944Y544503D1*
X2790871Y549948D1*
X2796441Y554736D1*
X2800255Y557382D1*
X2699114D1*
Y663091D1*
X2793833D1*
X2788260Y668514D1*
X2783692Y674264D1*
X2779875Y680539D1*
X2776871Y687241D1*
X2774727Y694265D1*
X2773476Y701503D1*
X2773138Y708839D1*
X2773717Y716160D1*
X2775205Y723352D1*
X2777579Y730302D1*
X2780801Y736902D1*
X2784822Y743049D1*
X2789576Y748646D1*
X2794993Y753605D1*
X2800986Y757850D1*
X2807462Y761315D1*
X2814319Y763945D1*
X2821450Y765699D1*
X2828745Y766550D1*
X2836089Y766484D1*
X2843367Y765501D1*
X2850467Y763619D1*
X2857276Y760867D1*
X2863688Y757286D1*
X2869604Y752934D1*
X2874930Y747878D1*
X2879584Y742196D1*
X2883492Y735978D1*
X2886596Y729322D1*
X2887647Y726398D1*
X2889699Y730975D1*
X2893871Y737783D1*
X2899058Y743856D1*
X2905130Y749042D1*
X2911938Y753214D1*
X2919315Y756269D1*
X2927079Y758134D1*
X2935039Y758760D1*
X2943000Y758134D1*
X2950764Y756269D1*
X2958140Y753214D1*
X2964949Y749042D1*
X2971021Y743856D1*
X2976207Y737783D1*
X2980379Y730975D1*
X2983434Y723598D1*
X2985299Y715835D1*
X2985925Y707874D1*
X2985299Y699913D1*
X2983434Y692150D1*
X2980379Y684773D1*
X2976207Y677965D1*
X2971021Y671892D1*
X2964949Y666706D1*
X2958140Y662534D1*
X2950764Y659479D1*
X2944392Y657892D1*
X2950764Y656269D1*
X2958140Y653214D1*
X2964949Y649042D1*
X2971021Y643856D1*
X2976337Y637589D1*
X2980781Y636873D1*
X2985232Y635427D1*
X2989402Y633302D1*
X2993188Y630551D1*
X3046873Y576996D1*
X3139919Y483950D1*
X3145967Y483957D1*
X3148987Y487974D1*
X3153759Y492745D1*
X3159219Y496713D1*
X3165234Y499777D1*
X3167618Y500689D1*
Y573067D1*
X2846715Y893976D1*
X2805892Y893996D1*
X2800459Y888780D1*
X2791751Y882451D1*
X2782159Y877564D1*
X2771920Y874238D1*
X2761287Y872554D1*
X2740157Y872343D1*
X2734776Y872554D1*
X2724143Y874238D1*
X2713904Y877564D1*
X2704312Y882451D1*
X2695604Y888780D1*
X2687992Y896391D1*
X2681664Y905100D1*
X2676777Y914692D1*
X2673450Y924930D1*
X2671766Y935563D1*
Y946327D1*
X2673450Y956959D1*
X2676777Y967198D1*
X2681664Y976790D1*
X2687992Y985499D1*
X2695604Y993110D1*
X2704312Y999438D1*
X2713904Y1004325D1*
X2724143Y1007652D1*
X2734776Y1009336D1*
X2755906Y1009547D1*
X2766638Y1008702D1*
X2777105Y1006189D1*
X2787050Y1002070D1*
X2796228Y996445D1*
X2804415Y989454D1*
X2805857Y987894D1*
X2869825Y987749D1*
X2877102Y986597D1*
X2884109Y984320D1*
X2890672Y980975D1*
X2896633Y976646D1*
X2918827Y954656D1*
X3065869Y807613D1*
X3065846Y886122D1*
X3151870D1*
Y885555D1*
X3154795Y886092D1*
X2997299Y1043588D1*
X2814812Y1043602D1*
X2811406Y1038417D1*
X2804415Y1030231D1*
X2796228Y1023240D1*
X2787050Y1017615D1*
X2777105Y1013496D1*
X2766638Y1010983D1*
X2755906Y1010138D1*
X2734776Y1010349D1*
X2724143Y1012033D1*
X2713904Y1015360D1*
X2704312Y1020247D1*
X2695604Y1026575D1*
X2687992Y1034186D1*
X2681664Y1042895D1*
X2676777Y1052487D1*
X2673450Y1062726D1*
X2671766Y1073358D1*
Y1084122D1*
X2673450Y1094755D1*
X2676777Y1104993D1*
X2681664Y1114585D1*
X2687992Y1123294D1*
X2695604Y1130906D1*
X2704312Y1137234D1*
X2713904Y1142121D1*
X2724143Y1145448D1*
X2734776Y1147131D1*
X2755906Y1147343D1*
X2761287Y1147131D1*
X2771920Y1145448D1*
X2782159Y1142121D1*
X2791291Y1137491D1*
X3020416Y1137356D1*
X3027693Y1136203D1*
X3034699Y1133927D1*
X3041262Y1130581D1*
X3047223Y1126252D1*
X3069417Y1104262D1*
X3237925Y935753D1*
X3248322Y935728D1*
X3248327Y935959D1*
X3357972D1*
Y664896D1*
X3248327D1*
Y763112D1*
X3169455Y1497736D2*
X3248322D1*
X3248327Y1576186D1*
X3357972D1*
Y1305123D1*
X3248327D1*
Y1325110D1*
X3167618Y1325098D1*
Y1327072D1*
X2824491Y1327067D1*
X2824508Y1285728D1*
X2671555D1*
Y1422933D1*
X2824508D1*
Y1420959D1*
X3167605Y1420965D1*
X3167618Y1497736D1*
X3169455D1*
Y1222146D2*
X3248322D1*
X3248327Y1256073D1*
X3357972D1*
Y985010D1*
X3248327D1*
Y1049495D1*
X3167618Y1049508D1*
Y1056648D1*
X3161381Y1060442D1*
X3155769Y1065238D1*
X3035684Y1185323D1*
X2817026Y1185335D1*
X2811406Y1176213D1*
X2804415Y1168026D1*
X2796228Y1161035D1*
X2787050Y1155411D1*
X2777105Y1151291D1*
X2766638Y1148778D1*
X2755906Y1147933D1*
X2734776Y1148144D1*
X2724143Y1149828D1*
X2713904Y1153155D1*
X2704312Y1158042D1*
X2695604Y1164370D1*
X2687992Y1171982D1*
X2681664Y1180690D1*
X2676777Y1190282D1*
X2673450Y1200521D1*
X2671766Y1211154D1*
Y1221917D1*
X2673450Y1232550D1*
X2676777Y1242789D1*
X2681664Y1252381D1*
X2687992Y1261089D1*
X2695604Y1268701D1*
X2704312Y1275029D1*
X2713904Y1279916D1*
X2724143Y1283243D1*
X2734776Y1284927D1*
X2755906Y1285138D1*
X2766638Y1284293D1*
X2777105Y1281780D1*
X2783630Y1279238D1*
X3058802Y1279088D1*
X3066079Y1277936D1*
X3073085Y1275659D1*
X3079648Y1272314D1*
X3085609Y1267984D1*
X3107803Y1245995D1*
X3167609Y1186188D1*
X3167618Y1222146D1*
X3169455D1*
X2869909Y663091D2*
X2871752D1*
Y637720D1*
X2893871Y637783D1*
X2899058Y643856D1*
X2905130Y649042D1*
X2911938Y653214D1*
X2919315Y656269D1*
X2925686Y657856D1*
X2919315Y659479D1*
X2911938Y662534D1*
X2905130Y666706D1*
X2899058Y671892D1*
X2893871Y677965D1*
X2889699Y684773D1*
X2887665Y689382D1*
X2885109Y682966D1*
X2881587Y676521D1*
X2877287Y670567D1*
X2872278Y665196D1*
X2869919Y663088D1*
X2871752Y578081D2*
Y557382D1*
X2863688Y557286D1*
X2869604Y552934D1*
X2874930Y547878D1*
X2879584Y542196D1*
X2883492Y535978D1*
X2886596Y529322D1*
X2887647Y526398D1*
X2890508Y532497D1*
X2894514Y538650D1*
X2899366Y544161D1*
X2904961Y548917D1*
X2911180Y552820D1*
X2917898Y555786D1*
X2924971Y557753D1*
X2925600Y557869D1*
X2919315Y559479D1*
X2911938Y562534D1*
X2905130Y566706D1*
X2899058Y571892D1*
X2893811Y578055D1*
X2871776Y578051D1*
X3277203Y1761516D2*
X3369789D1*
Y1711171D1*
X3371106Y1705118D1*
X3371757Y1696850D1*
X3371106Y1688583D1*
X3369791Y1682718D1*
X3369789Y1632185D1*
X3268017D1*
Y1643991D1*
X3226644Y1643996D1*
X3088256Y1505634D1*
X3085391Y1499096D1*
X3080251Y1490707D1*
X3073861Y1483226D1*
X3066379Y1476836D1*
X3057991Y1471696D1*
X3048902Y1467930D1*
X3039336Y1465634D1*
X3029528Y1464862D1*
X2970472D1*
X2960664Y1465634D1*
X2951098Y1467930D1*
X2942009Y1471696D1*
X2933621Y1476836D1*
X2926139Y1483226D1*
X2919749Y1490707D1*
X2914609Y1499096D1*
X2910844Y1508185D1*
X2908547Y1517751D1*
X2907776Y1527559D1*
X2908547Y1537367D1*
X2910844Y1546933D1*
X2914609Y1556022D1*
X2919749Y1564411D1*
X2920761Y1565696D1*
X2912657Y1565260D1*
X2905331Y1565776D1*
X2898114Y1567144D1*
X2891108Y1569348D1*
X2884407Y1572356D1*
X2878104Y1576126D1*
X2872285Y1580608D1*
X2867030Y1585739D1*
X2862411Y1591450D1*
X2858492Y1597661D1*
X2855325Y1604290D1*
X2852957Y1611241D1*
X2851417Y1618424D1*
X2850728Y1625736D1*
X2850776Y1690301D1*
X2851591Y1697601D1*
X2853253Y1704755D1*
X2855741Y1711665D1*
X2859020Y1718238D1*
X2863046Y1724381D1*
X2867761Y1730012D1*
X2873104Y1735052D1*
X2878999Y1739433D1*
X2885366Y1743096D1*
X2892118Y1745987D1*
X2899161Y1748070D1*
X2906400Y1749315D1*
X2913735Y1749703D1*
X2920701Y1749272D1*
X2916490Y1755516D1*
X2913131Y1762047D1*
X2910559Y1768928D1*
X2908810Y1776060D1*
X2907907Y1783350D1*
X2907862Y1790694D1*
X2908677Y1797995D1*
X2910340Y1805148D1*
X2912828Y1812059D1*
X2916106Y1818631D1*
X2920133Y1824774D1*
X2924848Y1830406D1*
X2930190Y1835446D1*
X2936085Y1839827D1*
X2942453Y1843490D1*
X2949205Y1846381D1*
X2956248Y1848463D1*
X2963487Y1849709D1*
X2972310Y1850098D1*
X3033549Y1849970D1*
X3040837Y1849070D1*
X3047972Y1847324D1*
X3054853Y1844756D1*
X3061387Y1841400D1*
X3067483Y1837304D1*
X3073059Y1832522D1*
X3078037Y1827122D1*
X3082349Y1821177D1*
X3085937Y1814768D1*
X3088751Y1807983D1*
X3090751Y1800916D1*
X3091911Y1793663D1*
X3092197Y1785564D1*
X3091552Y1778248D1*
X3090056Y1771058D1*
X3087730Y1764091D1*
X3084604Y1757444D1*
X3080723Y1751209D1*
X3076139Y1745470D1*
X3070915Y1740306D1*
X3065123Y1735789D1*
X3058843Y1731980D1*
X3052160Y1728933D1*
X3045168Y1726686D1*
X3037959Y1725274D1*
X3030636Y1724714D1*
X2966073Y1724860D1*
X2963151Y1725140D1*
X2967175Y1719220D1*
X2970572Y1712709D1*
X2973186Y1705845D1*
X2974979Y1698722D1*
X2975927Y1691438D1*
X2976083Y1675984D1*
X2975841Y1622448D1*
X2974768Y1615182D1*
X2972853Y1608091D1*
X2970122Y1601273D1*
X2966613Y1594820D1*
X2963151Y1589827D1*
X2970492Y1590255D1*
X3023402Y1590256D1*
X3170398Y1737041D1*
X3177108Y1741916D1*
X3184497Y1745681D1*
X3192386Y1748244D1*
X3200577Y1749542D1*
X3232283Y1749705D1*
X3267988D1*
X3268017Y1761516D1*
X3277203D1*
X2829322Y1651392D2*
X2828605Y1645343D1*
X2827416Y1639367D1*
X2825762Y1633503D1*
X2823654Y1627787D1*
X2821104Y1622255D1*
X2818126Y1616938D1*
X2814741Y1611873D1*
X2810970Y1607088D1*
X2806835Y1602614D1*
X2802361Y1598479D1*
X2797576Y1594707D1*
X2792510Y1591323D1*
X2787194Y1588345D1*
X2781661Y1585795D1*
X2775946Y1583686D1*
X2770081Y1582033D1*
X2764106Y1580844D1*
X2758056Y1580127D1*
X2751969Y1579888D1*
X2745881Y1580127D1*
X2739831Y1580844D1*
X2733856Y1582033D1*
X2727991Y1583686D1*
X2722276Y1585795D1*
X2716743Y1588345D1*
X2711427Y1591323D1*
X2706361Y1594707D1*
X2701576Y1598479D1*
X2697102Y1602614D1*
X2692967Y1607088D1*
X2689196Y1611873D1*
X2685811Y1616938D1*
X2682833Y1622255D1*
X2680283Y1627787D1*
X2678175Y1633503D1*
X2676521Y1639367D1*
X2675332Y1645343D1*
X2674615Y1651392D1*
X2674377Y1657480D1*
X2674615Y1663568D1*
X2675332Y1669618D1*
X2676521Y1675593D1*
X2678175Y1681458D1*
X2680283Y1687173D1*
X2682833Y1692706D1*
X2685811Y1698022D1*
X2689196Y1703088D1*
X2692967Y1707873D1*
X2697102Y1712346D1*
X2701576Y1716482D1*
X2706361Y1720253D1*
X2711427Y1723638D1*
X2716743Y1726615D1*
X2722276Y1729165D1*
X2727991Y1731274D1*
X2733856Y1732928D1*
X2739831Y1734117D1*
X2745881Y1734833D1*
X2751969Y1735072D1*
X2758056Y1734833D1*
X2764106Y1734117D1*
X2770081Y1732928D1*
X2775946Y1731274D1*
X2781661Y1729165D1*
X2787194Y1726615D1*
X2792510Y1723638D1*
X2797576Y1720253D1*
X2802361Y1716482D1*
X2806835Y1712346D1*
X2810970Y1707873D1*
X2814741Y1703088D1*
X2818126Y1698022D1*
X2821104Y1692706D1*
X2823654Y1687173D1*
X2825762Y1681458D1*
X2827416Y1675593D1*
X2828605Y1669618D1*
X2829322Y1663568D1*
X2829560Y1657480D1*
X2829322Y1651392D1*
X4458336Y1809186D2*
X4457625Y1801877D1*
X4455976Y1794720D1*
X4453417Y1787837D1*
X4449992Y1781341D1*
X4445756Y1775341D1*
X4440782Y1769938D1*
X4435152Y1765222D1*
X4428962Y1761272D1*
X4422312Y1758154D1*
X4415316Y1755920D1*
X4408091Y1754608D1*
X4400756Y1754238D1*
X4393436Y1754819D1*
X4386251Y1756339D1*
X4379322Y1758774D1*
X4372765Y1762083D1*
X4366690Y1766209D1*
X4361199Y1771085D1*
X4356383Y1776630D1*
X4352323Y1782749D1*
X4349085Y1789341D1*
X4346727Y1796295D1*
X4345285Y1803497D1*
X4344783Y1810824D1*
X4345232Y1818154D1*
X4346625Y1825365D1*
X4348934Y1832336D1*
X4352125Y1838950D1*
X4356142Y1845098D1*
X4360919Y1850676D1*
X4366375Y1855592D1*
X4372421Y1859761D1*
X4378954Y1863115D1*
X4385866Y1865598D1*
X4393039Y1867169D1*
X4400356Y1867802D1*
X4407693Y1867484D1*
X4414928Y1866223D1*
X4421940Y1864038D1*
X4428610Y1860967D1*
X4434829Y1857060D1*
X4440492Y1852385D1*
X4445504Y1847017D1*
X4449781Y1841047D1*
X4453252Y1834575D1*
X4455860Y1827709D1*
X4457559Y1820564D1*
X4458322Y1813260D1*
X4458336Y1809186D1*
X4092050Y1806568D2*
X4090655Y1797766D1*
X4087902Y1789290D1*
X4083856Y1781350D1*
X4078618Y1774140D1*
X4072316Y1767839D1*
X4065106Y1762601D1*
X4057167Y1758555D1*
X4048690Y1755802D1*
X4039888Y1754407D1*
X4030978D1*
X4022176Y1755802D1*
X4013699Y1758555D1*
X4005760Y1762601D1*
X3998550Y1767839D1*
X3992248Y1774140D1*
X3987010Y1781350D1*
X3982965Y1789290D1*
X3980211Y1797766D1*
X3978816Y1806568D1*
Y1815479D1*
X3980211Y1824281D1*
X3982965Y1832757D1*
X3987010Y1840697D1*
X3992248Y1847907D1*
X3998550Y1854209D1*
X4005760Y1859446D1*
X4013699Y1863492D1*
X4022176Y1866245D1*
X4030978Y1867640D1*
X4039888D1*
X4048690Y1866245D1*
X4057167Y1863492D1*
X4065106Y1859446D1*
X4072316Y1854209D1*
X4078618Y1847907D1*
X4083856Y1840697D1*
X4087902Y1832757D1*
X4090655Y1824281D1*
X4092050Y1815479D1*
Y1806568D1*
X4029802Y401870D2*
X3993773D1*
X3993799Y327463D1*
X4390075Y327461D1*
X4390059Y401867D1*
X4079035Y401870D1*
X4029823Y401906D1*
X4249508Y1190932D2*
X4250038Y1197673D1*
X4251613Y1204236D1*
X4254196Y1210472D1*
X4257722Y1216227D1*
X4262106Y1221358D1*
X4267238Y1225743D1*
X4272992Y1229269D1*
X4279228Y1231852D1*
X4285791Y1233427D1*
X4292520Y1233957D1*
X4299248Y1233427D1*
X4305811Y1231852D1*
X4312047Y1229269D1*
X4317505Y1225940D1*
X4322992Y1229269D1*
X4329228Y1231852D1*
X4335791Y1233427D1*
X4342520Y1233957D1*
X4349248Y1233427D1*
X4355811Y1231852D1*
X4362047Y1229269D1*
X4367802Y1225743D1*
X4372933Y1221358D1*
X4377318Y1216227D1*
X4380844Y1210472D1*
X4383427Y1204236D1*
X4385001Y1197673D1*
X4385531Y1190945D1*
X4385399Y1175760D1*
X4384343Y1169093D1*
X4382257Y1162675D1*
X4379193Y1156660D1*
X4375226Y1151199D1*
X4370454Y1146428D1*
X4364993Y1142461D1*
X4358979Y1139396D1*
X4352560Y1137311D1*
X4345894Y1136255D1*
X4339146D1*
X4332479Y1137311D1*
X4326060Y1139396D1*
X4320046Y1142461D1*
X4317534Y1144139D1*
X4312047Y1140810D1*
X4305811Y1138227D1*
X4299248Y1136652D1*
X4292520Y1136122D1*
X4285791Y1136652D1*
X4279228Y1138227D1*
X4272992Y1140810D1*
X4267238Y1144336D1*
X4262106Y1148720D1*
X4257722Y1153852D1*
X4254196Y1159606D1*
X4251613Y1165843D1*
X4250038Y1172406D1*
X4249508Y1179147D1*
Y1190811D1*
X3740164Y1826634D2*
X3844350D1*
X3844559Y1801320D1*
X3849448Y1808050D1*
X3855331Y1813933D1*
X3862060Y1818822D1*
X3869472Y1822598D1*
X3877383Y1825169D1*
X3885600Y1826470D1*
X3893917D1*
X3902134Y1825169D1*
X3910045Y1822598D1*
X3917457Y1818822D1*
X3924186Y1813933D1*
X3930070Y1808050D1*
X3934958Y1801320D1*
X3938735Y1793908D1*
X3941306Y1785997D1*
X3942606Y1777781D1*
Y1769463D1*
X3941306Y1761247D1*
X3938735Y1753336D1*
X3934958Y1745924D1*
X3930070Y1739194D1*
X3924186Y1733311D1*
X3917457Y1728423D1*
X3910045Y1724646D1*
X3902134Y1722075D1*
X3893917Y1720774D1*
X3885600D1*
X3877383Y1722075D1*
X3869472Y1724646D1*
X3862060Y1728423D1*
X3855331Y1733311D1*
X3849448Y1739194D1*
X3844344Y1746307D1*
X3844350Y1720610D1*
X3738327D1*
Y1826634D1*
X3740164D1*
X3937008Y1568567D2*
D15*
Y1519685D1*
X3650459Y600306D2*
X3699341D1*
X3834646Y1560693D2*
D23*
Y1507874D1*
X3650459Y519980D2*
X3699341D1*
X3699136Y439655D2*
Y386836D1*
X3650256Y439655D2*
X3699136D1*
X4173228Y649606D2*
D15*
X4222110D1*
X4102362Y1326772D2*
X4155181D1*
X4173534Y732503D2*
X4222416D1*
X3858268Y437008D2*
Y388126D1*
X3220472Y812008D2*
Y763126D1*
X3167654Y527559D2*
D25*
X3220472D1*
Y1497701D2*
D15*
Y1448819D1*
X3167654D2*
X3220472D1*
Y1222110D2*
Y1173228D1*
X2748031Y663055D2*
Y557417D1*
X2699150Y610236D2*
X2748031D1*
X2913386Y1749669D2*
D20*
Y1565291D1*
X2850724Y1657480D2*
X2976047D1*
X3000000Y1850063D2*
D15*
Y1724740D1*
X2907811Y1787402D2*
X3092189D1*
X2708661Y1865811D2*
Y1740488D1*
Y1803150D2*
X2802819D1*
X2708661Y1574472D2*
Y1449150D1*
Y1511811D2*
X2802819D1*
X4401575Y1867780D2*
Y1754268D1*
X4344819Y1811024D2*
X4458331D1*
X3791341Y1678959D2*
D13*
Y1573008D1*
X3738366Y1625984D2*
X3791341D1*
X4390094Y358465D2*
D15*
X4487858D1*
X3896000D2*
X3993764D1*
X3108858Y886087D2*
Y788323D1*
X3065882Y837205D2*
X3108858D1*
X3791339Y1826597D2*
Y1720646D1*
X3738364Y1773622D2*
X3791339D1*
X3231693Y454134D2*
Y405252D1*
X4173228Y1568567D2*
Y1515748D1*
X4222110D1*
X4366142Y562992D2*
X4414039D1*
X2935039Y558724D2*
D14*
Y457024D1*
Y507874D2*
X2985890D1*
X2831890D2*
Y449150D1*
X2773165Y507874D2*
X2831890D1*
Y766598D2*
Y707874D1*
X2773165D2*
X2831890D1*
X3904348Y465945D2*
D29*
X3944542D1*
X3904348Y448360D2*
X3941740D1*
X3904348Y430774D2*
X3951360D1*
X3953076Y474685D2*
X3939928D1*
X3939961Y473425D1*
X3907192D1*
X3907205Y466811D1*
X3902533D1*
X3902559Y422232D1*
X3967508Y422244D1*
X3965613Y424312D1*
X3961247Y425731D1*
X3957157Y427815D1*
X3953444Y430513D1*
X3950198Y433759D1*
X3947500Y437472D1*
X3945416Y441562D1*
X3943997Y445928D1*
X3943280Y450461D1*
Y455051D1*
X3943997Y459584D1*
X3945416Y463950D1*
X3947500Y468039D1*
X3950198Y471753D1*
X3953108Y474689D1*
D31*
X3937008Y1444882D3*
Y1519685D3*
D32*
X3759843Y1291339D3*
X3834646D3*
X3774144Y600306D3*
X3699341D3*
X3759843Y1397638D3*
X3834646D3*
X3759843Y1507874D3*
X3834646D3*
X3774144Y519980D3*
X3699341D3*
X3773940Y439655D3*
X3699136D3*
X4173228Y649606D3*
X4098425D3*
D31*
X4102362Y1326772D3*
Y1251969D3*
D32*
X4173739Y561626D3*
X4098936D3*
X3956693Y523622D3*
X4031496D3*
D31*
X4006352Y1254068D3*
Y1328871D3*
D32*
X4173228Y1429134D3*
X4098425D3*
X4098731Y732503D3*
X4173534D3*
D31*
X3607243Y1162622D3*
Y1087819D3*
X3893701Y602362D3*
Y677165D3*
X3858268Y437008D3*
Y511811D3*
D32*
X3602362Y1287402D3*
X3677165D3*
D31*
X3613493Y781537D3*
Y856340D3*
D32*
X3605619Y675071D3*
X3680423D3*
D31*
X3220472Y812008D3*
Y886811D3*
Y527559D3*
Y602362D3*
Y1448819D3*
Y1374016D3*
Y1173228D3*
Y1098425D3*
D32*
X2822835Y610236D3*
X2748031D3*
D37*
X3472441Y1696850D3*
X3318903D3*
D40*
X3000000Y1527559D3*
D41*
X2913386Y1657480D3*
D40*
X3000000Y1787402D3*
D42*
X2708661Y1803150D3*
Y1511811D3*
D43*
X4401575Y1811024D3*
X4275591Y1492126D3*
X4070866Y1614173D3*
X4035433Y1811024D3*
D44*
X4496063Y1763780D3*
D43*
Y1663780D3*
Y1563780D3*
Y1463780D3*
Y1363780D3*
Y1263780D3*
D45*
X3791341Y1625984D3*
D46*
X3889761D3*
D47*
X2748031Y1354331D3*
D48*
Y1216535D3*
Y1078740D3*
Y940945D3*
D49*
X4019685Y448819D3*
X4068898D3*
D50*
X4438976Y358465D3*
X3944882D3*
D49*
X4118110Y448819D3*
X4216535D3*
X4167323D3*
X4314961D3*
X4265748D3*
X4364173D3*
D51*
X3108858Y837205D3*
D52*
X3158858D3*
X4292520Y1185039D3*
X4342520D3*
D45*
X3791339Y1773622D3*
D46*
X3889759D3*
D52*
X3181693Y454134D3*
D51*
X3231693D3*
D54*
X3488189Y800428D3*
X3303150D3*
X3488189Y480315D3*
X3303150D3*
X3488189Y1440655D3*
X3303150D3*
X3488189Y1120542D3*
X3303150D3*
D31*
X4019685Y1444882D3*
Y1519685D3*
D32*
X4173228Y1515748D3*
X4098425D3*
D63*
X4366142Y700787D3*
Y562992D3*
X4303150Y631891D3*
D68*
X3711881Y1125118D3*
X3731566D3*
X3751251D3*
X3770936D3*
X3790621D3*
X3810306D3*
X3829991D3*
X3849676D3*
X3869361D3*
X3889046D3*
X3908731D3*
X3928416D3*
X3948101D3*
X3967786D3*
X3987471D3*
X4007156D3*
X4026841D3*
X4046526D3*
X4066211D3*
X4085896D3*
X4105581D3*
X4125266D3*
X4144951D3*
X4164636D3*
Y829843D3*
X4144951D3*
X4125266D3*
X4105581D3*
X4085896D3*
X4066211D3*
X4046526D3*
X4026841D3*
X4007156D3*
X3987471D3*
X3967786D3*
X3948101D3*
X3928416D3*
X3908731D3*
X3889046D3*
X3869361D3*
X3849676D3*
X3829991D3*
X3810306D3*
X3790621D3*
X3770936D3*
X3751251D3*
X3731566D3*
X3711881D3*
D69*
X3938259Y977480D3*
D74*
X2935039Y507874D3*
Y607874D3*
Y707874D3*
D75*
X2831890Y507874D3*
Y707874D3*
G36*
X3744094Y1216535D2*
X3775591Y1177165D1*
X3771654Y1169291D1*
X3736220Y1204724D1*
X3744094Y1216535D1*
G37*
G36*
X3745079Y1252953D2*
X3756890Y1245079D1*
X3760827Y1241142D1*
X3768701Y1233268D1*
X3796260Y1197835D1*
Y1193898D1*
X3788386Y1189961D1*
X3733268Y1241142D1*
X3745079Y1252953D1*
G37*
G36*
X3744094Y1165354D2*
X3740157Y1153543D1*
X3736220Y1137795D1*
X3728346D1*
X3724409Y1165354D1*
X3744094D1*
G37*
G36*
X3893701Y429134D2*
X3909449D1*
Y374016D1*
X3893701D1*
Y429134D1*
G37*
G36*
X3832677Y1653543D2*
X3852362D1*
Y1598425D1*
X3832677D1*
Y1653543D1*
G37*
G36*
Y1803150D2*
X3852362D1*
Y1748031D1*
X3832677D1*
Y1803150D1*
G37*
G36*
X3820136Y1644706D2*
X3842840D1*
Y1606315D1*
X3820136D1*
Y1644706D1*
G37*
G36*
X3815945Y1786508D2*
X3838361D1*
Y1760827D1*
X3815945D1*
Y1786508D1*
G37*
G36*
X3074732Y810827D2*
X3077428Y804854D1*
X3082605Y799164D1*
X3081354Y792782D1*
X3092550D1*
X3090793Y783387D1*
X3094730Y779450D1*
X3088051Y767920D1*
X3048234Y807736D1*
X3074732Y810827D1*
G37*
X2883432Y717594D2*
D10*
G02X2881766Y690948I-31944J-11379D01*
G01*
X2893181Y697407D2*
G02X2894846Y724054I31944J11379D01*
G01*
X2882997Y517451D2*
G02X2881332Y490804I-31944J-11379D01*
G01*
X2892522Y494295D2*
G02X2894188Y520942I31944J11379D01*
G01*
X2858403Y664189D2*
G02X2803064Y666345I-26138J40390D01*
G01*
X2805760Y551365D2*
G02X2861098Y549209I26138J-40390D01*
G01*
G36*
X2795921Y569455D2*
X2860759D1*
Y556987D1*
X2795921D1*
Y569455D1*
G37*
G36*
X2797798Y662562D2*
X2862635D1*
Y650093D1*
X2797798D1*
Y662562D1*
G37*
M02*
