M48
INCH
T01C0.0118
T02C0.0138
T03C0.0191
T04C0.0197
T05C0.0276
T06C0.0315
T07C0.0354
T08C0.039
T09C0.0394
T10C0.0433
T11C0.0472
T12C0.063
T13C0.0945
%
T01
X+019755Y+012602
X+019244Y+012641
X+018456Y+012641
X+018102Y+012562
X+016291Y+014334
X+011094Y+016775
X+010956Y+016991
X+010818Y+016775
X+010818Y+017228
X+011094Y+017228
X+011094Y+018704
X+010877Y+018920
X+011094Y+019117
X+010661Y+019117
X+010661Y+018704
X+019322Y+008901
X+019716Y+008901
X+020661Y+005515
X+021330Y+005751
X+019755Y+005357
X+019244Y+005357
X+018771Y+005357
X+017787Y+005515
X+016212Y+005751
X+022984Y+007247
X+023299Y+007720
X+023299Y+006657
X+022866Y+012838
X+022984Y+013074
T02
X+017551Y+009846
X+018889Y+012720
X+019716Y+013822
X+021173Y+013822
X+012314Y+014216
X+011999Y+014688
X+011724Y+014216
X+012078Y+009806
X+010149Y+005357
T03
X+018496Y+007680
X+020700Y+008665
X+021881Y+008665
X+021881Y+010751
X+020700Y+010751
X+019480Y+010751
X+018141Y+010436
X+016803Y+010751
X+015661Y+010751
X+014342Y+006893
X+014342Y+005909
X+012078Y+006972
X+012078Y+007785
X+012078Y+004688
X+008771Y+004688
X+006606Y+009688
X+006606Y+011115
X+006606Y+012543
X+006606Y+013970
X+006606Y+015397
X+012708Y+019669
X+017275Y+019669
X+020779Y+006460
X+022433Y+005515
X+023220Y+005948
T04
X+014637Y+014570
X+016330Y+008783
T05
X+008757Y+009359
X+009257Y+009359
X+020988Y+012798
X+021488Y+012798
T06
X+005503Y+019019G85X+004795Y+019019
X+005503Y+016106G85X+004795Y+016106
T07
X+007413Y+006066
X+007413Y+007066
X+007413Y+008066
T08
X+015976Y+017247
X+016960Y+017247
T09
X+008358Y+016263G85X+007767Y+016263
X+007196Y+017267G85X+007196Y+017857
X+008358Y+018861G85X+007767Y+018861
X+006381Y+008066
X+006381Y+006066
T10
X+022078Y+019098
X+023023Y+018625
X+023023Y+017625
X+023023Y+016625
X+023023Y+015625
X+023023Y+014625
X+023023Y+013625
X+020818Y+015909
X+020188Y+017129
X+018771Y+017129
X+018417Y+019098
X+020188Y+019098
T11
X+005543Y+014531
X+005543Y+013153
X+005543Y+011775
X+005543Y+010397
T12
X+004440Y+004413
X+004440Y+019806
X+023062Y+019767
T13
X+005582Y+017562
T00
M30
