M48
INCH
T01C0.0118
T02C0.0138
T03C0.0191
T04C0.0197
T05C0.0236
T06C0.0315
T07C0.0354
T08C0.039
T09C0.0394
T10C0.0433
T11C0.0472
T12C0.063
T13C0.0945
%
T01
X+041693Y+011614
X+041181Y+011654
X+040394Y+011654
X+040039Y+011575
X+038789Y+013756
X+044626Y+013071
X+044616Y+012077
X+044262Y+009961
X+041654Y+007913
X+041260Y+007913
X+043258Y+005167
X+044065Y+004646
X+044390Y+004370
X+045256Y+005699
X+045256Y+006043
X+045256Y+006358
X+042165Y+004370
X+041693Y+004370
X+041181Y+004370
X+040709Y+004370
X+039724Y+004528
X+038150Y+004764
X+033031Y+015787
X+032894Y+016004
X+032756Y+015787
X+032756Y+016240
X+033031Y+016240
X+033031Y+017717
X+032815Y+017933
X+033031Y+018130
X+032598Y+018130
X+032598Y+017717
T02
X+039488Y+008858
X+040827Y+011732
X+041654Y+012835
X+043110Y+012835
X+034252Y+013228
X+033937Y+013701
X+033661Y+013228
X+033703Y+008773
X+034239Y+008773
T03
X+040433Y+006693
X+042638Y+007677
X+043819Y+007677
X+043819Y+009764
X+042638Y+009764
X+041417Y+009764
X+040079Y+009449
X+038740Y+009764
X+037598Y+009764
X+036327Y+005906
X+036280Y+004921
X+034016Y+005984
X+034016Y+006798
X+034016Y+003701
X+030709Y+003701
X+028543Y+008701
X+028543Y+010128
X+028543Y+011555
X+028543Y+012982
X+028543Y+014409
X+034646Y+018681
X+039213Y+018681
X+045157Y+004961
X+044843Y+004665
T04
X+036575Y+013583
X+038268Y+007795
T05
X+031089Y+008372
X+031589Y+008372
X+031817Y+004541
X+032317Y+004541
X+042925Y+011850
X+043425Y+011850
T06
X+027441Y+018031G85X+026732Y+018031
X+027441Y+015118G85X+026732Y+015118
T07
X+029350Y+005079
X+029350Y+006079
X+029350Y+007079
T08
X+037913Y+016260
X+038898Y+016260
X+038898Y+017736
X+037913Y+017736
T09
X+030295Y+015276G85X+029705Y+015276
X+029134Y+016280G85X+029134Y+016870
X+030295Y+017874G85X+029705Y+017874
X+028319Y+007079
X+028319Y+005079
T10
X+044016Y+018110
X+044961Y+017638
X+044961Y+016638
X+044961Y+015638
X+044961Y+014638
X+044961Y+013638
X+044961Y+012638
X+042756Y+014921
X+042126Y+016142
X+040709Y+016142
X+040354Y+018110
X+042126Y+018110
T11
X+027480Y+013543
X+027480Y+012165
X+027480Y+010787
X+027480Y+009409
T12
X+026378Y+003425
X+026378Y+018819
X+045000Y+018780
T13
X+027520Y+016575
T00
M30
