G04 DipTrace 3.3.1.3*
G04 Top.gbr*
%MOIN*%
G04 #@! TF.FileFunction,Copper,L1,Top*
G04 #@! TF.Part,Single*
%AMOUTLINE0*
4,1,4,
0.023622,-0.023622,
-0.023622,-0.023622,
-0.023622,0.023622,
0.023622,0.023622,
0.023622,-0.023622,
0*%
G04 #@! TA.AperFunction,CopperBalancing*
%ADD13C,0.03937*%
%ADD14C,0.012992*%
%ADD15C,0.025984*%
G04 #@! TA.AperFunction,ViaPad*
%ADD18C,0.019685*%
G04 #@! TA.AperFunction,Nonconductor*
%ADD20C,0.043307*%
G04 #@! TA.AperFunction,Conductor*
%ADD21C,0.007874*%
%ADD22C,0.029528*%
%ADD23C,0.047244*%
%ADD24C,0.059055*%
G04 #@! TA.AperFunction,ViaPad*
%ADD25C,0.031496*%
G04 #@! TA.AperFunction,Conductor*
%ADD26C,0.011811*%
G04 #@! TA.AperFunction,CopperBalancing*
%ADD28C,0.025*%
%ADD31R,0.059055X0.051181*%
%ADD32R,0.051181X0.059055*%
%ADD34R,0.047244X0.047244*%
%ADD38R,0.031496X0.062992*%
G04 #@! TA.AperFunction,ComponentPad*
%ADD40O,0.137795X0.07874*%
%ADD41O,0.07874X0.137795*%
%ADD42O,0.141732X0.07874*%
%ADD43C,0.066929*%
%ADD44R,0.066929X0.066929*%
%ADD45R,0.05937X0.05937*%
%ADD46C,0.05937*%
%ADD47R,0.106299X0.090551*%
%ADD48O,0.106299X0.090551*%
%ADD51R,0.03937X0.051181*%
%ADD52O,0.03937X0.051181*%
%ADD55R,0.133858X0.043307*%
%ADD56R,0.106299X0.045276*%
%ADD57R,0.043307X0.133858*%
%ADD59R,0.041339X0.025591*%
%ADD61R,0.019685X0.033465*%
%ADD62R,0.019685X0.019685*%
%ADD65R,0.043307X0.023622*%
%ADD70R,0.055118X0.011811*%
%ADD71R,0.062992X0.110236*%
%ADD73R,0.023622X0.043307*%
G04 #@! TA.AperFunction,ComponentPad*
%ADD74C,0.055118*%
%ADD75C,0.070866*%
%ADD76R,0.035433X0.07874*%
%ADD77R,0.11811X0.19685*%
G04 #@! TA.AperFunction,ViaPad*
%ADD78C,0.04*%
%ADD169OUTLINE0*%
%FSLAX26Y26*%
G04*
G70*
G90*
G75*
G01*
G04 Top*
%LPD*%
X3507874Y519685D2*
D13*
Y594488D1*
X3559146D1*
X3633949Y669291D1*
X4043307D1*
X4461811Y1055512D2*
Y960827D1*
X4433071Y932087D1*
Y720472D1*
X4338583Y625984D1*
X4094488D1*
X4051181Y669291D1*
X4043307D1*
X3421260Y519685D2*
X3507874D1*
X4461811Y1055512D2*
D15*
Y1089370D1*
X4444882Y1106299D1*
Y1137795D1*
X4437008D1*
X4429134D1*
Y1204724D1*
X4350394Y1283465D1*
X4311024D1*
X4350394Y1330709D2*
Y1283465D1*
X3921260Y1161417D2*
D14*
X3897638D1*
X3881890Y1177165D1*
Y1200787D1*
X3866142Y1216535D1*
X3763780D1*
X3755906Y1208661D1*
Y1188976D1*
X3736220Y1169291D1*
X3720472D1*
X3712598Y1161417D1*
X4082677Y1173228D2*
Y1165354D1*
X4059055Y1188976D1*
X3984252D1*
X3956693Y1161417D1*
X3921260D1*
X4177165Y1330709D2*
X4165354D1*
Y1283465D1*
X4350394Y1330709D2*
D15*
X4384843D1*
X4404528Y1350394D1*
Y1572244D1*
X4496063Y1663780D1*
X3181693Y454134D2*
Y491944D1*
X3209434Y519685D1*
X3335472D1*
X3307087Y622047D2*
D14*
Y637795D1*
Y622047D2*
D20*
Y591478D1*
X3335472Y563092D1*
Y519685D1*
X3421260D1*
X4003937Y1157480D2*
D14*
X4000000D1*
X3960630Y1118110D1*
Y1056693D1*
X3961811Y1055512D1*
X4039370Y1165354D2*
Y1149606D1*
X4011811Y1122047D1*
Y1055512D1*
X4511811Y1137795D2*
D15*
Y1055118D1*
X4118110Y1224409D2*
D21*
Y1255906D1*
X4090551Y1405512D2*
D14*
X4118110D1*
X4133858Y1389764D1*
Y1291339D1*
X4118110Y1275591D1*
Y1255906D1*
X3039370Y966535D2*
D22*
X3082677D1*
Y953269D1*
X3125984D1*
X4263780Y1405512D2*
D14*
Y1393701D1*
X4330709Y1460630D1*
Y1641732D1*
X4452756Y1763780D1*
X4496063D1*
X3212598Y1289370D2*
X3198819D1*
X3196850Y1287402D1*
X3169291D1*
X3149606Y1307087D1*
X3129921D1*
X3100391Y1336617D1*
Y1356299D1*
X3007874Y858268D2*
D15*
Y866142D1*
X3082266D1*
X3108858Y839550D1*
Y837205D1*
X3370079Y1807087D2*
D14*
X3312581D1*
X3295276Y1711899D1*
X3287402Y1656496D1*
X3212598Y1289370D2*
Y1291339D1*
X3287402Y1366142D1*
X3251969Y1437008D2*
D15*
X3330709D1*
X3324803Y1216535D2*
D14*
X3326772D1*
Y1226378D1*
X3330709Y1230315D1*
Y1271654D1*
X3366142Y1307087D1*
Y1322835D1*
X3393701Y1370079D2*
D15*
X3366142D1*
X3336614Y1399606D1*
Y1431102D1*
X3330709Y1437008D1*
X4515748Y496063D2*
D14*
X4513780D1*
Y379409D1*
X4511850Y377480D1*
X3507874Y744094D2*
D13*
Y669291D1*
X3421260Y818898D2*
D15*
Y813764D1*
X3368193D1*
X3343366Y788937D1*
X3230839D1*
X3199969Y758067D1*
X3507874Y818898D2*
X3511811D1*
X3657480Y1358268D2*
D24*
X3515748Y1216535D1*
Y1155512D1*
Y1047244D1*
Y944882D1*
X3551181Y909449D1*
X3696850D1*
X3826772Y779528D1*
X3448819Y1047244D2*
D14*
X3515748D1*
X3507874Y818898D2*
D13*
Y909449D1*
D25*
X3551181D1*
X3421260Y818898D2*
X3507874D1*
X3948819Y885827D2*
D14*
X3795276D1*
X3724409Y956693D1*
X3582677D1*
X3562992Y976378D1*
Y1196850D1*
X3809816Y1443675D1*
X3900367D1*
X4070866Y1614173D1*
X4118110Y1165354D2*
X4110236Y1157480D1*
Y1090551D1*
X4111811Y1088976D1*
Y1055512D1*
X4165354Y791339D2*
Y897638D1*
X4062992Y1000000D1*
Y1019685D1*
X4061811Y1020866D1*
Y1055512D1*
X4169291Y1161417D2*
X4161811D1*
Y1055512D1*
X3093669Y683264D2*
X3099206D1*
X3103205Y679265D1*
Y602248D1*
X3199969Y720665D2*
D15*
X3228539D1*
X3248031Y740157D1*
X3307087D1*
X3199969Y720665D2*
D14*
X3173421D1*
X3165354Y712598D1*
Y622047D1*
X3178008Y609394D1*
Y602248D1*
X3093669Y758067D2*
X3069091D1*
X3049714Y738690D1*
Y548711D1*
X3078740Y519685D1*
X3335472Y444882D2*
Y441559D1*
X3298076D1*
X3268614Y412097D1*
X3167600D1*
X3144871Y434825D1*
Y474388D1*
X3099575Y519685D1*
X3078740D1*
X3200787Y1592520D2*
D26*
Y1586614D1*
D14*
X3232283Y1555118D1*
Y1531496D1*
X3251969Y1511811D1*
X2933071Y1362205D2*
D20*
Y1409449D1*
X2958665Y1435043D1*
X2996064D1*
Y1523623D1*
X3000000Y1527559D1*
X3200787Y1643701D2*
D26*
X3171260D1*
D14*
X3157480Y1629921D1*
Y1511811D1*
X3173228D1*
X3374016Y1720472D2*
D15*
X3484252D1*
X3488189Y1716535D1*
X3507874D1*
D13*
X3480315D1*
Y1807087D1*
X3507874Y1716535D2*
D14*
Y1720472D1*
X3551181D1*
X3559055Y1728346D1*
Y1803150D1*
X3566929D1*
X3374016Y1694882D2*
D26*
X3419291D1*
D14*
X3448819Y1665354D1*
X3618110D1*
X3641732Y1688976D1*
Y1732283D1*
Y1803150D1*
X3507874Y1598425D2*
D13*
X3492126D1*
Y1488189D1*
X3507874Y1598425D2*
D14*
X3488189D1*
X3417323Y1669291D1*
D26*
X3374016D1*
X3397638Y1444882D2*
D14*
X3405512Y1437008D1*
X3407480D1*
X3566929Y1488189D2*
D25*
Y1444882D1*
Y1401575D1*
Y1444882D2*
D14*
X3452756D1*
X3415354D1*
X3407480Y1437008D1*
X3374016Y1643701D2*
D26*
X3411417D1*
D14*
X3425197Y1629921D1*
Y1570866D1*
X3452756Y1543307D1*
Y1444882D1*
X3889761Y1625984D2*
D24*
Y1598423D1*
X3846457Y1555118D1*
X3757874D1*
X3647638Y1444882D1*
X3641732D1*
X3443900Y1247050D1*
D14*
X3369619D1*
X3362205Y1239635D1*
Y1216535D1*
X3566929Y1401575D2*
X3598425D1*
X3641732Y1444882D1*
X3362205Y1216535D2*
Y1192913D1*
X3342520Y1173228D1*
X3275591D1*
X3216535Y1114173D1*
X3889759Y1773622D2*
D24*
Y1625984D1*
X3889761D1*
X3878937Y1375572D2*
D14*
X3913400D1*
X3944264Y1344709D1*
X4007874D1*
Y1330709D1*
X3330709Y1511811D2*
X3407480D1*
X3401575D1*
Y1559055D1*
D26*
X3374016Y1586614D1*
Y1592520D1*
X3641732Y1622047D2*
D14*
Y1555118D1*
X3200787Y1694882D2*
D26*
Y1720472D1*
Y1669291D2*
Y1694882D1*
X3114173Y1708661D2*
D25*
X3082677D1*
X3055118Y1681102D1*
Y1598425D1*
X3094488Y1559055D1*
Y1503937D1*
X3051181Y1460630D1*
Y1401575D1*
X3023622Y1374016D1*
Y1362205D1*
X3125984Y1188976D2*
D14*
Y1192913D1*
X3173228Y1145669D1*
Y1055118D1*
X3200274Y1028072D1*
X3216535D1*
X3023622Y1362205D2*
X3027559D1*
Y1354331D1*
X3062992Y1318898D1*
Y1251969D1*
X3125984Y1188976D1*
X3114173Y1799213D2*
D23*
Y1708661D1*
X3200787Y1720472D2*
D14*
Y1708661D1*
D23*
X3161417D1*
X3114173D1*
X3425197Y1192913D2*
D14*
X3440945D1*
X3464567Y1169291D1*
Y1094488D1*
X3456693Y1086614D1*
X3425197D1*
X3409449Y1070866D1*
Y1047244D1*
X3411417D1*
X3299213Y1028072D2*
X3302636Y1031496D1*
X3374016D1*
Y1047244D1*
X3362205Y1110236D2*
Y1114173D1*
X3421260D1*
X3425197Y1118110D1*
X3448819Y940945D2*
Y984252D1*
X3433071Y1000000D1*
X3393701D1*
X3374016Y1019685D1*
Y1047244D1*
X3362205Y1110236D2*
Y1082677D1*
X3374016Y1070866D1*
Y1047244D1*
X3287402Y1289370D2*
Y1216535D1*
X3125984Y1273622D2*
Y1259843D1*
X3141732Y1244094D1*
X3216535D1*
X3242126D1*
X3287402Y1289370D1*
X3216535Y1188976D2*
Y1244094D1*
X3299213Y953269D2*
Y940945D1*
X3374016D1*
X4350394Y1405512D2*
X4338583D1*
X4263780Y1330709D1*
X4216535Y1224409D2*
D21*
Y1255906D1*
X4263780Y1330709D2*
D14*
Y1275591D1*
X4269583Y1269787D1*
X4291339Y1248031D1*
X4346457D1*
X4393701Y1200787D1*
Y1102362D1*
X4405512Y1090551D1*
Y1055512D1*
X4411811D1*
X4216535Y1255906D2*
X4248031D1*
X4261913Y1269787D1*
X4269583D1*
X4426181Y996063D2*
X4411811Y1010433D1*
Y1055512D1*
X4406496Y464567D2*
Y382835D1*
X4411850Y377480D1*
X4361850D2*
D21*
Y468150D1*
X4381890Y488189D1*
X4424213D1*
X4505906Y569882D1*
X4525591D1*
X4461614Y1207677D2*
X4460630D1*
Y1231299D1*
X4430118Y1261811D1*
Y1497835D1*
X4496063Y1563780D1*
X4325787Y516732D2*
X4317913D1*
X4278543Y477362D1*
X3901575D1*
X3862192Y437979D1*
Y377478D1*
X4325787Y516732D2*
Y520669D1*
X4413386D1*
X4500000Y607283D1*
Y615157D1*
X4520669Y635827D1*
X4525591D1*
X3842520Y1283465D2*
D14*
X3846457D1*
X3893701Y1236220D1*
X3921260D1*
X3787402Y1283465D2*
X3783465D1*
X3736220Y1236220D1*
X3712598D1*
X4125984Y791339D2*
Y893701D1*
X4027559Y992126D1*
X3937008D1*
X3911811Y1017323D1*
Y1055512D1*
X3842520Y1157480D2*
Y1118110D1*
X3861811Y1098819D1*
Y1055512D1*
X3787402Y1157480D2*
Y1122047D1*
X3762151Y1096797D1*
Y1055508D1*
X4035433Y1811024D2*
Y1803150D1*
X4169291Y1669291D1*
Y1405512D1*
X4177165D1*
X4169291D2*
Y1397638D1*
X4204724D1*
X4220472Y1381890D1*
Y1298377D1*
X4188976Y1266881D1*
Y1212598D1*
X4259843Y1141732D1*
Y1053543D1*
X4261811Y1055512D1*
X3114173Y1633858D2*
X3125984D1*
Y1484252D1*
X3173228Y1437008D1*
X4007874Y1405512D2*
X4031496D1*
Y1381890D1*
X4066929Y1346457D1*
Y1330709D1*
X4090551D1*
Y1212598D1*
X4110236Y1192913D1*
X4177165D1*
X4208661Y1161417D1*
Y1055512D1*
X4211811D1*
X3972441Y452756D2*
X3933071D1*
X3912192Y431877D1*
Y377478D1*
X4070866Y437008D2*
Y386152D1*
X4062192Y377478D1*
X4118110Y437008D2*
Y383740D1*
X4111850Y377480D1*
X4169291Y437008D2*
Y384921D1*
X4161850Y377480D1*
X4216535Y437008D2*
X4246063D1*
X4255906Y427165D1*
Y377480D1*
X4261850D1*
X3812192Y377478D2*
X3813976D1*
Y475394D1*
X3814961Y476378D1*
X3762192Y377478D2*
Y340932D1*
X3744094Y322835D1*
X3003937D1*
X2885827Y440945D1*
Y673228D1*
X2920472Y707874D1*
X2935039D1*
X3093669Y720665D2*
X3126177D1*
X3156496Y750984D1*
Y837598D1*
X3156890Y837205D1*
X3158858D1*
X4361811Y1055512D2*
Y1126378D1*
X4342520Y1145669D1*
Y1185039D1*
X4311811Y1055512D2*
Y1129134D1*
X4292520Y1148425D1*
Y1185039D1*
X2933071Y1003937D2*
D20*
Y929134D1*
X2933092Y1125984D2*
Y1090572D1*
X2933071Y1090551D1*
Y1003937D1*
Y1251969D2*
Y1125984D1*
X2933092D1*
X2933071Y858268D2*
Y929134D1*
X3023622Y1251969D2*
Y1223320D1*
X3051202Y1195740D1*
Y1125984D1*
X3039370Y929134D2*
D14*
X2988189D1*
D20*
Y1051181D1*
X3051202Y1114194D1*
Y1125984D1*
X3125984Y1028072D2*
D14*
X3141732D1*
X3216535Y953269D1*
X3039370Y1003937D2*
X3101849D1*
X3125984Y1028072D1*
Y1114173D2*
Y1028072D1*
X3106301Y1435043D2*
Y1399605D1*
X3147638Y1358268D1*
X3153546D1*
X3151577Y1356299D1*
X3212598Y1366142D2*
Y1354331D1*
X3153546D1*
X3151577Y1356299D1*
X4438976Y437008D2*
X4448819D1*
X4459646Y426181D1*
Y379685D1*
X4461850Y377480D1*
X4525591Y604331D2*
D21*
X4519685D1*
X4418307Y502953D1*
X4347441D1*
X4312008Y467520D1*
Y414370D1*
X4311024Y413386D1*
Y377480D1*
X4311850D1*
X4462598Y1307087D2*
X4446850Y1322835D1*
Y1414567D1*
X4496063Y1463780D1*
D13*
X3657480Y1358268D3*
D78*
X4043307Y669291D3*
X4515748Y496063D3*
D18*
X4169291Y1161417D3*
X4165354Y791339D3*
X4118110Y1165354D3*
X4125984Y791339D3*
X4039370Y1165354D3*
X4003937Y1157480D3*
X4525591Y635827D3*
Y604331D3*
Y569882D3*
X4461614Y1207677D3*
X4462598Y1307087D3*
D13*
X3826772Y779528D3*
D25*
X3948819Y885827D3*
D78*
X4007874Y944882D3*
D25*
X4311024Y1283465D3*
D18*
X3878937Y1375572D3*
D25*
X4165354Y1283465D3*
D78*
X4484252Y466535D3*
D25*
X4082677Y1173228D3*
D78*
X3401575Y598425D3*
X4381890Y976378D3*
X3874016D3*
D25*
X3423944Y877343D3*
D78*
X3759843Y976378D3*
X4141732D3*
X4381890Y767717D3*
X3070866Y370079D3*
D25*
X3393701Y1370079D3*
D78*
X2854331Y1012795D3*
D25*
X3425197Y1322835D3*
D78*
X3401575Y370079D3*
Y679790D3*
X2854331Y1298228D3*
Y1440945D3*
Y870079D3*
D18*
X4325787Y516732D3*
X3275591Y1624016D3*
D78*
X2854331Y1155512D3*
X3464567Y1868110D3*
D18*
X3303150Y1624016D3*
D25*
X3366142Y1322835D3*
X3370257Y877343D3*
D18*
X3972441Y452756D3*
X4070866Y437008D3*
X4118110D3*
X4169291D3*
D78*
X3632705Y590551D3*
D18*
X4216535Y437008D3*
D78*
X3627953Y492126D3*
D18*
X3259843Y1771654D3*
D78*
X3921260Y1868110D3*
D18*
X3303150Y1771654D3*
D78*
X4263780Y976378D3*
Y767717D3*
D18*
X3814961Y476378D3*
X3275591Y1578740D3*
X3303150D3*
X3289370Y1600394D3*
X3259843Y1812992D3*
X3303150D3*
X3281496Y1793307D3*
X4438976Y437008D3*
X4406496Y464567D3*
X4426181Y996063D3*
X2696252Y1872080D2*
D28*
X4083559D1*
X4341614D2*
X4441001D1*
X2790018Y1847211D2*
X2943339D1*
X3242374D2*
X3318652D1*
X3695125D2*
X3986635D1*
X4084253D2*
X4098487D1*
X4326722D2*
X4352762D1*
X2804444Y1822343D2*
X2913555D1*
X3242374D2*
X3318652D1*
X3695125D2*
X3733832D1*
X3848853D2*
X3861759D1*
X3917786D2*
X3975260D1*
X4095592D2*
X4164513D1*
X4260696D2*
X4341387D1*
X4461755D2*
X4485892D1*
X2807098Y1797474D2*
X2904081D1*
X3242374D2*
X3318652D1*
X3695125D2*
X3733832D1*
X3941828D2*
X3975727D1*
X4095126D2*
X4165123D1*
X4260050D2*
X4341890D1*
X4461252D2*
X4521597D1*
X2799671Y1772605D2*
X2905014D1*
X3242374D2*
X3318652D1*
X3695125D2*
X3733832D1*
X3947247D2*
X3988466D1*
X4113462D2*
X4183101D1*
X4242108D2*
X4354592D1*
X4448549D2*
X4521597D1*
X2622475Y1747736D2*
X2641302D1*
X2776024D2*
X2888615D1*
X3256154D2*
X3318652D1*
X3693151D2*
X3733832D1*
X3947104D2*
X4043369D1*
X4138331D2*
X4521597D1*
X2622475Y1722867D2*
X2707688D1*
X2796226D2*
X2857038D1*
X3693151D2*
X3733832D1*
X3947104D2*
X4068236D1*
X4163198D2*
X4521597D1*
X2622475Y1697999D2*
X2683286D1*
X2820627D2*
X2847134D1*
X2979630D2*
X3015178D1*
X3700686D2*
X3832406D1*
X3947104D2*
X4093104D1*
X4188066D2*
X4445774D1*
X2622475Y1673130D2*
X2673454D1*
X2830459D2*
X2846201D1*
X2980563D2*
X3011555D1*
X3700686D2*
X3733832D1*
X3947104D2*
X4117972D1*
X4203353D2*
X4435547D1*
X2622475Y1648261D2*
X2672413D1*
X2831500D2*
X2846201D1*
X2980563D2*
X3011555D1*
X3700113D2*
X3733832D1*
X3947104D2*
X4020475D1*
X4121249D2*
X4134982D1*
X4247419D2*
X4423885D1*
X2622475Y1623392D2*
X2679769D1*
X2824180D2*
X2846379D1*
X2980420D2*
X3011555D1*
X3693151D2*
X3733832D1*
X3947211D2*
X4010319D1*
X4261161D2*
X4399017D1*
X2622475Y1598524D2*
X2699039D1*
X2804909D2*
X2853269D1*
X2973493D2*
X3011555D1*
X3693151D2*
X3721846D1*
X3947104D2*
X4007736D1*
X4259367D2*
X4374150D1*
X2622475Y1573655D2*
X2655727D1*
X2761597D2*
X2875734D1*
X3941182D2*
X3982867D1*
X4115938D2*
X4134982D1*
X4238843D2*
X4363743D1*
X2795723Y1548786D2*
X2906881D1*
X3920190D2*
X3958000D1*
X4052962D2*
X4134982D1*
X4203604D2*
X4257454D1*
X4293709D2*
X4363707D1*
X2806202Y1523917D2*
X2903400D1*
X3895323D2*
X3933133D1*
X4028094D2*
X4134982D1*
X4203604D2*
X4223651D1*
X4327512D2*
X4363707D1*
X2806058Y1499049D2*
X2909930D1*
X3781857D2*
X3908265D1*
X4003226D2*
X4134982D1*
X4336448D2*
X4363707D1*
X2795257Y1474180D2*
X2930205D1*
X3756990D2*
X3798315D1*
X3978358D2*
X4134982D1*
X4203604D2*
X4217119D1*
X4334043D2*
X4363707D1*
X2622475Y1449311D2*
X2658024D1*
X2759301D2*
X2904010D1*
X3732121D2*
X3767958D1*
X2622475Y1424442D2*
X2667067D1*
X2828988D2*
X2886068D1*
X3707253D2*
X3743089D1*
X3928623D2*
X3950537D1*
X2622475Y1399573D2*
X2667067D1*
X2828988D2*
X2881654D1*
X3696058D2*
X3718222D1*
X3813184D2*
X3850743D1*
X3936769D2*
X3950537D1*
X2622475Y1374705D2*
X2667067D1*
X2828988D2*
X2881654D1*
X3340804D2*
X3438720D1*
X3788316D2*
X3841304D1*
X2622475Y1349836D2*
X2667067D1*
X2828988D2*
X2881654D1*
X3340804D2*
X3438720D1*
X3763449D2*
X3852501D1*
X2622475Y1324967D2*
X2667067D1*
X2828988D2*
X2881654D1*
X3340804D2*
X3441770D1*
X3886064D2*
X3916518D1*
X2622475Y1300098D2*
X2667067D1*
X2828988D2*
X2881654D1*
X3340804D2*
X3416903D1*
X3713713D2*
X3743844D1*
X3886064D2*
X3950537D1*
X2622475Y1275230D2*
X2698429D1*
X2797626D2*
X2881654D1*
X3978610D2*
X4056251D1*
X2622475Y1250361D2*
X2675715D1*
X2820375D2*
X2881654D1*
X3978610D2*
X4056251D1*
X2622475Y1225492D2*
X2667640D1*
X2828413D2*
X2881654D1*
X3978610D2*
X4056251D1*
X2622475Y1200623D2*
X2668896D1*
X2827157D2*
X2883592D1*
X2622475Y1175755D2*
X2680056D1*
X2816034D2*
X2883592D1*
X2622475Y1150886D2*
X2711706D1*
X2784348D2*
X2883592D1*
X2622475Y1126017D2*
X2685260D1*
X2810831D2*
X2883592D1*
X2622475Y1101148D2*
X2670727D1*
X2825328D2*
X2883592D1*
X2622475Y1076280D2*
X2667102D1*
X2828953D2*
X2883592D1*
X2622475Y1051411D2*
X2672593D1*
X2823497D2*
X2883592D1*
X2622475Y1026542D2*
X2690140D1*
X2805915D2*
X2883592D1*
X2622475Y1001673D2*
X2701694D1*
X2794396D2*
X2883592D1*
X2622475Y976804D2*
X2676864D1*
X2819192D2*
X2883592D1*
X3751786D2*
X3904856D1*
X4133665D2*
X4394280D1*
X2622475Y951936D2*
X2667928D1*
X2828127D2*
X2883592D1*
X3776654D2*
X4020260D1*
X4158533D2*
X4390189D1*
X4508404D2*
X4521597D1*
X2622475Y927067D2*
X2668466D1*
X2827625D2*
X2883592D1*
X3801521D2*
X4045127D1*
X4183400D2*
X4385560D1*
X4494194D2*
X4521597D1*
X2622475Y902198D2*
X2678657D1*
X2817398D2*
X2879680D1*
X3088825D2*
X3334404D1*
X3988980D2*
X4069995D1*
X4199333D2*
X4385560D1*
X4480558D2*
X4521597D1*
X2622475Y877329D2*
X2707077D1*
X2788978D2*
X2879680D1*
X3190593D2*
X3460394D1*
X3991492D2*
X4091669D1*
X4199656D2*
X4385560D1*
X4480558D2*
X4521597D1*
X2622475Y852461D2*
X2879680D1*
X3205378D2*
X3363937D1*
X3565224D2*
X3673798D1*
X3833888D2*
X3922403D1*
X3975236D2*
X4091669D1*
X4199656D2*
X4385560D1*
X4480558D2*
X4521597D1*
X2622475Y827592D2*
X2879680D1*
X3206202D2*
X3325362D1*
X3565224D2*
X3698665D1*
X3858757D2*
X4091669D1*
X4199656D2*
X4385560D1*
X4480558D2*
X4521597D1*
X2622475Y802723D2*
X3061362D1*
X3565224D2*
X3723533D1*
X3878959D2*
X4090234D1*
X4201127D2*
X4385560D1*
X4480558D2*
X4521597D1*
X2622475Y777854D2*
X3041411D1*
X3565224D2*
X3748400D1*
X3884091D2*
X4091022D1*
X4200302D2*
X4385560D1*
X4480558D2*
X4521597D1*
X2622475Y752986D2*
X2788714D1*
X2875063D2*
X2904979D1*
X2965097D2*
X3018803D1*
X3565224D2*
X3773269D1*
X3877273D2*
X4385560D1*
X4480558D2*
X4521597D1*
X2622475Y728117D2*
X2772135D1*
X2986377D2*
X3015395D1*
X3565224D2*
X3805205D1*
X3848350D2*
X4374580D1*
X4480558D2*
X4521597D1*
X2622475Y703248D2*
X2768835D1*
X2990215D2*
X3015395D1*
X3565224D2*
X3601921D1*
X4083213D2*
X4349713D1*
X4477148D2*
X4521597D1*
X2622475Y678379D2*
X2776298D1*
X2981424D2*
X3015395D1*
X3249444D2*
X3450526D1*
X4108223D2*
X4324844D1*
X4457126D2*
X4521597D1*
X2622475Y653510D2*
X2802278D1*
X2964236D2*
X3015395D1*
X3388064D2*
X3450526D1*
X4432257D2*
X4492710D1*
X2622475Y628642D2*
X2851512D1*
X2986161D2*
X3015395D1*
X3388064D2*
X3450526D1*
X4407390D2*
X4471539D1*
X2622475Y603773D2*
X2851512D1*
X2990252D2*
X3015395D1*
X3388064D2*
X3450526D1*
X3634552D2*
X4050581D1*
X4382522D2*
X4452627D1*
X2622475Y578904D2*
X2851512D1*
X2981783D2*
X3015395D1*
X3388064D2*
X3450526D1*
X3609685D2*
X4427760D1*
X2622475Y554035D2*
X2789898D1*
X2963303D2*
X3015395D1*
X3581336D2*
X4402892D1*
X2622475Y529167D2*
X2772495D1*
X2985946D2*
X3021387D1*
X3565224D2*
X4286484D1*
X4509050D2*
X4521597D1*
X2622475Y504298D2*
X2768762D1*
X2990287D2*
X3021387D1*
X3565224D2*
X3791102D1*
X3838804D2*
X3887667D1*
X4484182D2*
X4521597D1*
X2622475Y479429D2*
X2775724D1*
X2982106D2*
X3021387D1*
X3565224D2*
X3777430D1*
X4459315D2*
X4521597D1*
X2622475Y454560D2*
X2800269D1*
X2920134D2*
X3021387D1*
X3565224D2*
X3779656D1*
X4478764D2*
X4521597D1*
X2622475Y429692D2*
X2853593D1*
X2944571D2*
X3021387D1*
X2622475Y404823D2*
X2874478D1*
X2969438D2*
X3021387D1*
X2683012Y379954D2*
X2899345D1*
X2994307D2*
X3566647D1*
X2695678Y355085D2*
X2924213D1*
X3019175D2*
X3566647D1*
X2695751Y330217D2*
X2949080D1*
X3462222Y869799D2*
X3462904D1*
X3462878Y894003D1*
X3336894Y893980D1*
Y902341D1*
X3086340Y902367D1*
X3086335Y892012D1*
X3061108D1*
X3058773Y890852D1*
X3058776Y803429D1*
X2882169D1*
Y913106D1*
X2886081D1*
X2886106Y1203028D1*
X2884138Y1203035D1*
Y1300902D1*
X2884461D1*
X2884482Y1313274D1*
X2884138Y1313272D1*
Y1411138D1*
X2886112D1*
X2886685Y1416795D1*
X2888404Y1423962D1*
X2891224Y1430770D1*
X2895076Y1437054D1*
X2899862Y1442657D1*
X2928164Y1470756D1*
X2931072Y1473046D1*
X2932454Y1475231D1*
X2924736Y1481823D1*
X2918144Y1489541D1*
X2912841Y1498194D1*
X2908957Y1507571D1*
X2906588Y1517441D1*
X2905791Y1527559D1*
X2906588Y1537677D1*
X2908957Y1547547D1*
X2912841Y1556924D1*
X2916656Y1563350D1*
X2908430Y1563462D1*
X2901150Y1564440D1*
X2894028Y1566236D1*
X2887156Y1568829D1*
X2880622Y1572184D1*
X2874510Y1576259D1*
X2868900Y1580999D1*
X2863864Y1586345D1*
X2859466Y1592228D1*
X2855762Y1598572D1*
X2852803Y1605294D1*
X2850625Y1612310D1*
X2849256Y1619526D1*
X2848711Y1627949D1*
X2848856Y1691415D1*
X2849770Y1698702D1*
X2851507Y1705839D1*
X2854041Y1712734D1*
X2857340Y1719295D1*
X2861362Y1725442D1*
X2866055Y1731092D1*
X2871358Y1736175D1*
X2877203Y1740622D1*
X2883516Y1744379D1*
X2890213Y1747395D1*
X2897209Y1749634D1*
X2904413Y1751063D1*
X2911734Y1751668D1*
X2916552Y1751677D1*
X2912849Y1758021D1*
X2909890Y1764743D1*
X2907711Y1771759D1*
X2906343Y1778975D1*
X2905801Y1786299D1*
X2906093Y1793639D1*
X2907215Y1800898D1*
X2909154Y1807983D1*
X2911882Y1814802D1*
X2915366Y1821268D1*
X2919562Y1827298D1*
X2924413Y1832812D1*
X2929858Y1837741D1*
X2935828Y1842022D1*
X2942244Y1845597D1*
X2949024Y1848423D1*
X2956080Y1850461D1*
X2963323Y1851686D1*
X2972310Y1852083D1*
X3033385Y1851967D1*
X3040680Y1851114D1*
X3047831Y1849438D1*
X3054747Y1846963D1*
X3061337Y1843720D1*
X3063270Y1842579D1*
X3063272Y1854051D1*
X3239878D1*
Y1751688D1*
X3253657Y1751689D1*
Y1736941D1*
X3321144Y1736925D1*
X3321146Y1751689D1*
X3351827D1*
X3356626Y1754601D1*
X3362180Y1756900D1*
X3367274Y1758155D1*
X3321146Y1758154D1*
Y1856020D1*
X3419012D1*
Y1763503D1*
X3431387Y1763500D1*
X3431382Y1856020D1*
X3516033D1*
X3516028Y1857988D1*
X3692634D1*
Y1748311D1*
X3690660D1*
X3690883Y1714505D1*
X3693428Y1711526D1*
X3695475Y1708185D1*
X3696974Y1704566D1*
X3697888Y1700756D1*
X3698196Y1696850D1*
X3698118Y1651584D1*
X3697505Y1647715D1*
X3696295Y1643988D1*
X3694517Y1640497D1*
X3692214Y1637328D1*
X3690878Y1635883D1*
X3690665Y1625049D1*
Y1565475D1*
X3722259Y1596818D1*
X3729220Y1601875D1*
X3736345Y1605896D1*
Y1680980D1*
X3834920Y1681102D1*
Y1718601D1*
X3736343Y1718626D1*
Y1828618D1*
X3846335D1*
Y1807367D1*
X3850870Y1812510D1*
X3857433Y1818114D1*
X3864791Y1822623D1*
X3872764Y1825927D1*
X3881155Y1827941D1*
X3889759Y1828618D1*
X3898362Y1827941D1*
X3906753Y1825927D1*
X3914726Y1822623D1*
X3922084Y1818114D1*
X3928647Y1812510D1*
X3934251Y1805948D1*
X3938760Y1798589D1*
X3942063Y1790617D1*
X3944077Y1782226D1*
X3944755Y1773622D1*
X3944597Y1746063D1*
X3944757Y1625984D1*
X3944600Y1598423D1*
X3943925Y1589844D1*
X3941916Y1581476D1*
X3938623Y1573526D1*
X3934126Y1566189D1*
X3928538Y1559646D1*
X3882072Y1513419D1*
X3875110Y1508361D1*
X3867442Y1504454D1*
X3859259Y1501794D1*
X3850760Y1500449D1*
X3828084Y1500280D1*
X3780609D1*
X3690675Y1410366D1*
X3690665Y1401928D1*
X3696257Y1397045D1*
X3701845Y1390501D1*
X3705610Y1384470D1*
X3789159Y1467861D1*
X3793197Y1470795D1*
X3797644Y1473060D1*
X3802391Y1474602D1*
X3807320Y1475383D1*
X3874121Y1475482D1*
X3887218D1*
X4013449Y1601739D1*
X4012272Y1609562D1*
Y1618785D1*
X4013714Y1627894D1*
X4016564Y1636665D1*
X4020752Y1644883D1*
X4026173Y1652345D1*
X4032694Y1658866D1*
X4040156Y1664287D1*
X4048374Y1668475D1*
X4057146Y1671325D1*
X4066255Y1672768D1*
X4075478D1*
X4084587Y1671325D1*
X4093358Y1668475D1*
X4101576Y1664287D1*
X4109038Y1658866D1*
X4115559Y1652345D1*
X4120980Y1644883D1*
X4125168Y1636665D1*
X4128018Y1627894D1*
X4129461Y1618785D1*
Y1609562D1*
X4128018Y1600453D1*
X4125168Y1591681D1*
X4120980Y1583463D1*
X4115559Y1576001D1*
X4109038Y1569480D1*
X4101576Y1564059D1*
X4093358Y1559871D1*
X4084587Y1557021D1*
X4075478Y1555579D1*
X4066255D1*
X4058436Y1556765D1*
X3958089Y1456413D1*
X4137507D1*
X4137484Y1656091D1*
X4041067Y1752534D1*
X4035433Y1752248D1*
X4026239Y1752971D1*
X4017270Y1755125D1*
X4008749Y1758654D1*
X4000886Y1763474D1*
X3993873Y1769463D1*
X3987883Y1776476D1*
X3983063Y1784340D1*
X3979534Y1792861D1*
X3977381Y1801829D1*
X3976657Y1811024D1*
X3977381Y1820218D1*
X3979534Y1829186D1*
X3983063Y1837707D1*
X3987883Y1845571D1*
X3993873Y1852584D1*
X4000886Y1858573D1*
X4008749Y1863394D1*
X4017270Y1866923D1*
X4026239Y1869076D1*
X4035433Y1869799D1*
X4044627Y1869076D1*
X4053596Y1866923D1*
X4062117Y1863394D1*
X4069980Y1858573D1*
X4076993Y1852584D1*
X4082983Y1845571D1*
X4087803Y1837707D1*
X4091332Y1829186D1*
X4093486Y1820218D1*
X4094209Y1811024D1*
X4093486Y1801829D1*
X4091332Y1792861D1*
X4091164Y1792404D1*
X4193478Y1689949D1*
X4196411Y1685911D1*
X4198677Y1681463D1*
X4200219Y1676717D1*
X4201000Y1671787D1*
X4201098Y1659710D1*
X4208913Y1660993D1*
X4216283D1*
X4223562Y1659840D1*
X4230571Y1657563D1*
X4237138Y1654217D1*
X4243100Y1649886D1*
X4248311Y1644675D1*
X4252642Y1638713D1*
X4255988Y1632146D1*
X4258265Y1625136D1*
X4259419Y1617858D1*
Y1610488D1*
X4258265Y1603210D1*
X4255988Y1596201D1*
X4252642Y1589634D1*
X4248311Y1583672D1*
X4243100Y1578461D1*
X4237138Y1574130D1*
X4230571Y1570783D1*
X4223562Y1568507D1*
X4216283Y1567353D1*
X4208913D1*
X4201094Y1568659D1*
X4201098Y1456391D1*
X4228937Y1456413D1*
X4225476Y1461416D1*
X4221289Y1469634D1*
X4218438Y1478406D1*
X4216996Y1487514D1*
Y1496738D1*
X4218438Y1505846D1*
X4221289Y1514618D1*
X4225476Y1522836D1*
X4230898Y1530298D1*
X4237419Y1536819D1*
X4244881Y1542240D1*
X4253098Y1546428D1*
X4261870Y1549278D1*
X4270979Y1550720D1*
X4280202D1*
X4289311Y1549278D1*
X4298083Y1546428D1*
X4306301Y1542240D1*
X4313762Y1536819D1*
X4320283Y1530298D1*
X4325705Y1522836D1*
X4329892Y1514618D1*
X4332743Y1505846D1*
X4334185Y1496738D1*
Y1487514D1*
X4332743Y1478406D1*
X4329892Y1469634D1*
X4325705Y1461416D1*
X4322215Y1456403D1*
X4366211Y1456413D1*
X4366343Y1575249D1*
X4367282Y1581186D1*
X4369140Y1586902D1*
X4371869Y1592257D1*
X4375402Y1597121D1*
X4409921Y1631807D1*
X4437453Y1659339D1*
X4437469Y1668391D1*
X4438911Y1677500D1*
X4441761Y1686272D1*
X4445949Y1694490D1*
X4451370Y1701951D1*
X4457891Y1708472D1*
X4465353Y1713894D1*
X4473571Y1718081D1*
X4482343Y1720932D1*
X4491451Y1722374D1*
X4500675D1*
X4509783Y1720932D1*
X4518555Y1718081D1*
X4524084Y1715400D1*
X4524091Y1826510D1*
X4517554Y1823927D1*
X4508887Y1821845D1*
X4500000Y1821146D1*
X4491113Y1821845D1*
X4482446Y1823927D1*
X4474210Y1827337D1*
X4466610Y1831995D1*
X4459831Y1837783D1*
X4454042Y1844563D1*
X4449385Y1852163D1*
X4445974Y1860399D1*
X4443892Y1869066D1*
X4443193Y1877953D1*
X4443892Y1886840D1*
X4445974Y1895507D1*
X4446510Y1896962D1*
X4339264Y1896949D1*
X4339185Y1872546D1*
X4337001Y1862159D1*
X4335668Y1859539D1*
X4330185Y1851609D1*
X4327950Y1849701D1*
X4319853Y1844478D1*
X4317059Y1843570D1*
X4307087Y1841831D1*
X4248058D1*
X4252642Y1835563D1*
X4255988Y1828996D1*
X4258265Y1821987D1*
X4259419Y1814709D1*
Y1807339D1*
X4258265Y1800060D1*
X4255988Y1793051D1*
X4252642Y1786484D1*
X4248311Y1780522D1*
X4243100Y1775311D1*
X4237138Y1770980D1*
X4230571Y1767634D1*
X4223562Y1765357D1*
X4216283Y1764203D1*
X4208913D1*
X4201635Y1765357D1*
X4194626Y1767634D1*
X4188059Y1770980D1*
X4182097Y1775311D1*
X4176886Y1780522D1*
X4172555Y1786484D1*
X4169209Y1793051D1*
X4166932Y1800060D1*
X4165778Y1807339D1*
Y1814709D1*
X4166932Y1821987D1*
X4169209Y1828996D1*
X4172555Y1835563D1*
X4177169Y1841832D1*
X4116640Y1841917D1*
X4106253Y1844101D1*
X4103634Y1845434D1*
X4095703Y1850917D1*
X4093795Y1853152D1*
X4088572Y1861249D1*
X4087664Y1864043D1*
X4085925Y1874016D1*
Y1896946D1*
X2692591Y1896949D1*
X2693903Y1890777D1*
X2694602Y1881890D1*
X2693903Y1873003D1*
X2692811Y1867840D1*
X2744014Y1867715D1*
X2751310Y1866862D1*
X2758461Y1865186D1*
X2765377Y1862711D1*
X2771967Y1859469D1*
X2778147Y1855499D1*
X2783837Y1850854D1*
X2788965Y1845594D1*
X2793462Y1839787D1*
X2797272Y1833508D1*
X2800345Y1826836D1*
X2802643Y1819860D1*
X2804134Y1812668D1*
X2804801Y1805353D1*
X2804604Y1797644D1*
X2803564Y1790373D1*
X2801707Y1783266D1*
X2799055Y1776417D1*
X2795646Y1769912D1*
X2791518Y1763835D1*
X2786731Y1758265D1*
X2781341Y1753274D1*
X2775421Y1748927D1*
X2769046Y1745278D1*
X2762299Y1742377D1*
X2755265Y1740257D1*
X2748038Y1738950D1*
X2740157Y1738469D1*
X2672210Y1738659D1*
X2664929Y1739636D1*
X2657807Y1741433D1*
X2650936Y1744026D1*
X2644402Y1747381D1*
X2638290Y1751455D1*
X2632680Y1756196D1*
X2627643Y1761542D1*
X2623245Y1767425D1*
X2619954Y1772988D1*
X2619957Y1541959D1*
X2624071Y1548752D1*
X2628601Y1554533D1*
X2633759Y1559764D1*
X2639475Y1564377D1*
X2645677Y1568310D1*
X2652286Y1571516D1*
X2659215Y1573951D1*
X2666377Y1575587D1*
X2673677Y1576398D1*
X2712073Y1576492D1*
X2745846Y1576241D1*
X2753114Y1575181D1*
X2760215Y1573303D1*
X2767058Y1570633D1*
X2773554Y1567203D1*
X2779618Y1563060D1*
X2785175Y1558256D1*
X2790150Y1552853D1*
X2794480Y1546920D1*
X2798110Y1540534D1*
X2800993Y1533780D1*
X2803092Y1526740D1*
X2804379Y1519508D1*
X2804839Y1511811D1*
X2804421Y1504478D1*
X2803176Y1497239D1*
X2801117Y1490188D1*
X2798273Y1483416D1*
X2794678Y1477010D1*
X2790382Y1471054D1*
X2785437Y1465622D1*
X2779908Y1460786D1*
X2773867Y1456609D1*
X2767391Y1453143D1*
X2760564Y1450433D1*
X2753474Y1448516D1*
X2746211Y1447413D1*
X2738320Y1447130D1*
X2672210Y1447320D1*
X2664929Y1448298D1*
X2657807Y1450094D1*
X2650936Y1452688D1*
X2644402Y1456042D1*
X2638290Y1460117D1*
X2632680Y1464857D1*
X2627643Y1470203D1*
X2623245Y1476087D1*
X2619954Y1481650D1*
X2619957Y396463D1*
X2628908Y398627D1*
X2637795Y399327D1*
X2646682Y398627D1*
X2655349Y396546D1*
X2663585Y393135D1*
X2671185Y388478D1*
X2677965Y382689D1*
X2683753Y375909D1*
X2688411Y368310D1*
X2691822Y360073D1*
X2693903Y351407D1*
X2694602Y342520D1*
X2693903Y333633D1*
X2692526Y327465D1*
X2954349Y327461D1*
X2861640Y420287D1*
X2858707Y424325D1*
X2856441Y428773D1*
X2854899Y433520D1*
X2854118Y438449D1*
X2854020Y451315D1*
X2846327Y448870D1*
X2839100Y447559D1*
X2831768Y447130D1*
X2824438Y447589D1*
X2817217Y448929D1*
X2810210Y451130D1*
X2803520Y454161D1*
X2797245Y457978D1*
X2791476Y462525D1*
X2786298Y467734D1*
X2781787Y473529D1*
X2778008Y479827D1*
X2775017Y486535D1*
X2772857Y493555D1*
X2771560Y500783D1*
X2771146Y508117D1*
X2771619Y515446D1*
X2772974Y522665D1*
X2775190Y529667D1*
X2778235Y536352D1*
X2782063Y542618D1*
X2786621Y548378D1*
X2791840Y553546D1*
X2797646Y558045D1*
X2803950Y561811D1*
X2810664Y564789D1*
X2817689Y566934D1*
X2824920Y568217D1*
X2832255Y568617D1*
X2839583Y568129D1*
X2846798Y566760D1*
X2854016Y564442D1*
X2854020Y651333D1*
X2848105Y649335D1*
X2840921Y647804D1*
X2833605Y647154D1*
X2826265Y647391D1*
X2819007Y648512D1*
X2811936Y650501D1*
X2805157Y653328D1*
X2798769Y656954D1*
X2792866Y661323D1*
X2787533Y666373D1*
X2782849Y672030D1*
X2778881Y678210D1*
X2775689Y684824D1*
X2773318Y691776D1*
X2771803Y698963D1*
X2771167Y706280D1*
X2771419Y713621D1*
X2772554Y720877D1*
X2774556Y727942D1*
X2777398Y734715D1*
X2781035Y741096D1*
X2785417Y746991D1*
X2790478Y752314D1*
X2796143Y756987D1*
X2802332Y760942D1*
X2808953Y764121D1*
X2815909Y766478D1*
X2823098Y767979D1*
X2830417Y768600D1*
X2837757Y768335D1*
X2845010Y767184D1*
X2852073Y765167D1*
X2858840Y762312D1*
X2865213Y758661D1*
X2871100Y754269D1*
X2876412Y749197D1*
X2881073Y743522D1*
X2885017Y737325D1*
X2887799Y731604D1*
X2892266Y738950D1*
X2897655Y745259D1*
X2903963Y750647D1*
X2911037Y754982D1*
X2918702Y758156D1*
X2926769Y760093D1*
X2935039Y760744D1*
X2943310Y760093D1*
X2951377Y758156D1*
X2959042Y754982D1*
X2966115Y750647D1*
X2972424Y745259D1*
X2977812Y738950D1*
X2982147Y731877D1*
X2985322Y724211D1*
X2987259Y716144D1*
X2987909Y707874D1*
X2987259Y699604D1*
X2985322Y691537D1*
X2982147Y683871D1*
X2977812Y676798D1*
X2972424Y670490D1*
X2966115Y665101D1*
X2959042Y660766D1*
X2952184Y657888D1*
X2959042Y654982D1*
X2966115Y650647D1*
X2972424Y645259D1*
X2977812Y638950D1*
X2982147Y631877D1*
X2985322Y624211D1*
X2987259Y616144D1*
X2987909Y607874D1*
X2987259Y599604D1*
X2985322Y591537D1*
X2982147Y583871D1*
X2977812Y576798D1*
X2972424Y570490D1*
X2966115Y565101D1*
X2959042Y560766D1*
X2952184Y557888D1*
X2958769Y555119D1*
X2965087Y551375D1*
X2970824Y546793D1*
X2975871Y541459D1*
X2980131Y535478D1*
X2983521Y528965D1*
X2985975Y522043D1*
X2987448Y514849D1*
X2987909Y507874D1*
X2987399Y500549D1*
X2985879Y493365D1*
X2983379Y486461D1*
X2979945Y479969D1*
X2975646Y474016D1*
X2970563Y468717D1*
X2964795Y464172D1*
X2958453Y460471D1*
X2951659Y457684D1*
X2944545Y455865D1*
X2937247Y455050D1*
X2929907Y455253D1*
X2922665Y456472D1*
X2917635Y457955D1*
X2921310Y450445D1*
X3017096Y354657D1*
X3569148Y354642D1*
X3569164Y442159D1*
X3782140D1*
X3782169Y463707D1*
X3780778Y468172D1*
X3779916Y473619D1*
Y479136D1*
X3780778Y484584D1*
X3782483Y489831D1*
X3784987Y494745D1*
X3788230Y499209D1*
X3792130Y503109D1*
X3796593Y506352D1*
X3801508Y508856D1*
X3806755Y510560D1*
X3812202Y511423D1*
X3817719D1*
X3823167Y510560D1*
X3828413Y508856D1*
X3833328Y506352D1*
X3837791Y503109D1*
X3841692Y499209D1*
X3844934Y494745D1*
X3847438Y489831D1*
X3849143Y484584D1*
X3850005Y479136D1*
Y473619D1*
X3849143Y468172D1*
X3848403Y465546D1*
X3882580Y499602D1*
X3886293Y502301D1*
X3890382Y504385D1*
X3894747Y505802D1*
X3899280Y506520D1*
X3984252Y506610D1*
X4266409D1*
X4297239Y537420D1*
X4300930Y541589D1*
X4305125Y545172D1*
X4309828Y548054D1*
X4314924Y550165D1*
X4320289Y551453D1*
X4325787Y551886D1*
X4331286Y551453D1*
X4337328Y549915D1*
X4401252Y549917D1*
X4471135Y619782D1*
X4472184Y624196D1*
X4473940Y628436D1*
X4476337Y632349D1*
X4479319Y635839D1*
X4493350Y649871D1*
X4495617Y654194D1*
X4498860Y658657D1*
X4502760Y662558D1*
X4507223Y665801D1*
X4512138Y668304D1*
X4517385Y670009D1*
X4524093Y670921D1*
X4524091Y990408D1*
X4506804Y990437D1*
X4506668Y957297D1*
X4505564Y950323D1*
X4503382Y943608D1*
X4500176Y937316D1*
X4496026Y931604D1*
X4478073Y913455D1*
X4477928Y716942D1*
X4476824Y709969D1*
X4474642Y703253D1*
X4471436Y696962D1*
X4467286Y691249D1*
X4445400Y669168D1*
X4367806Y591769D1*
X4362093Y587619D1*
X4355802Y584413D1*
X4349087Y582231D1*
X4342113Y581127D1*
X4311024Y580988D1*
X4090958Y581127D1*
X4083984Y582231D1*
X4077269Y584413D1*
X4070978Y587618D1*
X4065265Y591769D1*
X4043184Y613655D1*
X4032552Y624286D1*
X3652564Y624295D1*
X3588369Y560273D1*
X3582656Y556122D1*
X3576365Y552917D1*
X3569650Y550735D1*
X3566171Y550045D1*
X3562713Y544340D1*
Y393980D1*
X3295470D1*
X3289272Y387911D1*
X3285234Y384978D1*
X3280786Y382711D1*
X3276039Y381169D1*
X3271110Y380388D1*
X3204310Y380290D1*
X3165104Y380388D1*
X3160175Y381169D1*
X3155428Y382711D1*
X3150980Y384978D1*
X3146942Y387911D1*
X3133563Y401151D1*
X3133579Y393980D1*
X3023902D1*
Y530109D1*
X3021374Y534272D1*
X3019463Y538882D1*
X3018298Y543735D1*
X3017907Y548711D1*
X3018005Y741186D1*
X3018786Y746115D1*
X3020328Y750862D1*
X3022593Y755310D1*
X3025528Y759348D1*
X3046606Y780564D1*
X3046705Y795189D1*
X3063894D1*
X3063862Y888106D1*
X3153854D1*
Y887827D1*
X3158858Y888106D1*
X3165898Y887552D1*
X3172762Y885904D1*
X3179286Y883202D1*
X3185306Y879513D1*
X3190676Y874928D1*
X3195261Y869558D1*
X3198950Y863538D1*
X3201652Y857014D1*
X3203301Y850150D1*
X3203854Y843110D1*
X3203715Y827769D1*
X3202612Y820795D1*
X3200429Y814080D1*
X3199244Y811510D1*
X3205962Y818063D1*
X3210825Y821596D1*
X3216181Y824324D1*
X3221896Y826182D1*
X3227833Y827122D1*
X3276770Y827240D1*
X3327475D1*
X3343318Y842890D1*
X3348180Y846423D1*
X3353535Y849151D1*
X3359251Y851009D1*
X3365199Y851949D1*
X3366421Y859860D1*
Y869799D1*
X3462222D1*
X3562713Y854621D2*
Y661694D1*
X3604726Y703507D1*
X3610438Y707657D1*
X3616730Y710862D1*
X3623445Y713045D1*
X3630419Y714148D1*
X3661508Y714287D1*
X4039752Y714463D1*
X4046862D1*
X4054711Y714148D1*
X4061685Y713045D1*
X4068400Y710862D1*
X4074692Y707657D1*
X4080404Y703507D1*
X4102486Y681621D1*
X4113117Y670990D1*
X4319949Y670980D1*
X4388089Y739125D1*
X4388214Y935617D1*
X4389318Y942591D1*
X4391500Y949306D1*
X4394706Y955597D1*
X4398856Y961310D1*
X4401264Y963913D1*
X4403350Y969332D1*
X4399450Y973232D1*
X4396207Y977696D1*
X4393703Y982610D1*
X4393147Y984118D1*
X4386466Y990831D1*
X4117125D1*
X4189541Y918295D1*
X4192474Y914257D1*
X4194740Y909810D1*
X4196282Y905063D1*
X4197063Y900134D1*
X4197161Y833333D1*
Y806312D1*
X4198787Y802202D1*
X4200075Y796837D1*
X4200508Y791339D1*
X4200075Y785840D1*
X4198787Y780475D1*
X4196676Y775379D1*
X4193794Y770676D1*
X4190211Y766482D1*
X4186017Y762899D1*
X4181314Y760017D1*
X4176218Y757906D1*
X4170853Y756618D1*
X4165354Y756185D1*
X4159856Y756618D1*
X4154491Y757906D1*
X4149395Y760017D1*
X4145686Y762234D1*
X4141944Y760017D1*
X4136848Y757906D1*
X4131483Y756618D1*
X4125984Y756185D1*
X4120486Y756618D1*
X4115121Y757906D1*
X4110025Y760017D1*
X4105322Y762899D1*
X4101127Y766482D1*
X4097545Y770676D1*
X4094663Y775379D1*
X4092551Y780475D1*
X4091264Y785840D1*
X4090831Y791339D1*
X4091264Y796837D1*
X4092551Y802202D1*
X4094180Y806251D1*
X4094177Y880510D1*
X4014406Y960298D1*
X3934512Y960417D1*
X3929583Y961198D1*
X3924836Y962740D1*
X3920388Y965005D1*
X3916350Y967940D1*
X3893312Y990840D1*
X3594786Y990827D1*
X3601050Y988500D1*
X3726906Y988402D1*
X3731835Y987621D1*
X3736581Y986079D1*
X3741029Y983812D1*
X3745067Y980879D1*
X3792370Y933714D1*
X3808432Y917652D1*
X3922844Y917634D1*
X3927366Y920836D1*
X3933106Y923760D1*
X3939234Y925752D1*
X3945597Y926760D1*
X3952041D1*
X3958404Y925752D1*
X3964531Y923760D1*
X3970272Y920836D1*
X3975484Y917049D1*
X3980041Y912492D1*
X3983828Y907280D1*
X3986752Y901539D1*
X3988744Y895412D1*
X3989752Y889049D1*
Y882605D1*
X3988744Y876241D1*
X3986752Y870114D1*
X3983828Y864374D1*
X3980041Y859161D1*
X3975484Y854605D1*
X3970272Y850818D1*
X3964531Y847894D1*
X3958404Y845902D1*
X3952041Y844894D1*
X3945597D1*
X3939234Y845902D1*
X3933106Y847894D1*
X3927366Y850818D1*
X3922895Y854021D1*
X3829862Y854020D1*
X3868471Y815143D1*
X3873529Y808181D1*
X3877436Y800513D1*
X3880094Y792329D1*
X3881441Y783831D1*
Y775224D1*
X3880094Y766726D1*
X3877436Y758542D1*
X3873529Y750874D1*
X3868471Y743912D1*
X3862387Y737828D1*
X3855425Y732770D1*
X3847757Y728864D1*
X3839573Y726205D1*
X3831075Y724858D1*
X3822469D1*
X3813970Y726205D1*
X3805786Y728864D1*
X3798118Y732770D1*
X3791156Y737828D1*
X3775004Y753743D1*
X3674142Y854604D1*
X3562680Y854610D1*
X3466028Y1346736D2*
X3441224D1*
Y1386101D1*
X3338303Y1386072D1*
Y1287762D1*
X3342497Y1288780D1*
X3346465Y1289091D1*
X3408357D1*
X3466046Y1346749D1*
X3453035Y570584D2*
Y693194D1*
X3385549Y693193D1*
X3385547Y692209D1*
X3254176D1*
X3248542Y688001D1*
X3246933Y684297D1*
X3246999Y669996D1*
X3385547D1*
Y574098D1*
X3381142Y574042D1*
X3384794Y570587D1*
X3453010D1*
X3751402Y1340272D2*
X3883579D1*
Y1291290D1*
X3893980Y1287122D1*
X3953010D1*
X3953035Y1312928D1*
X3941768Y1313000D1*
X3936839Y1313781D1*
X3932092Y1315323D1*
X3927644Y1317589D1*
X3923606Y1320522D1*
X3900230Y1343760D1*
X3893915Y1343765D1*
X3889801Y1342139D1*
X3884436Y1340852D1*
X3878937Y1340419D1*
X3873438Y1340852D1*
X3868073Y1342139D1*
X3862978Y1344251D1*
X3858274Y1347133D1*
X3854080Y1350715D1*
X3850497Y1354909D1*
X3847615Y1359613D1*
X3845504Y1364709D1*
X3844217Y1370073D1*
X3843783Y1375572D1*
X3844217Y1381071D1*
X3845504Y1386436D1*
X3847615Y1391531D1*
X3850497Y1396235D1*
X3854080Y1400429D1*
X3858274Y1404012D1*
X3862978Y1406894D1*
X3868073Y1409005D1*
X3873438Y1410293D1*
X3878937Y1410726D1*
X3884436Y1410293D1*
X3889801Y1409005D1*
X3893849Y1407377D1*
X3915896Y1407281D1*
X3920825Y1406500D1*
X3925572Y1404958D1*
X3930020Y1402692D1*
X3934058Y1399759D1*
X3953018Y1380936D1*
X3953035Y1451390D1*
X3921025Y1419488D1*
X3916987Y1416554D1*
X3912539Y1414289D1*
X3907793Y1412747D1*
X3902864Y1411966D1*
X3836063Y1411867D1*
X3822966D1*
X3751390Y1340266D1*
X3746343Y1327707D1*
Y1335207D1*
X3698257Y1287133D1*
X3742123Y1287122D1*
X3746335Y1291318D1*
X3746343Y1327707D1*
X2967241Y1592113D2*
X3007218Y1592240D1*
X3014503D1*
X3014059Y1598438D1*
X3014185Y1684324D1*
X3015193Y1690688D1*
X3017185Y1696815D1*
X3020109Y1702555D1*
X3023896Y1707768D1*
X3039457Y1723508D1*
X3031915Y1722765D1*
X2967257Y1722802D1*
X2971339Y1715731D1*
X2974222Y1708976D1*
X2976320Y1701937D1*
X2977608Y1694705D1*
X2978067Y1687008D1*
X2977832Y1622448D1*
X2976793Y1615176D1*
X2974936Y1608070D1*
X2972283Y1601220D1*
X2968874Y1594715D1*
X2967256Y1592163D1*
X2829322Y1651392D2*
X2828605Y1645343D1*
X2827416Y1639367D1*
X2825762Y1633503D1*
X2823654Y1627787D1*
X2821104Y1622255D1*
X2818126Y1616938D1*
X2814741Y1611873D1*
X2810970Y1607088D1*
X2806835Y1602614D1*
X2802361Y1598479D1*
X2797576Y1594707D1*
X2792510Y1591323D1*
X2787194Y1588345D1*
X2781661Y1585795D1*
X2775946Y1583686D1*
X2770081Y1582033D1*
X2764106Y1580844D1*
X2758056Y1580127D1*
X2751969Y1579888D1*
X2745881Y1580127D1*
X2739831Y1580844D1*
X2733856Y1582033D1*
X2727991Y1583686D1*
X2722276Y1585795D1*
X2716743Y1588345D1*
X2711427Y1591323D1*
X2706361Y1594707D1*
X2701576Y1598479D1*
X2697102Y1602614D1*
X2692967Y1607088D1*
X2689196Y1611873D1*
X2685811Y1616938D1*
X2682833Y1622255D1*
X2680283Y1627787D1*
X2678175Y1633503D1*
X2676521Y1639367D1*
X2675332Y1645343D1*
X2674615Y1651392D1*
X2674377Y1657480D1*
X2674615Y1663568D1*
X2675332Y1669618D1*
X2676521Y1675593D1*
X2678175Y1681458D1*
X2680283Y1687173D1*
X2682833Y1692706D1*
X2685811Y1698022D1*
X2689196Y1703088D1*
X2692967Y1707873D1*
X2697102Y1712346D1*
X2701576Y1716482D1*
X2706361Y1720253D1*
X2711427Y1723638D1*
X2716743Y1726615D1*
X2722276Y1729165D1*
X2727991Y1731274D1*
X2733856Y1732928D1*
X2739831Y1734117D1*
X2745881Y1734833D1*
X2751969Y1735072D1*
X2758056Y1734833D1*
X2764106Y1734117D1*
X2770081Y1732928D1*
X2775946Y1731274D1*
X2781661Y1729165D1*
X2787194Y1726615D1*
X2792510Y1723638D1*
X2797576Y1720253D1*
X2802361Y1716482D1*
X2806835Y1712346D1*
X2810970Y1707873D1*
X2814741Y1703088D1*
X2818126Y1698022D1*
X2821104Y1692706D1*
X2823654Y1687173D1*
X2825762Y1681458D1*
X2827416Y1675593D1*
X2828605Y1669618D1*
X2829322Y1663568D1*
X2829560Y1657480D1*
X2829322Y1651392D1*
X4460322Y1809186D2*
X4459634Y1801874D1*
X4458039Y1794706D1*
X4455564Y1787791D1*
X4452245Y1781239D1*
X4448135Y1775152D1*
X4443298Y1769626D1*
X4437810Y1764747D1*
X4431756Y1760588D1*
X4425230Y1757218D1*
X4418336Y1754689D1*
X4411178Y1753038D1*
X4403873Y1752293D1*
X4396530Y1752465D1*
X4389266Y1753551D1*
X4382196Y1755535D1*
X4375427Y1758385D1*
X4369066Y1762056D1*
X4363213Y1766493D1*
X4357959Y1771625D1*
X4353386Y1777371D1*
X4349566Y1783644D1*
X4346558Y1790344D1*
X4344408Y1797366D1*
X4343151Y1804602D1*
X4342806Y1811938D1*
X4343379Y1819261D1*
X4344861Y1826454D1*
X4347228Y1833407D1*
X4350444Y1840009D1*
X4354458Y1846160D1*
X4359207Y1851761D1*
X4364618Y1856727D1*
X4370606Y1860979D1*
X4377079Y1864451D1*
X4383933Y1867089D1*
X4391063Y1868852D1*
X4398356Y1869711D1*
X4405701Y1869655D1*
X4412980Y1868682D1*
X4420081Y1866810D1*
X4426894Y1864066D1*
X4433311Y1860495D1*
X4439234Y1856150D1*
X4444567Y1851101D1*
X4449230Y1845427D1*
X4453148Y1839215D1*
X4456261Y1832563D1*
X4458521Y1825575D1*
X4459891Y1818360D1*
X4460350Y1811024D1*
X4460322Y1809186D1*
X2678757Y1424917D2*
X2826492D1*
Y1283744D1*
X2777718Y1283667D1*
X2787951Y1279429D1*
X2797395Y1273642D1*
X2805818Y1266448D1*
X2813012Y1258025D1*
X2818799Y1248581D1*
X2823037Y1238348D1*
X2825623Y1227577D1*
X2826492Y1216535D1*
X2825623Y1205493D1*
X2823037Y1194723D1*
X2818799Y1184490D1*
X2813012Y1175046D1*
X2805818Y1166623D1*
X2797395Y1159429D1*
X2787951Y1153642D1*
X2777718Y1149404D1*
X2771173Y1147659D1*
X2777718Y1145871D1*
X2787951Y1141634D1*
X2797395Y1135846D1*
X2805818Y1128652D1*
X2813012Y1120230D1*
X2818799Y1110786D1*
X2823037Y1100552D1*
X2825623Y1089782D1*
X2826492Y1078740D1*
X2825623Y1067698D1*
X2823037Y1056928D1*
X2818799Y1046694D1*
X2813012Y1037251D1*
X2805818Y1028828D1*
X2797395Y1021634D1*
X2787951Y1015846D1*
X2777718Y1011609D1*
X2771173Y1009864D1*
X2777718Y1008076D1*
X2787951Y1003839D1*
X2797395Y998051D1*
X2805818Y990857D1*
X2813012Y982434D1*
X2818799Y972991D1*
X2823037Y962757D1*
X2825623Y951987D1*
X2826492Y940945D1*
X2825623Y929903D1*
X2823037Y919133D1*
X2818799Y908899D1*
X2813012Y899455D1*
X2805818Y891033D1*
X2797395Y883839D1*
X2787951Y878051D1*
X2777718Y873814D1*
X2766948Y871227D1*
X2755906Y870358D1*
X2740157D1*
X2729115Y871227D1*
X2718345Y873814D1*
X2708112Y878051D1*
X2698668Y883839D1*
X2690245Y891033D1*
X2683051Y899455D1*
X2677264Y908899D1*
X2673026Y919133D1*
X2670440Y929903D1*
X2669571Y940945D1*
X2670440Y951987D1*
X2673026Y962757D1*
X2677264Y972991D1*
X2683051Y982434D1*
X2690245Y990857D1*
X2698668Y998051D1*
X2708112Y1003839D1*
X2718345Y1008076D1*
X2724890Y1009822D1*
X2718345Y1011609D1*
X2708112Y1015846D1*
X2698668Y1021634D1*
X2690245Y1028828D1*
X2683051Y1037251D1*
X2677264Y1046694D1*
X2673026Y1056928D1*
X2670440Y1067698D1*
X2669571Y1078740D1*
X2670440Y1089782D1*
X2673026Y1100552D1*
X2677264Y1110786D1*
X2683051Y1120230D1*
X2690245Y1128652D1*
X2698668Y1135846D1*
X2708112Y1141634D1*
X2718345Y1145871D1*
X2724890Y1147617D1*
X2718345Y1149404D1*
X2708112Y1153642D1*
X2698668Y1159429D1*
X2690245Y1166623D1*
X2683051Y1175046D1*
X2677264Y1184490D1*
X2673026Y1194723D1*
X2670440Y1205493D1*
X2669571Y1216535D1*
X2670440Y1227577D1*
X2673026Y1238348D1*
X2677264Y1248581D1*
X2683051Y1258025D1*
X2690245Y1266448D1*
X2698668Y1273642D1*
X2708112Y1279429D1*
X2718345Y1283667D1*
X2679510Y1283744D1*
X2669571D1*
Y1424917D1*
X2678757D1*
X3976098Y1279837D2*
Y1219696D1*
X3981756Y1220685D1*
X4048556Y1220783D1*
X4058743D1*
X4058744Y1279810D1*
X3976125Y1279807D1*
X4524093Y534787D2*
X4520092Y535161D1*
X4514070Y536692D1*
X4448302Y470915D1*
X4454936Y468329D1*
X4460991Y466394D1*
X4465438Y464127D1*
X4469476Y461194D1*
X4482136Y448672D1*
X4485378Y444877D1*
X4487196Y442161D1*
X4524092D1*
X4524091Y534751D1*
X2886106Y1202551D2*
Y1101583D1*
X3507874Y744094D2*
D13*
X3562677D1*
X3188976Y1854016D2*
Y1799213D1*
X3239843D1*
X3492126Y1401575D2*
X3441249Y1346762D1*
X3007874Y858268D2*
D20*
Y803465D1*
Y858268D2*
X3058740D1*
X3507874Y444882D2*
D15*
Y394016D1*
Y444882D2*
X3562677D1*
X3421260Y744094D2*
Y693228D1*
X3453071Y669291D2*
D13*
X3562677D1*
X3421260Y444882D2*
D15*
Y394016D1*
X3370079Y1855983D2*
Y1758189D1*
X3321182Y1807087D2*
X3418976D1*
X2913386Y1751654D2*
D20*
Y1563307D1*
X2848740Y1657480D2*
X2978031D1*
X3000000Y1852047D2*
D15*
Y1722756D1*
X2905827Y1787402D2*
X3000000D1*
X2708661Y1867795D2*
Y1738504D1*
Y1803150D2*
X2804803D1*
X2708661Y1576457D2*
Y1447165D1*
Y1511811D2*
X2804803D1*
X4401575Y1869764D2*
Y1752283D1*
X4342835Y1811024D2*
X4460315D1*
X3791341Y1680945D2*
D13*
Y1625984D1*
X3736381D2*
X3791341D1*
X3108858Y888071D2*
D15*
Y837205D1*
X3063898D2*
X3108858D1*
X3791339Y1828581D2*
Y1718661D1*
X3736379Y1773622D2*
X3791339D1*
X3078740Y444882D2*
Y394016D1*
X3023937Y444882D2*
X3078740D1*
X4090551Y1456377D2*
Y1405512D1*
X3125984Y953269D2*
D13*
Y902403D1*
X3287402Y1366142D2*
D15*
X3338268D1*
X3199969Y683264D2*
X3246898D1*
X3287402Y1736890D2*
Y1656496D1*
X3411417Y940945D2*
Y894016D1*
X2935039Y507874D2*
D14*
Y455039D1*
Y507874D2*
X2987874D1*
X2831890Y568583D2*
Y447165D1*
X2771181Y507874D2*
X2831890D1*
Y768583D2*
Y647165D1*
X2771181Y707874D2*
X2831890D1*
X4511811Y1055118D2*
D15*
Y990472D1*
X4511850Y442126D2*
Y377480D1*
X3812151Y1055508D2*
Y990862D1*
D31*
X3507874Y818898D3*
Y744094D3*
D32*
X3114173Y1799213D3*
X3188976D3*
D31*
X3251969Y1511811D3*
Y1437008D3*
D32*
X3566929Y1803150D3*
X3641732D3*
X3566929Y1401575D3*
X3492126D3*
X4437008Y1137795D3*
X4511811D3*
D31*
X4263780Y1330709D3*
Y1405512D3*
D32*
X2933071Y858268D3*
X3007874D3*
D31*
X3125984Y1188976D3*
Y1114173D3*
X3299213Y1028072D3*
Y953269D3*
X3507874Y519685D3*
Y444882D3*
X3421260Y818898D3*
Y744094D3*
D32*
X3103205Y602248D3*
X3178008D3*
D31*
X3507874Y594488D3*
Y669291D3*
X3421260Y519685D3*
Y444882D3*
X3114173Y1633858D3*
Y1708661D3*
D34*
X2933071Y1251969D3*
Y1362205D3*
X3480315Y1807087D3*
X3370079D3*
X3641732Y1732283D3*
Y1622047D3*
Y1444882D3*
Y1555118D3*
X3023622Y1362205D3*
Y1251969D3*
D38*
X3787402Y1157480D3*
Y1283465D3*
X3842520Y1157480D3*
Y1283465D3*
D169*
X2996064Y1435043D3*
X3106301D3*
D40*
X3000000Y1527559D3*
D41*
X2913386Y1657480D3*
D40*
X3000000Y1787402D3*
D42*
X2708661Y1803150D3*
Y1511811D3*
D43*
X4401575Y1811024D3*
X4275591Y1492126D3*
X4070866Y1614173D3*
X4035433Y1811024D3*
D44*
X4496063Y1763780D3*
D43*
Y1663780D3*
Y1563780D3*
Y1463780D3*
Y1363780D3*
Y1263780D3*
D45*
X3791341Y1625984D3*
D46*
X3889761D3*
D47*
X2748031Y1354331D3*
D48*
Y1216535D3*
Y1078740D3*
Y940945D3*
D51*
X3108858Y837205D3*
D52*
X3158858D3*
X4292520Y1185039D3*
X4342520D3*
D45*
X3791339Y1773622D3*
D46*
X3889759D3*
D52*
X3181693Y454134D3*
D51*
X3231693D3*
D55*
X3507874Y1716535D3*
Y1598425D3*
D56*
X3307087Y740157D3*
Y622047D3*
D57*
X2933092Y1125984D3*
X3051202D3*
D59*
X3425197Y1192913D3*
Y1118110D3*
X3515748Y1155512D3*
D61*
X3151577Y1356299D3*
X3100391D3*
X3125984Y1273622D3*
D31*
X3335472Y444882D3*
Y519685D3*
X3078740Y444882D3*
Y519685D3*
X3173228Y1511811D3*
Y1437008D3*
X3712598Y1236220D3*
Y1161417D3*
X3921260Y1236220D3*
Y1161417D3*
D32*
X3566929Y1488189D3*
X3492126D3*
D31*
X3407480Y1437008D3*
Y1511811D3*
X3330709Y1437008D3*
Y1511811D3*
X3216535Y1188976D3*
Y1114173D3*
D32*
X3212598Y1289370D3*
X3287402D3*
D31*
X3216535Y1028072D3*
Y953269D3*
X4350394Y1405512D3*
Y1330709D3*
X4177165D3*
Y1405512D3*
X4007874D3*
Y1330709D3*
X4090551D3*
Y1405512D3*
X3125984Y1028072D3*
Y953269D3*
D32*
X3287402Y1366142D3*
X3212598D3*
D62*
X4216535Y1255906D3*
Y1224409D3*
X4118110D3*
Y1255906D3*
D65*
X3199969Y683264D3*
Y720665D3*
Y758067D3*
X3093669D3*
Y720665D3*
Y683264D3*
D70*
X3200787Y1720472D3*
Y1694882D3*
Y1669291D3*
Y1643701D3*
Y1618110D3*
Y1592520D3*
X3374016D3*
Y1618110D3*
Y1643701D3*
Y1669291D3*
Y1694882D3*
Y1720472D3*
D71*
X3287402Y1656496D3*
D73*
X3374016Y940945D3*
X3411417D3*
X3448819D3*
Y1047244D3*
X3411417D3*
X3374016D3*
D74*
X2935039Y507874D3*
Y607874D3*
Y707874D3*
D75*
X2831890Y507874D3*
Y707874D3*
D76*
X4511811Y1055118D3*
X4461811Y1055512D3*
X4411811D3*
X4361811D3*
X4311811D3*
X4261811D3*
X4211811D3*
X4161811D3*
X4111811D3*
X4061811D3*
X4011811D3*
X3961811D3*
X3911811D3*
X3861811D3*
X3862192Y377478D3*
X3912192D3*
X3962192D3*
X4012190D3*
X4062192D3*
X3612192D3*
X3662192D3*
X3712192D3*
X3762192D3*
X3812192D3*
X4111850Y377480D3*
X4161850D3*
X4211850D3*
X4261850D3*
X4311850D3*
X4361850D3*
X4411850D3*
X4461850D3*
X4511850D3*
D77*
X4263701Y755118D3*
D76*
X3812151Y1055508D3*
X3762151D3*
X3712151D3*
X3662151D3*
X3612151D3*
D73*
X3362205Y1216535D3*
X3324803D3*
X3287402D3*
Y1110236D3*
X3324803D3*
X3362205D3*
D65*
X3039370Y929134D3*
Y966535D3*
Y1003937D3*
X2933071D3*
Y929134D3*
G36*
X3255906Y1724409D2*
X3318898D1*
Y1696850D1*
X3255906D1*
Y1724409D1*
G37*
G36*
X3535433Y1433071D2*
X3598425D1*
Y1374016D1*
X3535433D1*
Y1433071D1*
G37*
G36*
X4236220Y1460630D2*
X4248031Y1452756D1*
X4259843Y1448819D1*
X4291339D1*
X4303150Y1456693D1*
X4314961Y1468504D1*
X4318898Y1472441D1*
X4338583D1*
Y1452756D1*
X4322835Y1448819D1*
X4291339Y1417323D1*
X4236220D1*
X4216535Y1444882D1*
D1*
X4236220Y1460630D1*
G37*
G36*
X3578740Y1161417D2*
Y1110236D1*
X3665354D1*
Y1255906D1*
X3688976Y1279528D1*
Y1295276D1*
X3578740Y1185039D1*
Y1161417D1*
G37*
G36*
Y1110236D2*
X3586614D1*
Y984252D1*
X3578740D1*
Y1110236D1*
G37*
G36*
X3602362Y1003937D2*
X3578740D1*
Y984252D1*
X3582677Y980315D1*
X3590551D1*
X3598425Y976378D1*
X3622047D1*
D1*
X3602362Y1003937D1*
G37*
G36*
X3055118Y940945D2*
X3043307Y944882D1*
X3011811D1*
X3000000Y956693D1*
X2968504Y948819D1*
X2972441Y921260D1*
X3000000Y909449D1*
X3039370D1*
X3055118Y917323D1*
Y940945D1*
G37*
D20*
X3698819Y1407480D3*
G36*
X2911417Y1086614D2*
Y1212598D1*
X2937008Y1236220D1*
Y1110236D1*
D1*
X2911417Y1086614D1*
G37*
G36*
X3022457Y1070592D2*
Y1196576D1*
X3048047Y1220198D1*
Y1094214D1*
D1*
X3022457Y1070592D1*
G37*
G36*
X2992126Y1086614D2*
X3035433Y1141732D1*
Y1086614D1*
D1*
X2992126D1*
G37*
G36*
X3068898Y972441D2*
X3092520D1*
Y901575D1*
X3068898D1*
Y972441D1*
G37*
G36*
X3255906Y1602362D2*
X3318898D1*
Y1547244D1*
X3255906D1*
Y1602362D1*
G37*
G36*
X3248031Y1570866D2*
X3330709D1*
Y1547244D1*
X3248031D1*
Y1570866D1*
G37*
G36*
X3358268Y1740157D2*
X3425197D1*
X3433071Y1744094D1*
X3437008Y1751969D1*
Y1771654D1*
X3358268D1*
D1*
Y1740157D1*
G37*
G36*
X3240157D2*
X3185039D1*
X3173228Y1751969D1*
Y1759843D1*
Y1771654D1*
X3208661D1*
Y1759843D1*
X3240157D1*
Y1755906D1*
Y1740157D1*
G37*
G36*
X3070866Y960630D2*
X3102362D1*
Y925197D1*
X3070866D1*
Y960630D1*
G37*
G36*
X3068488Y932408D2*
X3110811D1*
Y899942D1*
X3068488D1*
Y932408D1*
G37*
G36*
X2996063Y877741D2*
X3055118D1*
Y834434D1*
X2996063D1*
Y877741D1*
G37*
G36*
X3082677Y893701D2*
X3186764D1*
Y870045D1*
X3082677D1*
Y893701D1*
G37*
G36*
X3346457Y1151575D2*
X3446850D1*
Y1102362D1*
X3405512D1*
X3385827Y1082677D1*
X3346457D1*
D1*
Y1151575D1*
G37*
G36*
X3446850Y1283465D2*
X3419291Y1263780D1*
X3346457D1*
Y1185039D1*
X3397638D1*
Y1212598D1*
X3407480Y1214567D1*
X3454724D1*
X3490157Y1250000D1*
X3488189D1*
X3446850Y1283465D1*
G37*
G36*
X3938976Y1724409D2*
X3958661D1*
Y1669291D1*
X3938976D1*
Y1724409D1*
G37*
G36*
X3813993Y1784612D2*
X3837319D1*
Y1758555D1*
X3813993D1*
Y1784612D1*
G37*
G36*
X3847201Y1715906D2*
X3847453Y1795251D1*
X3833598Y1806587D1*
X3833850Y1781650D1*
X3834102Y1715654D1*
D1*
X3847201Y1715906D1*
G37*
G36*
X3965604Y1306236D2*
X3980945Y1286722D1*
X3965633Y1263151D1*
X3950836Y1275710D1*
Y1275538D1*
X3965604Y1306236D1*
G37*
M02*
