G04 DipTrace 3.3.1.3*
G04 Top.gbr*
%MOIN*%
G04 #@! TF.FileFunction,Copper,L1,Top*
G04 #@! TF.Part,Single*
%AMOUTLINE0*
4,1,4,
0.023622,-0.023622,
-0.023622,-0.023622,
-0.023622,0.023622,
0.023622,0.023622,
0.023622,-0.023622,
0*%
G04 #@! TA.AperFunction,Conductor*
%ADD14C,0.012992*%
G04 #@! TA.AperFunction,CopperBalancing*
%ADD15C,0.03937*%
%ADD16C,0.025984*%
G04 #@! TA.AperFunction,Conductor*
%ADD17C,0.007874*%
%ADD18C,0.029528*%
%ADD19C,0.011811*%
G04 #@! TA.AperFunction,ViaPad*
%ADD20C,0.031496*%
G04 #@! TA.AperFunction,Conductor*
%ADD21C,0.059055*%
G04 #@! TA.AperFunction,ViaPad*
%ADD24C,0.019685*%
G04 #@! TA.AperFunction,Conductor*
%ADD25C,0.047244*%
G04 #@! TA.AperFunction,Nonconductor*
%ADD26C,0.043307*%
G04 #@! TA.AperFunction,CopperBalancing*
%ADD28C,0.025*%
%ADD31R,0.059055X0.051181*%
%ADD32R,0.051181X0.059055*%
%ADD34R,0.047244X0.047244*%
%ADD38R,0.031496X0.062992*%
G04 #@! TA.AperFunction,ComponentPad*
%ADD40O,0.137795X0.07874*%
%ADD41O,0.07874X0.137795*%
%ADD42O,0.141732X0.07874*%
%ADD43C,0.066929*%
%ADD44R,0.066929X0.066929*%
%ADD45R,0.05937X0.05937*%
%ADD46C,0.05937*%
%ADD47R,0.106299X0.090551*%
%ADD48O,0.106299X0.090551*%
%ADD51R,0.03937X0.051181*%
%ADD52O,0.03937X0.051181*%
%ADD54R,0.133858X0.043307*%
%ADD55R,0.106299X0.045276*%
%ADD56R,0.043307X0.133858*%
%ADD58R,0.041339X0.025591*%
%ADD60R,0.019685X0.033465*%
%ADD61R,0.019685X0.019685*%
%ADD64R,0.043307X0.023622*%
%ADD69R,0.055118X0.011811*%
%ADD70R,0.062992X0.110236*%
%ADD72R,0.023622X0.043307*%
G04 #@! TA.AperFunction,ComponentPad*
%ADD73C,0.055118*%
%ADD74C,0.070866*%
%ADD75R,0.035433X0.07874*%
%ADD76R,0.11811X0.19685*%
G04 #@! TA.AperFunction,ViaPad*
%ADD77C,0.04*%
%ADD169OUTLINE0*%
%FSLAX26Y26*%
G04*
G70*
G90*
G75*
G01*
G04 Top*
%LPD*%
X1006213Y782004D2*
D16*
X1044626D1*
X1070024Y807402D1*
X1073961D1*
X2318055Y1236535D2*
Y1153858D1*
X1928291Y1319213D2*
D17*
Y1350709D1*
X1896795Y1504252D2*
D14*
X1924354D1*
X1940102Y1488504D1*
Y1390079D1*
X1928291Y1378268D1*
Y1350709D1*
X845614Y1065276D2*
D18*
X888921D1*
Y1039685D1*
X932228D1*
X2070024Y1504252D2*
D14*
Y1492441D1*
X2136953Y1559370D1*
Y1740472D1*
X2259000Y1862520D1*
X2302307D1*
X1018843Y1388110D2*
X1005063D1*
X1003094Y1386142D1*
X975535D1*
X955850Y1405827D1*
X936165D1*
X906635Y1435357D1*
Y1455039D1*
X814118Y957008D2*
D16*
X854669D1*
X875732Y935945D1*
X1176323Y1905827D2*
D14*
X1118825D1*
X1101520Y1810639D1*
X1093646Y1755236D1*
X1018843Y1388110D2*
Y1390079D1*
X1093646Y1464882D1*
X1058213Y1535748D2*
D16*
X1136953D1*
X1131047Y1315276D2*
D14*
X1133016D1*
Y1325118D1*
X1136953Y1329055D1*
Y1370394D1*
X1172386Y1405827D1*
Y1421575D1*
X1199945Y1468819D2*
D16*
X1172386D1*
X1142858Y1498346D1*
Y1529843D1*
X1136953Y1535748D1*
X1180260Y1819213D2*
X1290496D1*
X1294433Y1815276D1*
X1314118D1*
D15*
X1286559D1*
Y1905827D1*
X1314118Y1815276D2*
D14*
Y1819213D1*
X1357425D1*
X1365299Y1827087D1*
Y1901890D1*
X1373173D1*
X920417Y1732598D2*
X932228D1*
Y1582992D1*
X979472Y1535748D1*
X1314118Y1697165D2*
D15*
X1302307D1*
Y1586929D1*
X1314118Y1697165D2*
D14*
X1294433D1*
X1223567Y1768031D1*
D19*
X1180260D1*
X1203882Y1543622D2*
D14*
X1211756Y1535748D1*
X1213724D1*
X1377110Y1586929D2*
D20*
Y1543622D1*
Y1500315D1*
Y1543622D2*
D14*
X1259000D1*
X1221598D1*
X1213724Y1535748D1*
X1180260Y1742441D2*
D19*
X1217661D1*
D14*
X1231441Y1728661D1*
Y1669606D1*
X1259000Y1642047D1*
Y1543622D1*
X1696005Y1724724D2*
D21*
Y1697163D1*
X1652701Y1653858D1*
X1564118D1*
X1453882Y1543622D1*
X1447976D1*
X1453882D2*
X1256050Y1345790D1*
D14*
X1175863D1*
X1168449Y1338375D1*
Y1315276D1*
X1377110Y1500315D2*
X1404669D1*
X1447976Y1543622D1*
X1168449Y1315276D2*
Y1291654D1*
X1148764Y1271969D1*
X1081835D1*
X1022780Y1212913D1*
X1136953Y1610551D2*
X1213724D1*
X1207819D1*
Y1657795D1*
D19*
X1180260Y1685354D1*
Y1691260D1*
X2156638Y1504252D2*
D14*
X2144827D1*
X2070024Y1429449D1*
X2156638Y1504252D2*
X2176323D1*
Y1642047D1*
X2296795Y1762520D1*
X2302307D1*
X2026717Y1319213D2*
D17*
Y1350709D1*
X2070024Y1429449D2*
D14*
Y1374331D1*
X2075827Y1368528D1*
X2097583Y1346772D1*
X2152701D1*
X2199945Y1299528D1*
Y1201102D1*
X2211756Y1189291D1*
Y1154252D1*
X2218055D1*
X2026717Y1350709D2*
X2050339D1*
X2068157Y1368528D1*
X2075827D1*
X1105457Y1114488D2*
X1121205Y1130236D1*
X1180260D1*
Y1145984D1*
X1168449Y1208976D2*
Y1212913D1*
X1227504D1*
X1231441Y1216850D1*
X1255063Y1039685D2*
Y1082992D1*
X1239315Y1098740D1*
X1199945D1*
X1180260Y1118425D1*
Y1145984D1*
X1168449Y1208976D2*
Y1181417D1*
X1180260Y1169606D1*
Y1145984D1*
X1164512Y618425D2*
D15*
X1262937D1*
X1282622D1*
X1432228Y768031D1*
X1849551D1*
X2268055Y1154252D2*
Y1092047D1*
X2239315Y1063307D1*
Y819213D1*
X2144827Y724724D1*
X1900732D1*
X1857425Y768031D1*
X1849551D1*
X1113331Y736535D2*
X1109394D1*
Y705039D1*
X1164512Y649921D1*
Y618425D1*
X1113331Y736535D2*
D14*
X1109394D1*
X1101520Y697165D2*
X1109394Y705039D1*
X1073961Y618425D2*
D15*
X1164512D1*
X2268055Y1154252D2*
D16*
Y1188110D1*
X2251126Y1205039D1*
Y1236535D1*
X2243252D1*
X2235378D1*
Y1303465D1*
X2156638Y1382205D1*
X2117268D1*
X2302307Y1662520D2*
X2247976D1*
X2211756Y1626299D1*
Y1468819D1*
X2176323Y1433386D1*
X2160575D1*
X2156638Y1429449D1*
Y1382205D1*
X980524Y543622D2*
D14*
X1022780D1*
Y602677D1*
X1038528Y618425D1*
X1073961D1*
X1014906Y535748D2*
X988398D1*
X980524Y543622D1*
X1727504Y1260157D2*
X1703882D1*
X1688134Y1275906D1*
Y1299528D1*
X1672386Y1315276D1*
X1570024D1*
X1562150Y1307402D1*
Y1287717D1*
X1542465Y1268031D1*
X1526717D1*
X1518843Y1260157D1*
X1888921Y1271969D2*
Y1264094D1*
X1865299Y1287717D1*
X1790496D1*
X1762937Y1260157D1*
X1727504D1*
X1983409Y1429449D2*
X1971598D1*
Y1382205D1*
X1841677Y1909764D2*
Y1901890D1*
X1975535Y1768031D1*
Y1504252D1*
X1983409D1*
X1975535D2*
Y1496378D1*
X2010969D1*
X2026717Y1480630D1*
Y1394016D1*
X1995220Y1362520D1*
Y1311339D1*
X2066087Y1240472D1*
Y1152283D1*
X2068055Y1154252D1*
X2118094Y476220D2*
D17*
X2117268D1*
Y512126D1*
X2144827Y539685D1*
Y555433D1*
X2196008Y606614D1*
X2235378D1*
X2314118Y685354D1*
Y701102D1*
X2329866Y716850D1*
Y771969D1*
X1648764Y1256220D2*
D14*
Y1216850D1*
X1668055Y1197559D1*
Y1154252D1*
X1568436Y476218D2*
Y439672D1*
X1550339Y421575D1*
X810181D1*
X692071Y539685D1*
Y771969D1*
X726717Y806614D1*
X741283D1*
X2302307Y1562520D2*
D17*
X2266087D1*
X2235378Y1531811D1*
Y1338898D1*
X2282622Y1291654D1*
Y1283780D1*
X2286559D1*
X2133016Y575118D2*
X1692071D1*
X1668436Y551483D1*
Y476218D1*
X2133016Y575118D2*
X2144827D1*
X2192071Y622362D1*
X2231441D1*
X2298370Y689291D1*
Y724724D1*
X1648764Y1382205D2*
D14*
X1652701D1*
X1699945Y1334961D1*
X1727504D1*
X1932228Y890079D2*
Y992441D1*
X1833803Y1090866D1*
X1743252D1*
X1718055Y1116063D1*
Y1154252D1*
X1621205Y575118D2*
Y478987D1*
X1618436Y476218D1*
X829866Y1350709D2*
D26*
X837782D1*
X857446Y1331045D1*
Y1224724D1*
X845614Y1027874D2*
D14*
X794433D1*
D26*
Y1149921D1*
X857446Y1212934D1*
Y1224724D1*
X932228Y1114488D2*
D14*
X947976D1*
X1022780Y1039685D1*
X845614Y1102677D2*
X920417D1*
X932228Y1114488D1*
Y1212913D2*
Y1114488D1*
X1924354Y1264094D2*
X1916480Y1256220D1*
Y1189291D1*
X1918055Y1187717D1*
Y1154252D1*
X1971598Y890079D2*
Y996378D1*
X1869236Y1098740D1*
Y1118425D1*
X1868055Y1119606D1*
Y1154252D1*
X1975535Y1260157D2*
X1968055D1*
Y1154252D1*
X739315Y1460945D2*
D26*
Y1508189D1*
X764909Y1533783D1*
X802308D1*
Y1622364D1*
X806244Y1626299D1*
X1007031Y1742441D2*
D19*
X977504D1*
D14*
X963724Y1728661D1*
Y1610551D1*
X979472D1*
X1180260Y1793622D2*
D19*
X1225535D1*
D14*
X1255063Y1764094D1*
X1424354D1*
X1447976Y1787717D1*
Y1831024D1*
Y1901890D1*
X1231441Y1291654D2*
X1247189D1*
X1270811Y1268031D1*
Y1193228D1*
X1262937Y1185354D1*
X1231441D1*
X1215693Y1169606D1*
Y1145984D1*
X1217661D1*
X1093646Y1388110D2*
Y1315276D1*
X932228Y1372362D2*
Y1358583D1*
X947976Y1342835D1*
X1022780D1*
X1048370D1*
X1093646Y1388110D1*
X1022780Y1287717D2*
Y1342835D1*
X1007031Y1691260D2*
D19*
Y1685354D1*
D14*
X1038528Y1653858D1*
Y1630236D1*
X1058213Y1610551D1*
X899913Y782004D2*
X905450D1*
X909449Y778005D1*
Y700988D1*
X1006213Y819406D2*
D16*
X1034783D1*
X1070024Y854646D1*
X1113331D1*
X1006213Y819406D2*
D14*
X979665D1*
X971598Y811339D1*
Y720787D1*
X984252Y708134D1*
Y700988D1*
X2302307Y1462520D2*
D17*
X2281047D1*
X2286559Y1457008D1*
X2266874D1*
X2251126Y1441260D1*
Y1350709D1*
X2294433Y1307402D1*
X2298370D1*
X2168094Y476220D2*
Y559016D1*
X2199945Y590866D1*
X2239315D1*
X2314118Y665669D1*
X2329866D1*
X895328Y618425D2*
D14*
X980524D1*
X899913Y856807D2*
X875335D1*
X855958Y837430D1*
Y657795D1*
X895328Y618425D1*
X1447976Y1720787D2*
Y1653858D1*
X1593646Y1382205D2*
X1589709D1*
X1542465Y1334961D1*
X1518843D1*
X1007031Y1793622D2*
D19*
Y1819213D1*
Y1768031D2*
Y1793622D1*
X920417Y1807402D2*
D20*
X888921D1*
X861362Y1779843D1*
Y1697165D1*
X900732Y1657795D1*
Y1602677D1*
X857425Y1559370D1*
Y1500315D1*
X829866Y1472756D1*
Y1460945D1*
X932228Y1287717D2*
D14*
Y1291654D1*
X979472Y1244409D1*
Y1153858D1*
X1018843Y1114488D1*
X1022780D1*
X829866Y1460945D2*
X833803D1*
Y1453071D1*
X869236Y1417638D1*
Y1370394D1*
X900732Y1338898D1*
Y1319213D1*
X932228Y1287717D1*
X920417Y1897953D2*
D25*
Y1807402D1*
X1007031Y1819213D2*
D14*
Y1807402D1*
D25*
X967661D1*
X920417D1*
X1593646Y1256220D2*
D14*
Y1220787D1*
X1568395Y1195537D1*
Y1154248D1*
X1105457Y1039685D2*
X1180260D1*
X1814118Y1504252D2*
X1837740D1*
Y1480630D1*
X1873173Y1445197D1*
Y1429449D1*
X1896795D1*
Y1311339D1*
X1916480Y1291654D1*
X1983409D1*
X2014906Y1260157D1*
Y1154252D1*
X2018055D1*
X1778685Y551496D2*
X1739315D1*
X1718436Y530617D1*
Y476218D1*
X1877110Y535748D2*
Y484892D1*
X1868436Y476218D1*
X1924354Y535748D2*
Y482480D1*
X1918094Y476220D1*
X1975535Y535748D2*
Y483661D1*
X1968094Y476220D1*
X2066087Y551496D2*
Y508189D1*
X2062150Y504252D1*
Y476220D1*
X2068094D1*
X899913Y819406D2*
X932421D1*
X947976Y834961D1*
Y882205D1*
X928291Y901890D1*
X925732Y899331D1*
Y935945D1*
X2168055Y1154252D2*
Y1225118D1*
X2148764Y1244409D1*
Y1279843D1*
X2118055Y1154252D2*
Y1227874D1*
X2098764Y1247165D1*
Y1279843D1*
X739315Y1102677D2*
D26*
Y1027874D1*
X739336Y1224724D2*
Y1189312D1*
X739315Y1189291D1*
Y1102677D1*
Y1350709D2*
Y1224724D1*
X739336D1*
X739315Y957008D2*
Y1027874D1*
X912545Y1533783D2*
D14*
Y1498345D1*
X953882Y1457008D1*
X959790D1*
X957822Y1455039D1*
X1018843Y1464882D2*
Y1453071D1*
X959790D1*
X957822Y1455039D1*
X1629079Y1433386D2*
X1814118D1*
Y1429449D1*
X1006213Y856807D2*
D16*
Y861701D1*
X1062150Y917638D1*
X1089709D1*
X1314118D1*
X1227504D2*
X1089709D1*
X1314118D2*
X1318055D1*
X1463724Y1457008D2*
D21*
X1321992Y1315276D1*
Y1254252D1*
Y1145984D1*
Y1043622D1*
X1357425Y1008189D1*
X1503094D1*
X1633016Y878268D1*
X1255063Y1145984D2*
D14*
X1321992D1*
X1314118Y917638D2*
D15*
Y1008189D1*
D20*
X1357425D1*
X1755063Y984567D2*
D14*
X1601520D1*
X1530654Y1055433D1*
X1388921D1*
X1369236Y1075118D1*
Y1295591D1*
X1605457Y1531811D1*
X1696008D1*
X1877110Y1712913D1*
X1845614Y1264094D2*
Y1248346D1*
X1818055Y1220787D1*
Y1154252D1*
X1810181Y1256220D2*
X1806244D1*
X1766874Y1216850D1*
Y1155433D1*
X1768055Y1154252D1*
D15*
X1463724Y1457008D3*
D77*
X1849551Y768031D3*
X2321992Y594803D3*
D24*
X1975535Y1260157D3*
X1971598Y890079D3*
X1924354Y1264094D3*
X1932228Y890079D3*
X1845614Y1264094D3*
X1810181Y1256220D3*
X2298370Y724724D3*
X2329866Y771969D3*
Y665669D3*
X2298370Y1307402D3*
X2286559Y1283780D3*
D15*
X1633016Y878268D3*
D20*
X1755063Y984567D3*
D77*
X1814118Y1043622D3*
D20*
X2117268Y1382205D3*
D24*
X1629079Y1433386D3*
D20*
X1971598Y1382205D3*
D77*
X2243252Y551496D3*
D20*
X1888921Y1271969D3*
D77*
X1207819Y697165D3*
X2188134Y1075118D3*
X1680260D3*
D20*
X1014906Y535748D3*
D77*
X1566087Y1075118D3*
X1947976D3*
X2188134Y866457D3*
X877110Y468819D3*
D20*
X1199945Y1468819D3*
D77*
X660575Y1111535D3*
D20*
X1231441Y1421575D3*
D77*
X1207819Y468819D3*
Y778530D3*
X660575Y1396969D3*
Y1539685D3*
Y968819D3*
D24*
X2133016Y575118D3*
X1081835Y1722756D3*
D77*
X660575Y1254252D3*
X1270811Y1966850D3*
D24*
X1109394Y1722756D3*
D20*
X1172386Y1421575D3*
X1207819Y980630D3*
D24*
X1778685Y551496D3*
X1877110Y535748D3*
X1924354D3*
X1975535D3*
D77*
X1434197Y689291D3*
D24*
X2066087Y551496D3*
D77*
X1434197Y590866D3*
D24*
X1066087Y1870394D3*
D77*
X1727504Y1966850D3*
D24*
X1109394Y1870394D3*
D77*
X2070024Y1075118D3*
Y866457D3*
X2077898Y645984D3*
D24*
X1621205Y575118D3*
X1081835Y1677480D3*
X1109394D3*
X1095614Y1699134D3*
X1066087Y1911732D3*
X1109394D3*
X1087740Y1892047D3*
X502497Y1970820D2*
D28*
X1889803D1*
X2147858D2*
X2247245D1*
X596262Y1945951D2*
X749583D1*
X1048618D2*
X1124896D1*
X1501369D2*
X1792880D1*
X1890497D2*
X1904731D1*
X2132966D2*
X2159006D1*
X610687Y1921083D2*
X719799D1*
X1048618D2*
X1124896D1*
X1501369D2*
X1781505D1*
X1901836D2*
X1970758D1*
X2066939D2*
X2147631D1*
X2267999D2*
X2292137D1*
X613343Y1896214D2*
X710326D1*
X1048618D2*
X1124896D1*
X1501369D2*
X1781971D1*
X1901370D2*
X1971368D1*
X2066294D2*
X2148133D1*
X2267496D2*
X2327841D1*
X605915Y1871345D2*
X711259D1*
X1048618D2*
X1124896D1*
X1501369D2*
X1794710D1*
X1919707D2*
X1989346D1*
X2048351D2*
X2160836D1*
X2254793D2*
X2327841D1*
X428719Y1846476D2*
X447546D1*
X582267D2*
X694860D1*
X1062398D2*
X1124896D1*
X1499395D2*
X1849613D1*
X1944574D2*
X2327841D1*
X428719Y1821608D2*
X513932D1*
X602470D2*
X663282D1*
X1499395D2*
X1874480D1*
X1969442D2*
X2327841D1*
X428719Y1796739D2*
X489530D1*
X626871D2*
X653378D1*
X785874D2*
X821423D1*
X1506931D2*
X1899348D1*
X1994310D2*
X2252018D1*
X428719Y1771870D2*
X479698D1*
X636703D2*
X652445D1*
X786807D2*
X817799D1*
X1506931D2*
X1540076D1*
X1726829D2*
X1924216D1*
X2009597D2*
X2241791D1*
X428719Y1747001D2*
X478657D1*
X637744D2*
X652445D1*
X786807D2*
X817799D1*
X1506357D2*
X1540076D1*
X1748790D2*
X1826719D1*
X1927494D2*
X1941225D1*
X2053662D2*
X2233789D1*
X428719Y1722133D2*
X486014D1*
X630424D2*
X652624D1*
X786663D2*
X817799D1*
X1499395D2*
X1540076D1*
X1753455D2*
X1816563D1*
X2067406D2*
X2208921D1*
X428719Y1697264D2*
X505283D1*
X611154D2*
X659514D1*
X779738D2*
X817799D1*
X1499395D2*
X1528090D1*
X1753348D2*
X1813980D1*
X2065612D2*
X2184053D1*
X428719Y1672395D2*
X461971D1*
X567842D2*
X681977D1*
X1747427D2*
X1789112D1*
X1922183D2*
X1941225D1*
X2045086D2*
X2159186D1*
X601968Y1647526D2*
X713125D1*
X1726434D2*
X1764244D1*
X1859206D2*
X1941225D1*
X2009848D2*
X2063698D1*
X2099953D2*
X2142499D1*
X612446Y1622657D2*
X709644D1*
X1701567D2*
X1739377D1*
X1834338D2*
X1941225D1*
X2009848D2*
X2029895D1*
X612302Y1597789D2*
X716175D1*
X1588101D2*
X1714509D1*
X1809470D2*
X1941225D1*
X601501Y1572920D2*
X736449D1*
X1563233D2*
X1689641D1*
X1784603D2*
X1941225D1*
X2009848D2*
X2023364D1*
X428719Y1548051D2*
X464268D1*
X565545D2*
X710254D1*
X1538365D2*
X1574202D1*
X428719Y1523182D2*
X473311D1*
X635232D2*
X692312D1*
X1513498D2*
X1549334D1*
X1734867D2*
X1756780D1*
X428719Y1498314D2*
X473311D1*
X635232D2*
X687898D1*
X1502302D2*
X1524466D1*
X1619428D2*
X1756780D1*
X428719Y1473445D2*
X473311D1*
X635232D2*
X687898D1*
X1147048D2*
X1248911D1*
X1594560D2*
X1756780D1*
X428719Y1448576D2*
X473311D1*
X635232D2*
X687898D1*
X1147048D2*
X1248911D1*
X1569692D2*
X1594871D1*
X428719Y1423707D2*
X473311D1*
X635232D2*
X687898D1*
X1147048D2*
X1253899D1*
X428719Y1398839D2*
X473311D1*
X635232D2*
X687898D1*
X1147048D2*
X1229032D1*
X1519957D2*
X1550087D1*
X428719Y1373970D2*
X504673D1*
X603869D2*
X687898D1*
X428719Y1349101D2*
X481959D1*
X626620D2*
X687898D1*
X428719Y1324232D2*
X473885D1*
X634658D2*
X687898D1*
X428719Y1299364D2*
X475141D1*
X633402D2*
X689836D1*
X428719Y1274495D2*
X486301D1*
X622278D2*
X689836D1*
X428719Y1249626D2*
X517951D1*
X590592D2*
X689836D1*
X428719Y1224757D2*
X491504D1*
X617075D2*
X689836D1*
X428719Y1199888D2*
X476971D1*
X631572D2*
X689836D1*
X428719Y1175020D2*
X473347D1*
X635196D2*
X689836D1*
X428719Y1150151D2*
X478837D1*
X629742D2*
X689836D1*
X428719Y1125282D2*
X496384D1*
X612159D2*
X689836D1*
X428719Y1100413D2*
X507939D1*
X600640D2*
X689836D1*
X428719Y1075545D2*
X483107D1*
X625436D2*
X689836D1*
X1558030D2*
X1711100D1*
X1939909D2*
X2193527D1*
X2312423D2*
X2327841D1*
X428719Y1050676D2*
X474172D1*
X634371D2*
X689836D1*
X1582898D2*
X1826503D1*
X1964777D2*
X2191804D1*
X2292830D2*
X2327841D1*
X428719Y1025807D2*
X474710D1*
X633869D2*
X689836D1*
X1607765D2*
X1851371D1*
X1989645D2*
X2191804D1*
X2286802D2*
X2327841D1*
X428719Y1000938D2*
X484901D1*
X623642D2*
X685924D1*
X1795224D2*
X1876239D1*
X2005578D2*
X2191804D1*
X2286802D2*
X2327841D1*
X428719Y976070D2*
X513322D1*
X595221D2*
X685924D1*
X957436D2*
X1266638D1*
X1797736D2*
X1897913D1*
X2005900D2*
X2191804D1*
X2286802D2*
X2327841D1*
X428719Y951201D2*
X685924D1*
X972257D2*
X1041178D1*
X1371468D2*
X1480042D1*
X1640133D2*
X1728647D1*
X1781481D2*
X1897913D1*
X2005900D2*
X2191804D1*
X2286802D2*
X2327841D1*
X428719Y926332D2*
X685924D1*
X973082D2*
X1014157D1*
X1371468D2*
X1504909D1*
X1665001D2*
X1897913D1*
X2005900D2*
X2191804D1*
X2286802D2*
X2327841D1*
X428719Y901463D2*
X828241D1*
X975773D2*
X989289D1*
X1371468D2*
X1529777D1*
X1685204D2*
X1896478D1*
X2007372D2*
X2191804D1*
X2286802D2*
X2327841D1*
X428719Y876594D2*
X847655D1*
X1371468D2*
X1554645D1*
X1690335D2*
X1897267D1*
X2006546D2*
X2191804D1*
X2286802D2*
X2327841D1*
X428719Y851726D2*
X594958D1*
X681308D2*
X711223D1*
X771341D2*
X825047D1*
X1371468D2*
X1579512D1*
X1683517D2*
X2191804D1*
X2286802D2*
X2327841D1*
X428719Y826857D2*
X578380D1*
X792620D2*
X821638D1*
X1371468D2*
X1611449D1*
X1654594D2*
X2180824D1*
X2286802D2*
X2327841D1*
X428719Y801988D2*
X575078D1*
X796460D2*
X821638D1*
X1074024D2*
X1170182D1*
X1371468D2*
X1400199D1*
X1889456D2*
X2155956D1*
X2283393D2*
X2309074D1*
X428719Y777119D2*
X582542D1*
X787668D2*
X821638D1*
X1194308D2*
X1375188D1*
X1914468D2*
X2131088D1*
X2263370D2*
X2292603D1*
X428719Y752251D2*
X608522D1*
X770480D2*
X821638D1*
X1194308D2*
X1350320D1*
X2238502D2*
X2274015D1*
X428719Y727382D2*
X657755D1*
X792405D2*
X821638D1*
X1194308D2*
X1325452D1*
X2213634D2*
X2260810D1*
X428719Y702513D2*
X657755D1*
X796496D2*
X821638D1*
X1194308D2*
X1300585D1*
X1432830D2*
X1856825D1*
X2188766D2*
X2266623D1*
X428719Y677644D2*
X657755D1*
X788027D2*
X821638D1*
X1202454D2*
X1275717D1*
X1407962D2*
X2242868D1*
X428719Y652776D2*
X596142D1*
X769547D2*
X822033D1*
X1383095D2*
X2218000D1*
X428719Y627907D2*
X578738D1*
X792190D2*
X838002D1*
X1358227D2*
X2153767D1*
X428719Y603038D2*
X575006D1*
X796532D2*
X838002D1*
X1333359D2*
X1597347D1*
X1645049D2*
X1680849D1*
X2295342D2*
X2327841D1*
X428719Y578169D2*
X581968D1*
X788350D2*
X838002D1*
X1320261D2*
X1583675D1*
X2270475D2*
X2327841D1*
X428719Y553301D2*
X606513D1*
X726378D2*
X838002D1*
X1320261D2*
X1586905D1*
X2206242D2*
X2327841D1*
X428719Y528432D2*
X659837D1*
X750815D2*
X838002D1*
X1320261D2*
X1372891D1*
X428719Y503563D2*
X680721D1*
X775683D2*
X838002D1*
X1320261D2*
X1372891D1*
X489255Y478694D2*
X705589D1*
X800551D2*
X1372891D1*
X501922Y453825D2*
X730457D1*
X825418D2*
X1372891D1*
X501994Y428957D2*
X755324D1*
X1268466Y968539D2*
X1269148D1*
X1269122Y992743D1*
X1160290Y992720D1*
X1160296Y988783D1*
X877390D1*
Y990757D1*
X867352Y990752D1*
X865017Y989592D1*
X865020Y986849D1*
X920729Y986846D1*
Y986566D1*
X925732Y986846D1*
X932771Y986292D1*
X939637Y984644D1*
X946160Y981942D1*
X952180Y978253D1*
X957549Y973667D1*
X962135Y968298D1*
X965824Y962278D1*
X968526Y955755D1*
X970174Y948889D1*
X970729Y941850D1*
X970590Y926509D1*
X969485Y919535D1*
X967303Y912820D1*
X965723Y909431D1*
X972163Y902862D1*
X975096Y898824D1*
X977621Y893929D1*
X984259D1*
X1037274Y946764D1*
X1042136Y950297D1*
X1047492Y953025D1*
X1053208Y954883D1*
X1059144Y955823D1*
X1108081Y955941D1*
X1172637D1*
X1172665Y968539D1*
X1268466D1*
X1368957Y953360D2*
Y791933D1*
X1172665D1*
Y806696D1*
X1076209Y806697D1*
X1059659Y790280D1*
X1054787Y786741D1*
X1053243Y784484D1*
X1191792D1*
Y688586D1*
X1189459D1*
X1198727Y679144D1*
X1202877Y673432D1*
X1204609Y670337D1*
X1210723Y669327D1*
X1269855D1*
X1403006Y802247D1*
X1408718Y806397D1*
X1415009Y809602D1*
X1421724Y811784D1*
X1428698Y812889D1*
X1459787Y813028D1*
X1845996Y813203D1*
X1853106D1*
X1860956Y812889D1*
X1867929Y811784D1*
X1874644Y809602D1*
X1880936Y806397D1*
X1886648Y802247D1*
X1908729Y780361D1*
X1919361Y769730D1*
X2126193Y769721D1*
X2194333Y837865D1*
X2194458Y1066837D1*
X2195562Y1073811D1*
X2197744Y1080526D1*
X2200957Y1086829D1*
X2201896Y1089571D1*
X1923369D1*
X1995785Y1017035D1*
X1998718Y1012997D1*
X2000984Y1008550D1*
X2002527Y1003803D1*
X2003307Y998874D1*
X2003406Y932073D1*
Y905053D1*
X2005031Y900942D1*
X2006319Y895578D1*
X2006752Y890079D1*
X2006319Y884580D1*
X2005031Y879216D1*
X2002920Y874119D1*
X2000038Y869416D1*
X1996456Y865221D1*
X1992261Y861639D1*
X1987558Y858757D1*
X1982461Y856646D1*
X1977098Y855358D1*
X1971598Y854925D1*
X1966099Y855358D1*
X1960735Y856646D1*
X1955639Y858757D1*
X1951931Y860974D1*
X1948188Y858757D1*
X1943091Y856646D1*
X1937728Y855358D1*
X1932228Y854925D1*
X1926729Y855358D1*
X1921365Y856646D1*
X1916269Y858757D1*
X1911566Y861639D1*
X1907371Y865221D1*
X1903789Y869416D1*
X1900906Y874119D1*
X1898795Y879216D1*
X1897508Y884580D1*
X1897075Y890079D1*
X1897508Y895578D1*
X1898795Y900942D1*
X1900423Y904990D1*
X1900421Y979251D1*
X1820649Y1059038D1*
X1740756Y1059157D1*
X1735827Y1059938D1*
X1731080Y1061480D1*
X1726633Y1063746D1*
X1722595Y1066680D1*
X1699556Y1089580D1*
X1401030Y1089567D1*
X1407294Y1087240D1*
X1533149Y1087142D1*
X1538079Y1086361D1*
X1542826Y1084819D1*
X1547273Y1082553D1*
X1551311Y1079619D1*
X1598615Y1032454D1*
X1614676Y1016392D1*
X1729088Y1016374D1*
X1733610Y1019576D1*
X1739350Y1022501D1*
X1745478Y1024492D1*
X1751842Y1025499D1*
X1758284D1*
X1764648Y1024492D1*
X1770776Y1022501D1*
X1776516Y1019576D1*
X1781729Y1015788D1*
X1786285Y1011233D1*
X1790072Y1006020D1*
X1792997Y1000280D1*
X1794988Y994152D1*
X1795995Y987788D1*
Y981345D1*
X1794988Y974982D1*
X1792997Y968854D1*
X1790072Y963114D1*
X1786285Y957901D1*
X1781729Y953345D1*
X1776516Y949558D1*
X1770776Y946633D1*
X1764648Y944642D1*
X1758284Y943634D1*
X1751842D1*
X1745478Y944642D1*
X1739350Y946633D1*
X1733610Y949558D1*
X1729139Y952761D1*
X1636107Y952760D1*
X1674715Y913883D1*
X1679773Y906921D1*
X1683680Y899254D1*
X1686339Y891070D1*
X1687685Y882570D1*
Y873965D1*
X1686339Y865466D1*
X1683680Y857282D1*
X1679773Y849615D1*
X1674715Y842653D1*
X1668631Y836568D1*
X1661669Y831510D1*
X1654002Y827603D1*
X1645818Y824944D1*
X1637318Y823598D1*
X1628713D1*
X1620214Y824944D1*
X1612030Y827603D1*
X1604363Y831510D1*
X1597401Y836568D1*
X1581248Y852482D1*
X1480386Y953344D1*
X1368924Y953350D1*
X878702Y1952791D2*
X1046122D1*
Y1850428D1*
X1059902Y1850429D1*
Y1835681D1*
X1127389Y1835665D1*
X1127390Y1850429D1*
X1158071D1*
X1162871Y1853341D1*
X1168423Y1855641D1*
X1173519Y1856895D1*
X1127390Y1856893D1*
Y1954760D1*
X1225256D1*
Y1862243D1*
X1237631Y1862240D1*
X1237626Y1954760D1*
X1322277D1*
X1322272Y1956728D1*
X1498878D1*
Y1847051D1*
X1496904D1*
X1497127Y1813245D1*
X1499671Y1810266D1*
X1501718Y1806925D1*
X1503218Y1803306D1*
X1504132Y1799496D1*
X1504440Y1795591D1*
X1504363Y1750325D1*
X1503750Y1746455D1*
X1502539Y1742729D1*
X1500761Y1739238D1*
X1498458Y1736068D1*
X1497121Y1734624D1*
X1496910Y1723788D1*
Y1664216D1*
X1528503Y1695558D1*
X1535465Y1700616D1*
X1542589Y1704636D1*
Y1779720D1*
X1652581D1*
Y1777244D1*
X1666471Y1777174D1*
X1670340Y1776561D1*
X1674073Y1775347D1*
X1679011Y1777029D1*
X1687402Y1779043D1*
X1696005Y1779720D1*
X1704609Y1779043D1*
X1713000Y1777029D1*
X1720973Y1773726D1*
X1728331Y1769217D1*
X1734893Y1763612D1*
X1740498Y1757050D1*
X1745007Y1749692D1*
X1748310Y1741719D1*
X1750324Y1733328D1*
X1751001Y1724724D1*
X1750844Y1697163D1*
X1750169Y1688584D1*
X1748160Y1680217D1*
X1744867Y1672267D1*
X1740371Y1664929D1*
X1734782Y1658386D1*
X1688316Y1612159D1*
X1681354Y1607101D1*
X1673687Y1603194D1*
X1665503Y1600535D1*
X1657003Y1599189D1*
X1634328Y1599020D1*
X1586853D1*
X1496919Y1509106D1*
X1496910Y1500668D1*
X1502501Y1495785D1*
X1508090Y1489241D1*
X1511855Y1483210D1*
X1584800Y1555997D1*
X1588837Y1558931D1*
X1593285Y1561197D1*
X1598031Y1562739D1*
X1602961Y1563520D1*
X1669761Y1563618D1*
X1682859D1*
X1819645Y1700431D1*
X1818516Y1708302D1*
Y1717525D1*
X1819959Y1726634D1*
X1822809Y1735406D1*
X1826996Y1743624D1*
X1832417Y1751085D1*
X1838939Y1757607D1*
X1846400Y1763028D1*
X1854618Y1767215D1*
X1863389Y1770065D1*
X1872499Y1771508D1*
X1881722D1*
X1890831Y1770065D1*
X1899603Y1767215D1*
X1907820Y1763028D1*
X1915282Y1757607D1*
X1921804Y1751085D1*
X1927225Y1743624D1*
X1931412Y1735406D1*
X1934262Y1726634D1*
X1935705Y1717525D1*
Y1708302D1*
X1934262Y1699192D1*
X1931412Y1690421D1*
X1927225Y1682203D1*
X1921804Y1674742D1*
X1915282Y1668220D1*
X1907820Y1662799D1*
X1899603Y1658612D1*
X1890831Y1655762D1*
X1881722Y1654319D1*
X1872499D1*
X1864680Y1655505D1*
X1764333Y1555154D1*
X1943750Y1555153D1*
X1943728Y1754831D1*
X1847311Y1851274D1*
X1841677Y1850988D1*
X1832483Y1851712D1*
X1823515Y1853865D1*
X1814994Y1857394D1*
X1807130Y1862213D1*
X1800117Y1868203D1*
X1794127Y1875216D1*
X1789308Y1883080D1*
X1785778Y1891601D1*
X1783625Y1900569D1*
X1782902Y1909764D1*
X1783625Y1918958D1*
X1785778Y1927926D1*
X1789308Y1936447D1*
X1794127Y1944311D1*
X1800117Y1951324D1*
X1807130Y1957314D1*
X1814994Y1962133D1*
X1823515Y1965663D1*
X1832483Y1967816D1*
X1841677Y1968539D1*
X1850872Y1967816D1*
X1859840Y1965663D1*
X1868361Y1962133D1*
X1876225Y1957314D1*
X1883238Y1951324D1*
X1889228Y1944311D1*
X1894047Y1936447D1*
X1897576Y1927926D1*
X1899729Y1918958D1*
X1900453Y1909764D1*
X1899729Y1900569D1*
X1897576Y1891601D1*
X1897408Y1891144D1*
X1999722Y1788689D1*
X2002656Y1784651D1*
X2004921Y1780204D1*
X2006464Y1775457D1*
X2007245Y1770527D1*
X2007343Y1758450D1*
X2015158Y1759733D1*
X2022527D1*
X2029806Y1758580D1*
X2036815Y1756303D1*
X2043381Y1752957D1*
X2049344Y1748626D1*
X2054555Y1743414D1*
X2058886Y1737452D1*
X2062232Y1730886D1*
X2064509Y1723877D1*
X2065662Y1716598D1*
Y1709229D1*
X2064509Y1701950D1*
X2062232Y1694941D1*
X2058886Y1688374D1*
X2054555Y1682412D1*
X2049344Y1677201D1*
X2043381Y1672870D1*
X2036815Y1669524D1*
X2029806Y1667246D1*
X2022527Y1666094D1*
X2015158D1*
X2007338Y1667399D1*
X2007343Y1555131D1*
X2035181Y1555153D1*
X2031720Y1560156D1*
X2027533Y1568374D1*
X2024683Y1577145D1*
X2023240Y1586255D1*
Y1595478D1*
X2024683Y1604587D1*
X2027533Y1613359D1*
X2031720Y1621576D1*
X2037141Y1629038D1*
X2043663Y1635559D1*
X2051124Y1640981D1*
X2059342Y1645168D1*
X2068114Y1648018D1*
X2077223Y1649461D1*
X2086446D1*
X2095556Y1648018D1*
X2104327Y1645168D1*
X2112545Y1640981D1*
X2120006Y1635559D1*
X2126528Y1629038D1*
X2131949Y1621576D1*
X2136136Y1613359D1*
X2138986Y1604587D1*
X2140429Y1595478D1*
Y1586255D1*
X2138986Y1577145D1*
X2136136Y1568374D1*
X2131949Y1560156D1*
X2128459Y1555144D1*
X2144537Y1555153D1*
X2144614Y1644543D1*
X2145394Y1649472D1*
X2146937Y1654219D1*
X2149203Y1658666D1*
X2152136Y1662704D1*
X2199302Y1710008D1*
X2244036Y1754743D1*
X2243531Y1762520D1*
X2244255Y1771714D1*
X2246408Y1780682D1*
X2249938Y1789203D1*
X2254757Y1797067D1*
X2260746Y1804080D1*
X2267760Y1810070D1*
X2275624Y1814889D1*
X2284144Y1818419D1*
X2293113Y1820572D1*
X2302307Y1821295D1*
X2311502Y1820572D1*
X2320470Y1818419D1*
X2328991Y1814889D1*
X2330328Y1814140D1*
X2330335Y1925250D1*
X2323798Y1922666D1*
X2315131Y1920585D1*
X2306244Y1919886D1*
X2297358Y1920585D1*
X2288690Y1922666D1*
X2280454Y1926077D1*
X2272854Y1930735D1*
X2266075Y1936524D1*
X2260286Y1943303D1*
X2255629Y1950903D1*
X2252217Y1959139D1*
X2250136Y1967806D1*
X2249437Y1976693D1*
X2250136Y1985579D1*
X2252217Y1994247D1*
X2252754Y1995702D1*
X2145508Y1995689D1*
X2145429Y1971286D1*
X2143245Y1960898D1*
X2141911Y1958280D1*
X2136428Y1950350D1*
X2134194Y1948442D1*
X2126097Y1943218D1*
X2123303Y1942310D1*
X2113331Y1940571D1*
X2054301D1*
X2058886Y1934303D1*
X2062232Y1927736D1*
X2064509Y1920727D1*
X2065662Y1913449D1*
Y1906079D1*
X2064509Y1898800D1*
X2062232Y1891791D1*
X2058886Y1885225D1*
X2054555Y1879263D1*
X2049344Y1874052D1*
X2043381Y1869720D1*
X2036815Y1866374D1*
X2029806Y1864097D1*
X2022527Y1862944D1*
X2015158D1*
X2007879Y1864097D1*
X2000870Y1866374D1*
X1994304Y1869720D1*
X1988341Y1874052D1*
X1983130Y1879263D1*
X1978799Y1885225D1*
X1975453Y1891791D1*
X1973176Y1898800D1*
X1972023Y1906079D1*
Y1913449D1*
X1973176Y1920727D1*
X1975453Y1927736D1*
X1978799Y1934303D1*
X1983414Y1940572D1*
X1922885Y1940657D1*
X1912497Y1942841D1*
X1909878Y1944175D1*
X1901948Y1949658D1*
X1900040Y1951893D1*
X1894816Y1959989D1*
X1893908Y1962784D1*
X1892169Y1972756D1*
Y1995686D1*
X498835Y1995689D1*
X500147Y1989517D1*
X500846Y1980630D1*
X500147Y1971743D1*
X499055Y1966580D1*
X550258Y1966456D1*
X557554Y1965602D1*
X564705Y1963927D1*
X571621Y1961452D1*
X578211Y1958209D1*
X584391Y1954239D1*
X590081Y1949594D1*
X595208Y1944335D1*
X599706Y1938527D1*
X603516Y1932248D1*
X606589Y1925577D1*
X608887Y1918600D1*
X610379Y1911408D1*
X611045Y1904093D1*
X610848Y1896385D1*
X609808Y1889113D1*
X607951Y1882007D1*
X605300Y1875157D1*
X601889Y1868652D1*
X597763Y1862575D1*
X592975Y1857005D1*
X587585Y1852015D1*
X581665Y1847667D1*
X575290Y1844018D1*
X568543Y1841116D1*
X561510Y1838998D1*
X554282Y1837691D1*
X546402Y1837209D1*
X478453Y1837399D1*
X471174Y1838377D1*
X464052Y1840173D1*
X457179Y1842766D1*
X450645Y1846121D1*
X444534Y1850195D1*
X438923Y1854936D1*
X433887Y1860283D1*
X429489Y1866165D1*
X426198Y1871728D1*
X426201Y1640699D1*
X430315Y1647492D1*
X434846Y1653274D1*
X440002Y1658504D1*
X445719Y1663116D1*
X451922Y1667050D1*
X458530Y1670256D1*
X465460Y1672692D1*
X472621Y1674326D1*
X479921Y1675138D1*
X518318Y1675232D1*
X552090Y1674982D1*
X559359Y1673921D1*
X566460Y1672044D1*
X573302Y1669373D1*
X579798Y1665944D1*
X585862Y1661800D1*
X591418Y1656996D1*
X596394Y1651593D1*
X600725Y1645660D1*
X604355Y1639275D1*
X607238Y1632519D1*
X609336Y1625480D1*
X610623Y1618249D1*
X611083Y1610551D1*
X610666Y1603218D1*
X609420Y1595979D1*
X607361Y1588928D1*
X604517Y1582156D1*
X600923Y1575751D1*
X596626Y1569794D1*
X591681Y1564362D1*
X586152Y1559526D1*
X580111Y1555349D1*
X573635Y1551883D1*
X566808Y1549173D1*
X559718Y1547256D1*
X552455Y1546154D1*
X544564Y1545870D1*
X478453Y1546060D1*
X471174Y1547038D1*
X464052Y1548835D1*
X457179Y1551427D1*
X450645Y1554782D1*
X444534Y1558857D1*
X438923Y1563598D1*
X433887Y1568944D1*
X429489Y1574827D1*
X426198Y1580390D1*
X426201Y495204D1*
X435153Y497368D1*
X444039Y498067D1*
X452926Y497368D1*
X461594Y495287D1*
X469829Y491875D1*
X477430Y487218D1*
X484208Y481429D1*
X489997Y474650D1*
X494655Y467050D1*
X498066Y458814D1*
X500147Y450146D1*
X500846Y441260D1*
X500147Y432373D1*
X498771Y426204D1*
X760593Y426201D1*
X667885Y519028D1*
X664951Y523066D1*
X662685Y527513D1*
X661143Y532260D1*
X660362Y537189D1*
X660264Y550056D1*
X652571Y547611D1*
X645344Y546300D1*
X638012Y545870D1*
X630682Y546329D1*
X623461Y547669D1*
X616454Y549871D1*
X609764Y552902D1*
X603489Y556718D1*
X597720Y561264D1*
X592543Y566473D1*
X588031Y572269D1*
X584252Y578567D1*
X581261Y585275D1*
X579102Y592295D1*
X577805Y599524D1*
X577390Y606857D1*
X577864Y614186D1*
X579218Y621405D1*
X581434Y628407D1*
X584478Y635091D1*
X588308Y641359D1*
X592865Y647118D1*
X598084Y652286D1*
X603889Y656785D1*
X610195Y660552D1*
X616909Y663529D1*
X623933Y665675D1*
X631165Y666957D1*
X638498Y667357D1*
X645827Y666869D1*
X653043Y665500D1*
X660260Y663182D1*
X660264Y750074D1*
X654349Y748074D1*
X647165Y746545D1*
X639849Y745894D1*
X632509Y746131D1*
X625250Y747252D1*
X618180Y749241D1*
X611401Y752069D1*
X605014Y755694D1*
X599110Y760063D1*
X593777Y765113D1*
X589093Y770770D1*
X585125Y776951D1*
X581933Y783565D1*
X579562Y790516D1*
X578047Y797703D1*
X577411Y805020D1*
X577662Y812360D1*
X578798Y819617D1*
X580801Y826683D1*
X583642Y833456D1*
X587280Y839836D1*
X591661Y845731D1*
X596722Y851054D1*
X602388Y855727D1*
X608576Y859682D1*
X615197Y862861D1*
X622153Y865218D1*
X629343Y866719D1*
X636661Y867340D1*
X644001Y867074D1*
X651255Y865924D1*
X658317Y863907D1*
X665084Y861052D1*
X671457Y857402D1*
X677343Y853009D1*
X682656Y847938D1*
X687318Y842262D1*
X691261Y836066D1*
X694044Y830344D1*
X698511Y837690D1*
X703899Y843999D1*
X710207Y849387D1*
X717281Y853722D1*
X724946Y856897D1*
X733013Y858833D1*
X741283Y859484D1*
X749554Y858833D1*
X757621Y856897D1*
X765286Y853722D1*
X772360Y849387D1*
X778668Y843999D1*
X784056Y837690D1*
X788391Y830617D1*
X791566Y822952D1*
X793503Y814885D1*
X794154Y806614D1*
X793503Y798343D1*
X791566Y790276D1*
X788391Y782612D1*
X784056Y775538D1*
X778668Y769229D1*
X772360Y763841D1*
X765286Y759507D1*
X758428Y756629D1*
X765286Y753722D1*
X772360Y749387D1*
X778668Y743999D1*
X784056Y737690D1*
X788391Y730617D1*
X791566Y722952D1*
X793503Y714885D1*
X794154Y706614D1*
X793503Y698343D1*
X791566Y690276D1*
X788391Y682612D1*
X784056Y675538D1*
X778668Y669229D1*
X772360Y663841D1*
X765286Y659507D1*
X758428Y656629D1*
X765013Y653860D1*
X771331Y650116D1*
X777068Y645533D1*
X782116Y640200D1*
X786375Y634218D1*
X789765Y627704D1*
X792219Y620784D1*
X793691Y613589D1*
X794154Y606614D1*
X793644Y599289D1*
X792124Y592105D1*
X789623Y585200D1*
X786190Y578709D1*
X781890Y572756D1*
X776807Y567457D1*
X771039Y562912D1*
X764697Y559211D1*
X757903Y556424D1*
X750789Y554606D1*
X743491Y553790D1*
X736151Y553994D1*
X728909Y555213D1*
X723879Y556695D1*
X727553Y549185D1*
X823340Y453398D1*
X1375393Y453382D1*
X1375408Y540899D1*
X1589390D1*
X1589398Y560121D1*
X1587022Y566912D1*
X1586160Y572360D1*
Y577876D1*
X1587022Y583325D1*
X1588727Y588571D1*
X1591231Y593486D1*
X1594474Y597949D1*
X1598374Y601849D1*
X1602837Y605091D1*
X1607752Y607596D1*
X1612998Y609300D1*
X1618447Y610163D1*
X1623963D1*
X1629411Y609300D1*
X1634657Y607596D1*
X1639572Y605091D1*
X1644035Y601849D1*
X1647936Y597949D1*
X1651178Y593486D1*
X1653682Y588571D1*
X1655387Y583325D1*
X1655955Y580371D1*
X1673076Y597359D1*
X1676789Y600056D1*
X1680878Y602140D1*
X1685243Y603558D1*
X1689776Y604276D1*
X1774748Y604366D1*
X2113531D1*
X2119563Y607596D1*
X2124809Y609300D1*
X2130258Y610163D1*
X2135774D1*
X2138226Y609873D1*
X2173076Y644603D1*
X2176789Y647300D1*
X2180878Y649384D1*
X2185243Y650802D1*
X2189776Y651520D1*
X2219307Y651610D1*
X2269145Y701429D1*
X2268397Y706357D1*
X2265892Y711272D1*
X2264188Y716518D1*
X2263325Y721966D1*
Y727483D1*
X2264188Y732931D1*
X2265892Y738177D1*
X2268397Y743092D1*
X2271639Y747555D1*
X2275540Y751455D1*
X2280002Y754698D1*
X2284917Y757202D1*
X2290164Y758907D1*
X2296873Y759819D1*
X2295145Y766469D1*
X2294713Y771969D1*
X2295145Y777468D1*
X2296433Y782832D1*
X2298544Y787928D1*
X2301426Y792631D1*
X2305009Y796826D1*
X2309203Y800408D1*
X2313907Y803291D1*
X2319003Y805402D1*
X2324367Y806689D1*
X2330329Y807104D1*
X2330335Y1089149D1*
X2312962Y1089177D1*
X2311808Y1081543D1*
X2309626Y1074828D1*
X2306421Y1068537D1*
X2302270Y1062825D1*
X2284318Y1044676D1*
X2284172Y815682D1*
X2283068Y808708D1*
X2280886Y801993D1*
X2277680Y795702D1*
X2273530Y789990D1*
X2251645Y767908D1*
X2174049Y690509D1*
X2168337Y686359D1*
X2162046Y683153D1*
X2155331Y680972D1*
X2148357Y679867D1*
X2117268Y679728D1*
X1897202Y679867D1*
X1890228Y680972D1*
X1883513Y683153D1*
X1877222Y686359D1*
X1871510Y690509D1*
X1849428Y712395D1*
X1838796Y723026D1*
X1450842Y723035D1*
X1317765Y589934D1*
X1317776Y492720D1*
X840490D1*
X840358Y628413D1*
X831772Y637138D1*
X828838Y641176D1*
X826572Y645623D1*
X825030Y650370D1*
X824249Y655300D1*
X824151Y722100D1*
X824249Y839926D1*
X825030Y844856D1*
X826572Y849603D1*
X828838Y854050D1*
X831772Y858088D1*
X852851Y879305D1*
X852750Y885043D1*
X830736D1*
Y902174D1*
X688414Y902169D1*
Y1011846D1*
X692325D1*
X692350Y1301799D1*
X690382Y1301775D1*
Y1399642D1*
X690705D1*
X690726Y1412014D1*
X690382Y1412012D1*
Y1509878D1*
X692356D1*
X692929Y1515536D1*
X694649Y1522702D1*
X697469Y1529510D1*
X701320Y1535794D1*
X706106Y1541398D1*
X734408Y1569496D1*
X737316Y1571787D1*
X738698Y1573971D1*
X730980Y1580563D1*
X724388Y1588281D1*
X719085Y1596935D1*
X715201Y1606312D1*
X712832Y1616181D1*
X712035Y1626299D1*
X712832Y1636418D1*
X715201Y1646287D1*
X719085Y1655664D1*
X722900Y1662091D1*
X714674Y1662202D1*
X707394Y1663180D1*
X700272Y1664976D1*
X693400Y1667569D1*
X686866Y1670924D1*
X680754Y1674998D1*
X675144Y1679739D1*
X670107Y1685086D1*
X665709Y1690969D1*
X662007Y1697312D1*
X659047Y1704035D1*
X656869Y1711049D1*
X655500Y1718266D1*
X654955Y1726689D1*
X655099Y1790154D1*
X656015Y1797442D1*
X657751Y1804579D1*
X660285Y1811474D1*
X663584Y1818036D1*
X667606Y1824182D1*
X672299Y1829832D1*
X677602Y1834914D1*
X683448Y1839362D1*
X689759Y1843119D1*
X696457Y1846135D1*
X703452Y1848373D1*
X710657Y1849804D1*
X717977Y1850408D1*
X722796Y1850417D1*
X719093Y1856761D1*
X716134Y1863484D1*
X713956Y1870498D1*
X712587Y1877715D1*
X712045Y1885040D1*
X712337Y1892379D1*
X713459Y1899638D1*
X715397Y1906723D1*
X718126Y1913542D1*
X721610Y1920008D1*
X725805Y1926038D1*
X730657Y1931553D1*
X736102Y1936482D1*
X742072Y1940762D1*
X748488Y1944338D1*
X755268Y1947163D1*
X762324Y1949201D1*
X769566Y1950426D1*
X778554Y1950823D1*
X839628Y1950708D1*
X846924Y1949854D1*
X854075Y1948179D1*
X860991Y1945704D1*
X867581Y1942461D1*
X869515Y1941318D1*
X869516Y1952791D1*
X878702D1*
X1278189Y1445476D2*
X1251406D1*
Y1484841D1*
X1144548Y1484812D1*
X1144547Y1386503D1*
X1148741Y1387519D1*
X1152709Y1387830D1*
X1217438Y1387831D1*
X1228315Y1395610D1*
X1278196Y1445489D1*
X1557646Y1439012D2*
X1594392D1*
X1595646Y1444249D1*
X1597757Y1449345D1*
X1600639Y1454049D1*
X1604221Y1458243D1*
X1608416Y1461826D1*
X1613119Y1464708D1*
X1618216Y1466819D1*
X1623580Y1468107D1*
X1629079Y1468539D1*
X1634578Y1468107D1*
X1639942Y1466819D1*
X1643990Y1465191D1*
X1759302Y1465193D1*
X1759280Y1550130D1*
X1716665Y1507625D1*
X1712627Y1504691D1*
X1708180Y1502425D1*
X1703433Y1500883D1*
X1698503Y1500102D1*
X1631703Y1500004D1*
X1618606D1*
X1557637Y1439009D1*
X1552587Y1426447D1*
Y1433947D1*
X1504503Y1385876D1*
X1548368Y1385862D1*
X1552579Y1390057D1*
X1552587Y1426447D1*
X773485Y1690853D2*
X813462Y1690980D1*
X820746D1*
X820303Y1697178D1*
X820430Y1783064D1*
X821437Y1789428D1*
X823428Y1795555D1*
X826353Y1801296D1*
X830141Y1806508D1*
X845701Y1822248D1*
X838159Y1821505D1*
X773501Y1821542D1*
X777583Y1814472D1*
X780466Y1807716D1*
X782565Y1800677D1*
X783851Y1793445D1*
X784311Y1785748D1*
X784076Y1721188D1*
X783037Y1713917D1*
X781179Y1706810D1*
X778528Y1699960D1*
X775118Y1693455D1*
X773500Y1690903D1*
X635565Y1750133D2*
X634849Y1744082D1*
X633661Y1738107D1*
X632007Y1732243D1*
X629898Y1726527D1*
X627347Y1720995D1*
X624371Y1715679D1*
X620986Y1710613D1*
X617214Y1705829D1*
X613078Y1701355D1*
X608604Y1697219D1*
X603820Y1693447D1*
X598754Y1690063D1*
X593439Y1687086D1*
X587906Y1684535D1*
X582190Y1682426D1*
X576326Y1680772D1*
X570351Y1679584D1*
X564300Y1678868D1*
X558213Y1678629D1*
X552125Y1678868D1*
X546075Y1679584D1*
X540099Y1680772D1*
X534235Y1682426D1*
X528519Y1684535D1*
X522987Y1687086D1*
X517671Y1690063D1*
X512605Y1693447D1*
X507821Y1697219D1*
X503347Y1701355D1*
X499211Y1705829D1*
X495439Y1710613D1*
X492055Y1715679D1*
X489078Y1720995D1*
X486527Y1726527D1*
X484418Y1732243D1*
X482765Y1738107D1*
X481576Y1744082D1*
X480860Y1750133D1*
X480621Y1756220D1*
X480860Y1762308D1*
X481576Y1768359D1*
X482765Y1774334D1*
X484418Y1780198D1*
X486527Y1785914D1*
X489078Y1791446D1*
X492055Y1796762D1*
X495439Y1801828D1*
X499211Y1806612D1*
X503347Y1811086D1*
X507821Y1815222D1*
X512605Y1818994D1*
X517671Y1822378D1*
X522987Y1825355D1*
X528519Y1827906D1*
X534235Y1830015D1*
X540099Y1831668D1*
X546075Y1832857D1*
X552125Y1833573D1*
X558213Y1833812D1*
X564300Y1833573D1*
X570351Y1832857D1*
X576326Y1831668D1*
X582190Y1830015D1*
X587906Y1827906D1*
X593439Y1825355D1*
X598754Y1822378D1*
X603820Y1818994D1*
X608604Y1815222D1*
X613078Y1811086D1*
X617214Y1806612D1*
X620986Y1801828D1*
X624371Y1796762D1*
X627347Y1791446D1*
X629898Y1785914D1*
X632007Y1780198D1*
X633661Y1774334D1*
X634849Y1768359D1*
X635565Y1762308D1*
X635804Y1756220D1*
X635565Y1750133D1*
X2266566Y1907927D2*
X2265878Y1900615D1*
X2264284Y1893446D1*
X2261808Y1886531D1*
X2258489Y1879980D1*
X2254379Y1873893D1*
X2249542Y1868366D1*
X2244054Y1863486D1*
X2238000Y1859329D1*
X2231474Y1855959D1*
X2224579Y1853429D1*
X2217423Y1851778D1*
X2210117Y1851033D1*
X2202774Y1851205D1*
X2195511Y1852291D1*
X2188439Y1854275D1*
X2181671Y1857125D1*
X2175310Y1860797D1*
X2169457Y1865233D1*
X2164203Y1870365D1*
X2159630Y1876112D1*
X2155810Y1882384D1*
X2152801Y1889084D1*
X2150652Y1896107D1*
X2149395Y1903343D1*
X2149050Y1910679D1*
X2149623Y1918001D1*
X2151105Y1925194D1*
X2153472Y1932147D1*
X2156688Y1938750D1*
X2160702Y1944900D1*
X2165451Y1950502D1*
X2170863Y1955467D1*
X2176851Y1959719D1*
X2183323Y1963191D1*
X2190177Y1965829D1*
X2197307Y1967592D1*
X2204600Y1968451D1*
X2211944Y1968394D1*
X2219224Y1967422D1*
X2226326Y1965550D1*
X2233138Y1962806D1*
X2239556Y1959235D1*
X2245477Y1954890D1*
X2250811Y1949842D1*
X2255474Y1944167D1*
X2259392Y1937956D1*
X2262505Y1931304D1*
X2264765Y1924316D1*
X2266135Y1917100D1*
X2266594Y1909764D1*
X2266566Y1907927D1*
X485001Y1523657D2*
X632736D1*
Y1382484D1*
X583962Y1382407D1*
X594195Y1378169D1*
X603639Y1372381D1*
X612062Y1365188D1*
X619255Y1356765D1*
X625043Y1347321D1*
X629281Y1337088D1*
X631867Y1326318D1*
X632736Y1315276D1*
X631867Y1304233D1*
X629281Y1293463D1*
X625043Y1283230D1*
X619255Y1273786D1*
X612062Y1265363D1*
X603639Y1258170D1*
X594195Y1252382D1*
X583962Y1248144D1*
X577417Y1246399D1*
X583962Y1244612D1*
X594195Y1240373D1*
X603639Y1234586D1*
X612062Y1227393D1*
X619255Y1218970D1*
X625043Y1209526D1*
X629281Y1199293D1*
X631867Y1188522D1*
X632736Y1177480D1*
X631867Y1166438D1*
X629281Y1155668D1*
X625043Y1145435D1*
X619255Y1135991D1*
X612062Y1127568D1*
X603639Y1120375D1*
X594195Y1114587D1*
X583962Y1110348D1*
X577417Y1108603D1*
X583962Y1106817D1*
X594195Y1102578D1*
X603639Y1096791D1*
X612062Y1089597D1*
X619255Y1081175D1*
X625043Y1071731D1*
X629281Y1061498D1*
X631867Y1050727D1*
X632736Y1039685D1*
X631867Y1028643D1*
X629281Y1017873D1*
X625043Y1007639D1*
X619255Y998195D1*
X612062Y989773D1*
X603639Y982579D1*
X594195Y976792D1*
X583962Y972553D1*
X573192Y969967D1*
X562150Y969098D1*
X546402D1*
X535359Y969967D1*
X524589Y972553D1*
X514356Y976792D1*
X504912Y982579D1*
X496489Y989773D1*
X489296Y998195D1*
X483508Y1007639D1*
X479270Y1017873D1*
X476684Y1028643D1*
X475815Y1039685D1*
X476684Y1050727D1*
X479270Y1061498D1*
X483508Y1071731D1*
X489296Y1081175D1*
X496489Y1089597D1*
X504912Y1096791D1*
X514356Y1102578D1*
X524589Y1106817D1*
X531134Y1108562D1*
X524589Y1110348D1*
X514356Y1114587D1*
X504912Y1120375D1*
X496489Y1127568D1*
X489296Y1135991D1*
X483508Y1145435D1*
X479270Y1155668D1*
X476684Y1166438D1*
X475815Y1177480D1*
X476684Y1188522D1*
X479270Y1199293D1*
X483508Y1209526D1*
X489296Y1218970D1*
X496489Y1227393D1*
X504912Y1234586D1*
X514356Y1240373D1*
X524589Y1244612D1*
X531134Y1246357D1*
X524589Y1248144D1*
X514356Y1252382D1*
X504912Y1258170D1*
X496489Y1265363D1*
X489296Y1273786D1*
X483508Y1283230D1*
X479270Y1293463D1*
X476684Y1304233D1*
X475815Y1315276D1*
X476684Y1326318D1*
X479270Y1337088D1*
X483508Y1347321D1*
X489296Y1356765D1*
X496489Y1365188D1*
X504912Y1372381D1*
X514356Y1378169D1*
X524589Y1382407D1*
X485755Y1382484D1*
X475815D1*
Y1523657D1*
X485001D1*
X2330329Y630534D2*
X2324367Y630949D1*
X2321380Y631566D1*
X2258310Y568626D1*
X2254597Y565928D1*
X2250508Y563844D1*
X2246143Y562426D1*
X2241610Y561708D1*
X2212079Y561618D1*
X2197358Y546917D1*
X2198558Y540901D1*
X2330336D1*
X2330335Y630549D1*
X1314118Y842835D2*
D15*
Y791969D1*
Y842835D2*
X1368921D1*
X995220Y1952755D2*
Y1897953D1*
X1046086D1*
X1302307Y1500315D2*
X1251430Y1445503D1*
X814118Y957008D2*
D26*
Y902205D1*
X1164512Y543622D2*
D16*
Y492756D1*
X1227504Y842835D2*
Y791969D1*
X1262937Y543622D2*
Y492756D1*
Y543622D2*
X1317740D1*
X1073961D2*
Y492756D1*
X1176323Y1954724D2*
Y1856929D1*
X1127426Y1905827D2*
X1225220D1*
X719630Y1850393D2*
D26*
Y1662048D1*
X654985Y1756220D2*
X784275D1*
X806244Y1950787D2*
D16*
Y1821496D1*
X712071Y1886142D2*
X806244D1*
X514906Y1966535D2*
Y1837244D1*
Y1901890D2*
X611047D1*
X514906Y1675196D2*
Y1545906D1*
Y1610551D2*
X611047D1*
X2207819Y1968503D2*
Y1851024D1*
X2149079Y1909764D2*
X2266559D1*
X1597585Y1779684D2*
D15*
Y1724724D1*
X1542625D2*
X1597585D1*
X875732Y986810D2*
D26*
Y935945D1*
X895328Y543622D2*
D16*
Y492756D1*
X840526Y543622D2*
X895328D1*
X1896795Y1555117D2*
Y1504252D1*
X932228Y1039685D2*
D15*
Y988819D1*
X1093646Y1464882D2*
D16*
X1144512D1*
X1093646Y1835629D2*
Y1755236D1*
X1217661Y1039685D2*
Y992756D1*
X741283Y606614D2*
Y553780D1*
Y606614D2*
X794118D1*
X638134Y667322D2*
Y545906D1*
X577426Y606614D2*
X638134D1*
Y867322D2*
Y745906D1*
X577426Y806614D2*
X638134D1*
X2318055Y1153858D2*
Y1089213D1*
X2318094Y540865D2*
Y476220D1*
X1618395Y1154248D2*
Y1089603D1*
D31*
X1314118Y917638D3*
Y842835D3*
D32*
X920417Y1897953D3*
X995220D3*
D31*
X1058213Y1610551D3*
Y1535748D3*
D32*
X1373173Y1901890D3*
X1447976D3*
X1377110Y1500315D3*
X1302307D3*
X2243252Y1236535D3*
X2318055D3*
D31*
X2070024Y1429449D3*
Y1504252D3*
D32*
X739315Y957008D3*
X814118D3*
D31*
X932228Y1287717D3*
Y1212913D3*
X1105457Y1114488D3*
Y1039685D3*
X1164512Y618425D3*
Y543622D3*
X1227504Y917638D3*
Y842835D3*
D32*
X909449Y700988D3*
X984252D3*
D31*
X1262937Y618425D3*
Y543622D3*
X1073961Y618425D3*
Y543622D3*
X920417Y1732598D3*
Y1807402D3*
D34*
X739315Y1350709D3*
Y1460945D3*
X1286559Y1905827D3*
X1176323D3*
X1447976Y1831024D3*
Y1720787D3*
Y1543622D3*
Y1653858D3*
X829866Y1460945D3*
Y1350709D3*
D38*
X1593646Y1256220D3*
Y1382205D3*
X1648764Y1256220D3*
Y1382205D3*
D169*
X802308Y1533783D3*
X912545D3*
D40*
X806244Y1626299D3*
D41*
X719630Y1756220D3*
D40*
X806244Y1886142D3*
D42*
X514906Y1901890D3*
Y1610551D3*
D43*
X2207819Y1909764D3*
X2081835Y1590866D3*
X1877110Y1712913D3*
X1841677Y1909764D3*
D44*
X2302307Y1862520D3*
D43*
Y1762520D3*
Y1662520D3*
Y1562520D3*
Y1462520D3*
Y1362520D3*
D45*
X1597585Y1724724D3*
D46*
X1696005D3*
D47*
X554276Y1453071D3*
D48*
Y1315276D3*
Y1177480D3*
Y1039685D3*
D51*
X875732Y935945D3*
D52*
X925732D3*
D51*
X2098764Y1279843D3*
D52*
X2148764D3*
D54*
X1314118Y1815276D3*
Y1697165D3*
D55*
X1113331Y854646D3*
Y736535D3*
D56*
X739336Y1224724D3*
X857446D3*
D58*
X1231441Y1291654D3*
Y1216850D3*
X1321992Y1254252D3*
D60*
X957822Y1455039D3*
X906635D3*
X932228Y1372362D3*
D31*
X980524Y618425D3*
Y543622D3*
X895328D3*
Y618425D3*
X979472Y1610551D3*
Y1535748D3*
X1518843Y1334961D3*
Y1260157D3*
X1727504Y1334961D3*
Y1260157D3*
D32*
X1377110Y1586929D3*
X1302307D3*
D31*
X1213724Y1535748D3*
Y1610551D3*
X1136953Y1535748D3*
Y1610551D3*
X1022780Y1287717D3*
Y1212913D3*
D32*
X1018843Y1388110D3*
X1093646D3*
D31*
X1022780Y1114488D3*
Y1039685D3*
X2156638Y1504252D3*
Y1429449D3*
X1983409D3*
Y1504252D3*
X1814118D3*
Y1429449D3*
X1896795D3*
Y1504252D3*
X932228Y1114488D3*
Y1039685D3*
D32*
X1093646Y1464882D3*
X1018843D3*
D61*
X2026717Y1350709D3*
Y1319213D3*
X1928291D3*
Y1350709D3*
D64*
X1006213Y782004D3*
Y819406D3*
Y856807D3*
X899913D3*
Y819406D3*
Y782004D3*
D69*
X1007031Y1819213D3*
Y1793622D3*
Y1768031D3*
Y1742441D3*
Y1716850D3*
Y1691260D3*
X1180260D3*
Y1716850D3*
Y1742441D3*
Y1768031D3*
Y1793622D3*
Y1819213D3*
D70*
X1093646Y1755236D3*
D72*
X1180260Y1039685D3*
X1217661D3*
X1255063D3*
Y1145984D3*
X1217661D3*
X1180260D3*
D73*
X741283Y606614D3*
Y706614D3*
Y806614D3*
D74*
X638134Y606614D3*
Y806614D3*
D75*
X2318055Y1153858D3*
X2268055Y1154252D3*
X2218055D3*
X2168055D3*
X2118055D3*
X2068055D3*
X2018055D3*
X1968055D3*
X1918055D3*
X1868055D3*
X1818055D3*
X1768055D3*
X1718055D3*
X1668055D3*
X1668436Y476218D3*
X1718436D3*
X1768436D3*
X1818434D3*
X1868436D3*
X1418436D3*
X1468436D3*
X1518436D3*
X1568436D3*
X1618436D3*
X1918094Y476220D3*
X1968094D3*
X2018094D3*
X2068094D3*
X2118094D3*
X2168094D3*
X2218094D3*
X2268094D3*
X2318094D3*
D76*
X2069945Y853858D3*
D75*
X1618395Y1154248D3*
X1568395D3*
X1518395D3*
X1468395D3*
X1418395D3*
D72*
X1168449Y1315276D3*
X1131047D3*
X1093646D3*
Y1208976D3*
X1131047D3*
X1168449D3*
D64*
X845614Y1027874D3*
Y1065276D3*
Y1102677D3*
X739315D3*
Y1027874D3*
G36*
X1062150Y1823150D2*
X1125142D1*
Y1795591D1*
X1062150D1*
Y1823150D1*
G37*
G36*
X1341677Y1531811D2*
X1404669D1*
Y1472756D1*
X1341677D1*
Y1531811D1*
G37*
G36*
X2042465Y1559370D2*
X2054276Y1551496D1*
X2066087Y1547559D1*
X2097583D1*
X2109394Y1555433D1*
X2121205Y1567244D1*
X2125142Y1571181D1*
X2144827D1*
Y1551496D1*
X2129079Y1547559D1*
X2097583Y1516063D1*
X2042465D1*
X2022780Y1543622D1*
D1*
X2042465Y1559370D1*
G37*
G36*
X1384984Y1260157D2*
Y1208976D1*
X1471598D1*
Y1354646D1*
X1495220Y1378268D1*
Y1394016D1*
X1384984Y1283780D1*
Y1260157D1*
G37*
G36*
Y1208976D2*
X1392858D1*
Y1082992D1*
X1384984D1*
Y1208976D1*
G37*
G36*
X1408606Y1102677D2*
X1384984D1*
Y1082992D1*
X1388921Y1079055D1*
X1396795D1*
X1404669Y1075118D1*
X1428291D1*
D1*
X1408606Y1102677D1*
G37*
G36*
X861362Y1039685D2*
X849551Y1043622D1*
X818055D1*
X806244Y1055433D1*
X774748Y1047559D1*
X778685Y1020000D1*
X806244Y1008189D1*
X845614D1*
X861362Y1016063D1*
Y1039685D1*
G37*
D26*
X1505063Y1506220D3*
G36*
X717661Y1185354D2*
Y1311339D1*
X743252Y1334961D1*
Y1208976D1*
D1*
X717661Y1185354D1*
G37*
G36*
X835772Y1193228D2*
Y1319213D1*
X861362Y1342835D1*
Y1216850D1*
D1*
X835772Y1193228D1*
G37*
G36*
X798370Y1185354D2*
X841677Y1240472D1*
Y1185354D1*
D1*
X798370D1*
G37*
G36*
X875142Y1071181D2*
X898764D1*
Y1000315D1*
X875142D1*
Y1071181D1*
G37*
G36*
X1062150Y1701102D2*
X1125142D1*
Y1645984D1*
X1062150D1*
Y1701102D1*
G37*
G36*
X1054276Y1669606D2*
X1136953D1*
Y1645984D1*
X1054276D1*
Y1669606D1*
G37*
G36*
X1164512Y1838898D2*
X1231441D1*
X1239315Y1842835D1*
X1243252Y1850709D1*
Y1870394D1*
X1164512D1*
D1*
Y1838898D1*
G37*
G36*
X1046402D2*
X991283D1*
X979472Y1850709D1*
Y1858583D1*
Y1870394D1*
X1014906D1*
Y1858583D1*
X1046402D1*
Y1854646D1*
Y1838898D1*
G37*
G36*
X877110Y1059370D2*
X908606D1*
Y1023937D1*
X877110D1*
Y1059370D1*
G37*
G36*
X874157Y1035748D2*
X916480D1*
Y1014094D1*
X874157D1*
Y1035748D1*
G37*
G36*
X802307Y996378D2*
X861362D1*
Y953071D1*
X802307D1*
Y996378D1*
G37*
G36*
X888921Y992441D2*
X955850D1*
Y968819D1*
X888921D1*
Y992441D1*
G37*
G36*
X1152701Y1250315D2*
X1253094D1*
Y1201102D1*
X1211756D1*
X1192071Y1181417D1*
X1152701D1*
D1*
Y1250315D1*
G37*
G36*
X1253094Y1382205D2*
X1225535Y1362520D1*
X1152701D1*
Y1283780D1*
X1203882D1*
Y1311339D1*
X1213724Y1313307D1*
X1260969D1*
X1296402Y1348740D1*
X1294433D1*
X1253094Y1382205D1*
G37*
M02*
