G04 DipTrace 3.3.1.3*
G04 TopMask.gbr*
%MOIN*%
G04 #@! TF.FileFunction,Soldermask,Top*
G04 #@! TF.Part,Single*
%AMOUTLINE1*
4,1,4,
0.027638,-0.027638,
-0.027638,-0.027638,
-0.027638,0.027638,
0.027638,0.027638,
0.027638,-0.027638,
0*%
%ADD53C,0.08905*%
%ADD92C,0.047402*%
%ADD94R,0.126142X0.204882*%
%ADD96R,0.043465X0.086772*%
%ADD98C,0.078898*%
%ADD100C,0.06315*%
%ADD102R,0.031654X0.051339*%
%ADD104R,0.071024X0.118268*%
%ADD106R,0.06315X0.019843*%
%ADD112R,0.051339X0.031654*%
%ADD116R,0.027717X0.027717*%
%ADD118R,0.027717X0.041496*%
%ADD120R,0.04937X0.033622*%
%ADD122R,0.051339X0.14189*%
%ADD124R,0.114331X0.053307*%
%ADD126R,0.14189X0.051339*%
%ADD130O,0.047402X0.059213*%
%ADD132R,0.047402X0.059213*%
%ADD138O,0.114331X0.098583*%
%ADD140R,0.114331X0.098583*%
%ADD142C,0.067402*%
%ADD144R,0.067402X0.067402*%
%ADD146R,0.074961X0.074961*%
%ADD148C,0.074961*%
%ADD150O,0.149764X0.086772*%
%ADD152O,0.086772X0.145827*%
%ADD154O,0.145827X0.086772*%
%ADD156R,0.039528X0.071024*%
%ADD160R,0.055276X0.055276*%
%ADD162R,0.059213X0.067087*%
%ADD164R,0.067087X0.059213*%
%ADD170OUTLINE1*%
%FSLAX26Y26*%
G04*
G70*
G90*
G75*
G01*
G04 TopMask*
%LPD*%
D92*
X3657480Y1358268D3*
X3826772Y779528D3*
D164*
X3507874Y818898D3*
Y744094D3*
D162*
X3114173Y1799213D3*
X3188976D3*
D164*
X3251969Y1511811D3*
Y1437008D3*
D162*
X3566929Y1803150D3*
X3641732D3*
X3566929Y1401575D3*
X3492126D3*
X4437008Y1137795D3*
X4511811D3*
D164*
X4263780Y1330709D3*
Y1405512D3*
D162*
X2933071Y858268D3*
X3007874D3*
D164*
X3125984Y1188976D3*
Y1114173D3*
X3299213Y1028072D3*
Y953269D3*
X3507874Y519685D3*
Y444882D3*
X3421260Y818898D3*
Y744094D3*
D162*
X3103205Y602248D3*
X3178008D3*
D164*
X3507874Y594488D3*
Y669291D3*
X3421260Y519685D3*
Y444882D3*
X3114173Y1633858D3*
Y1708661D3*
D160*
X2933071Y1251969D3*
Y1362205D3*
X3480315Y1807087D3*
X3370079D3*
X3641732Y1732283D3*
Y1622047D3*
Y1444882D3*
Y1555118D3*
X3023622Y1362205D3*
Y1251969D3*
D156*
X3787402Y1157480D3*
Y1283465D3*
X3842520Y1157480D3*
Y1283465D3*
D170*
X2996064Y1435043D3*
X3106301D3*
D154*
X3000000Y1527559D3*
D152*
X2913386Y1657480D3*
D154*
X3000000Y1787402D3*
D150*
X2708661Y1803150D3*
Y1511811D3*
D148*
X4401575Y1811024D3*
X4275591Y1492126D3*
X4070866Y1614173D3*
X4035433Y1811024D3*
D146*
X4496063Y1763780D3*
D148*
Y1663780D3*
Y1563780D3*
Y1463780D3*
Y1363780D3*
Y1263780D3*
D144*
X3791341Y1625984D3*
D142*
X3889761D3*
D140*
X2748031Y1354331D3*
D138*
Y1216535D3*
Y1078740D3*
Y940945D3*
D132*
X3108858Y837205D3*
D130*
X3158858D3*
X4292520Y1185039D3*
X4342520D3*
D144*
X3791339Y1773622D3*
D53*
X3889759D3*
D130*
X3181693Y454134D3*
D132*
X3231693D3*
D126*
X3507874Y1716535D3*
Y1598425D3*
D124*
X3307087Y740157D3*
Y622047D3*
D122*
X2933092Y1125984D3*
X3051202D3*
D120*
X3425197Y1192913D3*
Y1118110D3*
X3515748Y1155512D3*
D118*
X3151577Y1356299D3*
X3100391D3*
X3125984Y1273622D3*
D164*
X3335472Y444882D3*
Y519685D3*
X3078740Y444882D3*
Y519685D3*
X3173228Y1511811D3*
Y1437008D3*
X3712598Y1236220D3*
Y1161417D3*
X3921260Y1236220D3*
Y1161417D3*
D162*
X3566929Y1488189D3*
X3492126D3*
D164*
X3407480Y1437008D3*
Y1511811D3*
X3330709Y1437008D3*
Y1511811D3*
X3216535Y1188976D3*
Y1114173D3*
D162*
X3212598Y1289370D3*
X3287402D3*
D164*
X3216535Y1028072D3*
Y953269D3*
X4350394Y1405512D3*
Y1330709D3*
X4177165D3*
Y1405512D3*
X4007874D3*
Y1330709D3*
X4090551D3*
Y1405512D3*
X3125984Y1028072D3*
Y953269D3*
D162*
X3287402Y1366142D3*
X3212598D3*
D116*
X4216535Y1255906D3*
Y1224409D3*
X4118110D3*
Y1255906D3*
D112*
X3199969Y683264D3*
Y720665D3*
Y758067D3*
X3093669D3*
Y720665D3*
Y683264D3*
D106*
X3200787Y1720472D3*
Y1694882D3*
Y1669291D3*
Y1643701D3*
Y1618110D3*
Y1592520D3*
X3374016D3*
Y1618110D3*
Y1643701D3*
Y1669291D3*
Y1694882D3*
Y1720472D3*
D104*
X3287402Y1656496D3*
D102*
X3374016Y940945D3*
X3411417D3*
X3448819D3*
Y1047244D3*
X3411417D3*
X3374016D3*
D100*
X2935039Y507874D3*
Y607874D3*
Y707874D3*
D98*
X2831890Y507874D3*
Y707874D3*
D96*
X4511811Y1055118D3*
X4461811Y1055512D3*
X4411811D3*
X4361811D3*
X4311811D3*
X4261811D3*
X4211811D3*
X4161811D3*
X4111811D3*
X4061811D3*
X4011811D3*
X3961811D3*
X3911811D3*
X3861811D3*
X3862192Y377478D3*
X3912192D3*
X3962192D3*
X4012190D3*
X4062192D3*
X3612192D3*
X3662192D3*
X3712192D3*
X3762192D3*
X3812192D3*
X4111850Y377480D3*
X4161850D3*
X4211850D3*
X4261850D3*
X4311850D3*
X4361850D3*
X4411850D3*
X4461850D3*
X4511850D3*
D94*
X4263701Y755118D3*
D96*
X3812151Y1055508D3*
X3762151D3*
X3712151D3*
X3662151D3*
X3612151D3*
D102*
X3362205Y1216535D3*
X3324803D3*
X3287402D3*
Y1110236D3*
X3324803D3*
X3362205D3*
D112*
X3039370Y929134D3*
Y966535D3*
Y1003937D3*
X2933071D3*
Y929134D3*
M02*
