G04 DipTrace 3.3.1.3*
G04 TopMask.gbr*
%MOIN*%
G04 #@! TF.FileFunction,Soldermask,Top*
G04 #@! TF.Part,Single*
%AMOUTLINE1*
4,1,4,
0.027638,-0.027638,
-0.027638,-0.027638,
-0.027638,0.027638,
0.027638,0.027638,
0.027638,-0.027638,
0*%
%ADD92C,0.047402*%
%ADD94R,0.126142X0.204882*%
%ADD96R,0.043465X0.086772*%
%ADD98C,0.078898*%
%ADD100C,0.06315*%
%ADD102R,0.031654X0.051339*%
%ADD104R,0.071024X0.118268*%
%ADD106R,0.06315X0.019843*%
%ADD112R,0.051339X0.031654*%
%ADD116R,0.027717X0.027717*%
%ADD118R,0.027717X0.041496*%
%ADD120R,0.04937X0.033622*%
%ADD122R,0.051339X0.14189*%
%ADD124R,0.114331X0.053307*%
%ADD126R,0.14189X0.051339*%
%ADD130O,0.047402X0.059213*%
%ADD132R,0.047402X0.059213*%
%ADD138O,0.114331X0.098583*%
%ADD140R,0.114331X0.098583*%
%ADD142C,0.067402*%
%ADD144R,0.067402X0.067402*%
%ADD146R,0.074961X0.074961*%
%ADD148C,0.074961*%
%ADD150O,0.149764X0.086772*%
%ADD152O,0.086772X0.145827*%
%ADD154O,0.145827X0.086772*%
%ADD156R,0.039528X0.071024*%
%ADD160R,0.055276X0.055276*%
%ADD162R,0.059213X0.067087*%
%ADD164R,0.067087X0.059213*%
%ADD170OUTLINE1*%
%FSLAX26Y26*%
G04*
G70*
G90*
G75*
G01*
G04 TopMask*
%LPD*%
D92*
X1463724Y1457008D3*
X1633016Y878268D3*
D164*
X1314118Y917638D3*
Y842835D3*
D162*
X920417Y1897953D3*
X995220D3*
D164*
X1058213Y1610551D3*
Y1535748D3*
D162*
X1373173Y1901890D3*
X1447976D3*
X1377110Y1500315D3*
X1302307D3*
X2243252Y1236535D3*
X2318055D3*
D164*
X2070024Y1429449D3*
Y1504252D3*
D162*
X739315Y957008D3*
X814118D3*
D164*
X932228Y1287717D3*
Y1212913D3*
X1105457Y1114488D3*
Y1039685D3*
X1164512Y618425D3*
Y543622D3*
X1227504Y917638D3*
Y842835D3*
D162*
X909449Y700988D3*
X984252D3*
D164*
X1262937Y618425D3*
Y543622D3*
X1073961Y618425D3*
Y543622D3*
X920417Y1732598D3*
Y1807402D3*
D160*
X739315Y1350709D3*
Y1460945D3*
X1286559Y1905827D3*
X1176323D3*
X1447976Y1831024D3*
Y1720787D3*
Y1543622D3*
Y1653858D3*
X829866Y1460945D3*
Y1350709D3*
D156*
X1593646Y1256220D3*
Y1382205D3*
X1648764Y1256220D3*
Y1382205D3*
D170*
X802308Y1533783D3*
X912545D3*
D154*
X806244Y1626299D3*
D152*
X719630Y1756220D3*
D154*
X806244Y1886142D3*
D150*
X514906Y1901890D3*
Y1610551D3*
D148*
X2207819Y1909764D3*
X2081835Y1590866D3*
X1877110Y1712913D3*
X1841677Y1909764D3*
D146*
X2302307Y1862520D3*
D148*
Y1762520D3*
Y1662520D3*
Y1562520D3*
Y1462520D3*
Y1362520D3*
D144*
X1597585Y1724724D3*
D142*
X1696005D3*
D140*
X554276Y1453071D3*
D138*
Y1315276D3*
Y1177480D3*
Y1039685D3*
D132*
X875732Y935945D3*
D130*
X925732D3*
D132*
X2098764Y1279843D3*
D130*
X2148764D3*
D126*
X1314118Y1815276D3*
Y1697165D3*
D124*
X1113331Y854646D3*
Y736535D3*
D122*
X739336Y1224724D3*
X857446D3*
D120*
X1231441Y1291654D3*
Y1216850D3*
X1321992Y1254252D3*
D118*
X957822Y1455039D3*
X906635D3*
X932228Y1372362D3*
D164*
X980524Y618425D3*
Y543622D3*
X895328D3*
Y618425D3*
X979472Y1610551D3*
Y1535748D3*
X1518843Y1334961D3*
Y1260157D3*
X1727504Y1334961D3*
Y1260157D3*
D162*
X1377110Y1586929D3*
X1302307D3*
D164*
X1213724Y1535748D3*
Y1610551D3*
X1136953Y1535748D3*
Y1610551D3*
X1022780Y1287717D3*
Y1212913D3*
D162*
X1018843Y1388110D3*
X1093646D3*
D164*
X1022780Y1114488D3*
Y1039685D3*
X2156638Y1504252D3*
Y1429449D3*
X1983409D3*
Y1504252D3*
X1814118D3*
Y1429449D3*
X1896795D3*
Y1504252D3*
X932228Y1114488D3*
Y1039685D3*
D162*
X1093646Y1464882D3*
X1018843D3*
D116*
X2026717Y1350709D3*
Y1319213D3*
X1928291D3*
Y1350709D3*
D112*
X1006213Y782004D3*
Y819406D3*
Y856807D3*
X899913D3*
Y819406D3*
Y782004D3*
D106*
X1007031Y1819213D3*
Y1793622D3*
Y1768031D3*
Y1742441D3*
Y1716850D3*
Y1691260D3*
X1180260D3*
Y1716850D3*
Y1742441D3*
Y1768031D3*
Y1793622D3*
Y1819213D3*
D104*
X1093646Y1755236D3*
D102*
X1180260Y1039685D3*
X1217661D3*
X1255063D3*
Y1145984D3*
X1217661D3*
X1180260D3*
D100*
X741283Y606614D3*
Y706614D3*
Y806614D3*
D98*
X638134Y606614D3*
Y806614D3*
D96*
X2318055Y1153858D3*
X2268055Y1154252D3*
X2218055D3*
X2168055D3*
X2118055D3*
X2068055D3*
X2018055D3*
X1968055D3*
X1918055D3*
X1868055D3*
X1818055D3*
X1768055D3*
X1718055D3*
X1668055D3*
X1668436Y476218D3*
X1718436D3*
X1768436D3*
X1818434D3*
X1868436D3*
X1418436D3*
X1468436D3*
X1518436D3*
X1568436D3*
X1618436D3*
X1918094Y476220D3*
X1968094D3*
X2018094D3*
X2068094D3*
X2118094D3*
X2168094D3*
X2218094D3*
X2268094D3*
X2318094D3*
D94*
X2069945Y853858D3*
D96*
X1618395Y1154248D3*
X1568395D3*
X1518395D3*
X1468395D3*
X1418395D3*
D102*
X1168449Y1315276D3*
X1131047D3*
X1093646D3*
Y1208976D3*
X1131047D3*
X1168449D3*
D112*
X845614Y1027874D3*
Y1065276D3*
Y1102677D3*
X739315D3*
Y1027874D3*
M02*
