G04 DipTrace 3.3.1.3*
G04 TopPaste.gbr*
%MOIN*%
G04 #@! TF.FileFunction,Paste,Top*
G04 #@! TF.Part,Single*
%AMOUTLINE2*
4,1,4,
0.019606,-0.019606,
-0.019606,-0.019606,
-0.019606,0.019606,
0.019606,0.019606,
0.019606,-0.019606,
0*%
%ADD95R,0.110079X0.188819*%
%ADD97R,0.027402X0.070709*%
%ADD103R,0.015591X0.035276*%
%ADD105R,0.054961X0.102205*%
%ADD107R,0.047087X0.00378*%
%ADD113R,0.035276X0.015591*%
%ADD117R,0.011654X0.011654*%
%ADD119R,0.011654X0.025433*%
%ADD121R,0.033307X0.017559*%
%ADD123R,0.035276X0.125827*%
%ADD125R,0.098268X0.037244*%
%ADD127R,0.125827X0.035276*%
%ADD157R,0.023465X0.054961*%
%ADD161R,0.039213X0.039213*%
%ADD163R,0.04315X0.051024*%
%ADD165R,0.051024X0.04315*%
%ADD171OUTLINE2*%
%FSLAX26Y26*%
G04*
G70*
G90*
G75*
G01*
G04 TopPaste*
%LPD*%
D165*
X3507874Y818898D3*
Y744094D3*
D163*
X3114173Y1799213D3*
X3188976D3*
D165*
X3251969Y1511811D3*
Y1437008D3*
D163*
X3566929Y1803150D3*
X3641732D3*
X3566929Y1401575D3*
X3492126D3*
X4437008Y1137795D3*
X4511811D3*
D165*
X4263780Y1330709D3*
Y1405512D3*
D163*
X2933071Y858268D3*
X3007874D3*
D165*
X3125984Y1188976D3*
Y1114173D3*
X3299213Y1028072D3*
Y953269D3*
X3507874Y519685D3*
Y444882D3*
X3421260Y818898D3*
Y744094D3*
D163*
X3103205Y602248D3*
X3178008D3*
D165*
X3507874Y594488D3*
Y669291D3*
X3421260Y519685D3*
Y444882D3*
X3114173Y1633858D3*
Y1708661D3*
D161*
X2933071Y1251969D3*
Y1362205D3*
X3480315Y1807087D3*
X3370079D3*
X3641732Y1732283D3*
Y1622047D3*
Y1444882D3*
Y1555118D3*
X3023622Y1362205D3*
Y1251969D3*
D157*
X3787402Y1157480D3*
Y1283465D3*
X3842520Y1157480D3*
Y1283465D3*
D171*
X2996064Y1435043D3*
X3106301D3*
D127*
X3507874Y1716535D3*
Y1598425D3*
D125*
X3307087Y740157D3*
Y622047D3*
D123*
X2933092Y1125984D3*
X3051202D3*
D121*
X3425197Y1192913D3*
Y1118110D3*
X3515748Y1155512D3*
D119*
X3151577Y1356299D3*
X3100391D3*
X3125984Y1273622D3*
D165*
X3335472Y444882D3*
Y519685D3*
X3078740Y444882D3*
Y519685D3*
X3173228Y1511811D3*
Y1437008D3*
X3712598Y1236220D3*
Y1161417D3*
X3921260Y1236220D3*
Y1161417D3*
D163*
X3566929Y1488189D3*
X3492126D3*
D165*
X3407480Y1437008D3*
Y1511811D3*
X3330709Y1437008D3*
Y1511811D3*
X3216535Y1188976D3*
Y1114173D3*
D163*
X3212598Y1289370D3*
X3287402D3*
D165*
X3216535Y1028072D3*
Y953269D3*
X4350394Y1405512D3*
Y1330709D3*
X4177165D3*
Y1405512D3*
X4007874D3*
Y1330709D3*
X4090551D3*
Y1405512D3*
X3125984Y1028072D3*
Y953269D3*
D163*
X3287402Y1366142D3*
X3212598D3*
D117*
X4216535Y1255906D3*
Y1224409D3*
X4118110D3*
Y1255906D3*
D113*
X3199969Y683264D3*
Y720665D3*
Y758067D3*
X3093669D3*
Y720665D3*
Y683264D3*
D107*
X3200787Y1720472D3*
Y1694882D3*
Y1669291D3*
Y1643701D3*
Y1618110D3*
Y1592520D3*
X3374016D3*
Y1618110D3*
Y1643701D3*
Y1669291D3*
Y1694882D3*
Y1720472D3*
D105*
X3287402Y1656496D3*
D103*
X3374016Y940945D3*
X3411417D3*
X3448819D3*
Y1047244D3*
X3411417D3*
X3374016D3*
D97*
X4511811Y1055118D3*
X4461811Y1055512D3*
X4411811D3*
X4361811D3*
X4311811D3*
X4261811D3*
X4211811D3*
X4161811D3*
X4111811D3*
X4061811D3*
X4011811D3*
X3961811D3*
X3911811D3*
X3861811D3*
X3862192Y377478D3*
X3912192D3*
X3962192D3*
X4012190D3*
X4062192D3*
X3612192D3*
X3662192D3*
X3712192D3*
X3762192D3*
X3812192D3*
X4111850Y377480D3*
X4161850D3*
X4211850D3*
X4261850D3*
X4311850D3*
X4361850D3*
X4411850D3*
X4461850D3*
X4511850D3*
D95*
X4263701Y755118D3*
D97*
X3812151Y1055508D3*
X3762151D3*
X3712151D3*
X3662151D3*
X3612151D3*
D103*
X3362205Y1216535D3*
X3324803D3*
X3287402D3*
Y1110236D3*
X3324803D3*
X3362205D3*
D113*
X3039370Y929134D3*
Y966535D3*
Y1003937D3*
X2933071D3*
Y929134D3*
M02*
