G04 DipTrace 3.3.1.3*
G04 TopPaste.gbr*
%MOIN*%
G04 #@! TF.FileFunction,Paste,Top*
G04 #@! TF.Part,Single*
%ADD90R,0.110079X0.188819*%
%ADD92R,0.027402X0.070709*%
%ADD98R,0.015591X0.035276*%
%ADD100R,0.054961X0.102205*%
%ADD102R,0.047087X0.00378*%
%ADD108R,0.035276X0.015591*%
%ADD112R,0.011654X0.011654*%
%ADD114R,0.033307X0.017559*%
%ADD116R,0.098268X0.037244*%
%ADD118R,0.125827X0.035276*%
%ADD148R,0.023465X0.054961*%
%ADD152R,0.039213X0.039213*%
%ADD154R,0.04315X0.051024*%
%ADD156R,0.051024X0.04315*%
%FSLAX26Y26*%
G04*
G70*
G90*
G75*
G01*
G04 TopPaste*
%LPD*%
D156*
X3507874Y818898D3*
Y744094D3*
D154*
X3114173Y1795276D3*
X3188976D3*
D156*
X3220472Y1511811D3*
Y1437008D3*
D154*
X3566929Y1803150D3*
X3641732D3*
X3562992Y1401575D3*
X3488189D3*
X4437008Y1137795D3*
X4511811D3*
D156*
X4263780Y1330709D3*
Y1405512D3*
X3204724Y1039370D3*
Y964567D3*
X3507874Y519685D3*
Y444882D3*
X3421260Y818898D3*
Y744094D3*
D154*
X3102362Y594488D3*
X3177165D3*
D156*
X3507874D3*
Y669291D3*
X3421260Y519685D3*
Y444882D3*
D154*
X3039370Y1433071D3*
X2964567D3*
D152*
X3106299Y1704724D3*
Y1594488D3*
X3464567Y1807087D3*
X3354331D3*
X3641732Y1732283D3*
Y1622047D3*
Y1444882D3*
Y1555118D3*
D148*
X3787402Y1157480D3*
Y1283465D3*
X3842520Y1157480D3*
Y1283465D3*
D118*
X3503937Y1720472D3*
Y1602362D3*
D116*
X3307087Y740157D3*
Y622047D3*
D114*
X3425197Y1212598D3*
Y1137795D3*
X3515748Y1175197D3*
D156*
X3335467Y444882D3*
Y519685D3*
X3078740Y444882D3*
Y519685D3*
X3137795Y1511811D3*
Y1437008D3*
X3712598Y1236220D3*
Y1161417D3*
X3921260Y1236220D3*
Y1161417D3*
D154*
X3562992Y1488189D3*
X3488189D3*
D156*
X3391732Y1437008D3*
Y1511811D3*
X3303150Y1437008D3*
Y1511811D3*
D154*
X3098425Y1169291D3*
X3173228D3*
X3098425Y1279528D3*
X3173228D3*
D156*
X4350394Y1405512D3*
Y1330709D3*
X4177165D3*
Y1405512D3*
X4007874D3*
Y1330709D3*
X4090551D3*
Y1405512D3*
D112*
X4216535Y1255906D3*
Y1224409D3*
X4118110D3*
Y1255906D3*
D108*
X3199969Y683264D3*
Y720665D3*
Y758067D3*
X3093669D3*
Y720665D3*
Y683264D3*
D102*
X3188976Y1720472D3*
Y1694882D3*
Y1669291D3*
Y1643701D3*
Y1618110D3*
Y1592520D3*
X3362205D3*
Y1618110D3*
Y1643701D3*
Y1669291D3*
Y1694882D3*
Y1720472D3*
D100*
X3275591Y1656496D3*
D98*
Y960630D3*
X3312992D3*
X3350394D3*
Y1066929D3*
X3312992D3*
X3275591D3*
D92*
X4511811Y1055118D3*
X4461811Y1055512D3*
X4411811D3*
X4361811D3*
X4311811D3*
X4261811D3*
X4211811D3*
X4161811D3*
X4111811D3*
X4061811D3*
X4011811D3*
X3961811D3*
X3911811D3*
X3861811D3*
X3862192Y377478D3*
X3912192D3*
X3962192D3*
X4012190D3*
X4062192D3*
X3612192D3*
X3662192D3*
X3712192D3*
X3762192D3*
X3812192D3*
X4111850Y377480D3*
X4161850D3*
X4211850D3*
X4261850D3*
X4311850D3*
X4361850D3*
X4411850D3*
X4461850D3*
X4511850D3*
D90*
X4263701Y755118D3*
D92*
X3812151Y1055508D3*
X3762151D3*
X3712151D3*
X3662151D3*
X3612151D3*
D98*
X3342520Y1283465D3*
X3305118D3*
X3267717D3*
Y1177165D3*
X3305118D3*
X3342520D3*
M02*
