G04 DipTrace 3.3.1.3*
G04 TopSilk.gbr*
%MOIN*%
G04 #@! TF.FileFunction,Legend,Top*
G04 #@! TF.Part,Single*
%ADD10C,0.009843*%
%ADD32C,0.015746*%
%ADD34C,0.015762*%
%ADD55C,0.015422*%
%ADD59C,0.015395*%
%ADD67C,0.015401*%
%ADD158C,0.006176*%
%FSLAX26Y26*%
G04*
G70*
G90*
G75*
G01*
G04 TopSilk*
%LPD*%
X3482303Y860257D2*
D10*
X3533445D1*
X3072814Y1769705D2*
Y1820846D1*
X3194902Y1553171D2*
X3246043D1*
X3525570Y1777579D2*
Y1828720D1*
X3604352Y1427146D2*
Y1376004D1*
X4395648Y1112224D2*
Y1163366D1*
X4289350Y1289349D2*
X4238209D1*
X3179154Y1080730D2*
X3230295D1*
X3482303Y561045D2*
X3533445D1*
X3395689Y860257D2*
X3446831D1*
X3061003Y568917D2*
Y620059D1*
X3533445Y553129D2*
X3482303D1*
X3395689Y561045D2*
X3446831D1*
X3076751Y1458642D2*
Y1407500D1*
X3141729Y1673221D2*
Y1625989D1*
X3070867Y1673221D2*
Y1625989D1*
D32*
X3106298Y1746056D3*
X3433064Y1771657D2*
D10*
X3385831D1*
X3433064Y1842519D2*
X3385831D1*
D34*
X3505898Y1807088D3*
X3677162Y1700780D2*
D10*
Y1653548D1*
X3606300Y1700780D2*
Y1653548D1*
D32*
X3641731Y1773615D3*
X3606302Y1476385D2*
D10*
Y1523618D1*
X3677165Y1476385D2*
Y1523618D1*
D32*
X3641734Y1403550D3*
X3775594Y1108268D2*
D10*
X3854327D1*
X2594478Y1503935D2*
Y1811026D1*
X2620096D1*
X2797245D2*
X2919313D1*
X3047264Y1732273D2*
Y1582687D1*
X2919313Y1503935D2*
X2797245D1*
X2620096D2*
X2594478D1*
X4336602Y2023622D2*
X4100406D1*
Y1905489D1*
X4336602D1*
Y2023622D1*
X4397622Y1925206D2*
X4334610D1*
X4397622Y1472446D2*
X4322831D1*
X4043327Y1905489D2*
Y1925206D1*
X4102354D1*
X4397622Y1862213D2*
Y1925206D1*
X4043327Y1905489D2*
X4003917Y1885828D1*
Y1850349D1*
X4031504Y1649618D2*
X4003917Y1665381D1*
Y1704758D1*
X4035445D1*
Y1763797D1*
X4043327Y1472446D2*
Y1570863D1*
X4397622Y1472446D2*
Y1759842D1*
X4228335Y1472446D2*
X4043327D1*
X4546065Y1813752D2*
X4446063D1*
Y1213807D1*
X4546065D1*
Y1813752D1*
X3694877Y1922442D2*
X3986220D1*
Y1532682D1*
X3694877D1*
Y1922442D1*
X2598436Y1423213D2*
Y872063D1*
X2854331Y872008D1*
Y1423213D1*
X2598436Y1423268D1*
G36*
X2626918Y1370071D2*
X2595407D1*
Y1338539D1*
X2626918D1*
Y1370071D1*
G37*
G36*
Y1232311D2*
X2595407D1*
Y1200779D1*
X2626918D1*
Y1232311D1*
G37*
G36*
Y1094551D2*
X2595407D1*
Y1062964D1*
X2626918D1*
Y1094551D1*
G37*
G36*
Y956737D2*
X2595407D1*
Y925204D1*
X2626918D1*
Y956737D1*
G37*
X3051181Y912011D2*
D10*
Y793894D1*
Y913976D2*
X3208661D1*
X3051181Y791929D2*
X3208661D1*
Y912011D2*
Y793894D1*
X4238780Y1259846D2*
Y1141729D1*
Y1261811D2*
X4396260D1*
X4238780Y1139764D2*
X4396260D1*
Y1259846D2*
Y1141729D1*
X3694882Y1891732D2*
X3986220D1*
Y1655512D1*
X3694882D1*
Y1891732D1*
X3127953Y528941D2*
Y410823D1*
Y530906D2*
X3285433D1*
X3127953Y408858D2*
X3285433D1*
Y528941D2*
Y410823D1*
X3582677Y1740157D2*
Y1582678D1*
X3425197Y1740157D2*
Y1582678D1*
X3257870Y696885D2*
Y665401D1*
X3356303Y696885D2*
Y665401D1*
D55*
X3410488Y1243447D3*
X3460630Y1234247D2*
D10*
Y1116142D1*
X3480315D1*
Y1234247D1*
X3460630D1*
X4129917Y1262165D2*
X4206689Y1262360D1*
X4129917Y1217914D2*
Y1262401D1*
Y1218109D2*
X4206689D1*
Y1217914D2*
Y1262401D1*
D59*
X3216594Y656350D3*
X3162528Y661613D2*
D10*
Y779720D1*
X3131038Y661613D2*
Y779720D1*
X3162528D2*
X3131038D1*
X3162528Y661613D2*
X3131038D1*
X3228346Y1735235D2*
X3259835D1*
X3228346D2*
Y1577757D1*
X3291346Y1735235D2*
X3322835D1*
X3228346Y1577757D2*
X3322835D1*
Y1735235D1*
X3259835D2*
G03X3291346Y1735235I15756J8D01*
G01*
D67*
X3248677Y944005D3*
X3253939Y998070D2*
D10*
X3372047D1*
X3253939Y1029561D2*
X3372047D1*
Y998070D2*
Y1029561D1*
X3253939Y998070D2*
Y1029561D1*
X2498031Y397237D2*
X3029528D1*
Y779117D1*
X2498031D1*
Y397237D1*
X4811800Y1073844D2*
X4555550D1*
Y355135D1*
X4811800D1*
Y1073844D1*
X3587176D2*
X3562176D1*
X3561801Y436337D1*
X3562176Y361341D2*
X3587176D1*
X3562176D2*
Y455105D1*
D67*
X3369433Y1300090D3*
X3364171Y1246024D2*
D10*
X3246063D1*
X3364171Y1214534D2*
X3246063D1*
Y1246024D2*
Y1214534D1*
X3364171Y1246024D2*
Y1214534D1*
X3887721Y1719603D2*
D158*
Y1685159D1*
X3870521Y1702358D2*
X3904965D1*
X3779970Y1702381D2*
X3802078D1*
X2886269Y1379979D2*
Y1339787D1*
X2909217D1*
X2938768Y1377083D2*
Y1342639D1*
X2921568Y1359839D2*
X2956012D1*
X2886269Y1242339D2*
Y1202147D1*
X2909217D1*
X2921568Y1222220D2*
X2943676D1*
X2886269Y1085243D2*
X2903469D1*
X2909217Y1087189D1*
X2911162Y1089090D1*
X2913064Y1092892D1*
Y1096739D1*
X2911162Y1100542D1*
X2909217Y1102487D1*
X2903469Y1104388D1*
X2886269D1*
Y1064196D1*
X2899666Y1085243D2*
X2913064Y1064196D1*
X2925415Y1084270D2*
X2947523D1*
X2886269Y947448D2*
X2903469D1*
X2909217Y949393D1*
X2911162Y951295D1*
X2913064Y955097D1*
Y958944D1*
X2911162Y962746D1*
X2909217Y964692D1*
X2903469Y966593D1*
X2886269D1*
Y926401D1*
X2899666Y947448D2*
X2913064Y926401D1*
X2942615Y963697D2*
Y929253D1*
X2925415Y946453D2*
X2959859D1*
X3973647Y1238941D2*
X3990847D1*
X3996595Y1240887D1*
X3998540Y1242788D1*
X4000442Y1246591D1*
Y1250437D1*
X3998540Y1254240D1*
X3996595Y1256185D1*
X3990847Y1258087D1*
X3973647D1*
Y1217895D1*
X3987044Y1238941D2*
X4000442Y1217895D1*
X4039588Y1252339D2*
X4035785Y1256185D1*
X4030037Y1258087D1*
X4022388D1*
X4016640Y1256185D1*
X4012793Y1252339D1*
Y1248536D1*
X4014738Y1244689D1*
X4016640Y1242788D1*
X4020442Y1240887D1*
X4031938Y1237040D1*
X4035785Y1235139D1*
X4037686Y1233193D1*
X4039588Y1229391D1*
Y1223643D1*
X4035785Y1219840D1*
X4030037Y1217895D1*
X4022388D1*
X4016640Y1219840D1*
X4012793Y1223643D1*
X4065336Y1258087D2*
Y1217895D1*
X4051939Y1258087D2*
X4078734D1*
X2925487Y1890204D2*
X2936983Y1863409D1*
X2948435Y1890204D1*
X2964633Y1903557D2*
X2985635D1*
X2974183Y1888258D1*
X2979931D1*
X2983734Y1886357D1*
X2985635Y1884456D1*
X2987581Y1878708D1*
Y1874905D1*
X2985635Y1869157D1*
X2981833Y1865310D1*
X2976085Y1863409D1*
X2970337D1*
X2964633Y1865310D1*
X2962732Y1867256D1*
X2960786Y1871058D1*
X3001833Y1867256D2*
X2999932Y1865310D1*
X3001833Y1863409D1*
X3003779Y1865310D1*
X3001833Y1867256D1*
X3016130Y1895908D2*
X3019977Y1897853D1*
X3025725Y1903557D1*
Y1863409D1*
X3038077Y1895908D2*
X3041923Y1897853D1*
X3047671Y1903557D1*
Y1863409D1*
X3886269Y1596081D2*
X3908377D1*
X3232726Y368865D2*
X3254833D1*
X3190870Y386087D2*
Y351643D1*
X3173671Y368843D2*
X3208114D1*
M02*
