G04 DipTrace 3.3.1.3*
G04 TopSilk.gbr*
%MOIN*%
G04 #@! TF.FileFunction,Legend,Top*
G04 #@! TF.Part,Single*
%ADD10C,0.009843*%
%ADD33C,0.015746*%
%ADD35C,0.015762*%
%ADD39C,0.015743*%
%ADD58C,0.015422*%
%ADD60C,0.015415*%
%ADD64C,0.015395*%
%ADD72C,0.015401*%
%ADD168C,0.006176*%
%FSLAX26Y26*%
G04*
G70*
G90*
G75*
G01*
G04 TopSilk*
%LPD*%
X1288547Y958997D2*
D10*
X1339689D1*
X879058Y1872382D2*
Y1923524D1*
X1032642Y1651911D2*
X1083783D1*
X1331814Y1876319D2*
Y1927461D1*
X1418470Y1525886D2*
Y1474744D1*
X2201892Y1210965D2*
Y1262106D1*
X2095594Y1388089D2*
X2044453D1*
X697955Y931437D2*
Y982579D1*
X906657Y1329076D2*
X957799D1*
X1079886Y1155848D2*
X1131028D1*
X1138941Y659785D2*
X1190083D1*
X1201933Y958997D2*
X1253075D1*
X868089Y675417D2*
Y726559D1*
X1237366Y659785D2*
X1288508D1*
X1048390D2*
X1099531D1*
X945988Y1695218D2*
X894846D1*
X703885Y1382212D2*
Y1429444D1*
X774747Y1382212D2*
Y1429444D1*
D33*
X739316Y1309377D3*
X1255056Y1870397D2*
D10*
X1207823D1*
X1255056Y1941259D2*
X1207823D1*
D35*
X1327890Y1905828D3*
X1483406Y1799520D2*
D10*
Y1752288D1*
X1412544Y1799520D2*
Y1752288D1*
D33*
X1447975Y1872355D3*
X1412547Y1575125D2*
D10*
Y1622358D1*
X1483409Y1575125D2*
Y1622358D1*
D33*
X1447978Y1502291D3*
X865296Y1429442D2*
D10*
Y1382209D1*
X794434Y1429442D2*
Y1382209D1*
D33*
X829865Y1502276D3*
X1581839Y1207008D2*
D10*
X1660571D1*
X833816Y1569213D2*
X881046D1*
X833816Y1498351D2*
X881046D1*
D39*
X760975Y1533782D3*
X400722Y1602675D2*
D10*
Y1909766D1*
X426340D1*
X603489D2*
X725557D1*
X853508Y1831013D2*
Y1681428D1*
X725557Y1602675D2*
X603489D1*
X426340D2*
X400722D1*
X2142846Y2122362D2*
X1906650D1*
Y2004229D1*
X2142846D1*
Y2122362D1*
X2203866Y2023946D2*
X2140854D1*
X2203866Y1571187D2*
X2129075D1*
X1849571Y2004229D2*
Y2023946D1*
X1908598D1*
X2203866Y1960953D2*
Y2023946D1*
X1849571Y2004229D2*
X1810161Y1984568D1*
Y1949089D1*
X1837748Y1748358D2*
X1810161Y1764121D1*
Y1803498D1*
X1841689D1*
Y1862537D1*
X1849571Y1571187D2*
Y1669603D1*
X2203866Y1571187D2*
Y1858582D1*
X2034579Y1571187D2*
X1849571D1*
X2352309Y1912492D2*
X2252307D1*
Y1312547D1*
X2352309D1*
Y1912492D1*
X1501121Y2023938D2*
X1792465D1*
Y1634178D1*
X1501121D1*
Y2023938D1*
X404680Y1521953D2*
Y970803D1*
X660575Y970748D1*
Y1521953D1*
X404680Y1522008D1*
G36*
X433162Y1468811D2*
X401651D1*
Y1437279D1*
X433162D1*
Y1468811D1*
G37*
G36*
Y1331051D2*
X401651D1*
Y1299519D1*
X433162D1*
Y1331051D1*
G37*
G36*
Y1193292D2*
X401651D1*
Y1161704D1*
X433162D1*
Y1193292D1*
G37*
G36*
Y1055477D2*
X401651D1*
Y1023945D1*
X433162D1*
Y1055477D1*
G37*
X850732Y978071D2*
D10*
X950732D1*
X850732Y893819D2*
X950732D1*
X2073764Y1321969D2*
X2173764D1*
X2073764Y1237717D2*
X2173764D1*
X1501126Y2021966D2*
X1792465D1*
Y1785745D1*
X1501126D1*
Y2021966D1*
X1392858Y1834960D2*
Y1677481D1*
X1235378Y1834960D2*
Y1677481D1*
X1064114Y811374D2*
Y779889D1*
X1162547Y811374D2*
Y779889D1*
X719652Y1303465D2*
X877130D1*
X719652Y1145984D2*
X877130D1*
D58*
X1216732Y1322503D3*
X1266874Y1313302D2*
D10*
Y1195197D1*
X1286559D1*
Y1313302D1*
X1266874D1*
D60*
X984728Y1457939D3*
X971603Y1423538D2*
D10*
X892856D1*
Y1403864D1*
X971603D1*
Y1423538D1*
X1940098Y1356969D2*
X2016870Y1357163D1*
X1940098Y1312717D2*
Y1357204D1*
Y1312912D2*
X2016870D1*
Y1312717D2*
Y1357204D1*
D64*
X1022838Y755090D3*
X968772Y760353D2*
D10*
Y878461D1*
X937282Y760353D2*
Y878461D1*
X968772D2*
X937282D1*
X968772Y760353D2*
X937282D1*
X1046401Y1833975D2*
X1077890D1*
X1046401D2*
Y1676497D1*
X1109402Y1833975D2*
X1140891D1*
X1046401Y1676497D2*
X1140891D1*
Y1833975D1*
X1077890D2*
G03X1109402Y1833975I15756J8D01*
G01*
D72*
X1153346Y1023060D3*
X1158609Y1077125D2*
D10*
X1276717D1*
X1158609Y1108616D2*
X1276717D1*
Y1077125D2*
Y1108616D1*
X1158609Y1077125D2*
Y1108616D1*
X304276Y515662D2*
X835772D1*
Y897542D1*
X304276D1*
Y515662D1*
X2618044Y1172584D2*
X2361794D1*
Y453875D1*
X2618044D1*
Y1172584D1*
X1393420D2*
X1368420D1*
X1368045Y535077D1*
X1368420Y460081D2*
X1393420D1*
X1368420D2*
Y553845D1*
D72*
X1195363Y1331901D3*
X1190100Y1277835D2*
D10*
X1071992D1*
X1190100Y1246345D2*
X1071992D1*
Y1277835D2*
Y1246345D1*
X1190100Y1277835D2*
Y1246345D1*
D64*
X862239Y1000960D3*
X808174Y1006223D2*
D10*
Y1124331D1*
X776683Y1006223D2*
Y1124331D1*
X808174D2*
X776683D1*
X808174Y1006223D2*
X776683D1*
X1690028Y1818343D2*
D168*
Y1783899D1*
X1672828Y1801099D2*
X1707272D1*
X1582277Y1801121D2*
X1604385D1*
X1775954Y1337681D2*
X1793154D1*
X1798902Y1339627D1*
X1800847Y1341528D1*
X1802749Y1345331D1*
Y1349177D1*
X1800847Y1352980D1*
X1798902Y1354925D1*
X1793154Y1356827D1*
X1775954D1*
Y1316635D1*
X1789351Y1337681D2*
X1802749Y1316635D1*
X1841895Y1351079D2*
X1838092Y1354925D1*
X1832344Y1356827D1*
X1824695D1*
X1818947Y1354925D1*
X1815100Y1351079D1*
Y1347276D1*
X1817046Y1343429D1*
X1818947Y1341528D1*
X1822749Y1339627D1*
X1834245Y1335780D1*
X1838092Y1333879D1*
X1839993Y1331933D1*
X1841895Y1328131D1*
Y1322383D1*
X1838092Y1318580D1*
X1832344Y1316635D1*
X1824695D1*
X1818947Y1318580D1*
X1815100Y1322383D1*
X1867643Y1356827D2*
Y1316635D1*
X1854246Y1356827D2*
X1881041D1*
M02*
